%MOMM*%
%FSDAN2X34Y34*%
%AMROTREC*4,1,5,$1,$2,$3,$4,$5,$6,$7,$8,$9,$10,$11,$12,$13*%
%ADD10C,0.0254000*%
%ADD11C,0.1500000*%
%ADD12C,0.7200000*%
%ADD13C,0.8000000*%
%ADD14C,0.9000000*%
%ADD15C,1.0000000*%
%ADD16C,1.1000000*%
%ADD17R,0.9200000X0.4200000*%
%ADD18R,1.0000000X0.5000000*%
%ADD19R,1.1000000X0.6000000*%
%ADD20R,0.4200000X0.9200000*%
%ADD21R,0.5000000X1.0000000*%
%ADD22R,0.9000000X1.0000000*%
%ADD23R,1.0000000X1.0000000*%
%ADD24R,0.6000000X1.1000000*%
%ADD25R,1.0000000X1.1000000*%
%ADD26R,1.1000000X1.1000000*%
%ADD27R,14.0000000X11.5000000*%
G90*G71*G01*D02*G36*X-0109875Y0104500D02*X-0102500Y0097125D01*Y0094500*
X-0104125*X-0111500Y0101875*Y0104500*X-0109875*G37*G36*X-0111500Y0099025D02*
X-0106975Y0094500D01*X-0111250*X-0111500Y0094750*Y0099025*G37*G36*
X-0102500Y0099975D02*X-0107025Y0104500D01*X-0102775*X-0102500Y0104225*Y0099975*
G37*G36*X-0084675Y0072800D02*X-0076800Y0064925D01*Y0062800*X-0078925*
X-0086800Y0070675*Y0072800*X-0084675*G37*G36*X-0086800Y0067825D02*
X-0081775Y0062800D01*X-0086025*X-0086800Y0063575*Y0067825*G37*G36*
X-0076800Y0067775D02*X-0081825Y0072800D01*X-0077575*X-0076800Y0072025*Y0067775*
G37*G36*X0078925Y0072800D02*X0086800Y0064925D01*Y0062800*X0084675*
X0076800Y0070675*Y0072800*X0078925*G37*G36*X0076800Y0067825D02*
X0081825Y0062800D01*X0077575*X0076800Y0063575*Y0067825*G37*G36*
X0086800Y0067775D02*X0081775Y0072800D01*X0086025*X0086800Y0072025*Y0067775*G37*
G36*X-0084675Y-0062800D02*X-0076800Y-0070675D01*Y-0072800*X-0078925*
X-0086800Y-0064925*Y-0062800*X-0084675*G37*G36*X-0086800Y-0067775D02*
X-0081775Y-0072800D01*X-0086025*X-0086800Y-0072025*Y-0067775*G37*G36*
X-0076800Y-0067825D02*X-0081825Y-0062800D01*X-0077575*X-0076800Y-0063575*
Y-0067825*G37*G36*X0078925Y-0062800D02*X0086800Y-0070675D01*Y-0072800*X0084675*
X0076800Y-0064925*Y-0062800*X0078925*G37*G36*X0076800Y-0067775D02*
X0081825Y-0072800D01*X0077575*X0076800Y-0072025*Y-0067775*G37*G36*
X0086800Y-0067825D02*X0081775Y-0062800D01*X0086025*X0086800Y-0063575*Y-0067825*
G37*G36*X0104125Y0104500D02*X0111500Y0097125D01*Y0094500*X0109875*
X0102500Y0101875*Y0104500*X0104125*G37*G36*X0102500Y0099025D02*
X0107025Y0094500D01*X0102750*X0102500Y0094750*Y0099025*G37*G36*
X0111500Y0099975D02*X0106975Y0104500D01*X0111225*X0111500Y0104225*Y0099975*G37*
G36*X0104125Y-0094500D02*X0111500Y-0101875D01*Y-0104500*X0109875*
X0102500Y-0097125*Y-0094500*X0104125*G37*G36*X0102500Y-0099975D02*
X0107025Y-0104500D01*X0102750*X0102500Y-0104250*Y-0099975*G37*G36*
X0111500Y-0099025D02*X0106975Y-0094500D01*X0111225*X0111500Y-0094775*Y-0099025*
G37*G36*X-0104125Y-0104500D02*X-0111500Y-0097125D01*Y-0094500*X-0109875*
X-0102500Y-0101875*Y-0104500*X-0104125*G37*G36*X-0102500Y-0099025D02*
X-0107025Y-0094500D01*X-0102750*X-0102500Y-0094750*Y-0099025*G37*G36*
X-0111500Y-0099975D02*X-0106975Y-0104500D01*X-0111225*X-0111500Y-0104225*
Y-0099975*G37*G36*X-0066750Y-0046625D02*X-0058875Y-0054500D01*Y-0056625*
X-0061000*X-0068875Y-0048750*Y-0046625*X-0066750*G37*G36*X-0068875Y-0051600D02*
X-0063850Y-0056625D01*X-0068100*X-0068875Y-0055850*Y-0051600*G37*G36*
X-0058875Y-0051650D02*X-0063900Y-0046625D01*X-0059650*X-0058875Y-0047400*
Y-0051650*G37*G36*X-0066750Y-0031875D02*X-0058875Y-0039750D01*Y-0041875*
X-0061000*X-0068875Y-0034000*Y-0031875*X-0066750*G37*G36*X-0068875Y-0036850D02*
X-0063850Y-0041875D01*X-0068100*X-0068875Y-0041100*Y-0036850*G37*G36*
X-0058875Y-0036900D02*X-0063900Y-0031875D01*X-0059650*X-0058875Y-0032650*
Y-0036900*G37*G36*X-0066750Y-0017125D02*X-0058875Y-0025000D01*Y-0027125*
X-0061000*X-0068875Y-0019250*Y-0017125*X-0066750*G37*G36*X-0068875Y-0022100D02*
X-0063850Y-0027125D01*X-0068100*X-0068875Y-0026350*Y-0022100*G37*G36*
X-0058875Y-0022150D02*X-0063900Y-0017125D01*X-0059650*X-0058875Y-0017900*
Y-0022150*G37*G36*X-0066750Y-0002375D02*X-0058875Y-0010250D01*Y-0012375*
X-0061000*X-0068875Y-0004500*Y-0002375*X-0066750*G37*G36*X-0068875Y-0007350D02*
X-0063850Y-0012375D01*X-0068100*X-0068875Y-0011600*Y-0007350*G37*G36*
X-0058875Y-0007400D02*X-0063900Y-0002375D01*X-0059650*X-0058875Y-0003150*
Y-0007400*G37*G36*X-0066750Y0012375D02*X-0058875Y0004500D01*Y0002375*X-0061000*
X-0068875Y0010250*Y0012375*X-0066750*G37*G36*X-0068875Y0007400D02*
X-0063850Y0002375D01*X-0068100*X-0068875Y0003150*Y0007400*G37*G36*
X-0058875Y0007350D02*X-0063900Y0012375D01*X-0059650*X-0058875Y0011600*Y0007350*
G37*G36*X-0066750Y0027125D02*X-0058875Y0019250D01*Y0017125*X-0061000*
X-0068875Y0025000*Y0027125*X-0066750*G37*G36*X-0068875Y0022150D02*
X-0063850Y0017125D01*X-0068100*X-0068875Y0017900*Y0022150*G37*G36*
X-0058875Y0022100D02*X-0063900Y0027125D01*X-0059650*X-0058875Y0026350*Y0022100*
G37*G36*X-0066750Y0041875D02*X-0058875Y0034000D01*Y0031875*X-0061000*
X-0068875Y0039750*Y0041875*X-0066750*G37*G36*X-0068875Y0036900D02*
X-0063850Y0031875D01*X-0068100*X-0068875Y0032650*Y0036900*G37*G36*
X-0058875Y0036850D02*X-0063900Y0041875D01*X-0059650*X-0058875Y0041100*Y0036850*
G37*G36*X-0066750Y0056625D02*X-0058875Y0048750D01*Y0046625*X-0061000*
X-0068875Y0054500*Y0056625*X-0066750*G37*G36*X-0068875Y0051650D02*
X-0063850Y0046625D01*X-0068100*X-0068875Y0047400*Y0051650*G37*G36*
X-0058875Y0051600D02*X-0063900Y0056625D01*X-0059650*X-0058875Y0055850*Y0051600*
G37*G36*X-0048500Y0056625D02*X-0040625Y0048750D01*Y0046625*X-0042750*
X-0050625Y0054500*Y0056625*X-0048500*G37*G36*X-0050625Y0051650D02*
X-0045600Y0046625D01*X-0049850*X-0050625Y0047400*Y0051650*G37*G36*
X-0040625Y0051600D02*X-0045650Y0056625D01*X-0041400*X-0040625Y0055850*Y0051600*
G37*G36*X-0048500Y0041875D02*X-0040625Y0034000D01*Y0031875*X-0042750*
X-0050625Y0039750*Y0041875*X-0048500*G37*G36*X-0050625Y0036900D02*
X-0045600Y0031875D01*X-0049850*X-0050625Y0032650*Y0036900*G37*G36*
X-0040625Y0036850D02*X-0045650Y0041875D01*X-0041400*X-0040625Y0041100*Y0036850*
G37*G36*X-0048500Y0027125D02*X-0040625Y0019250D01*Y0017125*X-0042750*
X-0050625Y0025000*Y0027125*X-0048500*G37*G36*X-0050625Y0022150D02*
X-0045600Y0017125D01*X-0049850*X-0050625Y0017900*Y0022150*G37*G36*
X-0040625Y0022100D02*X-0045650Y0027125D01*X-0041400*X-0040625Y0026350*Y0022100*
G37*G36*X-0048500Y0012375D02*X-0040625Y0004500D01*Y0002375*X-0042750*
X-0050625Y0010250*Y0012375*X-0048500*G37*G36*X-0050625Y0007400D02*
X-0045600Y0002375D01*X-0049850*X-0050625Y0003150*Y0007400*G37*G36*
X-0040625Y0007350D02*X-0045650Y0012375D01*X-0041400*X-0040625Y0011600*Y0007350*
G37*G36*X-0048500Y-0002375D02*X-0040625Y-0010250D01*Y-0012375*X-0042750*
X-0050625Y-0004500*Y-0002375*X-0048500*G37*G36*X-0050625Y-0007350D02*
X-0045600Y-0012375D01*X-0049850*X-0050625Y-0011600*Y-0007350*G37*G36*
X-0040625Y-0007400D02*X-0045650Y-0002375D01*X-0041400*X-0040625Y-0003150*
Y-0007400*G37*G36*X-0048500Y-0017125D02*X-0040625Y-0025000D01*Y-0027125*
X-0042750*X-0050625Y-0019250*Y-0017125*X-0048500*G37*G36*X-0050625Y-0022100D02*
X-0045600Y-0027125D01*X-0049850*X-0050625Y-0026350*Y-0022100*G37*G36*
X-0040625Y-0022150D02*X-0045650Y-0017125D01*X-0041400*X-0040625Y-0017900*
Y-0022150*G37*G36*X-0048500Y-0031875D02*X-0040625Y-0039750D01*Y-0041875*
X-0042750*X-0050625Y-0034000*Y-0031875*X-0048500*G37*G36*X-0050625Y-0036850D02*
X-0045600Y-0041875D01*X-0049850*X-0050625Y-0041100*Y-0036850*G37*G36*
X-0040625Y-0036900D02*X-0045650Y-0031875D01*X-0041400*X-0040625Y-0032650*
Y-0036900*G37*G36*X-0048500Y-0046625D02*X-0040625Y-0054500D01*Y-0056625*
X-0042750*X-0050625Y-0048750*Y-0046625*X-0048500*G37*G36*X-0050625Y-0051600D02*
X-0045600Y-0056625D01*X-0049850*X-0050625Y-0055850*Y-0051600*G37*G36*
X-0040625Y-0051650D02*X-0045650Y-0046625D01*X-0041400*X-0040625Y-0047400*
Y-0051650*G37*G36*X-0030250Y-0046625D02*X-0022375Y-0054500D01*Y-0056625*
X-0024500*X-0032375Y-0048750*Y-0046625*X-0030250*G37*G36*X-0032375Y-0051600D02*
X-0027350Y-0056625D01*X-0031600*X-0032375Y-0055850*Y-0051600*G37*G36*
X-0022375Y-0051650D02*X-0027400Y-0046625D01*X-0023150*X-0022375Y-0047400*
Y-0051650*G37*G36*X-0012000Y-0046625D02*X-0004125Y-0054500D01*Y-0056625*
X-0006250*X-0014125Y-0048750*Y-0046625*X-0012000*G37*G36*X-0014125Y-0051600D02*
X-0009100Y-0056625D01*X-0013350*X-0014125Y-0055850*Y-0051600*G37*G36*
X-0004125Y-0051650D02*X-0009150Y-0046625D01*X-0004900*X-0004125Y-0047400*
Y-0051650*G37*G36*X0006250Y-0046625D02*X0014125Y-0054500D01*Y-0056625*X0012000*
X0004125Y-0048750*Y-0046625*X0006250*G37*G36*X0004125Y-0051600D02*
X0009150Y-0056625D01*X0004900*X0004125Y-0055850*Y-0051600*G37*G36*
X0014125Y-0051650D02*X0009100Y-0046625D01*X0013350*X0014125Y-0047400*Y-0051650*
G37*G36*X0024500Y-0046625D02*X0032375Y-0054500D01*Y-0056625*X0030250*
X0022375Y-0048750*Y-0046625*X0024500*G37*G36*X0022375Y-0051600D02*
X0027400Y-0056625D01*X0023150*X0022375Y-0055850*Y-0051600*G37*G36*
X0032375Y-0051650D02*X0027350Y-0046625D01*X0031600*X0032375Y-0047400*Y-0051650*
G37*G36*X-0030250Y-0031875D02*X-0022375Y-0039750D01*Y-0041875*X-0024500*
X-0032375Y-0034000*Y-0031875*X-0030250*G37*G36*X-0032375Y-0036850D02*
X-0027350Y-0041875D01*X-0031600*X-0032375Y-0041100*Y-0036850*G37*G36*
X-0022375Y-0036900D02*X-0027400Y-0031875D01*X-0023150*X-0022375Y-0032650*
Y-0036900*G37*G36*X-0012000Y-0031875D02*X-0004125Y-0039750D01*Y-0041875*
X-0006250*X-0014125Y-0034000*Y-0031875*X-0012000*G37*G36*X-0014125Y-0036850D02*
X-0009100Y-0041875D01*X-0013350*X-0014125Y-0041100*Y-0036850*G37*G36*
X-0004125Y-0036900D02*X-0009150Y-0031875D01*X-0004900*X-0004125Y-0032650*
Y-0036900*G37*G36*X0006250Y-0031875D02*X0014125Y-0039750D01*Y-0041875*X0012000*
X0004125Y-0034000*Y-0031875*X0006250*G37*G36*X0004125Y-0036850D02*
X0009150Y-0041875D01*X0004900*X0004125Y-0041100*Y-0036850*G37*G36*
X0014125Y-0036900D02*X0009100Y-0031875D01*X0013350*X0014125Y-0032650*Y-0036900*
G37*G36*X-0030250Y-0017125D02*X-0022375Y-0025000D01*Y-0027125*X-0024500*
X-0032375Y-0019250*Y-0017125*X-0030250*G37*G36*X-0032375Y-0022100D02*
X-0027350Y-0027125D01*X-0031600*X-0032375Y-0026350*Y-0022100*G37*G36*
X-0022375Y-0022150D02*X-0027400Y-0017125D01*X-0023150*X-0022375Y-0017900*
Y-0022150*G37*G36*X-0012000Y-0017125D02*X-0004125Y-0025000D01*Y-0027125*
X-0006250*X-0014125Y-0019250*Y-0017125*X-0012000*G37*G36*X-0014125Y-0022100D02*
X-0009100Y-0027125D01*X-0013350*X-0014125Y-0026350*Y-0022100*G37*G36*
X-0004125Y-0022150D02*X-0009150Y-0017125D01*X-0004900*X-0004125Y-0017900*
Y-0022150*G37*G36*X0006250Y-0017125D02*X0014125Y-0025000D01*Y-0027125*X0012000*
X0004125Y-0019250*Y-0017125*X0006250*G37*G36*X0004125Y-0022100D02*
X0009150Y-0027125D01*X0004900*X0004125Y-0026350*Y-0022100*G37*G36*
X0014125Y-0022150D02*X0009100Y-0017125D01*X0013350*X0014125Y-0017900*Y-0022150*
G37*G36*X0024500Y-0017125D02*X0032375Y-0025000D01*Y-0027125*X0030250*
X0022375Y-0019250*Y-0017125*X0024500*G37*G36*X0022375Y-0022100D02*
X0027400Y-0027125D01*X0023150*X0022375Y-0026350*Y-0022100*G37*G36*
X0032375Y-0022150D02*X0027350Y-0017125D01*X0031600*X0032375Y-0017900*Y-0022150*
G37*G36*X0024500Y-0031875D02*X0032375Y-0039750D01*Y-0041875*X0030250*
X0022375Y-0034000*Y-0031875*X0024500*G37*G36*X0022375Y-0036850D02*
X0027400Y-0041875D01*X0023150*X0022375Y-0041100*Y-0036850*G37*G36*
X0032375Y-0036900D02*X0027350Y-0031875D01*X0031600*X0032375Y-0032650*Y-0036900*
G37*G36*X0042750Y-0046625D02*X0050625Y-0054500D01*Y-0056625*X0048500*
X0040625Y-0048750*Y-0046625*X0042750*G37*G36*X0040625Y-0051600D02*
X0045650Y-0056625D01*X0041400*X0040625Y-0055850*Y-0051600*G37*G36*
X0050625Y-0051650D02*X0045600Y-0046625D01*X0049850*X0050625Y-0047400*Y-0051650*
G37*G36*X0061000Y-0046625D02*X0068875Y-0054500D01*Y-0056625*X0066750*
X0058875Y-0048750*Y-0046625*X0061000*G37*G36*X0058875Y-0051600D02*
X0063900Y-0056625D01*X0059650*X0058875Y-0055850*Y-0051600*G37*G36*
X0068875Y-0051650D02*X0063850Y-0046625D01*X0068100*X0068875Y-0047400*Y-0051650*
G37*G36*X0042750Y-0031875D02*X0050625Y-0039750D01*Y-0041875*X0048500*
X0040625Y-0034000*Y-0031875*X0042750*G37*G36*X0040625Y-0036850D02*
X0045650Y-0041875D01*X0041400*X0040625Y-0041100*Y-0036850*G37*G36*
X0050625Y-0036900D02*X0045600Y-0031875D01*X0049850*X0050625Y-0032650*Y-0036900*
G37*G36*X0061000Y-0031875D02*X0068875Y-0039750D01*Y-0041875*X0066750*
X0058875Y-0034000*Y-0031875*X0061000*G37*G36*X0058875Y-0036850D02*
X0063900Y-0041875D01*X0059650*X0058875Y-0041100*Y-0036850*G37*G36*
X0068875Y-0036900D02*X0063850Y-0031875D01*X0068100*X0068875Y-0032650*Y-0036900*
G37*G36*X0042750Y-0017125D02*X0050625Y-0025000D01*Y-0027125*X0048500*
X0040625Y-0019250*Y-0017125*X0042750*G37*G36*X0040625Y-0022100D02*
X0045650Y-0027125D01*X0041400*X0040625Y-0026350*Y-0022100*G37*G36*
X0050625Y-0022150D02*X0045600Y-0017125D01*X0049850*X0050625Y-0017900*Y-0022150*
G37*G36*X0061000Y-0017125D02*X0068875Y-0025000D01*Y-0027125*X0066750*
X0058875Y-0019250*Y-0017125*X0061000*G37*G36*X0058875Y-0022100D02*
X0063900Y-0027125D01*X0059650*X0058875Y-0026350*Y-0022100*G37*G36*
X0068875Y-0022150D02*X0063850Y-0017125D01*X0068100*X0068875Y-0017900*Y-0022150*
G37*G36*X0061000Y-0002375D02*X0068875Y-0010250D01*Y-0012375*X0066750*
X0058875Y-0004500*Y-0002375*X0061000*G37*G36*X0058875Y-0007350D02*
X0063900Y-0012375D01*X0059650*X0058875Y-0011600*Y-0007350*G37*G36*
X0068875Y-0007400D02*X0063850Y-0002375D01*X0068100*X0068875Y-0003150*Y-0007400*
G37*G36*X0042750Y-0002375D02*X0050625Y-0010250D01*Y-0012375*X0048500*
X0040625Y-0004500*Y-0002375*X0042750*G37*G36*X0040625Y-0007350D02*
X0045650Y-0012375D01*X0041400*X0040625Y-0011600*Y-0007350*G37*G36*
X0050625Y-0007400D02*X0045600Y-0002375D01*X0049850*X0050625Y-0003150*Y-0007400*
G37*G36*X0061000Y0012375D02*X0068875Y0004500D01*Y0002375*X0066750*
X0058875Y0010250*Y0012375*X0061000*G37*G36*X0058875Y0007400D02*
X0063900Y0002375D01*X0059650*X0058875Y0003150*Y0007400*G37*G36*
X0068875Y0007350D02*X0063850Y0012375D01*X0068100*X0068875Y0011600*Y0007350*G37*
G36*X0042750Y0012375D02*X0050625Y0004500D01*Y0002375*X0048500*X0040625Y0010250*
Y0012375*X0042750*G37*G36*X0040625Y0007400D02*X0045650Y0002375D01*X0041400*
X0040625Y0003150*Y0007400*G37*G36*X0050625Y0007350D02*X0045600Y0012375D01*
X0049850*X0050625Y0011600*Y0007350*G37*G36*X0024500Y-0002375D02*
X0032375Y-0010250D01*Y-0012375*X0030250*X0022375Y-0004500*Y-0002375*X0024500*
G37*G36*X0022375Y-0007350D02*X0027400Y-0012375D01*X0023150*X0022375Y-0011600*
Y-0007350*G37*G36*X0032375Y-0007400D02*X0027350Y-0002375D01*X0031600*
X0032375Y-0003150*Y-0007400*G37*G36*X0006250Y-0002375D02*X0014125Y-0010250D01*
Y-0012375*X0012000*X0004125Y-0004500*Y-0002375*X0006250*G37*G36*
X0004125Y-0007350D02*X0009150Y-0012375D01*X0004900*X0004125Y-0011600*Y-0007350*
G37*G36*X0014125Y-0007400D02*X0009100Y-0002375D01*X0013350*X0014125Y-0003150*
Y-0007400*G37*G36*X-0012000Y-0002375D02*X-0004125Y-0010250D01*Y-0012375*
X-0006250*X-0014125Y-0004500*Y-0002375*X-0012000*G37*G36*X-0014125Y-0007350D02*
X-0009100Y-0012375D01*X-0013350*X-0014125Y-0011600*Y-0007350*G37*G36*
X-0004125Y-0007400D02*X-0009150Y-0002375D01*X-0004900*X-0004125Y-0003150*
Y-0007400*G37*G36*X-0030250Y-0002375D02*X-0022375Y-0010250D01*Y-0012375*
X-0024500*X-0032375Y-0004500*Y-0002375*X-0030250*G37*G36*X-0032375Y-0007350D02*
X-0027350Y-0012375D01*X-0031600*X-0032375Y-0011600*Y-0007350*G37*G36*
X-0022375Y-0007400D02*X-0027400Y-0002375D01*X-0023150*X-0022375Y-0003150*
Y-0007400*G37*G36*X-0030250Y0012375D02*X-0022375Y0004500D01*Y0002375*X-0024500*
X-0032375Y0010250*Y0012375*X-0030250*G37*G36*X-0032375Y0007400D02*
X-0027350Y0002375D01*X-0031600*X-0032375Y0003150*Y0007400*G37*G36*
X-0022375Y0007350D02*X-0027400Y0012375D01*X-0023150*X-0022375Y0011600*Y0007350*
G37*G36*X-0012000Y0012375D02*X-0004125Y0004500D01*Y0002375*X-0006250*
X-0014125Y0010250*Y0012375*X-0012000*G37*G36*X-0014125Y0007400D02*
X-0009100Y0002375D01*X-0013350*X-0014125Y0003150*Y0007400*G37*G36*
X-0004125Y0007350D02*X-0009150Y0012375D01*X-0004900*X-0004125Y0011600*Y0007350*
G37*G36*X0006250Y0012375D02*X0014125Y0004500D01*Y0002375*X0012000*
X0004125Y0010250*Y0012375*X0006250*G37*G36*X0004125Y0007400D02*
X0009150Y0002375D01*X0004900*X0004125Y0003150*Y0007400*G37*G36*
X0014125Y0007350D02*X0009100Y0012375D01*X0013350*X0014125Y0011600*Y0007350*G37*
G36*X0024500Y0012375D02*X0032375Y0004500D01*Y0002375*X0030250*X0022375Y0010250*
Y0012375*X0024500*G37*G36*X0022375Y0007400D02*X0027400Y0002375D01*X0023150*
X0022375Y0003150*Y0007400*G37*G36*X0032375Y0007350D02*X0027350Y0012375D01*
X0031600*X0032375Y0011600*Y0007350*G37*G36*X-0030250Y0027125D02*
X-0022375Y0019250D01*Y0017125*X-0024500*X-0032375Y0025000*Y0027125*X-0030250*
G37*G36*X-0032375Y0022150D02*X-0027350Y0017125D01*X-0031600*X-0032375Y0017900*
Y0022150*G37*G36*X-0022375Y0022100D02*X-0027400Y0027125D01*X-0023150*
X-0022375Y0026350*Y0022100*G37*G36*X-0030250Y0041875D02*X-0022375Y0034000D01*
Y0031875*X-0024500*X-0032375Y0039750*Y0041875*X-0030250*G37*G36*
X-0032375Y0036900D02*X-0027350Y0031875D01*X-0031600*X-0032375Y0032650*Y0036900*
G37*G36*X-0022375Y0036850D02*X-0027400Y0041875D01*X-0023150*X-0022375Y0041100*
Y0036850*G37*G36*X-0030250Y0056625D02*X-0022375Y0048750D01*Y0046625*X-0024500*
X-0032375Y0054500*Y0056625*X-0030250*G37*G36*X-0032375Y0051650D02*
X-0027350Y0046625D01*X-0031600*X-0032375Y0047400*Y0051650*G37*G36*
X-0022375Y0051600D02*X-0027400Y0056625D01*X-0023150*X-0022375Y0055850*Y0051600*
G37*G36*X-0012000Y0056625D02*X-0004125Y0048750D01*Y0046625*X-0006250*
X-0014125Y0054500*Y0056625*X-0012000*G37*G36*X-0014125Y0051650D02*
X-0009100Y0046625D01*X-0013350*X-0014125Y0047400*Y0051650*G37*G36*
X-0004125Y0051600D02*X-0009150Y0056625D01*X-0004900*X-0004125Y0055850*Y0051600*
G37*G36*X-0012000Y0041875D02*X-0004125Y0034000D01*Y0031875*X-0006250*
X-0014125Y0039750*Y0041875*X-0012000*G37*G36*X-0014125Y0036900D02*
X-0009100Y0031875D01*X-0013350*X-0014125Y0032650*Y0036900*G37*G36*
X-0004125Y0036850D02*X-0009150Y0041875D01*X-0004900*X-0004125Y0041100*Y0036850*
G37*G36*X-0012000Y0027125D02*X-0004125Y0019250D01*Y0017125*X-0006250*
X-0014125Y0025000*Y0027125*X-0012000*G37*G36*X-0014125Y0022150D02*
X-0009100Y0017125D01*X-0013350*X-0014125Y0017900*Y0022150*G37*G36*
X-0004125Y0022100D02*X-0009150Y0027125D01*X-0004900*X-0004125Y0026350*Y0022100*
G37*G36*X0006250Y0027125D02*X0014125Y0019250D01*Y0017125*X0012000*
X0004125Y0025000*Y0027125*X0006250*G37*G36*X0004125Y0022150D02*
X0009150Y0017125D01*X0004900*X0004125Y0017900*Y0022150*G37*G36*
X0014125Y0022100D02*X0009100Y0027125D01*X0013350*X0014125Y0026350*Y0022100*G37*
G36*X0006250Y0041875D02*X0014125Y0034000D01*Y0031875*X0012000*X0004125Y0039750*
Y0041875*X0006250*G37*G36*X0004125Y0036900D02*X0009150Y0031875D01*X0004900*
X0004125Y0032650*Y0036900*G37*G36*X0014125Y0036850D02*X0009100Y0041875D01*
X0013350*X0014125Y0041100*Y0036850*G37*G36*X0006250Y0056625D02*
X0014125Y0048750D01*Y0046625*X0012000*X0004125Y0054500*Y0056625*X0006250*G37*
G36*X0004125Y0051650D02*X0009150Y0046625D01*X0004900*X0004125Y0047400*Y0051650*
G37*G36*X0014125Y0051600D02*X0009100Y0056625D01*X0013350*X0014125Y0055850*
Y0051600*G37*G36*X0024500Y0027125D02*X0032375Y0019250D01*Y0017125*X0030250*
X0022375Y0025000*Y0027125*X0024500*G37*G36*X0022375Y0022150D02*
X0027400Y0017125D01*X0023150*X0022375Y0017900*Y0022150*G37*G36*
X0032375Y0022100D02*X0027350Y0027125D01*X0031600*X0032375Y0026350*Y0022100*G37*
G36*X0024500Y0041875D02*X0032375Y0034000D01*Y0031875*X0030250*X0022375Y0039750*
Y0041875*X0024500*G37*G36*X0022375Y0036900D02*X0027400Y0031875D01*X0023150*
X0022375Y0032650*Y0036900*G37*G36*X0032375Y0036850D02*X0027350Y0041875D01*
X0031600*X0032375Y0041100*Y0036850*G37*G36*X0024500Y0056625D02*
X0032375Y0048750D01*Y0046625*X0030250*X0022375Y0054500*Y0056625*X0024500*G37*
G36*X0022375Y0051650D02*X0027400Y0046625D01*X0023150*X0022375Y0047400*Y0051650*
G37*G36*X0032375Y0051600D02*X0027350Y0056625D01*X0031600*X0032375Y0055850*
Y0051600*G37*G36*X0042750Y0056625D02*X0050625Y0048750D01*Y0046625*X0048500*
X0040625Y0054500*Y0056625*X0042750*G37*G36*X0040625Y0051650D02*
X0045650Y0046625D01*X0041400*X0040625Y0047400*Y0051650*G37*G36*
X0050625Y0051600D02*X0045600Y0056625D01*X0049850*X0050625Y0055850*Y0051600*G37*
G36*X0042750Y0041875D02*X0050625Y0034000D01*Y0031875*X0048500*X0040625Y0039750*
Y0041875*X0042750*G37*G36*X0040625Y0036900D02*X0045650Y0031875D01*X0041400*
X0040625Y0032650*Y0036900*G37*G36*X0050625Y0036850D02*X0045600Y0041875D01*
X0049850*X0050625Y0041100*Y0036850*G37*G36*X0042750Y0027125D02*
X0050625Y0019250D01*Y0017125*X0048500*X0040625Y0025000*Y0027125*X0042750*G37*
G36*X0040625Y0022150D02*X0045650Y0017125D01*X0041400*X0040625Y0017900*Y0022150*
G37*G36*X0050625Y0022100D02*X0045600Y0027125D01*X0049850*X0050625Y0026350*
Y0022100*G37*G36*X0061000Y0027125D02*X0068875Y0019250D01*Y0017125*X0066750*
X0058875Y0025000*Y0027125*X0061000*G37*G36*X0058875Y0022150D02*
X0063900Y0017125D01*X0059650*X0058875Y0017900*Y0022150*G37*G36*
X0068875Y0022100D02*X0063850Y0027125D01*X0068100*X0068875Y0026350*Y0022100*G37*
G36*X0061000Y0041875D02*X0068875Y0034000D01*Y0031875*X0066750*X0058875Y0039750*
Y0041875*X0061000*G37*G36*X0058875Y0036900D02*X0063900Y0031875D01*X0059650*
X0058875Y0032650*Y0036900*G37*G36*X0068875Y0036850D02*X0063850Y0041875D01*
X0068100*X0068875Y0041100*Y0036850*G37*G36*X0061000Y0056625D02*
X0068875Y0048750D01*Y0046625*X0066750*X0058875Y0054500*Y0056625*X0061000*G37*
G36*X0058875Y0051650D02*X0063900Y0046625D01*X0059650*X0058875Y0047400*Y0051650*
G37*G36*X0068875Y0051600D02*X0063850Y0056625D01*X0068100*X0068875Y0055850*
Y0051600*G37*G54D20*X-0004000Y-0067800D03*X0004000D03*X0012000D03*X-0012000D03*
X-0020000D03*X0020000D03*X-0028000D03*X0028000D03*X0036000D03*X-0036000D03*
X-0044000D03*X-0052000D03*X-0060000D03*X-0068000D03*X0044000D03*X0052000D03*
X0060000D03*X0068000D03*X-0004000Y0067800D03*X0004000D03*X0012000D03*
X0020000D03*X0028000D03*X0036000D03*X0044000D03*X0052000D03*X0060000D03*
X0068000D03*X-0012000D03*X-0020000D03*X-0028000D03*X-0036000D03*X-0044000D03*
X-0052000D03*X-0060000D03*X-0068000D03*G54D17*X-0081800Y-0056000D03*
Y-0048000D03*Y-0040000D03*Y-0032000D03*Y-0024000D03*Y-0016000D03*Y-0008000D03*
Y0000000D03*Y0008000D03*Y0016000D03*Y0024000D03*Y0032000D03*Y0040000D03*
Y0048000D03*Y0056000D03*X0081800D03*Y0048000D03*Y0040000D03*Y0032000D03*
Y0024000D03*Y0016000D03*Y0008000D03*Y0000000D03*Y-0008000D03*Y-0016000D03*
Y-0024000D03*Y-0032000D03*Y-0040000D03*Y-0048000D03*Y-0056000D03*G54D12*
X-0064000Y-0084800D03*X-0052000D03*X-0040000D03*X-0028000D03*X-0016000D03*
X-0004000D03*X0008000D03*M02*
