0
SECTION
2
ENTITIES
0
CIRCLE
8
SILKSCREEN
10
-6.800000
20
-11.900000
40
0.500000
0
POLYLINE
8
SILKSCREEN
66
1
70
0
40
0.150000
41
0.150000
0
VERTEX
8
SILKSCREEN
10
-11.575000
20
11.075000
0
VERTEX
8
SILKSCREEN
10
11.575000
20
11.075000
0
VERTEX
8
SILKSCREEN
10
11.575000
20
-11.075000
0
VERTEX
8
SILKSCREEN
10
-11.575000
20
-11.075000
0
VERTEX
8
SILKSCREEN
10
-11.575000
20
11.075000
0
SEQEND
0
POLYLINE
8
DRAWING
66
1
70
0
40
0.000000
41
0.000000
0
VERTEX
8
DRAWING
10
-11.500000
20
11.000000
0
VERTEX
8
DRAWING
10
11.500000
20
11.000000
0
VERTEX
8
DRAWING
10
11.500000
20
-11.000000
0
VERTEX
8
DRAWING
10
-11.500000
20
-11.000000
0
VERTEX
8
DRAWING
10
-11.500000
20
11.000000
0
SEQEND
0
CIRCLE
8
SOLDER_MASK
10
-8.180000
20
-8.280000
40
0.550000
0
CIRCLE
8
SOLDER_MASK
10
-6.400000
20
-8.480000
40
0.450000
0
CIRCLE
8
SOLDER_MASK
10
-5.200000
20
-8.480000
40
0.450000
0
CIRCLE
8
SOLDER_MASK
10
-4.000000
20
-8.480000
40
0.450000
0
CIRCLE
8
SOLDER_MASK
10
-2.800000
20
-8.480000
40
0.450000
0
CIRCLE
8
SOLDER_MASK
10
-1.600000
20
-8.480000
40
0.450000
0
CIRCLE
8
SOLDER_MASK
10
-0.400000
20
-8.480000
40
0.450000
0
CIRCLE
8
SOLDER_MASK
10
0.800000
20
-8.480000
40
0.450000
0
POLYLINE
8
SOLDER_MASK
66
1
70
32
0
VERTEX
8
SOLDER_MASK
10
-0.100000
20
-6.230000
0
VERTEX
8
SOLDER_MASK
10
-0.100000
20
-7.330000
0
VERTEX
8
SOLDER_MASK
10
-0.700000
20
-7.330000
0
VERTEX
8
SOLDER_MASK
10
-0.700000
20
-6.230000
0
VERTEX
8
SOLDER_MASK
10
-0.100000
20
-6.230000
0
SEQEND
0
POLYLINE
8
SOLDER_MASK
66
1
70
32
0
VERTEX
8
SOLDER_MASK
10
0.700000
20
-6.230000
0
VERTEX
8
SOLDER_MASK
10
0.700000
20
-7.330000
0
VERTEX
8
SOLDER_MASK
10
0.100000
20
-7.330000
0
VERTEX
8
SOLDER_MASK
10
0.100000
20
-6.230000
0
VERTEX
8
SOLDER_MASK
10
0.700000
20
-6.230000
0
SEQEND
0
POLYLINE
8
SOLDER_MASK
66
1
70
32
0
VERTEX
8
SOLDER_MASK
10
1.500000
20
-6.230000
0
VERTEX
8
SOLDER_MASK
10
1.500000
20
-7.330000
0
VERTEX
8
SOLDER_MASK
10
0.900000
20
-7.330000
0
VERTEX
8
SOLDER_MASK
10
0.900000
20
-6.230000
0
VERTEX
8
SOLDER_MASK
10
1.500000
20
-6.230000
0
SEQEND
0
POLYLINE
8
SOLDER_MASK
66
1
70
32
0
VERTEX
8
SOLDER_MASK
10
-0.900000
20
-6.230000
0
VERTEX
8
SOLDER_MASK
10
-0.900000
20
-7.330000
0
VERTEX
8
SOLDER_MASK
10
-1.500000
20
-7.330000
0
VERTEX
8
SOLDER_MASK
10
-1.500000
20
-6.230000
0
VERTEX
8
SOLDER_MASK
10
-0.900000
20
-6.230000
0
SEQEND
0
POLYLINE
8
SOLDER_MASK
66
1
70
32
0
VERTEX
8
SOLDER_MASK
10
-1.700000
20
-6.230000
0
VERTEX
8
SOLDER_MASK
10
-1.700000
20
-7.330000
0
VERTEX
8
SOLDER_MASK
10
-2.300000
20
-7.330000
0
VERTEX
8
SOLDER_MASK
10
-2.300000
20
-6.230000
0
VERTEX
8
SOLDER_MASK
10
-1.700000
20
-6.230000
0
SEQEND
0
POLYLINE
8
SOLDER_MASK
66
1
70
32
0
VERTEX
8
SOLDER_MASK
10
2.300000
20
-6.230000
0
VERTEX
8
SOLDER_MASK
10
2.300000
20
-7.330000
0
VERTEX
8
SOLDER_MASK
10
1.700000
20
-7.330000
0
VERTEX
8
SOLDER_MASK
10
1.700000
20
-6.230000
0
VERTEX
8
SOLDER_MASK
10
2.300000
20
-6.230000
0
SEQEND
0
POLYLINE
8
SOLDER_MASK
66
1
70
32
0
VERTEX
8
SOLDER_MASK
10
-2.500000
20
-6.230000
0
VERTEX
8
SOLDER_MASK
10
-2.500000
20
-7.330000
0
VERTEX
8
SOLDER_MASK
10
-3.100000
20
-7.330000
0
VERTEX
8
SOLDER_MASK
10
-3.100000
20
-6.230000
0
VERTEX
8
SOLDER_MASK
10
-2.500000
20
-6.230000
0
SEQEND
0
POLYLINE
8
SOLDER_MASK
66
1
70
32
0
VERTEX
8
SOLDER_MASK
10
3.100000
20
-6.230000
0
VERTEX
8
SOLDER_MASK
10
3.100000
20
-7.330000
0
VERTEX
8
SOLDER_MASK
10
2.500000
20
-7.330000
0
VERTEX
8
SOLDER_MASK
10
2.500000
20
-6.230000
0
VERTEX
8
SOLDER_MASK
10
3.100000
20
-6.230000
0
SEQEND
0
POLYLINE
8
SOLDER_MASK
66
1
70
32
0
VERTEX
8
SOLDER_MASK
10
3.900000
20
-6.230000
0
VERTEX
8
SOLDER_MASK
10
3.900000
20
-7.330000
0
VERTEX
8
SOLDER_MASK
10
3.300000
20
-7.330000
0
VERTEX
8
SOLDER_MASK
10
3.300000
20
-6.230000
0
VERTEX
8
SOLDER_MASK
10
3.900000
20
-6.230000
0
SEQEND
0
POLYLINE
8
SOLDER_MASK
66
1
70
32
0
VERTEX
8
SOLDER_MASK
10
-3.300000
20
-6.230000
0
VERTEX
8
SOLDER_MASK
10
-3.300000
20
-7.330000
0
VERTEX
8
SOLDER_MASK
10
-3.900000
20
-7.330000
0
VERTEX
8
SOLDER_MASK
10
-3.900000
20
-6.230000
0
VERTEX
8
SOLDER_MASK
10
-3.300000
20
-6.230000
0
SEQEND
0
POLYLINE
8
SOLDER_MASK
66
1
70
32
0
VERTEX
8
SOLDER_MASK
10
-4.100000
20
-6.230000
0
VERTEX
8
SOLDER_MASK
10
-4.100000
20
-7.330000
0
VERTEX
8
SOLDER_MASK
10
-4.700000
20
-7.330000
0
VERTEX
8
SOLDER_MASK
10
-4.700000
20
-6.230000
0
VERTEX
8
SOLDER_MASK
10
-4.100000
20
-6.230000
0
SEQEND
0
POLYLINE
8
SOLDER_MASK
66
1
70
32
0
VERTEX
8
SOLDER_MASK
10
-4.900000
20
-6.230000
0
VERTEX
8
SOLDER_MASK
10
-4.900000
20
-7.330000
0
VERTEX
8
SOLDER_MASK
10
-5.500000
20
-7.330000
0
VERTEX
8
SOLDER_MASK
10
-5.500000
20
-6.230000
0
VERTEX
8
SOLDER_MASK
10
-4.900000
20
-6.230000
0
SEQEND
0
POLYLINE
8
SOLDER_MASK
66
1
70
32
0
VERTEX
8
SOLDER_MASK
10
-5.700000
20
-6.230000
0
VERTEX
8
SOLDER_MASK
10
-5.700000
20
-7.330000
0
VERTEX
8
SOLDER_MASK
10
-6.300000
20
-7.330000
0
VERTEX
8
SOLDER_MASK
10
-6.300000
20
-6.230000
0
VERTEX
8
SOLDER_MASK
10
-5.700000
20
-6.230000
0
SEQEND
0
POLYLINE
8
SOLDER_MASK
66
1
70
32
0
VERTEX
8
SOLDER_MASK
10
-6.500000
20
-6.230000
0
VERTEX
8
SOLDER_MASK
10
-6.500000
20
-7.330000
0
VERTEX
8
SOLDER_MASK
10
-7.100000
20
-7.330000
0
VERTEX
8
SOLDER_MASK
10
-7.100000
20
-6.230000
0
VERTEX
8
SOLDER_MASK
10
-6.500000
20
-6.230000
0
SEQEND
0
POLYLINE
8
SOLDER_MASK
66
1
70
32
0
VERTEX
8
SOLDER_MASK
10
4.700000
20
-6.230000
0
VERTEX
8
SOLDER_MASK
10
4.700000
20
-7.330000
0
VERTEX
8
SOLDER_MASK
10
4.100000
20
-7.330000
0
VERTEX
8
SOLDER_MASK
10
4.100000
20
-6.230000
0
VERTEX
8
SOLDER_MASK
10
4.700000
20
-6.230000
0
SEQEND
0
POLYLINE
8
SOLDER_MASK
66
1
70
32
0
VERTEX
8
SOLDER_MASK
10
5.500000
20
-6.230000
0
VERTEX
8
SOLDER_MASK
10
5.500000
20
-7.330000
0
VERTEX
8
SOLDER_MASK
10
4.900000
20
-7.330000
0
VERTEX
8
SOLDER_MASK
10
4.900000
20
-6.230000
0
VERTEX
8
SOLDER_MASK
10
5.500000
20
-6.230000
0
SEQEND
0
POLYLINE
8
SOLDER_MASK
66
1
70
32
0
VERTEX
8
SOLDER_MASK
10
6.300000
20
-6.230000
0
VERTEX
8
SOLDER_MASK
10
6.300000
20
-7.330000
0
VERTEX
8
SOLDER_MASK
10
5.700000
20
-7.330000
0
VERTEX
8
SOLDER_MASK
10
5.700000
20
-6.230000
0
VERTEX
8
SOLDER_MASK
10
6.300000
20
-6.230000
0
SEQEND
0
POLYLINE
8
SOLDER_MASK
66
1
70
32
0
VERTEX
8
SOLDER_MASK
10
7.100000
20
-6.230000
0
VERTEX
8
SOLDER_MASK
10
7.100000
20
-7.330000
0
VERTEX
8
SOLDER_MASK
10
6.500000
20
-7.330000
0
VERTEX
8
SOLDER_MASK
10
6.500000
20
-6.230000
0
VERTEX
8
SOLDER_MASK
10
7.100000
20
-6.230000
0
SEQEND
0
POLYLINE
8
SOLDER_MASK
66
1
70
32
0
VERTEX
8
SOLDER_MASK
10
-0.100000
20
7.330000
0
VERTEX
8
SOLDER_MASK
10
-0.100000
20
6.230000
0
VERTEX
8
SOLDER_MASK
10
-0.700000
20
6.230000
0
VERTEX
8
SOLDER_MASK
10
-0.700000
20
7.330000
0
VERTEX
8
SOLDER_MASK
10
-0.100000
20
7.330000
0
SEQEND
0
POLYLINE
8
SOLDER_MASK
66
1
70
32
0
VERTEX
8
SOLDER_MASK
10
0.700000
20
7.330000
0
VERTEX
8
SOLDER_MASK
10
0.700000
20
6.230000
0
VERTEX
8
SOLDER_MASK
10
0.100000
20
6.230000
0
VERTEX
8
SOLDER_MASK
10
0.100000
20
7.330000
0
VERTEX
8
SOLDER_MASK
10
0.700000
20
7.330000
0
SEQEND
0
POLYLINE
8
SOLDER_MASK
66
1
70
32
0
VERTEX
8
SOLDER_MASK
10
1.500000
20
7.330000
0
VERTEX
8
SOLDER_MASK
10
1.500000
20
6.230000
0
VERTEX
8
SOLDER_MASK
10
0.900000
20
6.230000
0
VERTEX
8
SOLDER_MASK
10
0.900000
20
7.330000
0
VERTEX
8
SOLDER_MASK
10
1.500000
20
7.330000
0
SEQEND
0
POLYLINE
8
SOLDER_MASK
66
1
70
32
0
VERTEX
8
SOLDER_MASK
10
2.300000
20
7.330000
0
VERTEX
8
SOLDER_MASK
10
2.300000
20
6.230000
0
VERTEX
8
SOLDER_MASK
10
1.700000
20
6.230000
0
VERTEX
8
SOLDER_MASK
10
1.700000
20
7.330000
0
VERTEX
8
SOLDER_MASK
10
2.300000
20
7.330000
0
SEQEND
0
POLYLINE
8
SOLDER_MASK
66
1
70
32
0
VERTEX
8
SOLDER_MASK
10
3.100000
20
7.330000
0
VERTEX
8
SOLDER_MASK
10
3.100000
20
6.230000
0
VERTEX
8
SOLDER_MASK
10
2.500000
20
6.230000
0
VERTEX
8
SOLDER_MASK
10
2.500000
20
7.330000
0
VERTEX
8
SOLDER_MASK
10
3.100000
20
7.330000
0
SEQEND
0
POLYLINE
8
SOLDER_MASK
66
1
70
32
0
VERTEX
8
SOLDER_MASK
10
3.900000
20
7.330000
0
VERTEX
8
SOLDER_MASK
10
3.900000
20
6.230000
0
VERTEX
8
SOLDER_MASK
10
3.300000
20
6.230000
0
VERTEX
8
SOLDER_MASK
10
3.300000
20
7.330000
0
VERTEX
8
SOLDER_MASK
10
3.900000
20
7.330000
0
SEQEND
0
POLYLINE
8
SOLDER_MASK
66
1
70
32
0
VERTEX
8
SOLDER_MASK
10
4.700000
20
7.330000
0
VERTEX
8
SOLDER_MASK
10
4.700000
20
6.230000
0
VERTEX
8
SOLDER_MASK
10
4.100000
20
6.230000
0
VERTEX
8
SOLDER_MASK
10
4.100000
20
7.330000
0
VERTEX
8
SOLDER_MASK
10
4.700000
20
7.330000
0
SEQEND
0
POLYLINE
8
SOLDER_MASK
66
1
70
32
0
VERTEX
8
SOLDER_MASK
10
5.500000
20
7.330000
0
VERTEX
8
SOLDER_MASK
10
5.500000
20
6.230000
0
VERTEX
8
SOLDER_MASK
10
4.900000
20
6.230000
0
VERTEX
8
SOLDER_MASK
10
4.900000
20
7.330000
0
VERTEX
8
SOLDER_MASK
10
5.500000
20
7.330000
0
SEQEND
0
POLYLINE
8
SOLDER_MASK
66
1
70
32
0
VERTEX
8
SOLDER_MASK
10
6.300000
20
7.330000
0
VERTEX
8
SOLDER_MASK
10
6.300000
20
6.230000
0
VERTEX
8
SOLDER_MASK
10
5.700000
20
6.230000
0
VERTEX
8
SOLDER_MASK
10
5.700000
20
7.330000
0
VERTEX
8
SOLDER_MASK
10
6.300000
20
7.330000
0
SEQEND
0
POLYLINE
8
SOLDER_MASK
66
1
70
32
0
VERTEX
8
SOLDER_MASK
10
7.100000
20
7.330000
0
VERTEX
8
SOLDER_MASK
10
7.100000
20
6.230000
0
VERTEX
8
SOLDER_MASK
10
6.500000
20
6.230000
0
VERTEX
8
SOLDER_MASK
10
6.500000
20
7.330000
0
VERTEX
8
SOLDER_MASK
10
7.100000
20
7.330000
0
SEQEND
0
POLYLINE
8
SOLDER_MASK
66
1
70
32
0
VERTEX
8
SOLDER_MASK
10
-0.900000
20
7.330000
0
VERTEX
8
SOLDER_MASK
10
-0.900000
20
6.230000
0
VERTEX
8
SOLDER_MASK
10
-1.500000
20
6.230000
0
VERTEX
8
SOLDER_MASK
10
-1.500000
20
7.330000
0
VERTEX
8
SOLDER_MASK
10
-0.900000
20
7.330000
0
SEQEND
0
POLYLINE
8
SOLDER_MASK
66
1
70
32
0
VERTEX
8
SOLDER_MASK
10
-1.700000
20
7.330000
0
VERTEX
8
SOLDER_MASK
10
-1.700000
20
6.230000
0
VERTEX
8
SOLDER_MASK
10
-2.300000
20
6.230000
0
VERTEX
8
SOLDER_MASK
10
-2.300000
20
7.330000
0
VERTEX
8
SOLDER_MASK
10
-1.700000
20
7.330000
0
SEQEND
0
POLYLINE
8
SOLDER_MASK
66
1
70
32
0
VERTEX
8
SOLDER_MASK
10
-2.500000
20
7.330000
0
VERTEX
8
SOLDER_MASK
10
-2.500000
20
6.230000
0
VERTEX
8
SOLDER_MASK
10
-3.100000
20
6.230000
0
VERTEX
8
SOLDER_MASK
10
-3.100000
20
7.330000
0
VERTEX
8
SOLDER_MASK
10
-2.500000
20
7.330000
0
SEQEND
0
POLYLINE
8
SOLDER_MASK
66
1
70
32
0
VERTEX
8
SOLDER_MASK
10
-3.300000
20
7.330000
0
VERTEX
8
SOLDER_MASK
10
-3.300000
20
6.230000
0
VERTEX
8
SOLDER_MASK
10
-3.900000
20
6.230000
0
VERTEX
8
SOLDER_MASK
10
-3.900000
20
7.330000
0
VERTEX
8
SOLDER_MASK
10
-3.300000
20
7.330000
0
SEQEND
0
POLYLINE
8
SOLDER_MASK
66
1
70
32
0
VERTEX
8
SOLDER_MASK
10
-4.100000
20
7.330000
0
VERTEX
8
SOLDER_MASK
10
-4.100000
20
6.230000
0
VERTEX
8
SOLDER_MASK
10
-4.700000
20
6.230000
0
VERTEX
8
SOLDER_MASK
10
-4.700000
20
7.330000
0
VERTEX
8
SOLDER_MASK
10
-4.100000
20
7.330000
0
SEQEND
0
POLYLINE
8
SOLDER_MASK
66
1
70
32
0
VERTEX
8
SOLDER_MASK
10
-4.900000
20
7.330000
0
VERTEX
8
SOLDER_MASK
10
-4.900000
20
6.230000
0
VERTEX
8
SOLDER_MASK
10
-5.500000
20
6.230000
0
VERTEX
8
SOLDER_MASK
10
-5.500000
20
7.330000
0
VERTEX
8
SOLDER_MASK
10
-4.900000
20
7.330000
0
SEQEND
0
POLYLINE
8
SOLDER_MASK
66
1
70
32
0
VERTEX
8
SOLDER_MASK
10
-5.700000
20
7.330000
0
VERTEX
8
SOLDER_MASK
10
-5.700000
20
6.230000
0
VERTEX
8
SOLDER_MASK
10
-6.300000
20
6.230000
0
VERTEX
8
SOLDER_MASK
10
-6.300000
20
7.330000
0
VERTEX
8
SOLDER_MASK
10
-5.700000
20
7.330000
0
SEQEND
0
POLYLINE
8
SOLDER_MASK
66
1
70
32
0
VERTEX
8
SOLDER_MASK
10
-6.500000
20
7.330000
0
VERTEX
8
SOLDER_MASK
10
-6.500000
20
6.230000
0
VERTEX
8
SOLDER_MASK
10
-7.100000
20
6.230000
0
VERTEX
8
SOLDER_MASK
10
-7.100000
20
7.330000
0
VERTEX
8
SOLDER_MASK
10
-6.500000
20
7.330000
0
SEQEND
0
POLYLINE
8
SOLDER_MASK
66
1
70
32
0
VERTEX
8
SOLDER_MASK
10
-8.730000
20
-5.300000
0
VERTEX
8
SOLDER_MASK
10
-7.630000
20
-5.300000
0
VERTEX
8
SOLDER_MASK
10
-7.630000
20
-5.900000
0
VERTEX
8
SOLDER_MASK
10
-8.730000
20
-5.900000
0
VERTEX
8
SOLDER_MASK
10
-8.730000
20
-5.300000
0
SEQEND
0
POLYLINE
8
SOLDER_MASK
66
1
70
32
0
VERTEX
8
SOLDER_MASK
10
-8.730000
20
-4.500000
0
VERTEX
8
SOLDER_MASK
10
-7.630000
20
-4.500000
0
VERTEX
8
SOLDER_MASK
10
-7.630000
20
-5.100000
0
VERTEX
8
SOLDER_MASK
10
-8.730000
20
-5.100000
0
VERTEX
8
SOLDER_MASK
10
-8.730000
20
-4.500000
0
SEQEND
0
POLYLINE
8
SOLDER_MASK
66
1
70
32
0
VERTEX
8
SOLDER_MASK
10
-8.730000
20
-3.700000
0
VERTEX
8
SOLDER_MASK
10
-7.630000
20
-3.700000
0
VERTEX
8
SOLDER_MASK
10
-7.630000
20
-4.300000
0
VERTEX
8
SOLDER_MASK
10
-8.730000
20
-4.300000
0
VERTEX
8
SOLDER_MASK
10
-8.730000
20
-3.700000
0
SEQEND
0
POLYLINE
8
SOLDER_MASK
66
1
70
32
0
VERTEX
8
SOLDER_MASK
10
-8.730000
20
-2.900000
0
VERTEX
8
SOLDER_MASK
10
-7.630000
20
-2.900000
0
VERTEX
8
SOLDER_MASK
10
-7.630000
20
-3.500000
0
VERTEX
8
SOLDER_MASK
10
-8.730000
20
-3.500000
0
VERTEX
8
SOLDER_MASK
10
-8.730000
20
-2.900000
0
SEQEND
0
POLYLINE
8
SOLDER_MASK
66
1
70
32
0
VERTEX
8
SOLDER_MASK
10
-8.730000
20
-2.100000
0
VERTEX
8
SOLDER_MASK
10
-7.630000
20
-2.100000
0
VERTEX
8
SOLDER_MASK
10
-7.630000
20
-2.700000
0
VERTEX
8
SOLDER_MASK
10
-8.730000
20
-2.700000
0
VERTEX
8
SOLDER_MASK
10
-8.730000
20
-2.100000
0
SEQEND
0
POLYLINE
8
SOLDER_MASK
66
1
70
32
0
VERTEX
8
SOLDER_MASK
10
-8.730000
20
-1.300000
0
VERTEX
8
SOLDER_MASK
10
-7.630000
20
-1.300000
0
VERTEX
8
SOLDER_MASK
10
-7.630000
20
-1.900000
0
VERTEX
8
SOLDER_MASK
10
-8.730000
20
-1.900000
0
VERTEX
8
SOLDER_MASK
10
-8.730000
20
-1.300000
0
SEQEND
0
POLYLINE
8
SOLDER_MASK
66
1
70
32
0
VERTEX
8
SOLDER_MASK
10
-8.730000
20
-0.500000
0
VERTEX
8
SOLDER_MASK
10
-7.630000
20
-0.500000
0
VERTEX
8
SOLDER_MASK
10
-7.630000
20
-1.100000
0
VERTEX
8
SOLDER_MASK
10
-8.730000
20
-1.100000
0
VERTEX
8
SOLDER_MASK
10
-8.730000
20
-0.500000
0
SEQEND
0
POLYLINE
8
SOLDER_MASK
66
1
70
32
0
VERTEX
8
SOLDER_MASK
10
-8.730000
20
0.300000
0
VERTEX
8
SOLDER_MASK
10
-7.630000
20
0.300000
0
VERTEX
8
SOLDER_MASK
10
-7.630000
20
-0.300000
0
VERTEX
8
SOLDER_MASK
10
-8.730000
20
-0.300000
0
VERTEX
8
SOLDER_MASK
10
-8.730000
20
0.300000
0
SEQEND
0
POLYLINE
8
SOLDER_MASK
66
1
70
32
0
VERTEX
8
SOLDER_MASK
10
-8.730000
20
1.100000
0
VERTEX
8
SOLDER_MASK
10
-7.630000
20
1.100000
0
VERTEX
8
SOLDER_MASK
10
-7.630000
20
0.500000
0
VERTEX
8
SOLDER_MASK
10
-8.730000
20
0.500000
0
VERTEX
8
SOLDER_MASK
10
-8.730000
20
1.100000
0
SEQEND
0
POLYLINE
8
SOLDER_MASK
66
1
70
32
0
VERTEX
8
SOLDER_MASK
10
-8.730000
20
1.900000
0
VERTEX
8
SOLDER_MASK
10
-7.630000
20
1.900000
0
VERTEX
8
SOLDER_MASK
10
-7.630000
20
1.300000
0
VERTEX
8
SOLDER_MASK
10
-8.730000
20
1.300000
0
VERTEX
8
SOLDER_MASK
10
-8.730000
20
1.900000
0
SEQEND
0
POLYLINE
8
SOLDER_MASK
66
1
70
32
0
VERTEX
8
SOLDER_MASK
10
-8.730000
20
2.700000
0
VERTEX
8
SOLDER_MASK
10
-7.630000
20
2.700000
0
VERTEX
8
SOLDER_MASK
10
-7.630000
20
2.100000
0
VERTEX
8
SOLDER_MASK
10
-8.730000
20
2.100000
0
VERTEX
8
SOLDER_MASK
10
-8.730000
20
2.700000
0
SEQEND
0
POLYLINE
8
SOLDER_MASK
66
1
70
32
0
VERTEX
8
SOLDER_MASK
10
-8.730000
20
3.500000
0
VERTEX
8
SOLDER_MASK
10
-7.630000
20
3.500000
0
VERTEX
8
SOLDER_MASK
10
-7.630000
20
2.900000
0
VERTEX
8
SOLDER_MASK
10
-8.730000
20
2.900000
0
VERTEX
8
SOLDER_MASK
10
-8.730000
20
3.500000
0
SEQEND
0
POLYLINE
8
SOLDER_MASK
66
1
70
32
0
VERTEX
8
SOLDER_MASK
10
-8.730000
20
4.300000
0
VERTEX
8
SOLDER_MASK
10
-7.630000
20
4.300000
0
VERTEX
8
SOLDER_MASK
10
-7.630000
20
3.700000
0
VERTEX
8
SOLDER_MASK
10
-8.730000
20
3.700000
0
VERTEX
8
SOLDER_MASK
10
-8.730000
20
4.300000
0
SEQEND
0
POLYLINE
8
SOLDER_MASK
66
1
70
32
0
VERTEX
8
SOLDER_MASK
10
-8.730000
20
5.100000
0
VERTEX
8
SOLDER_MASK
10
-7.630000
20
5.100000
0
VERTEX
8
SOLDER_MASK
10
-7.630000
20
4.500000
0
VERTEX
8
SOLDER_MASK
10
-8.730000
20
4.500000
0
VERTEX
8
SOLDER_MASK
10
-8.730000
20
5.100000
0
SEQEND
0
POLYLINE
8
SOLDER_MASK
66
1
70
32
0
VERTEX
8
SOLDER_MASK
10
-8.730000
20
5.900000
0
VERTEX
8
SOLDER_MASK
10
-7.630000
20
5.900000
0
VERTEX
8
SOLDER_MASK
10
-7.630000
20
5.300000
0
VERTEX
8
SOLDER_MASK
10
-8.730000
20
5.300000
0
VERTEX
8
SOLDER_MASK
10
-8.730000
20
5.900000
0
SEQEND
0
POLYLINE
8
SOLDER_MASK
66
1
70
32
0
VERTEX
8
SOLDER_MASK
10
7.630000
20
5.900000
0
VERTEX
8
SOLDER_MASK
10
8.730000
20
5.900000
0
VERTEX
8
SOLDER_MASK
10
8.730000
20
5.300000
0
VERTEX
8
SOLDER_MASK
10
7.630000
20
5.300000
0
VERTEX
8
SOLDER_MASK
10
7.630000
20
5.900000
0
SEQEND
0
POLYLINE
8
SOLDER_MASK
66
1
70
32
0
VERTEX
8
SOLDER_MASK
10
7.630000
20
5.100000
0
VERTEX
8
SOLDER_MASK
10
8.730000
20
5.100000
0
VERTEX
8
SOLDER_MASK
10
8.730000
20
4.500000
0
VERTEX
8
SOLDER_MASK
10
7.630000
20
4.500000
0
VERTEX
8
SOLDER_MASK
10
7.630000
20
5.100000
0
SEQEND
0
POLYLINE
8
SOLDER_MASK
66
1
70
32
0
VERTEX
8
SOLDER_MASK
10
7.630000
20
4.300000
0
VERTEX
8
SOLDER_MASK
10
8.730000
20
4.300000
0
VERTEX
8
SOLDER_MASK
10
8.730000
20
3.700000
0
VERTEX
8
SOLDER_MASK
10
7.630000
20
3.700000
0
VERTEX
8
SOLDER_MASK
10
7.630000
20
4.300000
0
SEQEND
0
POLYLINE
8
SOLDER_MASK
66
1
70
32
0
VERTEX
8
SOLDER_MASK
10
7.630000
20
3.500000
0
VERTEX
8
SOLDER_MASK
10
8.730000
20
3.500000
0
VERTEX
8
SOLDER_MASK
10
8.730000
20
2.900000
0
VERTEX
8
SOLDER_MASK
10
7.630000
20
2.900000
0
VERTEX
8
SOLDER_MASK
10
7.630000
20
3.500000
0
SEQEND
0
POLYLINE
8
SOLDER_MASK
66
1
70
32
0
VERTEX
8
SOLDER_MASK
10
7.630000
20
2.700000
0
VERTEX
8
SOLDER_MASK
10
8.730000
20
2.700000
0
VERTEX
8
SOLDER_MASK
10
8.730000
20
2.100000
0
VERTEX
8
SOLDER_MASK
10
7.630000
20
2.100000
0
VERTEX
8
SOLDER_MASK
10
7.630000
20
2.700000
0
SEQEND
0
POLYLINE
8
SOLDER_MASK
66
1
70
32
0
VERTEX
8
SOLDER_MASK
10
7.630000
20
1.900000
0
VERTEX
8
SOLDER_MASK
10
8.730000
20
1.900000
0
VERTEX
8
SOLDER_MASK
10
8.730000
20
1.300000
0
VERTEX
8
SOLDER_MASK
10
7.630000
20
1.300000
0
VERTEX
8
SOLDER_MASK
10
7.630000
20
1.900000
0
SEQEND
0
POLYLINE
8
SOLDER_MASK
66
1
70
32
0
VERTEX
8
SOLDER_MASK
10
7.630000
20
1.100000
0
VERTEX
8
SOLDER_MASK
10
8.730000
20
1.100000
0
VERTEX
8
SOLDER_MASK
10
8.730000
20
0.500000
0
VERTEX
8
SOLDER_MASK
10
7.630000
20
0.500000
0
VERTEX
8
SOLDER_MASK
10
7.630000
20
1.100000
0
SEQEND
0
POLYLINE
8
SOLDER_MASK
66
1
70
32
0
VERTEX
8
SOLDER_MASK
10
7.630000
20
0.300000
0
VERTEX
8
SOLDER_MASK
10
8.730000
20
0.300000
0
VERTEX
8
SOLDER_MASK
10
8.730000
20
-0.300000
0
VERTEX
8
SOLDER_MASK
10
7.630000
20
-0.300000
0
VERTEX
8
SOLDER_MASK
10
7.630000
20
0.300000
0
SEQEND
0
POLYLINE
8
SOLDER_MASK
66
1
70
32
0
VERTEX
8
SOLDER_MASK
10
7.630000
20
-0.500000
0
VERTEX
8
SOLDER_MASK
10
8.730000
20
-0.500000
0
VERTEX
8
SOLDER_MASK
10
8.730000
20
-1.100000
0
VERTEX
8
SOLDER_MASK
10
7.630000
20
-1.100000
0
VERTEX
8
SOLDER_MASK
10
7.630000
20
-0.500000
0
SEQEND
0
POLYLINE
8
SOLDER_MASK
66
1
70
32
0
VERTEX
8
SOLDER_MASK
10
7.630000
20
-1.300000
0
VERTEX
8
SOLDER_MASK
10
8.730000
20
-1.300000
0
VERTEX
8
SOLDER_MASK
10
8.730000
20
-1.900000
0
VERTEX
8
SOLDER_MASK
10
7.630000
20
-1.900000
0
VERTEX
8
SOLDER_MASK
10
7.630000
20
-1.300000
0
SEQEND
0
POLYLINE
8
SOLDER_MASK
66
1
70
32
0
VERTEX
8
SOLDER_MASK
10
7.630000
20
-2.100000
0
VERTEX
8
SOLDER_MASK
10
8.730000
20
-2.100000
0
VERTEX
8
SOLDER_MASK
10
8.730000
20
-2.700000
0
VERTEX
8
SOLDER_MASK
10
7.630000
20
-2.700000
0
VERTEX
8
SOLDER_MASK
10
7.630000
20
-2.100000
0
SEQEND
0
POLYLINE
8
SOLDER_MASK
66
1
70
32
0
VERTEX
8
SOLDER_MASK
10
7.630000
20
-2.900000
0
VERTEX
8
SOLDER_MASK
10
8.730000
20
-2.900000
0
VERTEX
8
SOLDER_MASK
10
8.730000
20
-3.500000
0
VERTEX
8
SOLDER_MASK
10
7.630000
20
-3.500000
0
VERTEX
8
SOLDER_MASK
10
7.630000
20
-2.900000
0
SEQEND
0
POLYLINE
8
SOLDER_MASK
66
1
70
32
0
VERTEX
8
SOLDER_MASK
10
7.630000
20
-3.700000
0
VERTEX
8
SOLDER_MASK
10
8.730000
20
-3.700000
0
VERTEX
8
SOLDER_MASK
10
8.730000
20
-4.300000
0
VERTEX
8
SOLDER_MASK
10
7.630000
20
-4.300000
0
VERTEX
8
SOLDER_MASK
10
7.630000
20
-3.700000
0
SEQEND
0
POLYLINE
8
SOLDER_MASK
66
1
70
32
0
VERTEX
8
SOLDER_MASK
10
7.630000
20
-4.500000
0
VERTEX
8
SOLDER_MASK
10
8.730000
20
-4.500000
0
VERTEX
8
SOLDER_MASK
10
8.730000
20
-5.100000
0
VERTEX
8
SOLDER_MASK
10
7.630000
20
-5.100000
0
VERTEX
8
SOLDER_MASK
10
7.630000
20
-4.500000
0
SEQEND
0
POLYLINE
8
SOLDER_MASK
66
1
70
32
0
VERTEX
8
SOLDER_MASK
10
7.630000
20
-5.300000
0
VERTEX
8
SOLDER_MASK
10
8.730000
20
-5.300000
0
VERTEX
8
SOLDER_MASK
10
8.730000
20
-5.900000
0
VERTEX
8
SOLDER_MASK
10
7.630000
20
-5.900000
0
VERTEX
8
SOLDER_MASK
10
7.630000
20
-5.300000
0
SEQEND
0
POLYLINE
8
SOLDER_MASK
66
1
70
32
0
VERTEX
8
SOLDER_MASK
10
-10.200000
20
10.500000
0
VERTEX
8
SOLDER_MASK
10
-10.200000
20
9.400000
0
VERTEX
8
SOLDER_MASK
10
-11.200000
20
9.400000
0
VERTEX
8
SOLDER_MASK
10
-11.200000
20
10.500000
0
VERTEX
8
SOLDER_MASK
10
-10.200000
20
10.500000
0
SEQEND
0
POLYLINE
8
SOLDER_MASK
66
1
70
32
0
VERTEX
8
SOLDER_MASK
10
-7.630000
20
7.330000
0
VERTEX
8
SOLDER_MASK
10
-7.630000
20
6.230000
0
VERTEX
8
SOLDER_MASK
10
-8.730000
20
6.230000
0
VERTEX
8
SOLDER_MASK
10
-8.730000
20
7.330000
0
VERTEX
8
SOLDER_MASK
10
-7.630000
20
7.330000
0
SEQEND
0
POLYLINE
8
SOLDER_MASK
66
1
70
32
0
VERTEX
8
SOLDER_MASK
10
8.730000
20
7.330000
0
VERTEX
8
SOLDER_MASK
10
8.730000
20
6.230000
0
VERTEX
8
SOLDER_MASK
10
7.630000
20
6.230000
0
VERTEX
8
SOLDER_MASK
10
7.630000
20
7.330000
0
VERTEX
8
SOLDER_MASK
10
8.730000
20
7.330000
0
SEQEND
0
POLYLINE
8
SOLDER_MASK
66
1
70
32
0
VERTEX
8
SOLDER_MASK
10
-7.630000
20
-6.230000
0
VERTEX
8
SOLDER_MASK
10
-7.630000
20
-7.330000
0
VERTEX
8
SOLDER_MASK
10
-8.730000
20
-7.330000
0
VERTEX
8
SOLDER_MASK
10
-8.730000
20
-6.230000
0
VERTEX
8
SOLDER_MASK
10
-7.630000
20
-6.230000
0
SEQEND
0
POLYLINE
8
SOLDER_MASK
66
1
70
32
0
VERTEX
8
SOLDER_MASK
10
8.730000
20
-6.230000
0
VERTEX
8
SOLDER_MASK
10
8.730000
20
-7.330000
0
VERTEX
8
SOLDER_MASK
10
7.630000
20
-7.330000
0
VERTEX
8
SOLDER_MASK
10
7.630000
20
-6.230000
0
VERTEX
8
SOLDER_MASK
10
8.730000
20
-6.230000
0
SEQEND
0
POLYLINE
8
SOLDER_MASK
66
1
70
32
0
VERTEX
8
SOLDER_MASK
10
11.200000
20
10.500000
0
VERTEX
8
SOLDER_MASK
10
11.200000
20
9.400000
0
VERTEX
8
SOLDER_MASK
10
10.200000
20
9.400000
0
VERTEX
8
SOLDER_MASK
10
10.200000
20
10.500000
0
VERTEX
8
SOLDER_MASK
10
11.200000
20
10.500000
0
SEQEND
0
POLYLINE
8
SOLDER_MASK
66
1
70
32
0
VERTEX
8
SOLDER_MASK
10
11.200000
20
-9.400000
0
VERTEX
8
SOLDER_MASK
10
11.200000
20
-10.500000
0
VERTEX
8
SOLDER_MASK
10
10.200000
20
-10.500000
0
VERTEX
8
SOLDER_MASK
10
10.200000
20
-9.400000
0
VERTEX
8
SOLDER_MASK
10
11.200000
20
-9.400000
0
SEQEND
0
POLYLINE
8
SOLDER_MASK
66
1
70
32
0
VERTEX
8
SOLDER_MASK
10
-11.200000
20
-10.500000
0
VERTEX
8
SOLDER_MASK
10
-11.200000
20
-9.400000
0
VERTEX
8
SOLDER_MASK
10
-10.200000
20
-9.400000
0
VERTEX
8
SOLDER_MASK
10
-10.200000
20
-10.500000
0
VERTEX
8
SOLDER_MASK
10
-11.200000
20
-10.500000
0
SEQEND
0
POLYLINE
8
SOLDER_MASK
66
1
70
32
0
VERTEX
8
SOLDER_MASK
10
-5.837500
20
-4.612500
0
VERTEX
8
SOLDER_MASK
10
-5.837500
20
-5.712500
0
VERTEX
8
SOLDER_MASK
10
-6.937500
20
-5.712500
0
VERTEX
8
SOLDER_MASK
10
-6.937500
20
-4.612500
0
VERTEX
8
SOLDER_MASK
10
-5.837500
20
-4.612500
0
SEQEND
0
POLYLINE
8
SOLDER_MASK
66
1
70
32
0
VERTEX
8
SOLDER_MASK
10
-5.837500
20
-3.137500
0
VERTEX
8
SOLDER_MASK
10
-5.837500
20
-4.237500
0
VERTEX
8
SOLDER_MASK
10
-6.937500
20
-4.237500
0
VERTEX
8
SOLDER_MASK
10
-6.937500
20
-3.137500
0
VERTEX
8
SOLDER_MASK
10
-5.837500
20
-3.137500
0
SEQEND
0
POLYLINE
8
SOLDER_MASK
66
1
70
32
0
VERTEX
8
SOLDER_MASK
10
-5.837500
20
-1.662500
0
VERTEX
8
SOLDER_MASK
10
-5.837500
20
-2.762500
0
VERTEX
8
SOLDER_MASK
10
-6.937500
20
-2.762500
0
VERTEX
8
SOLDER_MASK
10
-6.937500
20
-1.662500
0
VERTEX
8
SOLDER_MASK
10
-5.837500
20
-1.662500
0
SEQEND
0
POLYLINE
8
SOLDER_MASK
66
1
70
32
0
VERTEX
8
SOLDER_MASK
10
-5.837500
20
-0.187500
0
VERTEX
8
SOLDER_MASK
10
-5.837500
20
-1.287500
0
VERTEX
8
SOLDER_MASK
10
-6.937500
20
-1.287500
0
VERTEX
8
SOLDER_MASK
10
-6.937500
20
-0.187500
0
VERTEX
8
SOLDER_MASK
10
-5.837500
20
-0.187500
0
SEQEND
0
POLYLINE
8
SOLDER_MASK
66
1
70
32
0
VERTEX
8
SOLDER_MASK
10
-5.837500
20
1.287500
0
VERTEX
8
SOLDER_MASK
10
-5.837500
20
0.187500
0
VERTEX
8
SOLDER_MASK
10
-6.937500
20
0.187500
0
VERTEX
8
SOLDER_MASK
10
-6.937500
20
1.287500
0
VERTEX
8
SOLDER_MASK
10
-5.837500
20
1.287500
0
SEQEND
0
POLYLINE
8
SOLDER_MASK
66
1
70
32
0
VERTEX
8
SOLDER_MASK
10
-5.837500
20
2.762500
0
VERTEX
8
SOLDER_MASK
10
-5.837500
20
1.662500
0
VERTEX
8
SOLDER_MASK
10
-6.937500
20
1.662500
0
VERTEX
8
SOLDER_MASK
10
-6.937500
20
2.762500
0
VERTEX
8
SOLDER_MASK
10
-5.837500
20
2.762500
0
SEQEND
0
POLYLINE
8
SOLDER_MASK
66
1
70
32
0
VERTEX
8
SOLDER_MASK
10
-5.837500
20
4.237500
0
VERTEX
8
SOLDER_MASK
10
-5.837500
20
3.137500
0
VERTEX
8
SOLDER_MASK
10
-6.937500
20
3.137500
0
VERTEX
8
SOLDER_MASK
10
-6.937500
20
4.237500
0
VERTEX
8
SOLDER_MASK
10
-5.837500
20
4.237500
0
SEQEND
0
POLYLINE
8
SOLDER_MASK
66
1
70
32
0
VERTEX
8
SOLDER_MASK
10
-5.837500
20
5.712500
0
VERTEX
8
SOLDER_MASK
10
-5.837500
20
4.612500
0
VERTEX
8
SOLDER_MASK
10
-6.937500
20
4.612500
0
VERTEX
8
SOLDER_MASK
10
-6.937500
20
5.712500
0
VERTEX
8
SOLDER_MASK
10
-5.837500
20
5.712500
0
SEQEND
0
POLYLINE
8
SOLDER_MASK
66
1
70
32
0
VERTEX
8
SOLDER_MASK
10
-4.012500
20
5.712500
0
VERTEX
8
SOLDER_MASK
10
-4.012500
20
4.612500
0
VERTEX
8
SOLDER_MASK
10
-5.112500
20
4.612500
0
VERTEX
8
SOLDER_MASK
10
-5.112500
20
5.712500
0
VERTEX
8
SOLDER_MASK
10
-4.012500
20
5.712500
0
SEQEND
0
POLYLINE
8
SOLDER_MASK
66
1
70
32
0
VERTEX
8
SOLDER_MASK
10
-4.012500
20
4.237500
0
VERTEX
8
SOLDER_MASK
10
-4.012500
20
3.137500
0
VERTEX
8
SOLDER_MASK
10
-5.112500
20
3.137500
0
VERTEX
8
SOLDER_MASK
10
-5.112500
20
4.237500
0
VERTEX
8
SOLDER_MASK
10
-4.012500
20
4.237500
0
SEQEND
0
POLYLINE
8
SOLDER_MASK
66
1
70
32
0
VERTEX
8
SOLDER_MASK
10
-4.012500
20
2.762500
0
VERTEX
8
SOLDER_MASK
10
-4.012500
20
1.662500
0
VERTEX
8
SOLDER_MASK
10
-5.112500
20
1.662500
0
VERTEX
8
SOLDER_MASK
10
-5.112500
20
2.762500
0
VERTEX
8
SOLDER_MASK
10
-4.012500
20
2.762500
0
SEQEND
0
POLYLINE
8
SOLDER_MASK
66
1
70
32
0
VERTEX
8
SOLDER_MASK
10
-4.012500
20
1.287500
0
VERTEX
8
SOLDER_MASK
10
-4.012500
20
0.187500
0
VERTEX
8
SOLDER_MASK
10
-5.112500
20
0.187500
0
VERTEX
8
SOLDER_MASK
10
-5.112500
20
1.287500
0
VERTEX
8
SOLDER_MASK
10
-4.012500
20
1.287500
0
SEQEND
0
POLYLINE
8
SOLDER_MASK
66
1
70
32
0
VERTEX
8
SOLDER_MASK
10
-4.012500
20
-0.187500
0
VERTEX
8
SOLDER_MASK
10
-4.012500
20
-1.287500
0
VERTEX
8
SOLDER_MASK
10
-5.112500
20
-1.287500
0
VERTEX
8
SOLDER_MASK
10
-5.112500
20
-0.187500
0
VERTEX
8
SOLDER_MASK
10
-4.012500
20
-0.187500
0
SEQEND
0
POLYLINE
8
SOLDER_MASK
66
1
70
32
0
VERTEX
8
SOLDER_MASK
10
-4.012500
20
-1.662500
0
VERTEX
8
SOLDER_MASK
10
-4.012500
20
-2.762500
0
VERTEX
8
SOLDER_MASK
10
-5.112500
20
-2.762500
0
VERTEX
8
SOLDER_MASK
10
-5.112500
20
-1.662500
0
VERTEX
8
SOLDER_MASK
10
-4.012500
20
-1.662500
0
SEQEND
0
POLYLINE
8
SOLDER_MASK
66
1
70
32
0
VERTEX
8
SOLDER_MASK
10
-4.012500
20
-3.137500
0
VERTEX
8
SOLDER_MASK
10
-4.012500
20
-4.237500
0
VERTEX
8
SOLDER_MASK
10
-5.112500
20
-4.237500
0
VERTEX
8
SOLDER_MASK
10
-5.112500
20
-3.137500
0
VERTEX
8
SOLDER_MASK
10
-4.012500
20
-3.137500
0
SEQEND
0
POLYLINE
8
SOLDER_MASK
66
1
70
32
0
VERTEX
8
SOLDER_MASK
10
-4.012500
20
-4.612500
0
VERTEX
8
SOLDER_MASK
10
-4.012500
20
-5.712500
0
VERTEX
8
SOLDER_MASK
10
-5.112500
20
-5.712500
0
VERTEX
8
SOLDER_MASK
10
-5.112500
20
-4.612500
0
VERTEX
8
SOLDER_MASK
10
-4.012500
20
-4.612500
0
SEQEND
0
POLYLINE
8
SOLDER_MASK
66
1
70
32
0
VERTEX
8
SOLDER_MASK
10
-2.187500
20
-4.612500
0
VERTEX
8
SOLDER_MASK
10
-2.187500
20
-5.712500
0
VERTEX
8
SOLDER_MASK
10
-3.287500
20
-5.712500
0
VERTEX
8
SOLDER_MASK
10
-3.287500
20
-4.612500
0
VERTEX
8
SOLDER_MASK
10
-2.187500
20
-4.612500
0
SEQEND
0
POLYLINE
8
SOLDER_MASK
66
1
70
32
0
VERTEX
8
SOLDER_MASK
10
-0.362500
20
-4.612500
0
VERTEX
8
SOLDER_MASK
10
-0.362500
20
-5.712500
0
VERTEX
8
SOLDER_MASK
10
-1.462500
20
-5.712500
0
VERTEX
8
SOLDER_MASK
10
-1.462500
20
-4.612500
0
VERTEX
8
SOLDER_MASK
10
-0.362500
20
-4.612500
0
SEQEND
0
POLYLINE
8
SOLDER_MASK
66
1
70
32
0
VERTEX
8
SOLDER_MASK
10
1.462500
20
-4.612500
0
VERTEX
8
SOLDER_MASK
10
1.462500
20
-5.712500
0
VERTEX
8
SOLDER_MASK
10
0.362500
20
-5.712500
0
VERTEX
8
SOLDER_MASK
10
0.362500
20
-4.612500
0
VERTEX
8
SOLDER_MASK
10
1.462500
20
-4.612500
0
SEQEND
0
POLYLINE
8
SOLDER_MASK
66
1
70
32
0
VERTEX
8
SOLDER_MASK
10
3.287500
20
-4.612500
0
VERTEX
8
SOLDER_MASK
10
3.287500
20
-5.712500
0
VERTEX
8
SOLDER_MASK
10
2.187500
20
-5.712500
0
VERTEX
8
SOLDER_MASK
10
2.187500
20
-4.612500
0
VERTEX
8
SOLDER_MASK
10
3.287500
20
-4.612500
0
SEQEND
0
POLYLINE
8
SOLDER_MASK
66
1
70
32
0
VERTEX
8
SOLDER_MASK
10
-2.187500
20
-3.137500
0
VERTEX
8
SOLDER_MASK
10
-2.187500
20
-4.237500
0
VERTEX
8
SOLDER_MASK
10
-3.287500
20
-4.237500
0
VERTEX
8
SOLDER_MASK
10
-3.287500
20
-3.137500
0
VERTEX
8
SOLDER_MASK
10
-2.187500
20
-3.137500
0
SEQEND
0
POLYLINE
8
SOLDER_MASK
66
1
70
32
0
VERTEX
8
SOLDER_MASK
10
-0.362500
20
-3.137500
0
VERTEX
8
SOLDER_MASK
10
-0.362500
20
-4.237500
0
VERTEX
8
SOLDER_MASK
10
-1.462500
20
-4.237500
0
VERTEX
8
SOLDER_MASK
10
-1.462500
20
-3.137500
0
VERTEX
8
SOLDER_MASK
10
-0.362500
20
-3.137500
0
SEQEND
0
POLYLINE
8
SOLDER_MASK
66
1
70
32
0
VERTEX
8
SOLDER_MASK
10
1.462500
20
-3.137500
0
VERTEX
8
SOLDER_MASK
10
1.462500
20
-4.237500
0
VERTEX
8
SOLDER_MASK
10
0.362500
20
-4.237500
0
VERTEX
8
SOLDER_MASK
10
0.362500
20
-3.137500
0
VERTEX
8
SOLDER_MASK
10
1.462500
20
-3.137500
0
SEQEND
0
POLYLINE
8
SOLDER_MASK
66
1
70
32
0
VERTEX
8
SOLDER_MASK
10
-2.187500
20
-1.662500
0
VERTEX
8
SOLDER_MASK
10
-2.187500
20
-2.762500
0
VERTEX
8
SOLDER_MASK
10
-3.287500
20
-2.762500
0
VERTEX
8
SOLDER_MASK
10
-3.287500
20
-1.662500
0
VERTEX
8
SOLDER_MASK
10
-2.187500
20
-1.662500
0
SEQEND
0
POLYLINE
8
SOLDER_MASK
66
1
70
32
0
VERTEX
8
SOLDER_MASK
10
-0.362500
20
-1.662500
0
VERTEX
8
SOLDER_MASK
10
-0.362500
20
-2.762500
0
VERTEX
8
SOLDER_MASK
10
-1.462500
20
-2.762500
0
VERTEX
8
SOLDER_MASK
10
-1.462500
20
-1.662500
0
VERTEX
8
SOLDER_MASK
10
-0.362500
20
-1.662500
0
SEQEND
0
POLYLINE
8
SOLDER_MASK
66
1
70
32
0
VERTEX
8
SOLDER_MASK
10
1.462500
20
-1.662500
0
VERTEX
8
SOLDER_MASK
10
1.462500
20
-2.762500
0
VERTEX
8
SOLDER_MASK
10
0.362500
20
-2.762500
0
VERTEX
8
SOLDER_MASK
10
0.362500
20
-1.662500
0
VERTEX
8
SOLDER_MASK
10
1.462500
20
-1.662500
0
SEQEND
0
POLYLINE
8
SOLDER_MASK
66
1
70
32
0
VERTEX
8
SOLDER_MASK
10
3.287500
20
-1.662500
0
VERTEX
8
SOLDER_MASK
10
3.287500
20
-2.762500
0
VERTEX
8
SOLDER_MASK
10
2.187500
20
-2.762500
0
VERTEX
8
SOLDER_MASK
10
2.187500
20
-1.662500
0
VERTEX
8
SOLDER_MASK
10
3.287500
20
-1.662500
0
SEQEND
0
POLYLINE
8
SOLDER_MASK
66
1
70
32
0
VERTEX
8
SOLDER_MASK
10
3.287500
20
-3.137500
0
VERTEX
8
SOLDER_MASK
10
3.287500
20
-4.237500
0
VERTEX
8
SOLDER_MASK
10
2.187500
20
-4.237500
0
VERTEX
8
SOLDER_MASK
10
2.187500
20
-3.137500
0
VERTEX
8
SOLDER_MASK
10
3.287500
20
-3.137500
0
SEQEND
0
POLYLINE
8
SOLDER_MASK
66
1
70
32
0
VERTEX
8
SOLDER_MASK
10
5.112500
20
-4.612500
0
VERTEX
8
SOLDER_MASK
10
5.112500
20
-5.712500
0
VERTEX
8
SOLDER_MASK
10
4.012500
20
-5.712500
0
VERTEX
8
SOLDER_MASK
10
4.012500
20
-4.612500
0
VERTEX
8
SOLDER_MASK
10
5.112500
20
-4.612500
0
SEQEND
0
POLYLINE
8
SOLDER_MASK
66
1
70
32
0
VERTEX
8
SOLDER_MASK
10
6.937500
20
-4.612500
0
VERTEX
8
SOLDER_MASK
10
6.937500
20
-5.712500
0
VERTEX
8
SOLDER_MASK
10
5.837500
20
-5.712500
0
VERTEX
8
SOLDER_MASK
10
5.837500
20
-4.612500
0
VERTEX
8
SOLDER_MASK
10
6.937500
20
-4.612500
0
SEQEND
0
POLYLINE
8
SOLDER_MASK
66
1
70
32
0
VERTEX
8
SOLDER_MASK
10
5.112500
20
-3.137500
0
VERTEX
8
SOLDER_MASK
10
5.112500
20
-4.237500
0
VERTEX
8
SOLDER_MASK
10
4.012500
20
-4.237500
0
VERTEX
8
SOLDER_MASK
10
4.012500
20
-3.137500
0
VERTEX
8
SOLDER_MASK
10
5.112500
20
-3.137500
0
SEQEND
0
POLYLINE
8
SOLDER_MASK
66
1
70
32
0
VERTEX
8
SOLDER_MASK
10
6.937500
20
-3.137500
0
VERTEX
8
SOLDER_MASK
10
6.937500
20
-4.237500
0
VERTEX
8
SOLDER_MASK
10
5.837500
20
-4.237500
0
VERTEX
8
SOLDER_MASK
10
5.837500
20
-3.137500
0
VERTEX
8
SOLDER_MASK
10
6.937500
20
-3.137500
0
SEQEND
0
POLYLINE
8
SOLDER_MASK
66
1
70
32
0
VERTEX
8
SOLDER_MASK
10
5.112500
20
-1.662500
0
VERTEX
8
SOLDER_MASK
10
5.112500
20
-2.762500
0
VERTEX
8
SOLDER_MASK
10
4.012500
20
-2.762500
0
VERTEX
8
SOLDER_MASK
10
4.012500
20
-1.662500
0
VERTEX
8
SOLDER_MASK
10
5.112500
20
-1.662500
0
SEQEND
0
POLYLINE
8
SOLDER_MASK
66
1
70
32
0
VERTEX
8
SOLDER_MASK
10
6.937500
20
-1.662500
0
VERTEX
8
SOLDER_MASK
10
6.937500
20
-2.762500
0
VERTEX
8
SOLDER_MASK
10
5.837500
20
-2.762500
0
VERTEX
8
SOLDER_MASK
10
5.837500
20
-1.662500
0
VERTEX
8
SOLDER_MASK
10
6.937500
20
-1.662500
0
SEQEND
0
POLYLINE
8
SOLDER_MASK
66
1
70
32
0
VERTEX
8
SOLDER_MASK
10
6.937500
20
-0.187500
0
VERTEX
8
SOLDER_MASK
10
6.937500
20
-1.287500
0
VERTEX
8
SOLDER_MASK
10
5.837500
20
-1.287500
0
VERTEX
8
SOLDER_MASK
10
5.837500
20
-0.187500
0
VERTEX
8
SOLDER_MASK
10
6.937500
20
-0.187500
0
SEQEND
0
POLYLINE
8
SOLDER_MASK
66
1
70
32
0
VERTEX
8
SOLDER_MASK
10
5.112500
20
-0.187500
0
VERTEX
8
SOLDER_MASK
10
5.112500
20
-1.287500
0
VERTEX
8
SOLDER_MASK
10
4.012500
20
-1.287500
0
VERTEX
8
SOLDER_MASK
10
4.012500
20
-0.187500
0
VERTEX
8
SOLDER_MASK
10
5.112500
20
-0.187500
0
SEQEND
0
POLYLINE
8
SOLDER_MASK
66
1
70
32
0
VERTEX
8
SOLDER_MASK
10
6.937500
20
1.287500
0
VERTEX
8
SOLDER_MASK
10
6.937500
20
0.187500
0
VERTEX
8
SOLDER_MASK
10
5.837500
20
0.187500
0
VERTEX
8
SOLDER_MASK
10
5.837500
20
1.287500
0
VERTEX
8
SOLDER_MASK
10
6.937500
20
1.287500
0
SEQEND
0
POLYLINE
8
SOLDER_MASK
66
1
70
32
0
VERTEX
8
SOLDER_MASK
10
5.112500
20
1.287500
0
VERTEX
8
SOLDER_MASK
10
5.112500
20
0.187500
0
VERTEX
8
SOLDER_MASK
10
4.012500
20
0.187500
0
VERTEX
8
SOLDER_MASK
10
4.012500
20
1.287500
0
VERTEX
8
SOLDER_MASK
10
5.112500
20
1.287500
0
SEQEND
0
POLYLINE
8
SOLDER_MASK
66
1
70
32
0
VERTEX
8
SOLDER_MASK
10
3.287500
20
-0.187500
0
VERTEX
8
SOLDER_MASK
10
3.287500
20
-1.287500
0
VERTEX
8
SOLDER_MASK
10
2.187500
20
-1.287500
0
VERTEX
8
SOLDER_MASK
10
2.187500
20
-0.187500
0
VERTEX
8
SOLDER_MASK
10
3.287500
20
-0.187500
0
SEQEND
0
POLYLINE
8
SOLDER_MASK
66
1
70
32
0
VERTEX
8
SOLDER_MASK
10
1.462500
20
-0.187500
0
VERTEX
8
SOLDER_MASK
10
1.462500
20
-1.287500
0
VERTEX
8
SOLDER_MASK
10
0.362500
20
-1.287500
0
VERTEX
8
SOLDER_MASK
10
0.362500
20
-0.187500
0
VERTEX
8
SOLDER_MASK
10
1.462500
20
-0.187500
0
SEQEND
0
POLYLINE
8
SOLDER_MASK
66
1
70
32
0
VERTEX
8
SOLDER_MASK
10
-0.362500
20
-0.187500
0
VERTEX
8
SOLDER_MASK
10
-0.362500
20
-1.287500
0
VERTEX
8
SOLDER_MASK
10
-1.462500
20
-1.287500
0
VERTEX
8
SOLDER_MASK
10
-1.462500
20
-0.187500
0
VERTEX
8
SOLDER_MASK
10
-0.362500
20
-0.187500
0
SEQEND
0
POLYLINE
8
SOLDER_MASK
66
1
70
32
0
VERTEX
8
SOLDER_MASK
10
-2.187500
20
-0.187500
0
VERTEX
8
SOLDER_MASK
10
-2.187500
20
-1.287500
0
VERTEX
8
SOLDER_MASK
10
-3.287500
20
-1.287500
0
VERTEX
8
SOLDER_MASK
10
-3.287500
20
-0.187500
0
VERTEX
8
SOLDER_MASK
10
-2.187500
20
-0.187500
0
SEQEND
0
POLYLINE
8
SOLDER_MASK
66
1
70
32
0
VERTEX
8
SOLDER_MASK
10
-2.187500
20
1.287500
0
VERTEX
8
SOLDER_MASK
10
-2.187500
20
0.187500
0
VERTEX
8
SOLDER_MASK
10
-3.287500
20
0.187500
0
VERTEX
8
SOLDER_MASK
10
-3.287500
20
1.287500
0
VERTEX
8
SOLDER_MASK
10
-2.187500
20
1.287500
0
SEQEND
0
POLYLINE
8
SOLDER_MASK
66
1
70
32
0
VERTEX
8
SOLDER_MASK
10
-0.362500
20
1.287500
0
VERTEX
8
SOLDER_MASK
10
-0.362500
20
0.187500
0
VERTEX
8
SOLDER_MASK
10
-1.462500
20
0.187500
0
VERTEX
8
SOLDER_MASK
10
-1.462500
20
1.287500
0
VERTEX
8
SOLDER_MASK
10
-0.362500
20
1.287500
0
SEQEND
0
POLYLINE
8
SOLDER_MASK
66
1
70
32
0
VERTEX
8
SOLDER_MASK
10
1.462500
20
1.287500
0
VERTEX
8
SOLDER_MASK
10
1.462500
20
0.187500
0
VERTEX
8
SOLDER_MASK
10
0.362500
20
0.187500
0
VERTEX
8
SOLDER_MASK
10
0.362500
20
1.287500
0
VERTEX
8
SOLDER_MASK
10
1.462500
20
1.287500
0
SEQEND
0
POLYLINE
8
SOLDER_MASK
66
1
70
32
0
VERTEX
8
SOLDER_MASK
10
3.287500
20
1.287500
0
VERTEX
8
SOLDER_MASK
10
3.287500
20
0.187500
0
VERTEX
8
SOLDER_MASK
10
2.187500
20
0.187500
0
VERTEX
8
SOLDER_MASK
10
2.187500
20
1.287500
0
VERTEX
8
SOLDER_MASK
10
3.287500
20
1.287500
0
SEQEND
0
POLYLINE
8
SOLDER_MASK
66
1
70
32
0
VERTEX
8
SOLDER_MASK
10
-2.187500
20
2.762500
0
VERTEX
8
SOLDER_MASK
10
-2.187500
20
1.662500
0
VERTEX
8
SOLDER_MASK
10
-3.287500
20
1.662500
0
VERTEX
8
SOLDER_MASK
10
-3.287500
20
2.762500
0
VERTEX
8
SOLDER_MASK
10
-2.187500
20
2.762500
0
SEQEND
0
POLYLINE
8
SOLDER_MASK
66
1
70
32
0
VERTEX
8
SOLDER_MASK
10
-2.187500
20
4.237500
0
VERTEX
8
SOLDER_MASK
10
-2.187500
20
3.137500
0
VERTEX
8
SOLDER_MASK
10
-3.287500
20
3.137500
0
VERTEX
8
SOLDER_MASK
10
-3.287500
20
4.237500
0
VERTEX
8
SOLDER_MASK
10
-2.187500
20
4.237500
0
SEQEND
0
POLYLINE
8
SOLDER_MASK
66
1
70
32
0
VERTEX
8
SOLDER_MASK
10
-2.187500
20
5.712500
0
VERTEX
8
SOLDER_MASK
10
-2.187500
20
4.612500
0
VERTEX
8
SOLDER_MASK
10
-3.287500
20
4.612500
0
VERTEX
8
SOLDER_MASK
10
-3.287500
20
5.712500
0
VERTEX
8
SOLDER_MASK
10
-2.187500
20
5.712500
0
SEQEND
0
POLYLINE
8
SOLDER_MASK
66
1
70
32
0
VERTEX
8
SOLDER_MASK
10
-0.362500
20
5.712500
0
VERTEX
8
SOLDER_MASK
10
-0.362500
20
4.612500
0
VERTEX
8
SOLDER_MASK
10
-1.462500
20
4.612500
0
VERTEX
8
SOLDER_MASK
10
-1.462500
20
5.712500
0
VERTEX
8
SOLDER_MASK
10
-0.362500
20
5.712500
0
SEQEND
0
POLYLINE
8
SOLDER_MASK
66
1
70
32
0
VERTEX
8
SOLDER_MASK
10
-0.362500
20
4.237500
0
VERTEX
8
SOLDER_MASK
10
-0.362500
20
3.137500
0
VERTEX
8
SOLDER_MASK
10
-1.462500
20
3.137500
0
VERTEX
8
SOLDER_MASK
10
-1.462500
20
4.237500
0
VERTEX
8
SOLDER_MASK
10
-0.362500
20
4.237500
0
SEQEND
0
POLYLINE
8
SOLDER_MASK
66
1
70
32
0
VERTEX
8
SOLDER_MASK
10
-0.362500
20
2.762500
0
VERTEX
8
SOLDER_MASK
10
-0.362500
20
1.662500
0
VERTEX
8
SOLDER_MASK
10
-1.462500
20
1.662500
0
VERTEX
8
SOLDER_MASK
10
-1.462500
20
2.762500
0
VERTEX
8
SOLDER_MASK
10
-0.362500
20
2.762500
0
SEQEND
0
POLYLINE
8
SOLDER_MASK
66
1
70
32
0
VERTEX
8
SOLDER_MASK
10
1.462500
20
2.762500
0
VERTEX
8
SOLDER_MASK
10
1.462500
20
1.662500
0
VERTEX
8
SOLDER_MASK
10
0.362500
20
1.662500
0
VERTEX
8
SOLDER_MASK
10
0.362500
20
2.762500
0
VERTEX
8
SOLDER_MASK
10
1.462500
20
2.762500
0
SEQEND
0
POLYLINE
8
SOLDER_MASK
66
1
70
32
0
VERTEX
8
SOLDER_MASK
10
1.462500
20
4.237500
0
VERTEX
8
SOLDER_MASK
10
1.462500
20
3.137500
0
VERTEX
8
SOLDER_MASK
10
0.362500
20
3.137500
0
VERTEX
8
SOLDER_MASK
10
0.362500
20
4.237500
0
VERTEX
8
SOLDER_MASK
10
1.462500
20
4.237500
0
SEQEND
0
POLYLINE
8
SOLDER_MASK
66
1
70
32
0
VERTEX
8
SOLDER_MASK
10
1.462500
20
5.712500
0
VERTEX
8
SOLDER_MASK
10
1.462500
20
4.612500
0
VERTEX
8
SOLDER_MASK
10
0.362500
20
4.612500
0
VERTEX
8
SOLDER_MASK
10
0.362500
20
5.712500
0
VERTEX
8
SOLDER_MASK
10
1.462500
20
5.712500
0
SEQEND
0
POLYLINE
8
SOLDER_MASK
66
1
70
32
0
VERTEX
8
SOLDER_MASK
10
3.287500
20
2.762500
0
VERTEX
8
SOLDER_MASK
10
3.287500
20
1.662500
0
VERTEX
8
SOLDER_MASK
10
2.187500
20
1.662500
0
VERTEX
8
SOLDER_MASK
10
2.187500
20
2.762500
0
VERTEX
8
SOLDER_MASK
10
3.287500
20
2.762500
0
SEQEND
0
POLYLINE
8
SOLDER_MASK
66
1
70
32
0
VERTEX
8
SOLDER_MASK
10
3.287500
20
4.237500
0
VERTEX
8
SOLDER_MASK
10
3.287500
20
3.137500
0
VERTEX
8
SOLDER_MASK
10
2.187500
20
3.137500
0
VERTEX
8
SOLDER_MASK
10
2.187500
20
4.237500
0
VERTEX
8
SOLDER_MASK
10
3.287500
20
4.237500
0
SEQEND
0
POLYLINE
8
SOLDER_MASK
66
1
70
32
0
VERTEX
8
SOLDER_MASK
10
3.287500
20
5.712500
0
VERTEX
8
SOLDER_MASK
10
3.287500
20
4.612500
0
VERTEX
8
SOLDER_MASK
10
2.187500
20
4.612500
0
VERTEX
8
SOLDER_MASK
10
2.187500
20
5.712500
0
VERTEX
8
SOLDER_MASK
10
3.287500
20
5.712500
0
SEQEND
0
POLYLINE
8
SOLDER_MASK
66
1
70
32
0
VERTEX
8
SOLDER_MASK
10
5.112500
20
5.712500
0
VERTEX
8
SOLDER_MASK
10
5.112500
20
4.612500
0
VERTEX
8
SOLDER_MASK
10
4.012500
20
4.612500
0
VERTEX
8
SOLDER_MASK
10
4.012500
20
5.712500
0
VERTEX
8
SOLDER_MASK
10
5.112500
20
5.712500
0
SEQEND
0
POLYLINE
8
SOLDER_MASK
66
1
70
32
0
VERTEX
8
SOLDER_MASK
10
5.112500
20
4.237500
0
VERTEX
8
SOLDER_MASK
10
5.112500
20
3.137500
0
VERTEX
8
SOLDER_MASK
10
4.012500
20
3.137500
0
VERTEX
8
SOLDER_MASK
10
4.012500
20
4.237500
0
VERTEX
8
SOLDER_MASK
10
5.112500
20
4.237500
0
SEQEND
0
POLYLINE
8
SOLDER_MASK
66
1
70
32
0
VERTEX
8
SOLDER_MASK
10
5.112500
20
2.762500
0
VERTEX
8
SOLDER_MASK
10
5.112500
20
1.662500
0
VERTEX
8
SOLDER_MASK
10
4.012500
20
1.662500
0
VERTEX
8
SOLDER_MASK
10
4.012500
20
2.762500
0
VERTEX
8
SOLDER_MASK
10
5.112500
20
2.762500
0
SEQEND
0
POLYLINE
8
SOLDER_MASK
66
1
70
32
0
VERTEX
8
SOLDER_MASK
10
6.937500
20
2.762500
0
VERTEX
8
SOLDER_MASK
10
6.937500
20
1.662500
0
VERTEX
8
SOLDER_MASK
10
5.837500
20
1.662500
0
VERTEX
8
SOLDER_MASK
10
5.837500
20
2.762500
0
VERTEX
8
SOLDER_MASK
10
6.937500
20
2.762500
0
SEQEND
0
POLYLINE
8
SOLDER_MASK
66
1
70
32
0
VERTEX
8
SOLDER_MASK
10
6.937500
20
4.237500
0
VERTEX
8
SOLDER_MASK
10
6.937500
20
3.137500
0
VERTEX
8
SOLDER_MASK
10
5.837500
20
3.137500
0
VERTEX
8
SOLDER_MASK
10
5.837500
20
4.237500
0
VERTEX
8
SOLDER_MASK
10
6.937500
20
4.237500
0
SEQEND
0
POLYLINE
8
SOLDER_MASK
66
1
70
32
0
VERTEX
8
SOLDER_MASK
10
6.937500
20
5.712500
0
VERTEX
8
SOLDER_MASK
10
6.937500
20
4.612500
0
VERTEX
8
SOLDER_MASK
10
5.837500
20
4.612500
0
VERTEX
8
SOLDER_MASK
10
5.837500
20
5.712500
0
VERTEX
8
SOLDER_MASK
10
6.937500
20
5.712500
0
SEQEND
0
CIRCLE
8
PIN_ID
10
-0.400000
20
-6.780000
40
0.063500
0
CIRCLE
8
PIN_ID
10
0.400000
20
-6.780000
40
0.063500
0
CIRCLE
8
PIN_ID
10
1.200000
20
-6.780000
40
0.063500
0
CIRCLE
8
PIN_ID
10
-1.200000
20
-6.780000
40
0.063500
0
CIRCLE
8
PIN_ID
10
-2.000000
20
-6.780000
40
0.063500
0
CIRCLE
8
PIN_ID
10
2.000000
20
-6.780000
40
0.063500
0
CIRCLE
8
PIN_ID
10
-2.800000
20
-6.780000
40
0.063500
0
CIRCLE
8
PIN_ID
10
2.800000
20
-6.780000
40
0.063500
0
CIRCLE
8
PIN_ID
10
3.600000
20
-6.780000
40
0.063500
0
CIRCLE
8
PIN_ID
10
-3.600000
20
-6.780000
40
0.063500
0
CIRCLE
8
PIN_ID
10
-4.400000
20
-6.780000
40
0.063500
0
CIRCLE
8
PIN_ID
10
-5.200000
20
-6.780000
40
0.063500
0
CIRCLE
8
PIN_ID
10
-6.000000
20
-6.780000
40
0.063500
0
CIRCLE
8
PIN_ID
10
4.400000
20
-6.780000
40
0.063500
0
CIRCLE
8
PIN_ID
10
5.200000
20
-6.780000
40
0.063500
0
CIRCLE
8
PIN_ID
10
6.000000
20
-6.780000
40
0.063500
0
CIRCLE
8
PIN_ID
10
6.800000
20
-6.780000
40
0.063500
0
CIRCLE
8
PIN_ID
10
-0.400000
20
6.780000
40
0.063500
0
CIRCLE
8
PIN_ID
10
0.400000
20
6.780000
40
0.063500
0
CIRCLE
8
PIN_ID
10
1.200000
20
6.780000
40
0.063500
0
CIRCLE
8
PIN_ID
10
2.000000
20
6.780000
40
0.063500
0
CIRCLE
8
PIN_ID
10
2.800000
20
6.780000
40
0.063500
0
CIRCLE
8
PIN_ID
10
3.600000
20
6.780000
40
0.063500
0
CIRCLE
8
PIN_ID
10
4.400000
20
6.780000
40
0.063500
0
CIRCLE
8
PIN_ID
10
5.200000
20
6.780000
40
0.063500
0
CIRCLE
8
PIN_ID
10
6.000000
20
6.780000
40
0.063500
0
CIRCLE
8
PIN_ID
10
6.800000
20
6.780000
40
0.063500
0
CIRCLE
8
PIN_ID
10
-1.200000
20
6.780000
40
0.063500
0
CIRCLE
8
PIN_ID
10
-2.000000
20
6.780000
40
0.063500
0
CIRCLE
8
PIN_ID
10
-2.800000
20
6.780000
40
0.063500
0
CIRCLE
8
PIN_ID
10
-3.600000
20
6.780000
40
0.063500
0
CIRCLE
8
PIN_ID
10
-4.400000
20
6.780000
40
0.063500
0
CIRCLE
8
PIN_ID
10
-5.200000
20
6.780000
40
0.063500
0
CIRCLE
8
PIN_ID
10
-6.000000
20
6.780000
40
0.063500
0
CIRCLE
8
PIN_ID
10
-6.800000
20
6.780000
40
0.063500
0
CIRCLE
8
PIN_ID
10
-8.180000
20
-5.600000
40
0.063500
0
CIRCLE
8
PIN_ID
10
-8.180000
20
-4.800000
40
0.063500
0
CIRCLE
8
PIN_ID
10
-8.180000
20
-4.000000
40
0.063500
0
CIRCLE
8
PIN_ID
10
-8.180000
20
-3.200000
40
0.063500
0
CIRCLE
8
PIN_ID
10
-8.180000
20
-2.400000
40
0.063500
0
CIRCLE
8
PIN_ID
10
-8.180000
20
-1.600000
40
0.063500
0
CIRCLE
8
PIN_ID
10
-8.180000
20
-0.800000
40
0.063500
0
CIRCLE
8
PIN_ID
10
-8.180000
20
0.000000
40
0.063500
0
CIRCLE
8
PIN_ID
10
-8.180000
20
0.800000
40
0.063500
0
CIRCLE
8
PIN_ID
10
-8.180000
20
1.600000
40
0.063500
0
CIRCLE
8
PIN_ID
10
-8.180000
20
2.400000
40
0.063500
0
CIRCLE
8
PIN_ID
10
-8.180000
20
3.200000
40
0.063500
0
CIRCLE
8
PIN_ID
10
-8.180000
20
4.000000
40
0.063500
0
CIRCLE
8
PIN_ID
10
-8.180000
20
4.800000
40
0.063500
0
CIRCLE
8
PIN_ID
10
-8.180000
20
5.600000
40
0.063500
0
CIRCLE
8
PIN_ID
10
8.180000
20
5.600000
40
0.063500
0
CIRCLE
8
PIN_ID
10
8.180000
20
4.800000
40
0.063500
0
CIRCLE
8
PIN_ID
10
8.180000
20
4.000000
40
0.063500
0
CIRCLE
8
PIN_ID
10
8.180000
20
3.200000
40
0.063500
0
CIRCLE
8
PIN_ID
10
8.180000
20
2.400000
40
0.063500
0
CIRCLE
8
PIN_ID
10
8.180000
20
1.600000
40
0.063500
0
CIRCLE
8
PIN_ID
10
8.180000
20
0.800000
40
0.063500
0
CIRCLE
8
PIN_ID
10
8.180000
20
0.000000
40
0.063500
0
CIRCLE
8
PIN_ID
10
8.180000
20
-0.800000
40
0.063500
0
CIRCLE
8
PIN_ID
10
8.180000
20
-1.600000
40
0.063500
0
CIRCLE
8
PIN_ID
10
8.180000
20
-2.400000
40
0.063500
0
CIRCLE
8
PIN_ID
10
8.180000
20
-3.200000
40
0.063500
0
CIRCLE
8
PIN_ID
10
8.180000
20
-4.000000
40
0.063500
0
CIRCLE
8
PIN_ID
10
8.180000
20
-4.800000
40
0.063500
0
CIRCLE
8
PIN_ID
10
8.180000
20
-5.600000
40
0.063500
0
CIRCLE
8
PIN_ID
10
-10.700000
20
9.950000
40
0.063500
0
CIRCLE
8
PIN_ID
10
-8.180000
20
6.780000
40
0.063500
0
CIRCLE
8
PIN_ID
10
8.180000
20
6.780000
40
0.063500
0
CIRCLE
8
PIN_ID
10
-8.180000
20
-6.780000
40
0.063500
0
CIRCLE
8
PIN_ID
10
8.180000
20
-6.780000
40
0.063500
0
CIRCLE
8
PIN_ID
10
10.700000
20
9.950000
40
0.063500
0
CIRCLE
8
PIN_ID
10
10.700000
20
-9.950000
40
0.063500
0
CIRCLE
8
PIN_ID
10
-10.700000
20
-9.950000
40
0.063500
0
CIRCLE
8
PIN_ID
10
-6.387500
20
-5.162500
40
0.063500
0
CIRCLE
8
PIN_ID
10
-6.387500
20
-3.687500
40
0.063500
0
CIRCLE
8
PIN_ID
10
-6.387500
20
-2.212500
40
0.063500
0
CIRCLE
8
PIN_ID
10
-6.387500
20
-0.737500
40
0.063500
0
CIRCLE
8
PIN_ID
10
-6.387500
20
0.737500
40
0.063500
0
CIRCLE
8
PIN_ID
10
-6.387500
20
2.212500
40
0.063500
0
CIRCLE
8
PIN_ID
10
-6.387500
20
3.687500
40
0.063500
0
CIRCLE
8
PIN_ID
10
-6.387500
20
5.162500
40
0.063500
0
CIRCLE
8
PIN_ID
10
-4.562500
20
5.162500
40
0.063500
0
CIRCLE
8
PIN_ID
10
-4.562500
20
3.687500
40
0.063500
0
CIRCLE
8
PIN_ID
10
-4.562500
20
2.212500
40
0.063500
0
CIRCLE
8
PIN_ID
10
-4.562500
20
0.737500
40
0.063500
0
CIRCLE
8
PIN_ID
10
-4.562500
20
-0.737500
40
0.063500
0
CIRCLE
8
PIN_ID
10
-4.562500
20
-2.212500
40
0.063500
0
CIRCLE
8
PIN_ID
10
-4.562500
20
-3.687500
40
0.063500
0
CIRCLE
8
PIN_ID
10
-4.562500
20
-5.162500
40
0.063500
0
CIRCLE
8
PIN_ID
10
-2.737500
20
-5.162500
40
0.063500
0
CIRCLE
8
PIN_ID
10
-0.912500
20
-5.162500
40
0.063500
0
CIRCLE
8
PIN_ID
10
0.912500
20
-5.162500
40
0.063500
0
CIRCLE
8
PIN_ID
10
2.737500
20
-5.162500
40
0.063500
0
CIRCLE
8
PIN_ID
10
-2.737500
20
-3.687500
40
0.063500
0
CIRCLE
8
PIN_ID
10
-0.912500
20
-3.687500
40
0.063500
0
CIRCLE
8
PIN_ID
10
0.912500
20
-3.687500
40
0.063500
0
CIRCLE
8
PIN_ID
10
-2.737500
20
-2.212500
40
0.063500
0
CIRCLE
8
PIN_ID
10
-0.912500
20
-2.212500
40
0.063500
0
CIRCLE
8
PIN_ID
10
0.912500
20
-2.212500
40
0.063500
0
CIRCLE
8
PIN_ID
10
2.737500
20
-2.212500
40
0.063500
0
CIRCLE
8
PIN_ID
10
2.737500
20
-3.687500
40
0.063500
0
CIRCLE
8
PIN_ID
10
4.562500
20
-5.162500
40
0.063500
0
CIRCLE
8
PIN_ID
10
6.387500
20
-5.162500
40
0.063500
0
CIRCLE
8
PIN_ID
10
4.562500
20
-3.687500
40
0.063500
0
CIRCLE
8
PIN_ID
10
6.387500
20
-3.687500
40
0.063500
0
CIRCLE
8
PIN_ID
10
4.562500
20
-2.212500
40
0.063500
0
CIRCLE
8
PIN_ID
10
6.387500
20
-2.212500
40
0.063500
0
CIRCLE
8
PIN_ID
10
6.387500
20
-0.737500
40
0.063500
0
CIRCLE
8
PIN_ID
10
4.562500
20
-0.737500
40
0.063500
0
CIRCLE
8
PIN_ID
10
6.387500
20
0.737500
40
0.063500
0
CIRCLE
8
PIN_ID
10
4.562500
20
0.737500
40
0.063500
0
CIRCLE
8
PIN_ID
10
2.737500
20
-0.737500
40
0.063500
0
CIRCLE
8
PIN_ID
10
0.912500
20
-0.737500
40
0.063500
0
CIRCLE
8
PIN_ID
10
-0.912500
20
-0.737500
40
0.063500
0
CIRCLE
8
PIN_ID
10
-2.737500
20
-0.737500
40
0.063500
0
CIRCLE
8
PIN_ID
10
-2.737500
20
0.737500
40
0.063500
0
CIRCLE
8
PIN_ID
10
-0.912500
20
0.737500
40
0.063500
0
CIRCLE
8
PIN_ID
10
0.912500
20
0.737500
40
0.063500
0
CIRCLE
8
PIN_ID
10
2.737500
20
0.737500
40
0.063500
0
CIRCLE
8
PIN_ID
10
-2.737500
20
2.212500
40
0.063500
0
CIRCLE
8
PIN_ID
10
-2.737500
20
3.687500
40
0.063500
0
CIRCLE
8
PIN_ID
10
-2.737500
20
5.162500
40
0.063500
0
CIRCLE
8
PIN_ID
10
-0.912500
20
5.162500
40
0.063500
0
CIRCLE
8
PIN_ID
10
-0.912500
20
3.687500
40
0.063500
0
CIRCLE
8
PIN_ID
10
-0.912500
20
2.212500
40
0.063500
0
CIRCLE
8
PIN_ID
10
0.912500
20
2.212500
40
0.063500
0
CIRCLE
8
PIN_ID
10
0.912500
20
3.687500
40
0.063500
0
CIRCLE
8
PIN_ID
10
0.912500
20
5.162500
40
0.063500
0
CIRCLE
8
PIN_ID
10
2.737500
20
2.212500
40
0.063500
0
CIRCLE
8
PIN_ID
10
2.737500
20
3.687500
40
0.063500
0
CIRCLE
8
PIN_ID
10
2.737500
20
5.162500
40
0.063500
0
CIRCLE
8
PIN_ID
10
4.562500
20
5.162500
40
0.063500
0
CIRCLE
8
PIN_ID
10
4.562500
20
3.687500
40
0.063500
0
CIRCLE
8
PIN_ID
10
4.562500
20
2.212500
40
0.063500
0
CIRCLE
8
PIN_ID
10
6.387500
20
2.212500
40
0.063500
0
CIRCLE
8
PIN_ID
10
6.387500
20
3.687500
40
0.063500
0
CIRCLE
8
PIN_ID
10
6.387500
20
5.162500
40
0.063500
0
CIRCLE
8
PIN_ID
10
-8.180000
20
-8.280000
40
0.063500
0
CIRCLE
8
PIN_ID
10
-6.400000
20
-8.480000
40
0.063500
0
CIRCLE
8
PIN_ID
10
-5.200000
20
-8.480000
40
0.063500
0
CIRCLE
8
PIN_ID
10
-4.000000
20
-8.480000
40
0.063500
0
CIRCLE
8
PIN_ID
10
-2.800000
20
-8.480000
40
0.063500
0
CIRCLE
8
PIN_ID
10
-1.600000
20
-8.480000
40
0.063500
0
CIRCLE
8
PIN_ID
10
-0.400000
20
-8.480000
40
0.063500
0
CIRCLE
8
PIN_ID
10
0.800000
20
-8.480000
40
0.063500
0
POLYLINE
8
PIN_ID
66
1
70
32
0
VERTEX
8
PIN_ID
10
-6.736500
20
-6.716500
0
VERTEX
8
PIN_ID
10
-6.736500
20
-6.843500
0
VERTEX
8
PIN_ID
10
-6.863500
20
-6.843500
0
VERTEX
8
PIN_ID
10
-6.863500
20
-6.716500
0
VERTEX
8
PIN_ID
10
-6.736500
20
-6.716500
0
SEQEND
0
TEXT
8
PIN_ID
10
-0.400000
20
-6.780000
40
0.100000
1
9
50
90
72
1
73
2
11
-0.400000
21
-6.780000
0
TEXT
8
PIN_ID
10
0.400000
20
-6.780000
40
0.100000
1
10
50
90
72
1
73
2
11
0.400000
21
-6.780000
0
TEXT
8
PIN_ID
10
1.200000
20
-6.780000
40
0.100000
1
11
50
90
72
1
73
2
11
1.200000
21
-6.780000
0
TEXT
8
PIN_ID
10
-1.200000
20
-6.780000
40
0.100000
1
8
50
90
72
1
73
2
11
-1.200000
21
-6.780000
0
TEXT
8
PIN_ID
10
-2.000000
20
-6.780000
40
0.100000
1
7
50
90
72
1
73
2
11
-2.000000
21
-6.780000
0
TEXT
8
PIN_ID
10
2.000000
20
-6.780000
40
0.100000
1
12
50
90
72
1
73
2
11
2.000000
21
-6.780000
0
TEXT
8
PIN_ID
10
-2.800000
20
-6.780000
40
0.100000
1
6
50
90
72
1
73
2
11
-2.800000
21
-6.780000
0
TEXT
8
PIN_ID
10
2.800000
20
-6.780000
40
0.100000
1
13
50
90
72
1
73
2
11
2.800000
21
-6.780000
0
TEXT
8
PIN_ID
10
3.600000
20
-6.780000
40
0.100000
1
14
50
90
72
1
73
2
11
3.600000
21
-6.780000
0
TEXT
8
PIN_ID
10
-3.600000
20
-6.780000
40
0.100000
1
5
50
90
72
1
73
2
11
-3.600000
21
-6.780000
0
TEXT
8
PIN_ID
10
-4.400000
20
-6.780000
40
0.100000
1
4
50
90
72
1
73
2
11
-4.400000
21
-6.780000
0
TEXT
8
PIN_ID
10
-5.200000
20
-6.780000
40
0.100000
1
3
50
90
72
1
73
2
11
-5.200000
21
-6.780000
0
TEXT
8
PIN_ID
10
-6.000000
20
-6.780000
40
0.100000
1
2
50
90
72
1
73
2
11
-6.000000
21
-6.780000
0
TEXT
8
PIN_ID
10
-6.800000
20
-6.780000
40
0.100000
1
1
50
90
72
1
73
2
11
-6.800000
21
-6.780000
0
TEXT
8
PIN_ID
10
4.400000
20
-6.780000
40
0.100000
1
15
50
90
72
1
73
2
11
4.400000
21
-6.780000
0
TEXT
8
PIN_ID
10
5.200000
20
-6.780000
40
0.100000
1
16
50
90
72
1
73
2
11
5.200000
21
-6.780000
0
TEXT
8
PIN_ID
10
6.000000
20
-6.780000
40
0.100000
1
17
50
90
72
1
73
2
11
6.000000
21
-6.780000
0
TEXT
8
PIN_ID
10
6.800000
20
-6.780000
40
0.100000
1
18
50
90
72
1
73
2
11
6.800000
21
-6.780000
0
TEXT
8
PIN_ID
10
-0.400000
20
6.780000
40
0.100000
1
43
50
90
72
1
73
2
11
-0.400000
21
6.780000
0
TEXT
8
PIN_ID
10
0.400000
20
6.780000
40
0.100000
1
42
50
90
72
1
73
2
11
0.400000
21
6.780000
0
TEXT
8
PIN_ID
10
1.200000
20
6.780000
40
0.100000
1
41
50
90
72
1
73
2
11
1.200000
21
6.780000
0
TEXT
8
PIN_ID
10
2.000000
20
6.780000
40
0.100000
1
40
50
90
72
1
73
2
11
2.000000
21
6.780000
0
TEXT
8
PIN_ID
10
2.800000
20
6.780000
40
0.100000
1
39
50
90
72
1
73
2
11
2.800000
21
6.780000
0
TEXT
8
PIN_ID
10
3.600000
20
6.780000
40
0.100000
1
38
50
90
72
1
73
2
11
3.600000
21
6.780000
0
TEXT
8
PIN_ID
10
4.400000
20
6.780000
40
0.100000
1
37
50
90
72
1
73
2
11
4.400000
21
6.780000
0
TEXT
8
PIN_ID
10
5.200000
20
6.780000
40
0.100000
1
36
50
90
72
1
73
2
11
5.200000
21
6.780000
0
TEXT
8
PIN_ID
10
6.000000
20
6.780000
40
0.100000
1
35
50
90
72
1
73
2
11
6.000000
21
6.780000
0
TEXT
8
PIN_ID
10
6.800000
20
6.780000
40
0.100000
1
34
50
90
72
1
73
2
11
6.800000
21
6.780000
0
TEXT
8
PIN_ID
10
-1.200000
20
6.780000
40
0.100000
1
44
50
90
72
1
73
2
11
-1.200000
21
6.780000
0
TEXT
8
PIN_ID
10
-2.000000
20
6.780000
40
0.100000
1
45
50
90
72
1
73
2
11
-2.000000
21
6.780000
0
TEXT
8
PIN_ID
10
-2.800000
20
6.780000
40
0.100000
1
46
50
90
72
1
73
2
11
-2.800000
21
6.780000
0
TEXT
8
PIN_ID
10
-3.600000
20
6.780000
40
0.100000
1
47
50
90
72
1
73
2
11
-3.600000
21
6.780000
0
TEXT
8
PIN_ID
10
-4.400000
20
6.780000
40
0.100000
1
48
50
90
72
1
73
2
11
-4.400000
21
6.780000
0
TEXT
8
PIN_ID
10
-5.200000
20
6.780000
40
0.100000
1
49
50
90
72
1
73
2
11
-5.200000
21
6.780000
0
TEXT
8
PIN_ID
10
-6.000000
20
6.780000
40
0.100000
1
50
50
90
72
1
73
2
11
-6.000000
21
6.780000
0
TEXT
8
PIN_ID
10
-6.800000
20
6.780000
40
0.100000
1
51
50
90
72
1
73
2
11
-6.800000
21
6.780000
0
TEXT
8
PIN_ID
10
-8.180000
20
-5.600000
40
0.100000
1
66
50
0
72
1
73
2
11
-8.180000
21
-5.600000
0
TEXT
8
PIN_ID
10
-8.180000
20
-4.800000
40
0.100000
1
65
50
0
72
1
73
2
11
-8.180000
21
-4.800000
0
TEXT
8
PIN_ID
10
-8.180000
20
-4.000000
40
0.100000
1
64
50
0
72
1
73
2
11
-8.180000
21
-4.000000
0
TEXT
8
PIN_ID
10
-8.180000
20
-3.200000
40
0.100000
1
63
50
0
72
1
73
2
11
-8.180000
21
-3.200000
0
TEXT
8
PIN_ID
10
-8.180000
20
-2.400000
40
0.100000
1
62
50
0
72
1
73
2
11
-8.180000
21
-2.400000
0
TEXT
8
PIN_ID
10
-8.180000
20
-1.600000
40
0.100000
1
61
50
0
72
1
73
2
11
-8.180000
21
-1.600000
0
TEXT
8
PIN_ID
10
-8.180000
20
-0.800000
40
0.100000
1
60
50
0
72
1
73
2
11
-8.180000
21
-0.800000
0
TEXT
8
PIN_ID
10
-8.180000
20
0.000000
40
0.100000
1
59
50
0
72
1
73
2
11
-8.180000
21
0.000000
0
TEXT
8
PIN_ID
10
-8.180000
20
0.800000
40
0.100000
1
58
50
0
72
1
73
2
11
-8.180000
21
0.800000
0
TEXT
8
PIN_ID
10
-8.180000
20
1.600000
40
0.100000
1
57
50
0
72
1
73
2
11
-8.180000
21
1.600000
0
TEXT
8
PIN_ID
10
-8.180000
20
2.400000
40
0.100000
1
56
50
0
72
1
73
2
11
-8.180000
21
2.400000
0
TEXT
8
PIN_ID
10
-8.180000
20
3.200000
40
0.100000
1
55
50
0
72
1
73
2
11
-8.180000
21
3.200000
0
TEXT
8
PIN_ID
10
-8.180000
20
4.000000
40
0.100000
1
54
50
0
72
1
73
2
11
-8.180000
21
4.000000
0
TEXT
8
PIN_ID
10
-8.180000
20
4.800000
40
0.100000
1
53
50
0
72
1
73
2
11
-8.180000
21
4.800000
0
TEXT
8
PIN_ID
10
-8.180000
20
5.600000
40
0.100000
1
52
50
0
72
1
73
2
11
-8.180000
21
5.600000
0
TEXT
8
PIN_ID
10
8.180000
20
5.600000
40
0.100000
1
33
50
0
72
1
73
2
11
8.180000
21
5.600000
0
TEXT
8
PIN_ID
10
8.180000
20
4.800000
40
0.100000
1
32
50
0
72
1
73
2
11
8.180000
21
4.800000
0
TEXT
8
PIN_ID
10
8.180000
20
4.000000
40
0.100000
1
31
50
0
72
1
73
2
11
8.180000
21
4.000000
0
TEXT
8
PIN_ID
10
8.180000
20
3.200000
40
0.100000
1
30
50
0
72
1
73
2
11
8.180000
21
3.200000
0
TEXT
8
PIN_ID
10
8.180000
20
2.400000
40
0.100000
1
29
50
0
72
1
73
2
11
8.180000
21
2.400000
0
TEXT
8
PIN_ID
10
8.180000
20
1.600000
40
0.100000
1
28
50
0
72
1
73
2
11
8.180000
21
1.600000
0
TEXT
8
PIN_ID
10
8.180000
20
0.800000
40
0.100000
1
27
50
0
72
1
73
2
11
8.180000
21
0.800000
0
TEXT
8
PIN_ID
10
8.180000
20
0.000000
40
0.100000
1
26
50
0
72
1
73
2
11
8.180000
21
0.000000
0
TEXT
8
PIN_ID
10
8.180000
20
-0.800000
40
0.100000
1
25
50
0
72
1
73
2
11
8.180000
21
-0.800000
0
TEXT
8
PIN_ID
10
8.180000
20
-1.600000
40
0.100000
1
24
50
0
72
1
73
2
11
8.180000
21
-1.600000
0
TEXT
8
PIN_ID
10
8.180000
20
-2.400000
40
0.100000
1
23
50
0
72
1
73
2
11
8.180000
21
-2.400000
0
TEXT
8
PIN_ID
10
8.180000
20
-3.200000
40
0.100000
1
22
50
0
72
1
73
2
11
8.180000
21
-3.200000
0
TEXT
8
PIN_ID
10
8.180000
20
-4.000000
40
0.100000
1
21
50
0
72
1
73
2
11
8.180000
21
-4.000000
0
TEXT
8
PIN_ID
10
8.180000
20
-4.800000
40
0.100000
1
20
50
0
72
1
73
2
11
8.180000
21
-4.800000
0
TEXT
8
PIN_ID
10
8.180000
20
-5.600000
40
0.100000
1
19
50
0
72
1
73
2
11
8.180000
21
-5.600000
0
TEXT
8
PIN_ID
10
-10.700000
20
9.950000
40
0.100000
1
170
50
90
72
1
73
2
11
-10.700000
21
9.950000
0
TEXT
8
PIN_ID
10
-8.180000
20
6.780000
40
0.100000
1
70
50
0
72
1
73
2
11
-8.180000
21
6.780000
0
TEXT
8
PIN_ID
10
8.180000
20
6.780000
40
0.100000
1
69
50
0
72
1
73
2
11
8.180000
21
6.780000
0
TEXT
8
PIN_ID
10
-8.180000
20
-6.780000
40
0.100000
1
67
50
0
72
1
73
2
11
-8.180000
21
-6.780000
0
TEXT
8
PIN_ID
10
8.180000
20
-6.780000
40
0.100000
1
68
50
0
72
1
73
2
11
8.180000
21
-6.780000
0
TEXT
8
PIN_ID
10
10.700000
20
9.950000
40
0.100000
1
169
50
90
72
1
73
2
11
10.700000
21
9.950000
0
TEXT
8
PIN_ID
10
10.700000
20
-9.950000
40
0.100000
1
168
50
90
72
1
73
2
11
10.700000
21
-9.950000
0
TEXT
8
PIN_ID
10
-10.700000
20
-9.950000
40
0.100000
1
167
50
90
72
1
73
2
11
-10.700000
21
-9.950000
0
TEXT
8
PIN_ID
10
-6.387500
20
-5.162500
40
0.100000
1
171
50
0
72
1
73
2
11
-6.387500
21
-5.162500
0
TEXT
8
PIN_ID
10
-6.387500
20
-3.687500
40
0.100000
1
172
50
0
72
1
73
2
11
-6.387500
21
-3.687500
0
TEXT
8
PIN_ID
10
-6.387500
20
-2.212500
40
0.100000
1
173
50
0
72
1
73
2
11
-6.387500
21
-2.212500
0
TEXT
8
PIN_ID
10
-6.387500
20
-0.737500
40
0.100000
1
174
50
0
72
1
73
2
11
-6.387500
21
-0.737500
0
TEXT
8
PIN_ID
10
-6.387500
20
0.737500
40
0.100000
1
175
50
0
72
1
73
2
11
-6.387500
21
0.737500
0
TEXT
8
PIN_ID
10
-6.387500
20
2.212500
40
0.100000
1
176
50
0
72
1
73
2
11
-6.387500
21
2.212500
0
TEXT
8
PIN_ID
10
-6.387500
20
3.687500
40
0.100000
1
177
50
0
72
1
73
2
11
-6.387500
21
3.687500
0
TEXT
8
PIN_ID
10
-6.387500
20
5.162500
40
0.100000
1
178
50
0
72
1
73
2
11
-6.387500
21
5.162500
0
TEXT
8
PIN_ID
10
-4.562500
20
5.162500
40
0.100000
1
179
50
0
72
1
73
2
11
-4.562500
21
5.162500
0
TEXT
8
PIN_ID
10
-4.562500
20
3.687500
40
0.100000
1
204
50
0
72
1
73
2
11
-4.562500
21
3.687500
0
TEXT
8
PIN_ID
10
-4.562500
20
2.212500
40
0.100000
1
203
50
0
72
1
73
2
11
-4.562500
21
2.212500
0
TEXT
8
PIN_ID
10
-4.562500
20
0.737500
40
0.100000
1
202
50
0
72
1
73
2
11
-4.562500
21
0.737500
0
TEXT
8
PIN_ID
10
-4.562500
20
-0.737500
40
0.100000
1
201
50
0
72
1
73
2
11
-4.562500
21
-0.737500
0
TEXT
8
PIN_ID
10
-4.562500
20
-2.212500
40
0.100000
1
200
50
0
72
1
73
2
11
-4.562500
21
-2.212500
0
TEXT
8
PIN_ID
10
-4.562500
20
-3.687500
40
0.100000
1
199
50
0
72
1
73
2
11
-4.562500
21
-3.687500
0
TEXT
8
PIN_ID
10
-4.562500
20
-5.162500
40
0.100000
1
198
50
0
72
1
73
2
11
-4.562500
21
-5.162500
0
TEXT
8
PIN_ID
10
-2.737500
20
-5.162500
40
0.100000
1
197
50
0
72
1
73
2
11
-2.737500
21
-5.162500
0
TEXT
8
PIN_ID
10
-0.912500
20
-5.162500
40
0.100000
1
196
50
0
72
1
73
2
11
-0.912500
21
-5.162500
0
TEXT
8
PIN_ID
10
0.912500
20
-5.162500
40
0.100000
1
195
50
0
72
1
73
2
11
0.912500
21
-5.162500
0
TEXT
8
PIN_ID
10
2.737500
20
-5.162500
40
0.100000
1
194
50
0
72
1
73
2
11
2.737500
21
-5.162500
0
TEXT
8
PIN_ID
10
-2.737500
20
-3.687500
40
0.100000
1
218
50
0
72
1
73
2
11
-2.737500
21
-3.687500
0
TEXT
8
PIN_ID
10
-0.912500
20
-3.687500
40
0.100000
1
217
50
0
72
1
73
2
11
-0.912500
21
-3.687500
0
TEXT
8
PIN_ID
10
0.912500
20
-3.687500
40
0.100000
1
216
50
0
72
1
73
2
11
0.912500
21
-3.687500
0
TEXT
8
PIN_ID
10
-2.737500
20
-2.212500
40
0.100000
1
219
50
0
72
1
73
2
11
-2.737500
21
-2.212500
0
TEXT
8
PIN_ID
10
-0.912500
20
-2.212500
40
0.100000
1
230
50
0
72
1
73
2
11
-0.912500
21
-2.212500
0
TEXT
8
PIN_ID
10
0.912500
20
-2.212500
40
0.100000
1
229
50
0
72
1
73
2
11
0.912500
21
-2.212500
0
TEXT
8
PIN_ID
10
2.737500
20
-2.212500
40
0.100000
1
228
50
0
72
1
73
2
11
2.737500
21
-2.212500
0
TEXT
8
PIN_ID
10
2.737500
20
-3.687500
40
0.100000
1
215
50
0
72
1
73
2
11
2.737500
21
-3.687500
0
TEXT
8
PIN_ID
10
4.562500
20
-5.162500
40
0.100000
1
193
50
0
72
1
73
2
11
4.562500
21
-5.162500
0
TEXT
8
PIN_ID
10
6.387500
20
-5.162500
40
0.100000
1
192
50
0
72
1
73
2
11
6.387500
21
-5.162500
0
TEXT
8
PIN_ID
10
4.562500
20
-3.687500
40
0.100000
1
214
50
0
72
1
73
2
11
4.562500
21
-3.687500
0
TEXT
8
PIN_ID
10
6.387500
20
-3.687500
40
0.100000
1
191
50
0
72
1
73
2
11
6.387500
21
-3.687500
0
TEXT
8
PIN_ID
10
4.562500
20
-2.212500
40
0.100000
1
213
50
0
72
1
73
2
11
4.562500
21
-2.212500
0
TEXT
8
PIN_ID
10
6.387500
20
-2.212500
40
0.100000
1
190
50
0
72
1
73
2
11
6.387500
21
-2.212500
0
TEXT
8
PIN_ID
10
6.387500
20
-0.737500
40
0.100000
1
189
50
0
72
1
73
2
11
6.387500
21
-0.737500
0
TEXT
8
PIN_ID
10
4.562500
20
-0.737500
40
0.100000
1
212
50
0
72
1
73
2
11
4.562500
21
-0.737500
0
TEXT
8
PIN_ID
10
6.387500
20
0.737500
40
0.100000
1
188
50
0
72
1
73
2
11
6.387500
21
0.737500
0
TEXT
8
PIN_ID
10
4.562500
20
0.737500
40
0.100000
1
211
50
0
72
1
73
2
11
4.562500
21
0.737500
0
TEXT
8
PIN_ID
10
2.737500
20
-0.737500
40
0.100000
1
227
50
0
72
1
73
2
11
2.737500
21
-0.737500
0
TEXT
8
PIN_ID
10
0.912500
20
-0.737500
40
0.100000
1
234
50
0
72
1
73
2
11
0.912500
21
-0.737500
0
TEXT
8
PIN_ID
10
-0.912500
20
-0.737500
40
0.100000
1
231
50
0
72
1
73
2
11
-0.912500
21
-0.737500
0
TEXT
8
PIN_ID
10
-2.737500
20
-0.737500
40
0.100000
1
220
50
0
72
1
73
2
11
-2.737500
21
-0.737500
0
TEXT
8
PIN_ID
10
-2.737500
20
0.737500
40
0.100000
1
221
50
0
72
1
73
2
11
-2.737500
21
0.737500
0
TEXT
8
PIN_ID
10
-0.912500
20
0.737500
40
0.100000
1
232
50
0
72
1
73
2
11
-0.912500
21
0.737500
0
TEXT
8
PIN_ID
10
0.912500
20
0.737500
40
0.100000
1
233
50
0
72
1
73
2
11
0.912500
21
0.737500
0
TEXT
8
PIN_ID
10
2.737500
20
0.737500
40
0.100000
1
226
50
0
72
1
73
2
11
2.737500
21
0.737500
0
TEXT
8
PIN_ID
10
-2.737500
20
2.212500
40
0.100000
1
222
50
0
72
1
73
2
11
-2.737500
21
2.212500
0
TEXT
8
PIN_ID
10
-2.737500
20
3.687500
40
0.100000
1
205
50
0
72
1
73
2
11
-2.737500
21
3.687500
0
TEXT
8
PIN_ID
10
-2.737500
20
5.162500
40
0.100000
1
180
50
0
72
1
73
2
11
-2.737500
21
5.162500
0
TEXT
8
PIN_ID
10
-0.912500
20
5.162500
40
0.100000
1
181
50
0
72
1
73
2
11
-0.912500
21
5.162500
0
TEXT
8
PIN_ID
10
-0.912500
20
3.687500
40
0.100000
1
206
50
0
72
1
73
2
11
-0.912500
21
3.687500
0
TEXT
8
PIN_ID
10
-0.912500
20
2.212500
40
0.100000
1
223
50
0
72
1
73
2
11
-0.912500
21
2.212500
0
TEXT
8
PIN_ID
10
0.912500
20
2.212500
40
0.100000
1
224
50
0
72
1
73
2
11
0.912500
21
2.212500
0
TEXT
8
PIN_ID
10
0.912500
20
3.687500
40
0.100000
1
207
50
0
72
1
73
2
11
0.912500
21
3.687500
0
TEXT
8
PIN_ID
10
0.912500
20
5.162500
40
0.100000
1
182
50
0
72
1
73
2
11
0.912500
21
5.162500
0
TEXT
8
PIN_ID
10
2.737500
20
2.212500
40
0.100000
1
225
50
0
72
1
73
2
11
2.737500
21
2.212500
0
TEXT
8
PIN_ID
10
2.737500
20
3.687500
40
0.100000
1
208
50
0
72
1
73
2
11
2.737500
21
3.687500
0
TEXT
8
PIN_ID
10
2.737500
20
5.162500
40
0.100000
1
183
50
0
72
1
73
2
11
2.737500
21
5.162500
0
TEXT
8
PIN_ID
10
4.562500
20
5.162500
40
0.100000
1
184
50
0
72
1
73
2
11
4.562500
21
5.162500
0
TEXT
8
PIN_ID
10
4.562500
20
3.687500
40
0.100000
1
209
50
0
72
1
73
2
11
4.562500
21
3.687500
0
TEXT
8
PIN_ID
10
4.562500
20
2.212500
40
0.100000
1
210
50
0
72
1
73
2
11
4.562500
21
2.212500
0
TEXT
8
PIN_ID
10
6.387500
20
2.212500
40
0.100000
1
187
50
0
72
1
73
2
11
6.387500
21
2.212500
0
TEXT
8
PIN_ID
10
6.387500
20
3.687500
40
0.100000
1
186
50
0
72
1
73
2
11
6.387500
21
3.687500
0
TEXT
8
PIN_ID
10
6.387500
20
5.162500
40
0.100000
1
185
50
0
72
1
73
2
11
6.387500
21
5.162500
0
TEXT
8
PIN_ID
10
-8.180000
20
-8.280000
40
0.100000
1
235
50
0
72
1
73
2
11
-8.180000
21
-8.280000
0
TEXT
8
PIN_ID
10
-6.400000
20
-8.480000
40
0.100000
1
236
50
0
72
1
73
2
11
-6.400000
21
-8.480000
0
TEXT
8
PIN_ID
10
-5.200000
20
-8.480000
40
0.100000
1
237
50
0
72
1
73
2
11
-5.200000
21
-8.480000
0
TEXT
8
PIN_ID
10
-4.000000
20
-8.480000
40
0.100000
1
238
50
0
72
1
73
2
11
-4.000000
21
-8.480000
0
TEXT
8
PIN_ID
10
-2.800000
20
-8.480000
40
0.100000
1
239
50
0
72
1
73
2
11
-2.800000
21
-8.480000
0
TEXT
8
PIN_ID
10
-1.600000
20
-8.480000
40
0.100000
1
240
50
0
72
1
73
2
11
-1.600000
21
-8.480000
0
TEXT
8
PIN_ID
10
-0.400000
20
-8.480000
40
0.100000
1
241
50
0
72
1
73
2
11
-0.400000
21
-8.480000
0
TEXT
8
PIN_ID
10
0.800000
20
-8.480000
40
0.100000
1
242
50
0
72
1
73
2
11
0.800000
21
-8.480000
0
CIRCLE
8
PASTE_MASK
10
-6.400000
20
-8.480000
40
0.360000
0
CIRCLE
8
PASTE_MASK
10
-5.200000
20
-8.480000
40
0.360000
0
CIRCLE
8
PASTE_MASK
10
-4.000000
20
-8.480000
40
0.360000
0
CIRCLE
8
PASTE_MASK
10
-2.800000
20
-8.480000
40
0.360000
0
CIRCLE
8
PASTE_MASK
10
-1.600000
20
-8.480000
40
0.360000
0
CIRCLE
8
PASTE_MASK
10
-0.400000
20
-8.480000
40
0.360000
0
CIRCLE
8
PASTE_MASK
10
0.800000
20
-8.480000
40
0.360000
0
POLYLINE
8
PASTE_MASK
66
1
70
32
0
VERTEX
8
PASTE_MASK
10
-0.190000
20
-6.320000
0
VERTEX
8
PASTE_MASK
10
-0.190000
20
-7.240000
0
VERTEX
8
PASTE_MASK
10
-0.610000
20
-7.240000
0
VERTEX
8
PASTE_MASK
10
-0.610000
20
-6.320000
0
VERTEX
8
PASTE_MASK
10
-0.190000
20
-6.320000
0
SEQEND
0
POLYLINE
8
PASTE_MASK
66
1
70
32
0
VERTEX
8
PASTE_MASK
10
0.610000
20
-6.320000
0
VERTEX
8
PASTE_MASK
10
0.610000
20
-7.240000
0
VERTEX
8
PASTE_MASK
10
0.190000
20
-7.240000
0
VERTEX
8
PASTE_MASK
10
0.190000
20
-6.320000
0
VERTEX
8
PASTE_MASK
10
0.610000
20
-6.320000
0
SEQEND
0
POLYLINE
8
PASTE_MASK
66
1
70
32
0
VERTEX
8
PASTE_MASK
10
1.410000
20
-6.320000
0
VERTEX
8
PASTE_MASK
10
1.410000
20
-7.240000
0
VERTEX
8
PASTE_MASK
10
0.990000
20
-7.240000
0
VERTEX
8
PASTE_MASK
10
0.990000
20
-6.320000
0
VERTEX
8
PASTE_MASK
10
1.410000
20
-6.320000
0
SEQEND
0
POLYLINE
8
PASTE_MASK
66
1
70
32
0
VERTEX
8
PASTE_MASK
10
-0.990000
20
-6.320000
0
VERTEX
8
PASTE_MASK
10
-0.990000
20
-7.240000
0
VERTEX
8
PASTE_MASK
10
-1.410000
20
-7.240000
0
VERTEX
8
PASTE_MASK
10
-1.410000
20
-6.320000
0
VERTEX
8
PASTE_MASK
10
-0.990000
20
-6.320000
0
SEQEND
0
POLYLINE
8
PASTE_MASK
66
1
70
32
0
VERTEX
8
PASTE_MASK
10
-1.790000
20
-6.320000
0
VERTEX
8
PASTE_MASK
10
-1.790000
20
-7.240000
0
VERTEX
8
PASTE_MASK
10
-2.210000
20
-7.240000
0
VERTEX
8
PASTE_MASK
10
-2.210000
20
-6.320000
0
VERTEX
8
PASTE_MASK
10
-1.790000
20
-6.320000
0
SEQEND
0
POLYLINE
8
PASTE_MASK
66
1
70
32
0
VERTEX
8
PASTE_MASK
10
2.210000
20
-6.320000
0
VERTEX
8
PASTE_MASK
10
2.210000
20
-7.240000
0
VERTEX
8
PASTE_MASK
10
1.790000
20
-7.240000
0
VERTEX
8
PASTE_MASK
10
1.790000
20
-6.320000
0
VERTEX
8
PASTE_MASK
10
2.210000
20
-6.320000
0
SEQEND
0
POLYLINE
8
PASTE_MASK
66
1
70
32
0
VERTEX
8
PASTE_MASK
10
-2.590000
20
-6.320000
0
VERTEX
8
PASTE_MASK
10
-2.590000
20
-7.240000
0
VERTEX
8
PASTE_MASK
10
-3.010000
20
-7.240000
0
VERTEX
8
PASTE_MASK
10
-3.010000
20
-6.320000
0
VERTEX
8
PASTE_MASK
10
-2.590000
20
-6.320000
0
SEQEND
0
POLYLINE
8
PASTE_MASK
66
1
70
32
0
VERTEX
8
PASTE_MASK
10
3.010000
20
-6.320000
0
VERTEX
8
PASTE_MASK
10
3.010000
20
-7.240000
0
VERTEX
8
PASTE_MASK
10
2.590000
20
-7.240000
0
VERTEX
8
PASTE_MASK
10
2.590000
20
-6.320000
0
VERTEX
8
PASTE_MASK
10
3.010000
20
-6.320000
0
SEQEND
0
POLYLINE
8
PASTE_MASK
66
1
70
32
0
VERTEX
8
PASTE_MASK
10
3.810000
20
-6.320000
0
VERTEX
8
PASTE_MASK
10
3.810000
20
-7.240000
0
VERTEX
8
PASTE_MASK
10
3.390000
20
-7.240000
0
VERTEX
8
PASTE_MASK
10
3.390000
20
-6.320000
0
VERTEX
8
PASTE_MASK
10
3.810000
20
-6.320000
0
SEQEND
0
POLYLINE
8
PASTE_MASK
66
1
70
32
0
VERTEX
8
PASTE_MASK
10
-3.390000
20
-6.320000
0
VERTEX
8
PASTE_MASK
10
-3.390000
20
-7.240000
0
VERTEX
8
PASTE_MASK
10
-3.810000
20
-7.240000
0
VERTEX
8
PASTE_MASK
10
-3.810000
20
-6.320000
0
VERTEX
8
PASTE_MASK
10
-3.390000
20
-6.320000
0
SEQEND
0
POLYLINE
8
PASTE_MASK
66
1
70
32
0
VERTEX
8
PASTE_MASK
10
-4.190000
20
-6.320000
0
VERTEX
8
PASTE_MASK
10
-4.190000
20
-7.240000
0
VERTEX
8
PASTE_MASK
10
-4.610000
20
-7.240000
0
VERTEX
8
PASTE_MASK
10
-4.610000
20
-6.320000
0
VERTEX
8
PASTE_MASK
10
-4.190000
20
-6.320000
0
SEQEND
0
POLYLINE
8
PASTE_MASK
66
1
70
32
0
VERTEX
8
PASTE_MASK
10
-4.990000
20
-6.320000
0
VERTEX
8
PASTE_MASK
10
-4.990000
20
-7.240000
0
VERTEX
8
PASTE_MASK
10
-5.410000
20
-7.240000
0
VERTEX
8
PASTE_MASK
10
-5.410000
20
-6.320000
0
VERTEX
8
PASTE_MASK
10
-4.990000
20
-6.320000
0
SEQEND
0
POLYLINE
8
PASTE_MASK
66
1
70
32
0
VERTEX
8
PASTE_MASK
10
-5.790000
20
-6.320000
0
VERTEX
8
PASTE_MASK
10
-5.790000
20
-7.240000
0
VERTEX
8
PASTE_MASK
10
-6.210000
20
-7.240000
0
VERTEX
8
PASTE_MASK
10
-6.210000
20
-6.320000
0
VERTEX
8
PASTE_MASK
10
-5.790000
20
-6.320000
0
SEQEND
0
POLYLINE
8
PASTE_MASK
66
1
70
32
0
VERTEX
8
PASTE_MASK
10
-6.590000
20
-6.320000
0
VERTEX
8
PASTE_MASK
10
-6.590000
20
-7.240000
0
VERTEX
8
PASTE_MASK
10
-7.010000
20
-7.240000
0
VERTEX
8
PASTE_MASK
10
-7.010000
20
-6.320000
0
VERTEX
8
PASTE_MASK
10
-6.590000
20
-6.320000
0
SEQEND
0
POLYLINE
8
PASTE_MASK
66
1
70
32
0
VERTEX
8
PASTE_MASK
10
4.610000
20
-6.320000
0
VERTEX
8
PASTE_MASK
10
4.610000
20
-7.240000
0
VERTEX
8
PASTE_MASK
10
4.190000
20
-7.240000
0
VERTEX
8
PASTE_MASK
10
4.190000
20
-6.320000
0
VERTEX
8
PASTE_MASK
10
4.610000
20
-6.320000
0
SEQEND
0
POLYLINE
8
PASTE_MASK
66
1
70
32
0
VERTEX
8
PASTE_MASK
10
5.410000
20
-6.320000
0
VERTEX
8
PASTE_MASK
10
5.410000
20
-7.240000
0
VERTEX
8
PASTE_MASK
10
4.990000
20
-7.240000
0
VERTEX
8
PASTE_MASK
10
4.990000
20
-6.320000
0
VERTEX
8
PASTE_MASK
10
5.410000
20
-6.320000
0
SEQEND
0
POLYLINE
8
PASTE_MASK
66
1
70
32
0
VERTEX
8
PASTE_MASK
10
6.210000
20
-6.320000
0
VERTEX
8
PASTE_MASK
10
6.210000
20
-7.240000
0
VERTEX
8
PASTE_MASK
10
5.790000
20
-7.240000
0
VERTEX
8
PASTE_MASK
10
5.790000
20
-6.320000
0
VERTEX
8
PASTE_MASK
10
6.210000
20
-6.320000
0
SEQEND
0
POLYLINE
8
PASTE_MASK
66
1
70
32
0
VERTEX
8
PASTE_MASK
10
7.010000
20
-6.320000
0
VERTEX
8
PASTE_MASK
10
7.010000
20
-7.240000
0
VERTEX
8
PASTE_MASK
10
6.590000
20
-7.240000
0
VERTEX
8
PASTE_MASK
10
6.590000
20
-6.320000
0
VERTEX
8
PASTE_MASK
10
7.010000
20
-6.320000
0
SEQEND
0
POLYLINE
8
PASTE_MASK
66
1
70
32
0
VERTEX
8
PASTE_MASK
10
-0.190000
20
7.240000
0
VERTEX
8
PASTE_MASK
10
-0.190000
20
6.320000
0
VERTEX
8
PASTE_MASK
10
-0.610000
20
6.320000
0
VERTEX
8
PASTE_MASK
10
-0.610000
20
7.240000
0
VERTEX
8
PASTE_MASK
10
-0.190000
20
7.240000
0
SEQEND
0
POLYLINE
8
PASTE_MASK
66
1
70
32
0
VERTEX
8
PASTE_MASK
10
0.610000
20
7.240000
0
VERTEX
8
PASTE_MASK
10
0.610000
20
6.320000
0
VERTEX
8
PASTE_MASK
10
0.190000
20
6.320000
0
VERTEX
8
PASTE_MASK
10
0.190000
20
7.240000
0
VERTEX
8
PASTE_MASK
10
0.610000
20
7.240000
0
SEQEND
0
POLYLINE
8
PASTE_MASK
66
1
70
32
0
VERTEX
8
PASTE_MASK
10
1.410000
20
7.240000
0
VERTEX
8
PASTE_MASK
10
1.410000
20
6.320000
0
VERTEX
8
PASTE_MASK
10
0.990000
20
6.320000
0
VERTEX
8
PASTE_MASK
10
0.990000
20
7.240000
0
VERTEX
8
PASTE_MASK
10
1.410000
20
7.240000
0
SEQEND
0
POLYLINE
8
PASTE_MASK
66
1
70
32
0
VERTEX
8
PASTE_MASK
10
2.210000
20
7.240000
0
VERTEX
8
PASTE_MASK
10
2.210000
20
6.320000
0
VERTEX
8
PASTE_MASK
10
1.790000
20
6.320000
0
VERTEX
8
PASTE_MASK
10
1.790000
20
7.240000
0
VERTEX
8
PASTE_MASK
10
2.210000
20
7.240000
0
SEQEND
0
POLYLINE
8
PASTE_MASK
66
1
70
32
0
VERTEX
8
PASTE_MASK
10
3.010000
20
7.240000
0
VERTEX
8
PASTE_MASK
10
3.010000
20
6.320000
0
VERTEX
8
PASTE_MASK
10
2.590000
20
6.320000
0
VERTEX
8
PASTE_MASK
10
2.590000
20
7.240000
0
VERTEX
8
PASTE_MASK
10
3.010000
20
7.240000
0
SEQEND
0
POLYLINE
8
PASTE_MASK
66
1
70
32
0
VERTEX
8
PASTE_MASK
10
3.810000
20
7.240000
0
VERTEX
8
PASTE_MASK
10
3.810000
20
6.320000
0
VERTEX
8
PASTE_MASK
10
3.390000
20
6.320000
0
VERTEX
8
PASTE_MASK
10
3.390000
20
7.240000
0
VERTEX
8
PASTE_MASK
10
3.810000
20
7.240000
0
SEQEND
0
POLYLINE
8
PASTE_MASK
66
1
70
32
0
VERTEX
8
PASTE_MASK
10
4.610000
20
7.240000
0
VERTEX
8
PASTE_MASK
10
4.610000
20
6.320000
0
VERTEX
8
PASTE_MASK
10
4.190000
20
6.320000
0
VERTEX
8
PASTE_MASK
10
4.190000
20
7.240000
0
VERTEX
8
PASTE_MASK
10
4.610000
20
7.240000
0
SEQEND
0
POLYLINE
8
PASTE_MASK
66
1
70
32
0
VERTEX
8
PASTE_MASK
10
5.410000
20
7.240000
0
VERTEX
8
PASTE_MASK
10
5.410000
20
6.320000
0
VERTEX
8
PASTE_MASK
10
4.990000
20
6.320000
0
VERTEX
8
PASTE_MASK
10
4.990000
20
7.240000
0
VERTEX
8
PASTE_MASK
10
5.410000
20
7.240000
0
SEQEND
0
POLYLINE
8
PASTE_MASK
66
1
70
32
0
VERTEX
8
PASTE_MASK
10
6.210000
20
7.240000
0
VERTEX
8
PASTE_MASK
10
6.210000
20
6.320000
0
VERTEX
8
PASTE_MASK
10
5.790000
20
6.320000
0
VERTEX
8
PASTE_MASK
10
5.790000
20
7.240000
0
VERTEX
8
PASTE_MASK
10
6.210000
20
7.240000
0
SEQEND
0
POLYLINE
8
PASTE_MASK
66
1
70
32
0
VERTEX
8
PASTE_MASK
10
7.010000
20
7.240000
0
VERTEX
8
PASTE_MASK
10
7.010000
20
6.320000
0
VERTEX
8
PASTE_MASK
10
6.590000
20
6.320000
0
VERTEX
8
PASTE_MASK
10
6.590000
20
7.240000
0
VERTEX
8
PASTE_MASK
10
7.010000
20
7.240000
0
SEQEND
0
POLYLINE
8
PASTE_MASK
66
1
70
32
0
VERTEX
8
PASTE_MASK
10
-0.990000
20
7.240000
0
VERTEX
8
PASTE_MASK
10
-0.990000
20
6.320000
0
VERTEX
8
PASTE_MASK
10
-1.410000
20
6.320000
0
VERTEX
8
PASTE_MASK
10
-1.410000
20
7.240000
0
VERTEX
8
PASTE_MASK
10
-0.990000
20
7.240000
0
SEQEND
0
POLYLINE
8
PASTE_MASK
66
1
70
32
0
VERTEX
8
PASTE_MASK
10
-1.790000
20
7.240000
0
VERTEX
8
PASTE_MASK
10
-1.790000
20
6.320000
0
VERTEX
8
PASTE_MASK
10
-2.210000
20
6.320000
0
VERTEX
8
PASTE_MASK
10
-2.210000
20
7.240000
0
VERTEX
8
PASTE_MASK
10
-1.790000
20
7.240000
0
SEQEND
0
POLYLINE
8
PASTE_MASK
66
1
70
32
0
VERTEX
8
PASTE_MASK
10
-2.590000
20
7.240000
0
VERTEX
8
PASTE_MASK
10
-2.590000
20
6.320000
0
VERTEX
8
PASTE_MASK
10
-3.010000
20
6.320000
0
VERTEX
8
PASTE_MASK
10
-3.010000
20
7.240000
0
VERTEX
8
PASTE_MASK
10
-2.590000
20
7.240000
0
SEQEND
0
POLYLINE
8
PASTE_MASK
66
1
70
32
0
VERTEX
8
PASTE_MASK
10
-3.390000
20
7.240000
0
VERTEX
8
PASTE_MASK
10
-3.390000
20
6.320000
0
VERTEX
8
PASTE_MASK
10
-3.810000
20
6.320000
0
VERTEX
8
PASTE_MASK
10
-3.810000
20
7.240000
0
VERTEX
8
PASTE_MASK
10
-3.390000
20
7.240000
0
SEQEND
0
POLYLINE
8
PASTE_MASK
66
1
70
32
0
VERTEX
8
PASTE_MASK
10
-4.190000
20
7.240000
0
VERTEX
8
PASTE_MASK
10
-4.190000
20
6.320000
0
VERTEX
8
PASTE_MASK
10
-4.610000
20
6.320000
0
VERTEX
8
PASTE_MASK
10
-4.610000
20
7.240000
0
VERTEX
8
PASTE_MASK
10
-4.190000
20
7.240000
0
SEQEND
0
POLYLINE
8
PASTE_MASK
66
1
70
32
0
VERTEX
8
PASTE_MASK
10
-4.990000
20
7.240000
0
VERTEX
8
PASTE_MASK
10
-4.990000
20
6.320000
0
VERTEX
8
PASTE_MASK
10
-5.410000
20
6.320000
0
VERTEX
8
PASTE_MASK
10
-5.410000
20
7.240000
0
VERTEX
8
PASTE_MASK
10
-4.990000
20
7.240000
0
SEQEND
0
POLYLINE
8
PASTE_MASK
66
1
70
32
0
VERTEX
8
PASTE_MASK
10
-5.790000
20
7.240000
0
VERTEX
8
PASTE_MASK
10
-5.790000
20
6.320000
0
VERTEX
8
PASTE_MASK
10
-6.210000
20
6.320000
0
VERTEX
8
PASTE_MASK
10
-6.210000
20
7.240000
0
VERTEX
8
PASTE_MASK
10
-5.790000
20
7.240000
0
SEQEND
0
POLYLINE
8
PASTE_MASK
66
1
70
32
0
VERTEX
8
PASTE_MASK
10
-6.590000
20
7.240000
0
VERTEX
8
PASTE_MASK
10
-6.590000
20
6.320000
0
VERTEX
8
PASTE_MASK
10
-7.010000
20
6.320000
0
VERTEX
8
PASTE_MASK
10
-7.010000
20
7.240000
0
VERTEX
8
PASTE_MASK
10
-6.590000
20
7.240000
0
SEQEND
0
POLYLINE
8
PASTE_MASK
66
1
70
32
0
VERTEX
8
PASTE_MASK
10
-8.640000
20
-5.390000
0
VERTEX
8
PASTE_MASK
10
-7.720000
20
-5.390000
0
VERTEX
8
PASTE_MASK
10
-7.720000
20
-5.810000
0
VERTEX
8
PASTE_MASK
10
-8.640000
20
-5.810000
0
VERTEX
8
PASTE_MASK
10
-8.640000
20
-5.390000
0
SEQEND
0
POLYLINE
8
PASTE_MASK
66
1
70
32
0
VERTEX
8
PASTE_MASK
10
-8.640000
20
-4.590000
0
VERTEX
8
PASTE_MASK
10
-7.720000
20
-4.590000
0
VERTEX
8
PASTE_MASK
10
-7.720000
20
-5.010000
0
VERTEX
8
PASTE_MASK
10
-8.640000
20
-5.010000
0
VERTEX
8
PASTE_MASK
10
-8.640000
20
-4.590000
0
SEQEND
0
POLYLINE
8
PASTE_MASK
66
1
70
32
0
VERTEX
8
PASTE_MASK
10
-8.640000
20
-3.790000
0
VERTEX
8
PASTE_MASK
10
-7.720000
20
-3.790000
0
VERTEX
8
PASTE_MASK
10
-7.720000
20
-4.210000
0
VERTEX
8
PASTE_MASK
10
-8.640000
20
-4.210000
0
VERTEX
8
PASTE_MASK
10
-8.640000
20
-3.790000
0
SEQEND
0
POLYLINE
8
PASTE_MASK
66
1
70
32
0
VERTEX
8
PASTE_MASK
10
-8.640000
20
-2.990000
0
VERTEX
8
PASTE_MASK
10
-7.720000
20
-2.990000
0
VERTEX
8
PASTE_MASK
10
-7.720000
20
-3.410000
0
VERTEX
8
PASTE_MASK
10
-8.640000
20
-3.410000
0
VERTEX
8
PASTE_MASK
10
-8.640000
20
-2.990000
0
SEQEND
0
POLYLINE
8
PASTE_MASK
66
1
70
32
0
VERTEX
8
PASTE_MASK
10
-8.640000
20
-2.190000
0
VERTEX
8
PASTE_MASK
10
-7.720000
20
-2.190000
0
VERTEX
8
PASTE_MASK
10
-7.720000
20
-2.610000
0
VERTEX
8
PASTE_MASK
10
-8.640000
20
-2.610000
0
VERTEX
8
PASTE_MASK
10
-8.640000
20
-2.190000
0
SEQEND
0
POLYLINE
8
PASTE_MASK
66
1
70
32
0
VERTEX
8
PASTE_MASK
10
-8.640000
20
-1.390000
0
VERTEX
8
PASTE_MASK
10
-7.720000
20
-1.390000
0
VERTEX
8
PASTE_MASK
10
-7.720000
20
-1.810000
0
VERTEX
8
PASTE_MASK
10
-8.640000
20
-1.810000
0
VERTEX
8
PASTE_MASK
10
-8.640000
20
-1.390000
0
SEQEND
0
POLYLINE
8
PASTE_MASK
66
1
70
32
0
VERTEX
8
PASTE_MASK
10
-8.640000
20
-0.590000
0
VERTEX
8
PASTE_MASK
10
-7.720000
20
-0.590000
0
VERTEX
8
PASTE_MASK
10
-7.720000
20
-1.010000
0
VERTEX
8
PASTE_MASK
10
-8.640000
20
-1.010000
0
VERTEX
8
PASTE_MASK
10
-8.640000
20
-0.590000
0
SEQEND
0
POLYLINE
8
PASTE_MASK
66
1
70
32
0
VERTEX
8
PASTE_MASK
10
-8.640000
20
0.210000
0
VERTEX
8
PASTE_MASK
10
-7.720000
20
0.210000
0
VERTEX
8
PASTE_MASK
10
-7.720000
20
-0.210000
0
VERTEX
8
PASTE_MASK
10
-8.640000
20
-0.210000
0
VERTEX
8
PASTE_MASK
10
-8.640000
20
0.210000
0
SEQEND
0
POLYLINE
8
PASTE_MASK
66
1
70
32
0
VERTEX
8
PASTE_MASK
10
-8.640000
20
1.010000
0
VERTEX
8
PASTE_MASK
10
-7.720000
20
1.010000
0
VERTEX
8
PASTE_MASK
10
-7.720000
20
0.590000
0
VERTEX
8
PASTE_MASK
10
-8.640000
20
0.590000
0
VERTEX
8
PASTE_MASK
10
-8.640000
20
1.010000
0
SEQEND
0
POLYLINE
8
PASTE_MASK
66
1
70
32
0
VERTEX
8
PASTE_MASK
10
-8.640000
20
1.810000
0
VERTEX
8
PASTE_MASK
10
-7.720000
20
1.810000
0
VERTEX
8
PASTE_MASK
10
-7.720000
20
1.390000
0
VERTEX
8
PASTE_MASK
10
-8.640000
20
1.390000
0
VERTEX
8
PASTE_MASK
10
-8.640000
20
1.810000
0
SEQEND
0
POLYLINE
8
PASTE_MASK
66
1
70
32
0
VERTEX
8
PASTE_MASK
10
-8.640000
20
2.610000
0
VERTEX
8
PASTE_MASK
10
-7.720000
20
2.610000
0
VERTEX
8
PASTE_MASK
10
-7.720000
20
2.190000
0
VERTEX
8
PASTE_MASK
10
-8.640000
20
2.190000
0
VERTEX
8
PASTE_MASK
10
-8.640000
20
2.610000
0
SEQEND
0
POLYLINE
8
PASTE_MASK
66
1
70
32
0
VERTEX
8
PASTE_MASK
10
-8.640000
20
3.410000
0
VERTEX
8
PASTE_MASK
10
-7.720000
20
3.410000
0
VERTEX
8
PASTE_MASK
10
-7.720000
20
2.990000
0
VERTEX
8
PASTE_MASK
10
-8.640000
20
2.990000
0
VERTEX
8
PASTE_MASK
10
-8.640000
20
3.410000
0
SEQEND
0
POLYLINE
8
PASTE_MASK
66
1
70
32
0
VERTEX
8
PASTE_MASK
10
-8.640000
20
4.210000
0
VERTEX
8
PASTE_MASK
10
-7.720000
20
4.210000
0
VERTEX
8
PASTE_MASK
10
-7.720000
20
3.790000
0
VERTEX
8
PASTE_MASK
10
-8.640000
20
3.790000
0
VERTEX
8
PASTE_MASK
10
-8.640000
20
4.210000
0
SEQEND
0
POLYLINE
8
PASTE_MASK
66
1
70
32
0
VERTEX
8
PASTE_MASK
10
-8.640000
20
5.010000
0
VERTEX
8
PASTE_MASK
10
-7.720000
20
5.010000
0
VERTEX
8
PASTE_MASK
10
-7.720000
20
4.590000
0
VERTEX
8
PASTE_MASK
10
-8.640000
20
4.590000
0
VERTEX
8
PASTE_MASK
10
-8.640000
20
5.010000
0
SEQEND
0
POLYLINE
8
PASTE_MASK
66
1
70
32
0
VERTEX
8
PASTE_MASK
10
-8.640000
20
5.810000
0
VERTEX
8
PASTE_MASK
10
-7.720000
20
5.810000
0
VERTEX
8
PASTE_MASK
10
-7.720000
20
5.390000
0
VERTEX
8
PASTE_MASK
10
-8.640000
20
5.390000
0
VERTEX
8
PASTE_MASK
10
-8.640000
20
5.810000
0
SEQEND
0
POLYLINE
8
PASTE_MASK
66
1
70
32
0
VERTEX
8
PASTE_MASK
10
7.720000
20
5.810000
0
VERTEX
8
PASTE_MASK
10
8.640000
20
5.810000
0
VERTEX
8
PASTE_MASK
10
8.640000
20
5.390000
0
VERTEX
8
PASTE_MASK
10
7.720000
20
5.390000
0
VERTEX
8
PASTE_MASK
10
7.720000
20
5.810000
0
SEQEND
0
POLYLINE
8
PASTE_MASK
66
1
70
32
0
VERTEX
8
PASTE_MASK
10
7.720000
20
5.010000
0
VERTEX
8
PASTE_MASK
10
8.640000
20
5.010000
0
VERTEX
8
PASTE_MASK
10
8.640000
20
4.590000
0
VERTEX
8
PASTE_MASK
10
7.720000
20
4.590000
0
VERTEX
8
PASTE_MASK
10
7.720000
20
5.010000
0
SEQEND
0
POLYLINE
8
PASTE_MASK
66
1
70
32
0
VERTEX
8
PASTE_MASK
10
7.720000
20
4.210000
0
VERTEX
8
PASTE_MASK
10
8.640000
20
4.210000
0
VERTEX
8
PASTE_MASK
10
8.640000
20
3.790000
0
VERTEX
8
PASTE_MASK
10
7.720000
20
3.790000
0
VERTEX
8
PASTE_MASK
10
7.720000
20
4.210000
0
SEQEND
0
POLYLINE
8
PASTE_MASK
66
1
70
32
0
VERTEX
8
PASTE_MASK
10
7.720000
20
3.410000
0
VERTEX
8
PASTE_MASK
10
8.640000
20
3.410000
0
VERTEX
8
PASTE_MASK
10
8.640000
20
2.990000
0
VERTEX
8
PASTE_MASK
10
7.720000
20
2.990000
0
VERTEX
8
PASTE_MASK
10
7.720000
20
3.410000
0
SEQEND
0
POLYLINE
8
PASTE_MASK
66
1
70
32
0
VERTEX
8
PASTE_MASK
10
7.720000
20
2.610000
0
VERTEX
8
PASTE_MASK
10
8.640000
20
2.610000
0
VERTEX
8
PASTE_MASK
10
8.640000
20
2.190000
0
VERTEX
8
PASTE_MASK
10
7.720000
20
2.190000
0
VERTEX
8
PASTE_MASK
10
7.720000
20
2.610000
0
SEQEND
0
POLYLINE
8
PASTE_MASK
66
1
70
32
0
VERTEX
8
PASTE_MASK
10
7.720000
20
1.810000
0
VERTEX
8
PASTE_MASK
10
8.640000
20
1.810000
0
VERTEX
8
PASTE_MASK
10
8.640000
20
1.390000
0
VERTEX
8
PASTE_MASK
10
7.720000
20
1.390000
0
VERTEX
8
PASTE_MASK
10
7.720000
20
1.810000
0
SEQEND
0
POLYLINE
8
PASTE_MASK
66
1
70
32
0
VERTEX
8
PASTE_MASK
10
7.720000
20
1.010000
0
VERTEX
8
PASTE_MASK
10
8.640000
20
1.010000
0
VERTEX
8
PASTE_MASK
10
8.640000
20
0.590000
0
VERTEX
8
PASTE_MASK
10
7.720000
20
0.590000
0
VERTEX
8
PASTE_MASK
10
7.720000
20
1.010000
0
SEQEND
0
POLYLINE
8
PASTE_MASK
66
1
70
32
0
VERTEX
8
PASTE_MASK
10
7.720000
20
0.210000
0
VERTEX
8
PASTE_MASK
10
8.640000
20
0.210000
0
VERTEX
8
PASTE_MASK
10
8.640000
20
-0.210000
0
VERTEX
8
PASTE_MASK
10
7.720000
20
-0.210000
0
VERTEX
8
PASTE_MASK
10
7.720000
20
0.210000
0
SEQEND
0
POLYLINE
8
PASTE_MASK
66
1
70
32
0
VERTEX
8
PASTE_MASK
10
7.720000
20
-0.590000
0
VERTEX
8
PASTE_MASK
10
8.640000
20
-0.590000
0
VERTEX
8
PASTE_MASK
10
8.640000
20
-1.010000
0
VERTEX
8
PASTE_MASK
10
7.720000
20
-1.010000
0
VERTEX
8
PASTE_MASK
10
7.720000
20
-0.590000
0
SEQEND
0
POLYLINE
8
PASTE_MASK
66
1
70
32
0
VERTEX
8
PASTE_MASK
10
7.720000
20
-1.390000
0
VERTEX
8
PASTE_MASK
10
8.640000
20
-1.390000
0
VERTEX
8
PASTE_MASK
10
8.640000
20
-1.810000
0
VERTEX
8
PASTE_MASK
10
7.720000
20
-1.810000
0
VERTEX
8
PASTE_MASK
10
7.720000
20
-1.390000
0
SEQEND
0
POLYLINE
8
PASTE_MASK
66
1
70
32
0
VERTEX
8
PASTE_MASK
10
7.720000
20
-2.190000
0
VERTEX
8
PASTE_MASK
10
8.640000
20
-2.190000
0
VERTEX
8
PASTE_MASK
10
8.640000
20
-2.610000
0
VERTEX
8
PASTE_MASK
10
7.720000
20
-2.610000
0
VERTEX
8
PASTE_MASK
10
7.720000
20
-2.190000
0
SEQEND
0
POLYLINE
8
PASTE_MASK
66
1
70
32
0
VERTEX
8
PASTE_MASK
10
7.720000
20
-2.990000
0
VERTEX
8
PASTE_MASK
10
8.640000
20
-2.990000
0
VERTEX
8
PASTE_MASK
10
8.640000
20
-3.410000
0
VERTEX
8
PASTE_MASK
10
7.720000
20
-3.410000
0
VERTEX
8
PASTE_MASK
10
7.720000
20
-2.990000
0
SEQEND
0
POLYLINE
8
PASTE_MASK
66
1
70
32
0
VERTEX
8
PASTE_MASK
10
7.720000
20
-3.790000
0
VERTEX
8
PASTE_MASK
10
8.640000
20
-3.790000
0
VERTEX
8
PASTE_MASK
10
8.640000
20
-4.210000
0
VERTEX
8
PASTE_MASK
10
7.720000
20
-4.210000
0
VERTEX
8
PASTE_MASK
10
7.720000
20
-3.790000
0
SEQEND
0
POLYLINE
8
PASTE_MASK
66
1
70
32
0
VERTEX
8
PASTE_MASK
10
7.720000
20
-4.590000
0
VERTEX
8
PASTE_MASK
10
8.640000
20
-4.590000
0
VERTEX
8
PASTE_MASK
10
8.640000
20
-5.010000
0
VERTEX
8
PASTE_MASK
10
7.720000
20
-5.010000
0
VERTEX
8
PASTE_MASK
10
7.720000
20
-4.590000
0
SEQEND
0
POLYLINE
8
PASTE_MASK
66
1
70
32
0
VERTEX
8
PASTE_MASK
10
7.720000
20
-5.390000
0
VERTEX
8
PASTE_MASK
10
8.640000
20
-5.390000
0
VERTEX
8
PASTE_MASK
10
8.640000
20
-5.810000
0
VERTEX
8
PASTE_MASK
10
7.720000
20
-5.810000
0
VERTEX
8
PASTE_MASK
10
7.720000
20
-5.390000
0
SEQEND
0
POLYLINE
8
PASTE_MASK
66
1
70
32
40
0.000000
41
0.000000
0
VERTEX
8
PASTE_MASK
10
-10.987500
20
10.450000
0
VERTEX
8
PASTE_MASK
10
-10.250000
20
9.712500
0
VERTEX
8
PASTE_MASK
10
-10.250000
20
9.450000
0
VERTEX
8
PASTE_MASK
10
-10.412500
20
9.450000
0
VERTEX
8
PASTE_MASK
10
-11.150000
20
10.187500
0
VERTEX
8
PASTE_MASK
10
-11.150000
20
10.450000
0
VERTEX
8
PASTE_MASK
10
-10.987500
20
10.450000
0
SEQEND
0
POLYLINE
8
PASTE_MASK
66
1
70
32
40
0.000000
41
0.000000
0
VERTEX
8
PASTE_MASK
10
-11.150000
20
9.902500
0
VERTEX
8
PASTE_MASK
10
-10.697500
20
9.450000
0
VERTEX
8
PASTE_MASK
10
-11.125000
20
9.450000
0
VERTEX
8
PASTE_MASK
10
-11.150000
20
9.475000
0
VERTEX
8
PASTE_MASK
10
-11.150000
20
9.902500
0
SEQEND
0
POLYLINE
8
PASTE_MASK
66
1
70
32
40
0.000000
41
0.000000
0
VERTEX
8
PASTE_MASK
10
-10.250000
20
9.997500
0
VERTEX
8
PASTE_MASK
10
-10.702500
20
10.450000
0
VERTEX
8
PASTE_MASK
10
-10.277500
20
10.450000
0
VERTEX
8
PASTE_MASK
10
-10.250000
20
10.422500
0
VERTEX
8
PASTE_MASK
10
-10.250000
20
9.997500
0
SEQEND
0
POLYLINE
8
PASTE_MASK
66
1
70
32
40
0.000000
41
0.000000
0
VERTEX
8
PASTE_MASK
10
-8.467500
20
7.280000
0
VERTEX
8
PASTE_MASK
10
-7.680000
20
6.492500
0
VERTEX
8
PASTE_MASK
10
-7.680000
20
6.280000
0
VERTEX
8
PASTE_MASK
10
-7.892500
20
6.280000
0
VERTEX
8
PASTE_MASK
10
-8.680000
20
7.067500
0
VERTEX
8
PASTE_MASK
10
-8.680000
20
7.280000
0
VERTEX
8
PASTE_MASK
10
-8.467500
20
7.280000
0
SEQEND
0
POLYLINE
8
PASTE_MASK
66
1
70
32
40
0.000000
41
0.000000
0
VERTEX
8
PASTE_MASK
10
-8.680000
20
6.782500
0
VERTEX
8
PASTE_MASK
10
-8.177500
20
6.280000
0
VERTEX
8
PASTE_MASK
10
-8.602500
20
6.280000
0
VERTEX
8
PASTE_MASK
10
-8.680000
20
6.357500
0
VERTEX
8
PASTE_MASK
10
-8.680000
20
6.782500
0
SEQEND
0
POLYLINE
8
PASTE_MASK
66
1
70
32
40
0.000000
41
0.000000
0
VERTEX
8
PASTE_MASK
10
-7.680000
20
6.777500
0
VERTEX
8
PASTE_MASK
10
-8.182500
20
7.280000
0
VERTEX
8
PASTE_MASK
10
-7.757500
20
7.280000
0
VERTEX
8
PASTE_MASK
10
-7.680000
20
7.202500
0
VERTEX
8
PASTE_MASK
10
-7.680000
20
6.777500
0
SEQEND
0
POLYLINE
8
PASTE_MASK
66
1
70
32
40
0.000000
41
0.000000
0
VERTEX
8
PASTE_MASK
10
7.892500
20
7.280000
0
VERTEX
8
PASTE_MASK
10
8.680000
20
6.492500
0
VERTEX
8
PASTE_MASK
10
8.680000
20
6.280000
0
VERTEX
8
PASTE_MASK
10
8.467500
20
6.280000
0
VERTEX
8
PASTE_MASK
10
7.680000
20
7.067500
0
VERTEX
8
PASTE_MASK
10
7.680000
20
7.280000
0
VERTEX
8
PASTE_MASK
10
7.892500
20
7.280000
0
SEQEND
0
POLYLINE
8
PASTE_MASK
66
1
70
32
40
0.000000
41
0.000000
0
VERTEX
8
PASTE_MASK
10
7.680000
20
6.782500
0
VERTEX
8
PASTE_MASK
10
8.182500
20
6.280000
0
VERTEX
8
PASTE_MASK
10
7.757500
20
6.280000
0
VERTEX
8
PASTE_MASK
10
7.680000
20
6.357500
0
VERTEX
8
PASTE_MASK
10
7.680000
20
6.782500
0
SEQEND
0
POLYLINE
8
PASTE_MASK
66
1
70
32
40
0.000000
41
0.000000
0
VERTEX
8
PASTE_MASK
10
8.680000
20
6.777500
0
VERTEX
8
PASTE_MASK
10
8.177500
20
7.280000
0
VERTEX
8
PASTE_MASK
10
8.602500
20
7.280000
0
VERTEX
8
PASTE_MASK
10
8.680000
20
7.202500
0
VERTEX
8
PASTE_MASK
10
8.680000
20
6.777500
0
SEQEND
0
POLYLINE
8
PASTE_MASK
66
1
70
32
40
0.000000
41
0.000000
0
VERTEX
8
PASTE_MASK
10
-8.467500
20
-6.280000
0
VERTEX
8
PASTE_MASK
10
-7.680000
20
-7.067500
0
VERTEX
8
PASTE_MASK
10
-7.680000
20
-7.280000
0
VERTEX
8
PASTE_MASK
10
-7.892500
20
-7.280000
0
VERTEX
8
PASTE_MASK
10
-8.680000
20
-6.492500
0
VERTEX
8
PASTE_MASK
10
-8.680000
20
-6.280000
0
VERTEX
8
PASTE_MASK
10
-8.467500
20
-6.280000
0
SEQEND
0
POLYLINE
8
PASTE_MASK
66
1
70
32
40
0.000000
41
0.000000
0
VERTEX
8
PASTE_MASK
10
-8.680000
20
-6.777500
0
VERTEX
8
PASTE_MASK
10
-8.177500
20
-7.280000
0
VERTEX
8
PASTE_MASK
10
-8.602500
20
-7.280000
0
VERTEX
8
PASTE_MASK
10
-8.680000
20
-7.202500
0
VERTEX
8
PASTE_MASK
10
-8.680000
20
-6.777500
0
SEQEND
0
POLYLINE
8
PASTE_MASK
66
1
70
32
40
0.000000
41
0.000000
0
VERTEX
8
PASTE_MASK
10
-7.680000
20
-6.782500
0
VERTEX
8
PASTE_MASK
10
-8.182500
20
-6.280000
0
VERTEX
8
PASTE_MASK
10
-7.757500
20
-6.280000
0
VERTEX
8
PASTE_MASK
10
-7.680000
20
-6.357500
0
VERTEX
8
PASTE_MASK
10
-7.680000
20
-6.782500
0
SEQEND
0
POLYLINE
8
PASTE_MASK
66
1
70
32
40
0.000000
41
0.000000
0
VERTEX
8
PASTE_MASK
10
7.892500
20
-6.280000
0
VERTEX
8
PASTE_MASK
10
8.680000
20
-7.067500
0
VERTEX
8
PASTE_MASK
10
8.680000
20
-7.280000
0
VERTEX
8
PASTE_MASK
10
8.467500
20
-7.280000
0
VERTEX
8
PASTE_MASK
10
7.680000
20
-6.492500
0
VERTEX
8
PASTE_MASK
10
7.680000
20
-6.280000
0
VERTEX
8
PASTE_MASK
10
7.892500
20
-6.280000
0
SEQEND
0
POLYLINE
8
PASTE_MASK
66
1
70
32
40
0.000000
41
0.000000
0
VERTEX
8
PASTE_MASK
10
7.680000
20
-6.777500
0
VERTEX
8
PASTE_MASK
10
8.182500
20
-7.280000
0
VERTEX
8
PASTE_MASK
10
7.757500
20
-7.280000
0
VERTEX
8
PASTE_MASK
10
7.680000
20
-7.202500
0
VERTEX
8
PASTE_MASK
10
7.680000
20
-6.777500
0
SEQEND
0
POLYLINE
8
PASTE_MASK
66
1
70
32
40
0.000000
41
0.000000
0
VERTEX
8
PASTE_MASK
10
8.680000
20
-6.782500
0
VERTEX
8
PASTE_MASK
10
8.177500
20
-6.280000
0
VERTEX
8
PASTE_MASK
10
8.602500
20
-6.280000
0
VERTEX
8
PASTE_MASK
10
8.680000
20
-6.357500
0
VERTEX
8
PASTE_MASK
10
8.680000
20
-6.782500
0
SEQEND
0
POLYLINE
8
PASTE_MASK
66
1
70
32
40
0.000000
41
0.000000
0
VERTEX
8
PASTE_MASK
10
10.412500
20
10.450000
0
VERTEX
8
PASTE_MASK
10
11.150000
20
9.712500
0
VERTEX
8
PASTE_MASK
10
11.150000
20
9.450000
0
VERTEX
8
PASTE_MASK
10
10.987500
20
9.450000
0
VERTEX
8
PASTE_MASK
10
10.250000
20
10.187500
0
VERTEX
8
PASTE_MASK
10
10.250000
20
10.450000
0
VERTEX
8
PASTE_MASK
10
10.412500
20
10.450000
0
SEQEND
0
POLYLINE
8
PASTE_MASK
66
1
70
32
40
0.000000
41
0.000000
0
VERTEX
8
PASTE_MASK
10
10.250000
20
9.902500
0
VERTEX
8
PASTE_MASK
10
10.702500
20
9.450000
0
VERTEX
8
PASTE_MASK
10
10.275000
20
9.450000
0
VERTEX
8
PASTE_MASK
10
10.250000
20
9.475000
0
VERTEX
8
PASTE_MASK
10
10.250000
20
9.902500
0
SEQEND
0
POLYLINE
8
PASTE_MASK
66
1
70
32
40
0.000000
41
0.000000
0
VERTEX
8
PASTE_MASK
10
11.150000
20
9.997500
0
VERTEX
8
PASTE_MASK
10
10.697500
20
10.450000
0
VERTEX
8
PASTE_MASK
10
11.122500
20
10.450000
0
VERTEX
8
PASTE_MASK
10
11.150000
20
10.422500
0
VERTEX
8
PASTE_MASK
10
11.150000
20
9.997500
0
SEQEND
0
POLYLINE
8
PASTE_MASK
66
1
70
32
40
0.000000
41
0.000000
0
VERTEX
8
PASTE_MASK
10
10.412500
20
-9.450000
0
VERTEX
8
PASTE_MASK
10
11.150000
20
-10.187500
0
VERTEX
8
PASTE_MASK
10
11.150000
20
-10.450000
0
VERTEX
8
PASTE_MASK
10
10.987500
20
-10.450000
0
VERTEX
8
PASTE_MASK
10
10.250000
20
-9.712500
0
VERTEX
8
PASTE_MASK
10
10.250000
20
-9.450000
0
VERTEX
8
PASTE_MASK
10
10.412500
20
-9.450000
0
SEQEND
0
POLYLINE
8
PASTE_MASK
66
1
70
32
40
0.000000
41
0.000000
0
VERTEX
8
PASTE_MASK
10
10.250000
20
-9.997500
0
VERTEX
8
PASTE_MASK
10
10.702500
20
-10.450000
0
VERTEX
8
PASTE_MASK
10
10.275000
20
-10.450000
0
VERTEX
8
PASTE_MASK
10
10.250000
20
-10.425000
0
VERTEX
8
PASTE_MASK
10
10.250000
20
-9.997500
0
SEQEND
0
POLYLINE
8
PASTE_MASK
66
1
70
32
40
0.000000
41
0.000000
0
VERTEX
8
PASTE_MASK
10
11.150000
20
-9.902500
0
VERTEX
8
PASTE_MASK
10
10.697500
20
-9.450000
0
VERTEX
8
PASTE_MASK
10
11.122500
20
-9.450000
0
VERTEX
8
PASTE_MASK
10
11.150000
20
-9.477500
0
VERTEX
8
PASTE_MASK
10
11.150000
20
-9.902500
0
SEQEND
0
POLYLINE
8
PASTE_MASK
66
1
70
32
40
0.000000
41
0.000000
0
VERTEX
8
PASTE_MASK
10
-10.412500
20
-10.450000
0
VERTEX
8
PASTE_MASK
10
-11.150000
20
-9.712500
0
VERTEX
8
PASTE_MASK
10
-11.150000
20
-9.450000
0
VERTEX
8
PASTE_MASK
10
-10.987500
20
-9.450000
0
VERTEX
8
PASTE_MASK
10
-10.250000
20
-10.187500
0
VERTEX
8
PASTE_MASK
10
-10.250000
20
-10.450000
0
VERTEX
8
PASTE_MASK
10
-10.412500
20
-10.450000
0
SEQEND
0
POLYLINE
8
PASTE_MASK
66
1
70
32
40
0.000000
41
0.000000
0
VERTEX
8
PASTE_MASK
10
-10.250000
20
-9.902500
0
VERTEX
8
PASTE_MASK
10
-10.702500
20
-9.450000
0
VERTEX
8
PASTE_MASK
10
-10.275000
20
-9.450000
0
VERTEX
8
PASTE_MASK
10
-10.250000
20
-9.475000
0
VERTEX
8
PASTE_MASK
10
-10.250000
20
-9.902500
0
SEQEND
0
POLYLINE
8
PASTE_MASK
66
1
70
32
40
0.000000
41
0.000000
0
VERTEX
8
PASTE_MASK
10
-11.150000
20
-9.997500
0
VERTEX
8
PASTE_MASK
10
-10.697500
20
-10.450000
0
VERTEX
8
PASTE_MASK
10
-11.122500
20
-10.450000
0
VERTEX
8
PASTE_MASK
10
-11.150000
20
-10.422500
0
VERTEX
8
PASTE_MASK
10
-11.150000
20
-9.997500
0
SEQEND
0
POLYLINE
8
PASTE_MASK
66
1
70
32
40
0.000000
41
0.000000
0
VERTEX
8
PASTE_MASK
10
-6.675000
20
-4.662500
0
VERTEX
8
PASTE_MASK
10
-5.887500
20
-5.450000
0
VERTEX
8
PASTE_MASK
10
-5.887500
20
-5.662500
0
VERTEX
8
PASTE_MASK
10
-6.100000
20
-5.662500
0
VERTEX
8
PASTE_MASK
10
-6.887500
20
-4.875000
0
VERTEX
8
PASTE_MASK
10
-6.887500
20
-4.662500
0
VERTEX
8
PASTE_MASK
10
-6.675000
20
-4.662500
0
SEQEND
0
POLYLINE
8
PASTE_MASK
66
1
70
32
40
0.000000
41
0.000000
0
VERTEX
8
PASTE_MASK
10
-6.887500
20
-5.160000
0
VERTEX
8
PASTE_MASK
10
-6.385000
20
-5.662500
0
VERTEX
8
PASTE_MASK
10
-6.810000
20
-5.662500
0
VERTEX
8
PASTE_MASK
10
-6.887500
20
-5.585000
0
VERTEX
8
PASTE_MASK
10
-6.887500
20
-5.160000
0
SEQEND
0
POLYLINE
8
PASTE_MASK
66
1
70
32
40
0.000000
41
0.000000
0
VERTEX
8
PASTE_MASK
10
-5.887500
20
-5.165000
0
VERTEX
8
PASTE_MASK
10
-6.390000
20
-4.662500
0
VERTEX
8
PASTE_MASK
10
-5.965000
20
-4.662500
0
VERTEX
8
PASTE_MASK
10
-5.887500
20
-4.740000
0
VERTEX
8
PASTE_MASK
10
-5.887500
20
-5.165000
0
SEQEND
0
POLYLINE
8
PASTE_MASK
66
1
70
32
40
0.000000
41
0.000000
0
VERTEX
8
PASTE_MASK
10
-6.675000
20
-3.187500
0
VERTEX
8
PASTE_MASK
10
-5.887500
20
-3.975000
0
VERTEX
8
PASTE_MASK
10
-5.887500
20
-4.187500
0
VERTEX
8
PASTE_MASK
10
-6.100000
20
-4.187500
0
VERTEX
8
PASTE_MASK
10
-6.887500
20
-3.400000
0
VERTEX
8
PASTE_MASK
10
-6.887500
20
-3.187500
0
VERTEX
8
PASTE_MASK
10
-6.675000
20
-3.187500
0
SEQEND
0
POLYLINE
8
PASTE_MASK
66
1
70
32
40
0.000000
41
0.000000
0
VERTEX
8
PASTE_MASK
10
-6.887500
20
-3.685000
0
VERTEX
8
PASTE_MASK
10
-6.385000
20
-4.187500
0
VERTEX
8
PASTE_MASK
10
-6.810000
20
-4.187500
0
VERTEX
8
PASTE_MASK
10
-6.887500
20
-4.110000
0
VERTEX
8
PASTE_MASK
10
-6.887500
20
-3.685000
0
SEQEND
0
POLYLINE
8
PASTE_MASK
66
1
70
32
40
0.000000
41
0.000000
0
VERTEX
8
PASTE_MASK
10
-5.887500
20
-3.690000
0
VERTEX
8
PASTE_MASK
10
-6.390000
20
-3.187500
0
VERTEX
8
PASTE_MASK
10
-5.965000
20
-3.187500
0
VERTEX
8
PASTE_MASK
10
-5.887500
20
-3.265000
0
VERTEX
8
PASTE_MASK
10
-5.887500
20
-3.690000
0
SEQEND
0
POLYLINE
8
PASTE_MASK
66
1
70
32
40
0.000000
41
0.000000
0
VERTEX
8
PASTE_MASK
10
-6.675000
20
-1.712500
0
VERTEX
8
PASTE_MASK
10
-5.887500
20
-2.500000
0
VERTEX
8
PASTE_MASK
10
-5.887500
20
-2.712500
0
VERTEX
8
PASTE_MASK
10
-6.100000
20
-2.712500
0
VERTEX
8
PASTE_MASK
10
-6.887500
20
-1.925000
0
VERTEX
8
PASTE_MASK
10
-6.887500
20
-1.712500
0
VERTEX
8
PASTE_MASK
10
-6.675000
20
-1.712500
0
SEQEND
0
POLYLINE
8
PASTE_MASK
66
1
70
32
40
0.000000
41
0.000000
0
VERTEX
8
PASTE_MASK
10
-6.887500
20
-2.210000
0
VERTEX
8
PASTE_MASK
10
-6.385000
20
-2.712500
0
VERTEX
8
PASTE_MASK
10
-6.810000
20
-2.712500
0
VERTEX
8
PASTE_MASK
10
-6.887500
20
-2.635000
0
VERTEX
8
PASTE_MASK
10
-6.887500
20
-2.210000
0
SEQEND
0
POLYLINE
8
PASTE_MASK
66
1
70
32
40
0.000000
41
0.000000
0
VERTEX
8
PASTE_MASK
10
-5.887500
20
-2.215000
0
VERTEX
8
PASTE_MASK
10
-6.390000
20
-1.712500
0
VERTEX
8
PASTE_MASK
10
-5.965000
20
-1.712500
0
VERTEX
8
PASTE_MASK
10
-5.887500
20
-1.790000
0
VERTEX
8
PASTE_MASK
10
-5.887500
20
-2.215000
0
SEQEND
0
POLYLINE
8
PASTE_MASK
66
1
70
32
40
0.000000
41
0.000000
0
VERTEX
8
PASTE_MASK
10
-6.675000
20
-0.237500
0
VERTEX
8
PASTE_MASK
10
-5.887500
20
-1.025000
0
VERTEX
8
PASTE_MASK
10
-5.887500
20
-1.237500
0
VERTEX
8
PASTE_MASK
10
-6.100000
20
-1.237500
0
VERTEX
8
PASTE_MASK
10
-6.887500
20
-0.450000
0
VERTEX
8
PASTE_MASK
10
-6.887500
20
-0.237500
0
VERTEX
8
PASTE_MASK
10
-6.675000
20
-0.237500
0
SEQEND
0
POLYLINE
8
PASTE_MASK
66
1
70
32
40
0.000000
41
0.000000
0
VERTEX
8
PASTE_MASK
10
-6.887500
20
-0.735000
0
VERTEX
8
PASTE_MASK
10
-6.385000
20
-1.237500
0
VERTEX
8
PASTE_MASK
10
-6.810000
20
-1.237500
0
VERTEX
8
PASTE_MASK
10
-6.887500
20
-1.160000
0
VERTEX
8
PASTE_MASK
10
-6.887500
20
-0.735000
0
SEQEND
0
POLYLINE
8
PASTE_MASK
66
1
70
32
40
0.000000
41
0.000000
0
VERTEX
8
PASTE_MASK
10
-5.887500
20
-0.740000
0
VERTEX
8
PASTE_MASK
10
-6.390000
20
-0.237500
0
VERTEX
8
PASTE_MASK
10
-5.965000
20
-0.237500
0
VERTEX
8
PASTE_MASK
10
-5.887500
20
-0.315000
0
VERTEX
8
PASTE_MASK
10
-5.887500
20
-0.740000
0
SEQEND
0
POLYLINE
8
PASTE_MASK
66
1
70
32
40
0.000000
41
0.000000
0
VERTEX
8
PASTE_MASK
10
-6.675000
20
1.237500
0
VERTEX
8
PASTE_MASK
10
-5.887500
20
0.450000
0
VERTEX
8
PASTE_MASK
10
-5.887500
20
0.237500
0
VERTEX
8
PASTE_MASK
10
-6.100000
20
0.237500
0
VERTEX
8
PASTE_MASK
10
-6.887500
20
1.025000
0
VERTEX
8
PASTE_MASK
10
-6.887500
20
1.237500
0
VERTEX
8
PASTE_MASK
10
-6.675000
20
1.237500
0
SEQEND
0
POLYLINE
8
PASTE_MASK
66
1
70
32
40
0.000000
41
0.000000
0
VERTEX
8
PASTE_MASK
10
-6.887500
20
0.740000
0
VERTEX
8
PASTE_MASK
10
-6.385000
20
0.237500
0
VERTEX
8
PASTE_MASK
10
-6.810000
20
0.237500
0
VERTEX
8
PASTE_MASK
10
-6.887500
20
0.315000
0
VERTEX
8
PASTE_MASK
10
-6.887500
20
0.740000
0
SEQEND
0
POLYLINE
8
PASTE_MASK
66
1
70
32
40
0.000000
41
0.000000
0
VERTEX
8
PASTE_MASK
10
-5.887500
20
0.735000
0
VERTEX
8
PASTE_MASK
10
-6.390000
20
1.237500
0
VERTEX
8
PASTE_MASK
10
-5.965000
20
1.237500
0
VERTEX
8
PASTE_MASK
10
-5.887500
20
1.160000
0
VERTEX
8
PASTE_MASK
10
-5.887500
20
0.735000
0
SEQEND
0
POLYLINE
8
PASTE_MASK
66
1
70
32
40
0.000000
41
0.000000
0
VERTEX
8
PASTE_MASK
10
-6.675000
20
2.712500
0
VERTEX
8
PASTE_MASK
10
-5.887500
20
1.925000
0
VERTEX
8
PASTE_MASK
10
-5.887500
20
1.712500
0
VERTEX
8
PASTE_MASK
10
-6.100000
20
1.712500
0
VERTEX
8
PASTE_MASK
10
-6.887500
20
2.500000
0
VERTEX
8
PASTE_MASK
10
-6.887500
20
2.712500
0
VERTEX
8
PASTE_MASK
10
-6.675000
20
2.712500
0
SEQEND
0
POLYLINE
8
PASTE_MASK
66
1
70
32
40
0.000000
41
0.000000
0
VERTEX
8
PASTE_MASK
10
-6.887500
20
2.215000
0
VERTEX
8
PASTE_MASK
10
-6.385000
20
1.712500
0
VERTEX
8
PASTE_MASK
10
-6.810000
20
1.712500
0
VERTEX
8
PASTE_MASK
10
-6.887500
20
1.790000
0
VERTEX
8
PASTE_MASK
10
-6.887500
20
2.215000
0
SEQEND
0
POLYLINE
8
PASTE_MASK
66
1
70
32
40
0.000000
41
0.000000
0
VERTEX
8
PASTE_MASK
10
-5.887500
20
2.210000
0
VERTEX
8
PASTE_MASK
10
-6.390000
20
2.712500
0
VERTEX
8
PASTE_MASK
10
-5.965000
20
2.712500
0
VERTEX
8
PASTE_MASK
10
-5.887500
20
2.635000
0
VERTEX
8
PASTE_MASK
10
-5.887500
20
2.210000
0
SEQEND
0
POLYLINE
8
PASTE_MASK
66
1
70
32
40
0.000000
41
0.000000
0
VERTEX
8
PASTE_MASK
10
-6.675000
20
4.187500
0
VERTEX
8
PASTE_MASK
10
-5.887500
20
3.400000
0
VERTEX
8
PASTE_MASK
10
-5.887500
20
3.187500
0
VERTEX
8
PASTE_MASK
10
-6.100000
20
3.187500
0
VERTEX
8
PASTE_MASK
10
-6.887500
20
3.975000
0
VERTEX
8
PASTE_MASK
10
-6.887500
20
4.187500
0
VERTEX
8
PASTE_MASK
10
-6.675000
20
4.187500
0
SEQEND
0
POLYLINE
8
PASTE_MASK
66
1
70
32
40
0.000000
41
0.000000
0
VERTEX
8
PASTE_MASK
10
-6.887500
20
3.690000
0
VERTEX
8
PASTE_MASK
10
-6.385000
20
3.187500
0
VERTEX
8
PASTE_MASK
10
-6.810000
20
3.187500
0
VERTEX
8
PASTE_MASK
10
-6.887500
20
3.265000
0
VERTEX
8
PASTE_MASK
10
-6.887500
20
3.690000
0
SEQEND
0
POLYLINE
8
PASTE_MASK
66
1
70
32
40
0.000000
41
0.000000
0
VERTEX
8
PASTE_MASK
10
-5.887500
20
3.685000
0
VERTEX
8
PASTE_MASK
10
-6.390000
20
4.187500
0
VERTEX
8
PASTE_MASK
10
-5.965000
20
4.187500
0
VERTEX
8
PASTE_MASK
10
-5.887500
20
4.110000
0
VERTEX
8
PASTE_MASK
10
-5.887500
20
3.685000
0
SEQEND
0
POLYLINE
8
PASTE_MASK
66
1
70
32
40
0.000000
41
0.000000
0
VERTEX
8
PASTE_MASK
10
-6.675000
20
5.662500
0
VERTEX
8
PASTE_MASK
10
-5.887500
20
4.875000
0
VERTEX
8
PASTE_MASK
10
-5.887500
20
4.662500
0
VERTEX
8
PASTE_MASK
10
-6.100000
20
4.662500
0
VERTEX
8
PASTE_MASK
10
-6.887500
20
5.450000
0
VERTEX
8
PASTE_MASK
10
-6.887500
20
5.662500
0
VERTEX
8
PASTE_MASK
10
-6.675000
20
5.662500
0
SEQEND
0
POLYLINE
8
PASTE_MASK
66
1
70
32
40
0.000000
41
0.000000
0
VERTEX
8
PASTE_MASK
10
-6.887500
20
5.165000
0
VERTEX
8
PASTE_MASK
10
-6.385000
20
4.662500
0
VERTEX
8
PASTE_MASK
10
-6.810000
20
4.662500
0
VERTEX
8
PASTE_MASK
10
-6.887500
20
4.740000
0
VERTEX
8
PASTE_MASK
10
-6.887500
20
5.165000
0
SEQEND
0
POLYLINE
8
PASTE_MASK
66
1
70
32
40
0.000000
41
0.000000
0
VERTEX
8
PASTE_MASK
10
-5.887500
20
5.160000
0
VERTEX
8
PASTE_MASK
10
-6.390000
20
5.662500
0
VERTEX
8
PASTE_MASK
10
-5.965000
20
5.662500
0
VERTEX
8
PASTE_MASK
10
-5.887500
20
5.585000
0
VERTEX
8
PASTE_MASK
10
-5.887500
20
5.160000
0
SEQEND
0
POLYLINE
8
PASTE_MASK
66
1
70
32
40
0.000000
41
0.000000
0
VERTEX
8
PASTE_MASK
10
-4.850000
20
5.662500
0
VERTEX
8
PASTE_MASK
10
-4.062500
20
4.875000
0
VERTEX
8
PASTE_MASK
10
-4.062500
20
4.662500
0
VERTEX
8
PASTE_MASK
10
-4.275000
20
4.662500
0
VERTEX
8
PASTE_MASK
10
-5.062500
20
5.450000
0
VERTEX
8
PASTE_MASK
10
-5.062500
20
5.662500
0
VERTEX
8
PASTE_MASK
10
-4.850000
20
5.662500
0
SEQEND
0
POLYLINE
8
PASTE_MASK
66
1
70
32
40
0.000000
41
0.000000
0
VERTEX
8
PASTE_MASK
10
-5.062500
20
5.165000
0
VERTEX
8
PASTE_MASK
10
-4.560000
20
4.662500
0
VERTEX
8
PASTE_MASK
10
-4.985000
20
4.662500
0
VERTEX
8
PASTE_MASK
10
-5.062500
20
4.740000
0
VERTEX
8
PASTE_MASK
10
-5.062500
20
5.165000
0
SEQEND
0
POLYLINE
8
PASTE_MASK
66
1
70
32
40
0.000000
41
0.000000
0
VERTEX
8
PASTE_MASK
10
-4.062500
20
5.160000
0
VERTEX
8
PASTE_MASK
10
-4.565000
20
5.662500
0
VERTEX
8
PASTE_MASK
10
-4.140000
20
5.662500
0
VERTEX
8
PASTE_MASK
10
-4.062500
20
5.585000
0
VERTEX
8
PASTE_MASK
10
-4.062500
20
5.160000
0
SEQEND
0
POLYLINE
8
PASTE_MASK
66
1
70
32
40
0.000000
41
0.000000
0
VERTEX
8
PASTE_MASK
10
-4.850000
20
4.187500
0
VERTEX
8
PASTE_MASK
10
-4.062500
20
3.400000
0
VERTEX
8
PASTE_MASK
10
-4.062500
20
3.187500
0
VERTEX
8
PASTE_MASK
10
-4.275000
20
3.187500
0
VERTEX
8
PASTE_MASK
10
-5.062500
20
3.975000
0
VERTEX
8
PASTE_MASK
10
-5.062500
20
4.187500
0
VERTEX
8
PASTE_MASK
10
-4.850000
20
4.187500
0
SEQEND
0
POLYLINE
8
PASTE_MASK
66
1
70
32
40
0.000000
41
0.000000
0
VERTEX
8
PASTE_MASK
10
-5.062500
20
3.690000
0
VERTEX
8
PASTE_MASK
10
-4.560000
20
3.187500
0
VERTEX
8
PASTE_MASK
10
-4.985000
20
3.187500
0
VERTEX
8
PASTE_MASK
10
-5.062500
20
3.265000
0
VERTEX
8
PASTE_MASK
10
-5.062500
20
3.690000
0
SEQEND
0
POLYLINE
8
PASTE_MASK
66
1
70
32
40
0.000000
41
0.000000
0
VERTEX
8
PASTE_MASK
10
-4.062500
20
3.685000
0
VERTEX
8
PASTE_MASK
10
-4.565000
20
4.187500
0
VERTEX
8
PASTE_MASK
10
-4.140000
20
4.187500
0
VERTEX
8
PASTE_MASK
10
-4.062500
20
4.110000
0
VERTEX
8
PASTE_MASK
10
-4.062500
20
3.685000
0
SEQEND
0
POLYLINE
8
PASTE_MASK
66
1
70
32
40
0.000000
41
0.000000
0
VERTEX
8
PASTE_MASK
10
-4.850000
20
2.712500
0
VERTEX
8
PASTE_MASK
10
-4.062500
20
1.925000
0
VERTEX
8
PASTE_MASK
10
-4.062500
20
1.712500
0
VERTEX
8
PASTE_MASK
10
-4.275000
20
1.712500
0
VERTEX
8
PASTE_MASK
10
-5.062500
20
2.500000
0
VERTEX
8
PASTE_MASK
10
-5.062500
20
2.712500
0
VERTEX
8
PASTE_MASK
10
-4.850000
20
2.712500
0
SEQEND
0
POLYLINE
8
PASTE_MASK
66
1
70
32
40
0.000000
41
0.000000
0
VERTEX
8
PASTE_MASK
10
-5.062500
20
2.215000
0
VERTEX
8
PASTE_MASK
10
-4.560000
20
1.712500
0
VERTEX
8
PASTE_MASK
10
-4.985000
20
1.712500
0
VERTEX
8
PASTE_MASK
10
-5.062500
20
1.790000
0
VERTEX
8
PASTE_MASK
10
-5.062500
20
2.215000
0
SEQEND
0
POLYLINE
8
PASTE_MASK
66
1
70
32
40
0.000000
41
0.000000
0
VERTEX
8
PASTE_MASK
10
-4.062500
20
2.210000
0
VERTEX
8
PASTE_MASK
10
-4.565000
20
2.712500
0
VERTEX
8
PASTE_MASK
10
-4.140000
20
2.712500
0
VERTEX
8
PASTE_MASK
10
-4.062500
20
2.635000
0
VERTEX
8
PASTE_MASK
10
-4.062500
20
2.210000
0
SEQEND
0
POLYLINE
8
PASTE_MASK
66
1
70
32
40
0.000000
41
0.000000
0
VERTEX
8
PASTE_MASK
10
-4.850000
20
1.237500
0
VERTEX
8
PASTE_MASK
10
-4.062500
20
0.450000
0
VERTEX
8
PASTE_MASK
10
-4.062500
20
0.237500
0
VERTEX
8
PASTE_MASK
10
-4.275000
20
0.237500
0
VERTEX
8
PASTE_MASK
10
-5.062500
20
1.025000
0
VERTEX
8
PASTE_MASK
10
-5.062500
20
1.237500
0
VERTEX
8
PASTE_MASK
10
-4.850000
20
1.237500
0
SEQEND
0
POLYLINE
8
PASTE_MASK
66
1
70
32
40
0.000000
41
0.000000
0
VERTEX
8
PASTE_MASK
10
-5.062500
20
0.740000
0
VERTEX
8
PASTE_MASK
10
-4.560000
20
0.237500
0
VERTEX
8
PASTE_MASK
10
-4.985000
20
0.237500
0
VERTEX
8
PASTE_MASK
10
-5.062500
20
0.315000
0
VERTEX
8
PASTE_MASK
10
-5.062500
20
0.740000
0
SEQEND
0
POLYLINE
8
PASTE_MASK
66
1
70
32
40
0.000000
41
0.000000
0
VERTEX
8
PASTE_MASK
10
-4.062500
20
0.735000
0
VERTEX
8
PASTE_MASK
10
-4.565000
20
1.237500
0
VERTEX
8
PASTE_MASK
10
-4.140000
20
1.237500
0
VERTEX
8
PASTE_MASK
10
-4.062500
20
1.160000
0
VERTEX
8
PASTE_MASK
10
-4.062500
20
0.735000
0
SEQEND
0
POLYLINE
8
PASTE_MASK
66
1
70
32
40
0.000000
41
0.000000
0
VERTEX
8
PASTE_MASK
10
-4.850000
20
-0.237500
0
VERTEX
8
PASTE_MASK
10
-4.062500
20
-1.025000
0
VERTEX
8
PASTE_MASK
10
-4.062500
20
-1.237500
0
VERTEX
8
PASTE_MASK
10
-4.275000
20
-1.237500
0
VERTEX
8
PASTE_MASK
10
-5.062500
20
-0.450000
0
VERTEX
8
PASTE_MASK
10
-5.062500
20
-0.237500
0
VERTEX
8
PASTE_MASK
10
-4.850000
20
-0.237500
0
SEQEND
0
POLYLINE
8
PASTE_MASK
66
1
70
32
40
0.000000
41
0.000000
0
VERTEX
8
PASTE_MASK
10
-5.062500
20
-0.735000
0
VERTEX
8
PASTE_MASK
10
-4.560000
20
-1.237500
0
VERTEX
8
PASTE_MASK
10
-4.985000
20
-1.237500
0
VERTEX
8
PASTE_MASK
10
-5.062500
20
-1.160000
0
VERTEX
8
PASTE_MASK
10
-5.062500
20
-0.735000
0
SEQEND
0
POLYLINE
8
PASTE_MASK
66
1
70
32
40
0.000000
41
0.000000
0
VERTEX
8
PASTE_MASK
10
-4.062500
20
-0.740000
0
VERTEX
8
PASTE_MASK
10
-4.565000
20
-0.237500
0
VERTEX
8
PASTE_MASK
10
-4.140000
20
-0.237500
0
VERTEX
8
PASTE_MASK
10
-4.062500
20
-0.315000
0
VERTEX
8
PASTE_MASK
10
-4.062500
20
-0.740000
0
SEQEND
0
POLYLINE
8
PASTE_MASK
66
1
70
32
40
0.000000
41
0.000000
0
VERTEX
8
PASTE_MASK
10
-4.850000
20
-1.712500
0
VERTEX
8
PASTE_MASK
10
-4.062500
20
-2.500000
0
VERTEX
8
PASTE_MASK
10
-4.062500
20
-2.712500
0
VERTEX
8
PASTE_MASK
10
-4.275000
20
-2.712500
0
VERTEX
8
PASTE_MASK
10
-5.062500
20
-1.925000
0
VERTEX
8
PASTE_MASK
10
-5.062500
20
-1.712500
0
VERTEX
8
PASTE_MASK
10
-4.850000
20
-1.712500
0
SEQEND
0
POLYLINE
8
PASTE_MASK
66
1
70
32
40
0.000000
41
0.000000
0
VERTEX
8
PASTE_MASK
10
-5.062500
20
-2.210000
0
VERTEX
8
PASTE_MASK
10
-4.560000
20
-2.712500
0
VERTEX
8
PASTE_MASK
10
-4.985000
20
-2.712500
0
VERTEX
8
PASTE_MASK
10
-5.062500
20
-2.635000
0
VERTEX
8
PASTE_MASK
10
-5.062500
20
-2.210000
0
SEQEND
0
POLYLINE
8
PASTE_MASK
66
1
70
32
40
0.000000
41
0.000000
0
VERTEX
8
PASTE_MASK
10
-4.062500
20
-2.215000
0
VERTEX
8
PASTE_MASK
10
-4.565000
20
-1.712500
0
VERTEX
8
PASTE_MASK
10
-4.140000
20
-1.712500
0
VERTEX
8
PASTE_MASK
10
-4.062500
20
-1.790000
0
VERTEX
8
PASTE_MASK
10
-4.062500
20
-2.215000
0
SEQEND
0
POLYLINE
8
PASTE_MASK
66
1
70
32
40
0.000000
41
0.000000
0
VERTEX
8
PASTE_MASK
10
-4.850000
20
-3.187500
0
VERTEX
8
PASTE_MASK
10
-4.062500
20
-3.975000
0
VERTEX
8
PASTE_MASK
10
-4.062500
20
-4.187500
0
VERTEX
8
PASTE_MASK
10
-4.275000
20
-4.187500
0
VERTEX
8
PASTE_MASK
10
-5.062500
20
-3.400000
0
VERTEX
8
PASTE_MASK
10
-5.062500
20
-3.187500
0
VERTEX
8
PASTE_MASK
10
-4.850000
20
-3.187500
0
SEQEND
0
POLYLINE
8
PASTE_MASK
66
1
70
32
40
0.000000
41
0.000000
0
VERTEX
8
PASTE_MASK
10
-5.062500
20
-3.685000
0
VERTEX
8
PASTE_MASK
10
-4.560000
20
-4.187500
0
VERTEX
8
PASTE_MASK
10
-4.985000
20
-4.187500
0
VERTEX
8
PASTE_MASK
10
-5.062500
20
-4.110000
0
VERTEX
8
PASTE_MASK
10
-5.062500
20
-3.685000
0
SEQEND
0
POLYLINE
8
PASTE_MASK
66
1
70
32
40
0.000000
41
0.000000
0
VERTEX
8
PASTE_MASK
10
-4.062500
20
-3.690000
0
VERTEX
8
PASTE_MASK
10
-4.565000
20
-3.187500
0
VERTEX
8
PASTE_MASK
10
-4.140000
20
-3.187500
0
VERTEX
8
PASTE_MASK
10
-4.062500
20
-3.265000
0
VERTEX
8
PASTE_MASK
10
-4.062500
20
-3.690000
0
SEQEND
0
POLYLINE
8
PASTE_MASK
66
1
70
32
40
0.000000
41
0.000000
0
VERTEX
8
PASTE_MASK
10
-4.850000
20
-4.662500
0
VERTEX
8
PASTE_MASK
10
-4.062500
20
-5.450000
0
VERTEX
8
PASTE_MASK
10
-4.062500
20
-5.662500
0
VERTEX
8
PASTE_MASK
10
-4.275000
20
-5.662500
0
VERTEX
8
PASTE_MASK
10
-5.062500
20
-4.875000
0
VERTEX
8
PASTE_MASK
10
-5.062500
20
-4.662500
0
VERTEX
8
PASTE_MASK
10
-4.850000
20
-4.662500
0
SEQEND
0
POLYLINE
8
PASTE_MASK
66
1
70
32
40
0.000000
41
0.000000
0
VERTEX
8
PASTE_MASK
10
-5.062500
20
-5.160000
0
VERTEX
8
PASTE_MASK
10
-4.560000
20
-5.662500
0
VERTEX
8
PASTE_MASK
10
-4.985000
20
-5.662500
0
VERTEX
8
PASTE_MASK
10
-5.062500
20
-5.585000
0
VERTEX
8
PASTE_MASK
10
-5.062500
20
-5.160000
0
SEQEND
0
POLYLINE
8
PASTE_MASK
66
1
70
32
40
0.000000
41
0.000000
0
VERTEX
8
PASTE_MASK
10
-4.062500
20
-5.165000
0
VERTEX
8
PASTE_MASK
10
-4.565000
20
-4.662500
0
VERTEX
8
PASTE_MASK
10
-4.140000
20
-4.662500
0
VERTEX
8
PASTE_MASK
10
-4.062500
20
-4.740000
0
VERTEX
8
PASTE_MASK
10
-4.062500
20
-5.165000
0
SEQEND
0
POLYLINE
8
PASTE_MASK
66
1
70
32
40
0.000000
41
0.000000
0
VERTEX
8
PASTE_MASK
10
-3.025000
20
-4.662500
0
VERTEX
8
PASTE_MASK
10
-2.237500
20
-5.450000
0
VERTEX
8
PASTE_MASK
10
-2.237500
20
-5.662500
0
VERTEX
8
PASTE_MASK
10
-2.450000
20
-5.662500
0
VERTEX
8
PASTE_MASK
10
-3.237500
20
-4.875000
0
VERTEX
8
PASTE_MASK
10
-3.237500
20
-4.662500
0
VERTEX
8
PASTE_MASK
10
-3.025000
20
-4.662500
0
SEQEND
0
POLYLINE
8
PASTE_MASK
66
1
70
32
40
0.000000
41
0.000000
0
VERTEX
8
PASTE_MASK
10
-3.237500
20
-5.160000
0
VERTEX
8
PASTE_MASK
10
-2.735000
20
-5.662500
0
VERTEX
8
PASTE_MASK
10
-3.160000
20
-5.662500
0
VERTEX
8
PASTE_MASK
10
-3.237500
20
-5.585000
0
VERTEX
8
PASTE_MASK
10
-3.237500
20
-5.160000
0
SEQEND
0
POLYLINE
8
PASTE_MASK
66
1
70
32
40
0.000000
41
0.000000
0
VERTEX
8
PASTE_MASK
10
-2.237500
20
-5.165000
0
VERTEX
8
PASTE_MASK
10
-2.740000
20
-4.662500
0
VERTEX
8
PASTE_MASK
10
-2.315000
20
-4.662500
0
VERTEX
8
PASTE_MASK
10
-2.237500
20
-4.740000
0
VERTEX
8
PASTE_MASK
10
-2.237500
20
-5.165000
0
SEQEND
0
POLYLINE
8
PASTE_MASK
66
1
70
32
40
0.000000
41
0.000000
0
VERTEX
8
PASTE_MASK
10
-1.200000
20
-4.662500
0
VERTEX
8
PASTE_MASK
10
-0.412500
20
-5.450000
0
VERTEX
8
PASTE_MASK
10
-0.412500
20
-5.662500
0
VERTEX
8
PASTE_MASK
10
-0.625000
20
-5.662500
0
VERTEX
8
PASTE_MASK
10
-1.412500
20
-4.875000
0
VERTEX
8
PASTE_MASK
10
-1.412500
20
-4.662500
0
VERTEX
8
PASTE_MASK
10
-1.200000
20
-4.662500
0
SEQEND
0
POLYLINE
8
PASTE_MASK
66
1
70
32
40
0.000000
41
0.000000
0
VERTEX
8
PASTE_MASK
10
-1.412500
20
-5.160000
0
VERTEX
8
PASTE_MASK
10
-0.910000
20
-5.662500
0
VERTEX
8
PASTE_MASK
10
-1.335000
20
-5.662500
0
VERTEX
8
PASTE_MASK
10
-1.412500
20
-5.585000
0
VERTEX
8
PASTE_MASK
10
-1.412500
20
-5.160000
0
SEQEND
0
POLYLINE
8
PASTE_MASK
66
1
70
32
40
0.000000
41
0.000000
0
VERTEX
8
PASTE_MASK
10
-0.412500
20
-5.165000
0
VERTEX
8
PASTE_MASK
10
-0.915000
20
-4.662500
0
VERTEX
8
PASTE_MASK
10
-0.490000
20
-4.662500
0
VERTEX
8
PASTE_MASK
10
-0.412500
20
-4.740000
0
VERTEX
8
PASTE_MASK
10
-0.412500
20
-5.165000
0
SEQEND
0
POLYLINE
8
PASTE_MASK
66
1
70
32
40
0.000000
41
0.000000
0
VERTEX
8
PASTE_MASK
10
0.625000
20
-4.662500
0
VERTEX
8
PASTE_MASK
10
1.412500
20
-5.450000
0
VERTEX
8
PASTE_MASK
10
1.412500
20
-5.662500
0
VERTEX
8
PASTE_MASK
10
1.200000
20
-5.662500
0
VERTEX
8
PASTE_MASK
10
0.412500
20
-4.875000
0
VERTEX
8
PASTE_MASK
10
0.412500
20
-4.662500
0
VERTEX
8
PASTE_MASK
10
0.625000
20
-4.662500
0
SEQEND
0
POLYLINE
8
PASTE_MASK
66
1
70
32
40
0.000000
41
0.000000
0
VERTEX
8
PASTE_MASK
10
0.412500
20
-5.160000
0
VERTEX
8
PASTE_MASK
10
0.915000
20
-5.662500
0
VERTEX
8
PASTE_MASK
10
0.490000
20
-5.662500
0
VERTEX
8
PASTE_MASK
10
0.412500
20
-5.585000
0
VERTEX
8
PASTE_MASK
10
0.412500
20
-5.160000
0
SEQEND
0
POLYLINE
8
PASTE_MASK
66
1
70
32
40
0.000000
41
0.000000
0
VERTEX
8
PASTE_MASK
10
1.412500
20
-5.165000
0
VERTEX
8
PASTE_MASK
10
0.910000
20
-4.662500
0
VERTEX
8
PASTE_MASK
10
1.335000
20
-4.662500
0
VERTEX
8
PASTE_MASK
10
1.412500
20
-4.740000
0
VERTEX
8
PASTE_MASK
10
1.412500
20
-5.165000
0
SEQEND
0
POLYLINE
8
PASTE_MASK
66
1
70
32
40
0.000000
41
0.000000
0
VERTEX
8
PASTE_MASK
10
2.450000
20
-4.662500
0
VERTEX
8
PASTE_MASK
10
3.237500
20
-5.450000
0
VERTEX
8
PASTE_MASK
10
3.237500
20
-5.662500
0
VERTEX
8
PASTE_MASK
10
3.025000
20
-5.662500
0
VERTEX
8
PASTE_MASK
10
2.237500
20
-4.875000
0
VERTEX
8
PASTE_MASK
10
2.237500
20
-4.662500
0
VERTEX
8
PASTE_MASK
10
2.450000
20
-4.662500
0
SEQEND
0
POLYLINE
8
PASTE_MASK
66
1
70
32
40
0.000000
41
0.000000
0
VERTEX
8
PASTE_MASK
10
2.237500
20
-5.160000
0
VERTEX
8
PASTE_MASK
10
2.740000
20
-5.662500
0
VERTEX
8
PASTE_MASK
10
2.315000
20
-5.662500
0
VERTEX
8
PASTE_MASK
10
2.237500
20
-5.585000
0
VERTEX
8
PASTE_MASK
10
2.237500
20
-5.160000
0
SEQEND
0
POLYLINE
8
PASTE_MASK
66
1
70
32
40
0.000000
41
0.000000
0
VERTEX
8
PASTE_MASK
10
3.237500
20
-5.165000
0
VERTEX
8
PASTE_MASK
10
2.735000
20
-4.662500
0
VERTEX
8
PASTE_MASK
10
3.160000
20
-4.662500
0
VERTEX
8
PASTE_MASK
10
3.237500
20
-4.740000
0
VERTEX
8
PASTE_MASK
10
3.237500
20
-5.165000
0
SEQEND
0
POLYLINE
8
PASTE_MASK
66
1
70
32
40
0.000000
41
0.000000
0
VERTEX
8
PASTE_MASK
10
-3.025000
20
-3.187500
0
VERTEX
8
PASTE_MASK
10
-2.237500
20
-3.975000
0
VERTEX
8
PASTE_MASK
10
-2.237500
20
-4.187500
0
VERTEX
8
PASTE_MASK
10
-2.450000
20
-4.187500
0
VERTEX
8
PASTE_MASK
10
-3.237500
20
-3.400000
0
VERTEX
8
PASTE_MASK
10
-3.237500
20
-3.187500
0
VERTEX
8
PASTE_MASK
10
-3.025000
20
-3.187500
0
SEQEND
0
POLYLINE
8
PASTE_MASK
66
1
70
32
40
0.000000
41
0.000000
0
VERTEX
8
PASTE_MASK
10
-3.237500
20
-3.685000
0
VERTEX
8
PASTE_MASK
10
-2.735000
20
-4.187500
0
VERTEX
8
PASTE_MASK
10
-3.160000
20
-4.187500
0
VERTEX
8
PASTE_MASK
10
-3.237500
20
-4.110000
0
VERTEX
8
PASTE_MASK
10
-3.237500
20
-3.685000
0
SEQEND
0
POLYLINE
8
PASTE_MASK
66
1
70
32
40
0.000000
41
0.000000
0
VERTEX
8
PASTE_MASK
10
-2.237500
20
-3.690000
0
VERTEX
8
PASTE_MASK
10
-2.740000
20
-3.187500
0
VERTEX
8
PASTE_MASK
10
-2.315000
20
-3.187500
0
VERTEX
8
PASTE_MASK
10
-2.237500
20
-3.265000
0
VERTEX
8
PASTE_MASK
10
-2.237500
20
-3.690000
0
SEQEND
0
POLYLINE
8
PASTE_MASK
66
1
70
32
40
0.000000
41
0.000000
0
VERTEX
8
PASTE_MASK
10
-1.200000
20
-3.187500
0
VERTEX
8
PASTE_MASK
10
-0.412500
20
-3.975000
0
VERTEX
8
PASTE_MASK
10
-0.412500
20
-4.187500
0
VERTEX
8
PASTE_MASK
10
-0.625000
20
-4.187500
0
VERTEX
8
PASTE_MASK
10
-1.412500
20
-3.400000
0
VERTEX
8
PASTE_MASK
10
-1.412500
20
-3.187500
0
VERTEX
8
PASTE_MASK
10
-1.200000
20
-3.187500
0
SEQEND
0
POLYLINE
8
PASTE_MASK
66
1
70
32
40
0.000000
41
0.000000
0
VERTEX
8
PASTE_MASK
10
-1.412500
20
-3.685000
0
VERTEX
8
PASTE_MASK
10
-0.910000
20
-4.187500
0
VERTEX
8
PASTE_MASK
10
-1.335000
20
-4.187500
0
VERTEX
8
PASTE_MASK
10
-1.412500
20
-4.110000
0
VERTEX
8
PASTE_MASK
10
-1.412500
20
-3.685000
0
SEQEND
0
POLYLINE
8
PASTE_MASK
66
1
70
32
40
0.000000
41
0.000000
0
VERTEX
8
PASTE_MASK
10
-0.412500
20
-3.690000
0
VERTEX
8
PASTE_MASK
10
-0.915000
20
-3.187500
0
VERTEX
8
PASTE_MASK
10
-0.490000
20
-3.187500
0
VERTEX
8
PASTE_MASK
10
-0.412500
20
-3.265000
0
VERTEX
8
PASTE_MASK
10
-0.412500
20
-3.690000
0
SEQEND
0
POLYLINE
8
PASTE_MASK
66
1
70
32
40
0.000000
41
0.000000
0
VERTEX
8
PASTE_MASK
10
0.625000
20
-3.187500
0
VERTEX
8
PASTE_MASK
10
1.412500
20
-3.975000
0
VERTEX
8
PASTE_MASK
10
1.412500
20
-4.187500
0
VERTEX
8
PASTE_MASK
10
1.200000
20
-4.187500
0
VERTEX
8
PASTE_MASK
10
0.412500
20
-3.400000
0
VERTEX
8
PASTE_MASK
10
0.412500
20
-3.187500
0
VERTEX
8
PASTE_MASK
10
0.625000
20
-3.187500
0
SEQEND
0
POLYLINE
8
PASTE_MASK
66
1
70
32
40
0.000000
41
0.000000
0
VERTEX
8
PASTE_MASK
10
0.412500
20
-3.685000
0
VERTEX
8
PASTE_MASK
10
0.915000
20
-4.187500
0
VERTEX
8
PASTE_MASK
10
0.490000
20
-4.187500
0
VERTEX
8
PASTE_MASK
10
0.412500
20
-4.110000
0
VERTEX
8
PASTE_MASK
10
0.412500
20
-3.685000
0
SEQEND
0
POLYLINE
8
PASTE_MASK
66
1
70
32
40
0.000000
41
0.000000
0
VERTEX
8
PASTE_MASK
10
1.412500
20
-3.690000
0
VERTEX
8
PASTE_MASK
10
0.910000
20
-3.187500
0
VERTEX
8
PASTE_MASK
10
1.335000
20
-3.187500
0
VERTEX
8
PASTE_MASK
10
1.412500
20
-3.265000
0
VERTEX
8
PASTE_MASK
10
1.412500
20
-3.690000
0
SEQEND
0
POLYLINE
8
PASTE_MASK
66
1
70
32
40
0.000000
41
0.000000
0
VERTEX
8
PASTE_MASK
10
-3.025000
20
-1.712500
0
VERTEX
8
PASTE_MASK
10
-2.237500
20
-2.500000
0
VERTEX
8
PASTE_MASK
10
-2.237500
20
-2.712500
0
VERTEX
8
PASTE_MASK
10
-2.450000
20
-2.712500
0
VERTEX
8
PASTE_MASK
10
-3.237500
20
-1.925000
0
VERTEX
8
PASTE_MASK
10
-3.237500
20
-1.712500
0
VERTEX
8
PASTE_MASK
10
-3.025000
20
-1.712500
0
SEQEND
0
POLYLINE
8
PASTE_MASK
66
1
70
32
40
0.000000
41
0.000000
0
VERTEX
8
PASTE_MASK
10
-3.237500
20
-2.210000
0
VERTEX
8
PASTE_MASK
10
-2.735000
20
-2.712500
0
VERTEX
8
PASTE_MASK
10
-3.160000
20
-2.712500
0
VERTEX
8
PASTE_MASK
10
-3.237500
20
-2.635000
0
VERTEX
8
PASTE_MASK
10
-3.237500
20
-2.210000
0
SEQEND
0
POLYLINE
8
PASTE_MASK
66
1
70
32
40
0.000000
41
0.000000
0
VERTEX
8
PASTE_MASK
10
-2.237500
20
-2.215000
0
VERTEX
8
PASTE_MASK
10
-2.740000
20
-1.712500
0
VERTEX
8
PASTE_MASK
10
-2.315000
20
-1.712500
0
VERTEX
8
PASTE_MASK
10
-2.237500
20
-1.790000
0
VERTEX
8
PASTE_MASK
10
-2.237500
20
-2.215000
0
SEQEND
0
POLYLINE
8
PASTE_MASK
66
1
70
32
40
0.000000
41
0.000000
0
VERTEX
8
PASTE_MASK
10
-1.200000
20
-1.712500
0
VERTEX
8
PASTE_MASK
10
-0.412500
20
-2.500000
0
VERTEX
8
PASTE_MASK
10
-0.412500
20
-2.712500
0
VERTEX
8
PASTE_MASK
10
-0.625000
20
-2.712500
0
VERTEX
8
PASTE_MASK
10
-1.412500
20
-1.925000
0
VERTEX
8
PASTE_MASK
10
-1.412500
20
-1.712500
0
VERTEX
8
PASTE_MASK
10
-1.200000
20
-1.712500
0
SEQEND
0
POLYLINE
8
PASTE_MASK
66
1
70
32
40
0.000000
41
0.000000
0
VERTEX
8
PASTE_MASK
10
-1.412500
20
-2.210000
0
VERTEX
8
PASTE_MASK
10
-0.910000
20
-2.712500
0
VERTEX
8
PASTE_MASK
10
-1.335000
20
-2.712500
0
VERTEX
8
PASTE_MASK
10
-1.412500
20
-2.635000
0
VERTEX
8
PASTE_MASK
10
-1.412500
20
-2.210000
0
SEQEND
0
POLYLINE
8
PASTE_MASK
66
1
70
32
40
0.000000
41
0.000000
0
VERTEX
8
PASTE_MASK
10
-0.412500
20
-2.215000
0
VERTEX
8
PASTE_MASK
10
-0.915000
20
-1.712500
0
VERTEX
8
PASTE_MASK
10
-0.490000
20
-1.712500
0
VERTEX
8
PASTE_MASK
10
-0.412500
20
-1.790000
0
VERTEX
8
PASTE_MASK
10
-0.412500
20
-2.215000
0
SEQEND
0
POLYLINE
8
PASTE_MASK
66
1
70
32
40
0.000000
41
0.000000
0
VERTEX
8
PASTE_MASK
10
0.625000
20
-1.712500
0
VERTEX
8
PASTE_MASK
10
1.412500
20
-2.500000
0
VERTEX
8
PASTE_MASK
10
1.412500
20
-2.712500
0
VERTEX
8
PASTE_MASK
10
1.200000
20
-2.712500
0
VERTEX
8
PASTE_MASK
10
0.412500
20
-1.925000
0
VERTEX
8
PASTE_MASK
10
0.412500
20
-1.712500
0
VERTEX
8
PASTE_MASK
10
0.625000
20
-1.712500
0
SEQEND
0
POLYLINE
8
PASTE_MASK
66
1
70
32
40
0.000000
41
0.000000
0
VERTEX
8
PASTE_MASK
10
0.412500
20
-2.210000
0
VERTEX
8
PASTE_MASK
10
0.915000
20
-2.712500
0
VERTEX
8
PASTE_MASK
10
0.490000
20
-2.712500
0
VERTEX
8
PASTE_MASK
10
0.412500
20
-2.635000
0
VERTEX
8
PASTE_MASK
10
0.412500
20
-2.210000
0
SEQEND
0
POLYLINE
8
PASTE_MASK
66
1
70
32
40
0.000000
41
0.000000
0
VERTEX
8
PASTE_MASK
10
1.412500
20
-2.215000
0
VERTEX
8
PASTE_MASK
10
0.910000
20
-1.712500
0
VERTEX
8
PASTE_MASK
10
1.335000
20
-1.712500
0
VERTEX
8
PASTE_MASK
10
1.412500
20
-1.790000
0
VERTEX
8
PASTE_MASK
10
1.412500
20
-2.215000
0
SEQEND
0
POLYLINE
8
PASTE_MASK
66
1
70
32
40
0.000000
41
0.000000
0
VERTEX
8
PASTE_MASK
10
2.450000
20
-1.712500
0
VERTEX
8
PASTE_MASK
10
3.237500
20
-2.500000
0
VERTEX
8
PASTE_MASK
10
3.237500
20
-2.712500
0
VERTEX
8
PASTE_MASK
10
3.025000
20
-2.712500
0
VERTEX
8
PASTE_MASK
10
2.237500
20
-1.925000
0
VERTEX
8
PASTE_MASK
10
2.237500
20
-1.712500
0
VERTEX
8
PASTE_MASK
10
2.450000
20
-1.712500
0
SEQEND
0
POLYLINE
8
PASTE_MASK
66
1
70
32
40
0.000000
41
0.000000
0
VERTEX
8
PASTE_MASK
10
2.237500
20
-2.210000
0
VERTEX
8
PASTE_MASK
10
2.740000
20
-2.712500
0
VERTEX
8
PASTE_MASK
10
2.315000
20
-2.712500
0
VERTEX
8
PASTE_MASK
10
2.237500
20
-2.635000
0
VERTEX
8
PASTE_MASK
10
2.237500
20
-2.210000
0
SEQEND
0
POLYLINE
8
PASTE_MASK
66
1
70
32
40
0.000000
41
0.000000
0
VERTEX
8
PASTE_MASK
10
3.237500
20
-2.215000
0
VERTEX
8
PASTE_MASK
10
2.735000
20
-1.712500
0
VERTEX
8
PASTE_MASK
10
3.160000
20
-1.712500
0
VERTEX
8
PASTE_MASK
10
3.237500
20
-1.790000
0
VERTEX
8
PASTE_MASK
10
3.237500
20
-2.215000
0
SEQEND
0
POLYLINE
8
PASTE_MASK
66
1
70
32
40
0.000000
41
0.000000
0
VERTEX
8
PASTE_MASK
10
2.450000
20
-3.187500
0
VERTEX
8
PASTE_MASK
10
3.237500
20
-3.975000
0
VERTEX
8
PASTE_MASK
10
3.237500
20
-4.187500
0
VERTEX
8
PASTE_MASK
10
3.025000
20
-4.187500
0
VERTEX
8
PASTE_MASK
10
2.237500
20
-3.400000
0
VERTEX
8
PASTE_MASK
10
2.237500
20
-3.187500
0
VERTEX
8
PASTE_MASK
10
2.450000
20
-3.187500
0
SEQEND
0
POLYLINE
8
PASTE_MASK
66
1
70
32
40
0.000000
41
0.000000
0
VERTEX
8
PASTE_MASK
10
2.237500
20
-3.685000
0
VERTEX
8
PASTE_MASK
10
2.740000
20
-4.187500
0
VERTEX
8
PASTE_MASK
10
2.315000
20
-4.187500
0
VERTEX
8
PASTE_MASK
10
2.237500
20
-4.110000
0
VERTEX
8
PASTE_MASK
10
2.237500
20
-3.685000
0
SEQEND
0
POLYLINE
8
PASTE_MASK
66
1
70
32
40
0.000000
41
0.000000
0
VERTEX
8
PASTE_MASK
10
3.237500
20
-3.690000
0
VERTEX
8
PASTE_MASK
10
2.735000
20
-3.187500
0
VERTEX
8
PASTE_MASK
10
3.160000
20
-3.187500
0
VERTEX
8
PASTE_MASK
10
3.237500
20
-3.265000
0
VERTEX
8
PASTE_MASK
10
3.237500
20
-3.690000
0
SEQEND
0
POLYLINE
8
PASTE_MASK
66
1
70
32
40
0.000000
41
0.000000
0
VERTEX
8
PASTE_MASK
10
4.275000
20
-4.662500
0
VERTEX
8
PASTE_MASK
10
5.062500
20
-5.450000
0
VERTEX
8
PASTE_MASK
10
5.062500
20
-5.662500
0
VERTEX
8
PASTE_MASK
10
4.850000
20
-5.662500
0
VERTEX
8
PASTE_MASK
10
4.062500
20
-4.875000
0
VERTEX
8
PASTE_MASK
10
4.062500
20
-4.662500
0
VERTEX
8
PASTE_MASK
10
4.275000
20
-4.662500
0
SEQEND
0
POLYLINE
8
PASTE_MASK
66
1
70
32
40
0.000000
41
0.000000
0
VERTEX
8
PASTE_MASK
10
4.062500
20
-5.160000
0
VERTEX
8
PASTE_MASK
10
4.565000
20
-5.662500
0
VERTEX
8
PASTE_MASK
10
4.140000
20
-5.662500
0
VERTEX
8
PASTE_MASK
10
4.062500
20
-5.585000
0
VERTEX
8
PASTE_MASK
10
4.062500
20
-5.160000
0
SEQEND
0
POLYLINE
8
PASTE_MASK
66
1
70
32
40
0.000000
41
0.000000
0
VERTEX
8
PASTE_MASK
10
5.062500
20
-5.165000
0
VERTEX
8
PASTE_MASK
10
4.560000
20
-4.662500
0
VERTEX
8
PASTE_MASK
10
4.985000
20
-4.662500
0
VERTEX
8
PASTE_MASK
10
5.062500
20
-4.740000
0
VERTEX
8
PASTE_MASK
10
5.062500
20
-5.165000
0
SEQEND
0
POLYLINE
8
PASTE_MASK
66
1
70
32
40
0.000000
41
0.000000
0
VERTEX
8
PASTE_MASK
10
6.100000
20
-4.662500
0
VERTEX
8
PASTE_MASK
10
6.887500
20
-5.450000
0
VERTEX
8
PASTE_MASK
10
6.887500
20
-5.662500
0
VERTEX
8
PASTE_MASK
10
6.675000
20
-5.662500
0
VERTEX
8
PASTE_MASK
10
5.887500
20
-4.875000
0
VERTEX
8
PASTE_MASK
10
5.887500
20
-4.662500
0
VERTEX
8
PASTE_MASK
10
6.100000
20
-4.662500
0
SEQEND
0
POLYLINE
8
PASTE_MASK
66
1
70
32
40
0.000000
41
0.000000
0
VERTEX
8
PASTE_MASK
10
5.887500
20
-5.160000
0
VERTEX
8
PASTE_MASK
10
6.390000
20
-5.662500
0
VERTEX
8
PASTE_MASK
10
5.965000
20
-5.662500
0
VERTEX
8
PASTE_MASK
10
5.887500
20
-5.585000
0
VERTEX
8
PASTE_MASK
10
5.887500
20
-5.160000
0
SEQEND
0
POLYLINE
8
PASTE_MASK
66
1
70
32
40
0.000000
41
0.000000
0
VERTEX
8
PASTE_MASK
10
6.887500
20
-5.165000
0
VERTEX
8
PASTE_MASK
10
6.385000
20
-4.662500
0
VERTEX
8
PASTE_MASK
10
6.810000
20
-4.662500
0
VERTEX
8
PASTE_MASK
10
6.887500
20
-4.740000
0
VERTEX
8
PASTE_MASK
10
6.887500
20
-5.165000
0
SEQEND
0
POLYLINE
8
PASTE_MASK
66
1
70
32
40
0.000000
41
0.000000
0
VERTEX
8
PASTE_MASK
10
4.275000
20
-3.187500
0
VERTEX
8
PASTE_MASK
10
5.062500
20
-3.975000
0
VERTEX
8
PASTE_MASK
10
5.062500
20
-4.187500
0
VERTEX
8
PASTE_MASK
10
4.850000
20
-4.187500
0
VERTEX
8
PASTE_MASK
10
4.062500
20
-3.400000
0
VERTEX
8
PASTE_MASK
10
4.062500
20
-3.187500
0
VERTEX
8
PASTE_MASK
10
4.275000
20
-3.187500
0
SEQEND
0
POLYLINE
8
PASTE_MASK
66
1
70
32
40
0.000000
41
0.000000
0
VERTEX
8
PASTE_MASK
10
4.062500
20
-3.685000
0
VERTEX
8
PASTE_MASK
10
4.565000
20
-4.187500
0
VERTEX
8
PASTE_MASK
10
4.140000
20
-4.187500
0
VERTEX
8
PASTE_MASK
10
4.062500
20
-4.110000
0
VERTEX
8
PASTE_MASK
10
4.062500
20
-3.685000
0
SEQEND
0
POLYLINE
8
PASTE_MASK
66
1
70
32
40
0.000000
41
0.000000
0
VERTEX
8
PASTE_MASK
10
5.062500
20
-3.690000
0
VERTEX
8
PASTE_MASK
10
4.560000
20
-3.187500
0
VERTEX
8
PASTE_MASK
10
4.985000
20
-3.187500
0
VERTEX
8
PASTE_MASK
10
5.062500
20
-3.265000
0
VERTEX
8
PASTE_MASK
10
5.062500
20
-3.690000
0
SEQEND
0
POLYLINE
8
PASTE_MASK
66
1
70
32
40
0.000000
41
0.000000
0
VERTEX
8
PASTE_MASK
10
6.100000
20
-3.187500
0
VERTEX
8
PASTE_MASK
10
6.887500
20
-3.975000
0
VERTEX
8
PASTE_MASK
10
6.887500
20
-4.187500
0
VERTEX
8
PASTE_MASK
10
6.675000
20
-4.187500
0
VERTEX
8
PASTE_MASK
10
5.887500
20
-3.400000
0
VERTEX
8
PASTE_MASK
10
5.887500
20
-3.187500
0
VERTEX
8
PASTE_MASK
10
6.100000
20
-3.187500
0
SEQEND
0
POLYLINE
8
PASTE_MASK
66
1
70
32
40
0.000000
41
0.000000
0
VERTEX
8
PASTE_MASK
10
5.887500
20
-3.685000
0
VERTEX
8
PASTE_MASK
10
6.390000
20
-4.187500
0
VERTEX
8
PASTE_MASK
10
5.965000
20
-4.187500
0
VERTEX
8
PASTE_MASK
10
5.887500
20
-4.110000
0
VERTEX
8
PASTE_MASK
10
5.887500
20
-3.685000
0
SEQEND
0
POLYLINE
8
PASTE_MASK
66
1
70
32
40
0.000000
41
0.000000
0
VERTEX
8
PASTE_MASK
10
6.887500
20
-3.690000
0
VERTEX
8
PASTE_MASK
10
6.385000
20
-3.187500
0
VERTEX
8
PASTE_MASK
10
6.810000
20
-3.187500
0
VERTEX
8
PASTE_MASK
10
6.887500
20
-3.265000
0
VERTEX
8
PASTE_MASK
10
6.887500
20
-3.690000
0
SEQEND
0
POLYLINE
8
PASTE_MASK
66
1
70
32
40
0.000000
41
0.000000
0
VERTEX
8
PASTE_MASK
10
4.275000
20
-1.712500
0
VERTEX
8
PASTE_MASK
10
5.062500
20
-2.500000
0
VERTEX
8
PASTE_MASK
10
5.062500
20
-2.712500
0
VERTEX
8
PASTE_MASK
10
4.850000
20
-2.712500
0
VERTEX
8
PASTE_MASK
10
4.062500
20
-1.925000
0
VERTEX
8
PASTE_MASK
10
4.062500
20
-1.712500
0
VERTEX
8
PASTE_MASK
10
4.275000
20
-1.712500
0
SEQEND
0
POLYLINE
8
PASTE_MASK
66
1
70
32
40
0.000000
41
0.000000
0
VERTEX
8
PASTE_MASK
10
4.062500
20
-2.210000
0
VERTEX
8
PASTE_MASK
10
4.565000
20
-2.712500
0
VERTEX
8
PASTE_MASK
10
4.140000
20
-2.712500
0
VERTEX
8
PASTE_MASK
10
4.062500
20
-2.635000
0
VERTEX
8
PASTE_MASK
10
4.062500
20
-2.210000
0
SEQEND
0
POLYLINE
8
PASTE_MASK
66
1
70
32
40
0.000000
41
0.000000
0
VERTEX
8
PASTE_MASK
10
5.062500
20
-2.215000
0
VERTEX
8
PASTE_MASK
10
4.560000
20
-1.712500
0
VERTEX
8
PASTE_MASK
10
4.985000
20
-1.712500
0
VERTEX
8
PASTE_MASK
10
5.062500
20
-1.790000
0
VERTEX
8
PASTE_MASK
10
5.062500
20
-2.215000
0
SEQEND
0
POLYLINE
8
PASTE_MASK
66
1
70
32
40
0.000000
41
0.000000
0
VERTEX
8
PASTE_MASK
10
6.100000
20
-1.712500
0
VERTEX
8
PASTE_MASK
10
6.887500
20
-2.500000
0
VERTEX
8
PASTE_MASK
10
6.887500
20
-2.712500
0
VERTEX
8
PASTE_MASK
10
6.675000
20
-2.712500
0
VERTEX
8
PASTE_MASK
10
5.887500
20
-1.925000
0
VERTEX
8
PASTE_MASK
10
5.887500
20
-1.712500
0
VERTEX
8
PASTE_MASK
10
6.100000
20
-1.712500
0
SEQEND
0
POLYLINE
8
PASTE_MASK
66
1
70
32
40
0.000000
41
0.000000
0
VERTEX
8
PASTE_MASK
10
5.887500
20
-2.210000
0
VERTEX
8
PASTE_MASK
10
6.390000
20
-2.712500
0
VERTEX
8
PASTE_MASK
10
5.965000
20
-2.712500
0
VERTEX
8
PASTE_MASK
10
5.887500
20
-2.635000
0
VERTEX
8
PASTE_MASK
10
5.887500
20
-2.210000
0
SEQEND
0
POLYLINE
8
PASTE_MASK
66
1
70
32
40
0.000000
41
0.000000
0
VERTEX
8
PASTE_MASK
10
6.887500
20
-2.215000
0
VERTEX
8
PASTE_MASK
10
6.385000
20
-1.712500
0
VERTEX
8
PASTE_MASK
10
6.810000
20
-1.712500
0
VERTEX
8
PASTE_MASK
10
6.887500
20
-1.790000
0
VERTEX
8
PASTE_MASK
10
6.887500
20
-2.215000
0
SEQEND
0
POLYLINE
8
PASTE_MASK
66
1
70
32
40
0.000000
41
0.000000
0
VERTEX
8
PASTE_MASK
10
6.100000
20
-0.237500
0
VERTEX
8
PASTE_MASK
10
6.887500
20
-1.025000
0
VERTEX
8
PASTE_MASK
10
6.887500
20
-1.237500
0
VERTEX
8
PASTE_MASK
10
6.675000
20
-1.237500
0
VERTEX
8
PASTE_MASK
10
5.887500
20
-0.450000
0
VERTEX
8
PASTE_MASK
10
5.887500
20
-0.237500
0
VERTEX
8
PASTE_MASK
10
6.100000
20
-0.237500
0
SEQEND
0
POLYLINE
8
PASTE_MASK
66
1
70
32
40
0.000000
41
0.000000
0
VERTEX
8
PASTE_MASK
10
5.887500
20
-0.735000
0
VERTEX
8
PASTE_MASK
10
6.390000
20
-1.237500
0
VERTEX
8
PASTE_MASK
10
5.965000
20
-1.237500
0
VERTEX
8
PASTE_MASK
10
5.887500
20
-1.160000
0
VERTEX
8
PASTE_MASK
10
5.887500
20
-0.735000
0
SEQEND
0
POLYLINE
8
PASTE_MASK
66
1
70
32
40
0.000000
41
0.000000
0
VERTEX
8
PASTE_MASK
10
6.887500
20
-0.740000
0
VERTEX
8
PASTE_MASK
10
6.385000
20
-0.237500
0
VERTEX
8
PASTE_MASK
10
6.810000
20
-0.237500
0
VERTEX
8
PASTE_MASK
10
6.887500
20
-0.315000
0
VERTEX
8
PASTE_MASK
10
6.887500
20
-0.740000
0
SEQEND
0
POLYLINE
8
PASTE_MASK
66
1
70
32
40
0.000000
41
0.000000
0
VERTEX
8
PASTE_MASK
10
4.275000
20
-0.237500
0
VERTEX
8
PASTE_MASK
10
5.062500
20
-1.025000
0
VERTEX
8
PASTE_MASK
10
5.062500
20
-1.237500
0
VERTEX
8
PASTE_MASK
10
4.850000
20
-1.237500
0
VERTEX
8
PASTE_MASK
10
4.062500
20
-0.450000
0
VERTEX
8
PASTE_MASK
10
4.062500
20
-0.237500
0
VERTEX
8
PASTE_MASK
10
4.275000
20
-0.237500
0
SEQEND
0
POLYLINE
8
PASTE_MASK
66
1
70
32
40
0.000000
41
0.000000
0
VERTEX
8
PASTE_MASK
10
4.062500
20
-0.735000
0
VERTEX
8
PASTE_MASK
10
4.565000
20
-1.237500
0
VERTEX
8
PASTE_MASK
10
4.140000
20
-1.237500
0
VERTEX
8
PASTE_MASK
10
4.062500
20
-1.160000
0
VERTEX
8
PASTE_MASK
10
4.062500
20
-0.735000
0
SEQEND
0
POLYLINE
8
PASTE_MASK
66
1
70
32
40
0.000000
41
0.000000
0
VERTEX
8
PASTE_MASK
10
5.062500
20
-0.740000
0
VERTEX
8
PASTE_MASK
10
4.560000
20
-0.237500
0
VERTEX
8
PASTE_MASK
10
4.985000
20
-0.237500
0
VERTEX
8
PASTE_MASK
10
5.062500
20
-0.315000
0
VERTEX
8
PASTE_MASK
10
5.062500
20
-0.740000
0
SEQEND
0
POLYLINE
8
PASTE_MASK
66
1
70
32
40
0.000000
41
0.000000
0
VERTEX
8
PASTE_MASK
10
6.100000
20
1.237500
0
VERTEX
8
PASTE_MASK
10
6.887500
20
0.450000
0
VERTEX
8
PASTE_MASK
10
6.887500
20
0.237500
0
VERTEX
8
PASTE_MASK
10
6.675000
20
0.237500
0
VERTEX
8
PASTE_MASK
10
5.887500
20
1.025000
0
VERTEX
8
PASTE_MASK
10
5.887500
20
1.237500
0
VERTEX
8
PASTE_MASK
10
6.100000
20
1.237500
0
SEQEND
0
POLYLINE
8
PASTE_MASK
66
1
70
32
40
0.000000
41
0.000000
0
VERTEX
8
PASTE_MASK
10
5.887500
20
0.740000
0
VERTEX
8
PASTE_MASK
10
6.390000
20
0.237500
0
VERTEX
8
PASTE_MASK
10
5.965000
20
0.237500
0
VERTEX
8
PASTE_MASK
10
5.887500
20
0.315000
0
VERTEX
8
PASTE_MASK
10
5.887500
20
0.740000
0
SEQEND
0
POLYLINE
8
PASTE_MASK
66
1
70
32
40
0.000000
41
0.000000
0
VERTEX
8
PASTE_MASK
10
6.887500
20
0.735000
0
VERTEX
8
PASTE_MASK
10
6.385000
20
1.237500
0
VERTEX
8
PASTE_MASK
10
6.810000
20
1.237500
0
VERTEX
8
PASTE_MASK
10
6.887500
20
1.160000
0
VERTEX
8
PASTE_MASK
10
6.887500
20
0.735000
0
SEQEND
0
POLYLINE
8
PASTE_MASK
66
1
70
32
40
0.000000
41
0.000000
0
VERTEX
8
PASTE_MASK
10
4.275000
20
1.237500
0
VERTEX
8
PASTE_MASK
10
5.062500
20
0.450000
0
VERTEX
8
PASTE_MASK
10
5.062500
20
0.237500
0
VERTEX
8
PASTE_MASK
10
4.850000
20
0.237500
0
VERTEX
8
PASTE_MASK
10
4.062500
20
1.025000
0
VERTEX
8
PASTE_MASK
10
4.062500
20
1.237500
0
VERTEX
8
PASTE_MASK
10
4.275000
20
1.237500
0
SEQEND
0
POLYLINE
8
PASTE_MASK
66
1
70
32
40
0.000000
41
0.000000
0
VERTEX
8
PASTE_MASK
10
4.062500
20
0.740000
0
VERTEX
8
PASTE_MASK
10
4.565000
20
0.237500
0
VERTEX
8
PASTE_MASK
10
4.140000
20
0.237500
0
VERTEX
8
PASTE_MASK
10
4.062500
20
0.315000
0
VERTEX
8
PASTE_MASK
10
4.062500
20
0.740000
0
SEQEND
0
POLYLINE
8
PASTE_MASK
66
1
70
32
40
0.000000
41
0.000000
0
VERTEX
8
PASTE_MASK
10
5.062500
20
0.735000
0
VERTEX
8
PASTE_MASK
10
4.560000
20
1.237500
0
VERTEX
8
PASTE_MASK
10
4.985000
20
1.237500
0
VERTEX
8
PASTE_MASK
10
5.062500
20
1.160000
0
VERTEX
8
PASTE_MASK
10
5.062500
20
0.735000
0
SEQEND
0
POLYLINE
8
PASTE_MASK
66
1
70
32
40
0.000000
41
0.000000
0
VERTEX
8
PASTE_MASK
10
2.450000
20
-0.237500
0
VERTEX
8
PASTE_MASK
10
3.237500
20
-1.025000
0
VERTEX
8
PASTE_MASK
10
3.237500
20
-1.237500
0
VERTEX
8
PASTE_MASK
10
3.025000
20
-1.237500
0
VERTEX
8
PASTE_MASK
10
2.237500
20
-0.450000
0
VERTEX
8
PASTE_MASK
10
2.237500
20
-0.237500
0
VERTEX
8
PASTE_MASK
10
2.450000
20
-0.237500
0
SEQEND
0
POLYLINE
8
PASTE_MASK
66
1
70
32
40
0.000000
41
0.000000
0
VERTEX
8
PASTE_MASK
10
2.237500
20
-0.735000
0
VERTEX
8
PASTE_MASK
10
2.740000
20
-1.237500
0
VERTEX
8
PASTE_MASK
10
2.315000
20
-1.237500
0
VERTEX
8
PASTE_MASK
10
2.237500
20
-1.160000
0
VERTEX
8
PASTE_MASK
10
2.237500
20
-0.735000
0
SEQEND
0
POLYLINE
8
PASTE_MASK
66
1
70
32
40
0.000000
41
0.000000
0
VERTEX
8
PASTE_MASK
10
3.237500
20
-0.740000
0
VERTEX
8
PASTE_MASK
10
2.735000
20
-0.237500
0
VERTEX
8
PASTE_MASK
10
3.160000
20
-0.237500
0
VERTEX
8
PASTE_MASK
10
3.237500
20
-0.315000
0
VERTEX
8
PASTE_MASK
10
3.237500
20
-0.740000
0
SEQEND
0
POLYLINE
8
PASTE_MASK
66
1
70
32
40
0.000000
41
0.000000
0
VERTEX
8
PASTE_MASK
10
0.625000
20
-0.237500
0
VERTEX
8
PASTE_MASK
10
1.412500
20
-1.025000
0
VERTEX
8
PASTE_MASK
10
1.412500
20
-1.237500
0
VERTEX
8
PASTE_MASK
10
1.200000
20
-1.237500
0
VERTEX
8
PASTE_MASK
10
0.412500
20
-0.450000
0
VERTEX
8
PASTE_MASK
10
0.412500
20
-0.237500
0
VERTEX
8
PASTE_MASK
10
0.625000
20
-0.237500
0
SEQEND
0
POLYLINE
8
PASTE_MASK
66
1
70
32
40
0.000000
41
0.000000
0
VERTEX
8
PASTE_MASK
10
0.412500
20
-0.735000
0
VERTEX
8
PASTE_MASK
10
0.915000
20
-1.237500
0
VERTEX
8
PASTE_MASK
10
0.490000
20
-1.237500
0
VERTEX
8
PASTE_MASK
10
0.412500
20
-1.160000
0
VERTEX
8
PASTE_MASK
10
0.412500
20
-0.735000
0
SEQEND
0
POLYLINE
8
PASTE_MASK
66
1
70
32
40
0.000000
41
0.000000
0
VERTEX
8
PASTE_MASK
10
1.412500
20
-0.740000
0
VERTEX
8
PASTE_MASK
10
0.910000
20
-0.237500
0
VERTEX
8
PASTE_MASK
10
1.335000
20
-0.237500
0
VERTEX
8
PASTE_MASK
10
1.412500
20
-0.315000
0
VERTEX
8
PASTE_MASK
10
1.412500
20
-0.740000
0
SEQEND
0
POLYLINE
8
PASTE_MASK
66
1
70
32
40
0.000000
41
0.000000
0
VERTEX
8
PASTE_MASK
10
-1.200000
20
-0.237500
0
VERTEX
8
PASTE_MASK
10
-0.412500
20
-1.025000
0
VERTEX
8
PASTE_MASK
10
-0.412500
20
-1.237500
0
VERTEX
8
PASTE_MASK
10
-0.625000
20
-1.237500
0
VERTEX
8
PASTE_MASK
10
-1.412500
20
-0.450000
0
VERTEX
8
PASTE_MASK
10
-1.412500
20
-0.237500
0
VERTEX
8
PASTE_MASK
10
-1.200000
20
-0.237500
0
SEQEND
0
POLYLINE
8
PASTE_MASK
66
1
70
32
40
0.000000
41
0.000000
0
VERTEX
8
PASTE_MASK
10
-1.412500
20
-0.735000
0
VERTEX
8
PASTE_MASK
10
-0.910000
20
-1.237500
0
VERTEX
8
PASTE_MASK
10
-1.335000
20
-1.237500
0
VERTEX
8
PASTE_MASK
10
-1.412500
20
-1.160000
0
VERTEX
8
PASTE_MASK
10
-1.412500
20
-0.735000
0
SEQEND
0
POLYLINE
8
PASTE_MASK
66
1
70
32
40
0.000000
41
0.000000
0
VERTEX
8
PASTE_MASK
10
-0.412500
20
-0.740000
0
VERTEX
8
PASTE_MASK
10
-0.915000
20
-0.237500
0
VERTEX
8
PASTE_MASK
10
-0.490000
20
-0.237500
0
VERTEX
8
PASTE_MASK
10
-0.412500
20
-0.315000
0
VERTEX
8
PASTE_MASK
10
-0.412500
20
-0.740000
0
SEQEND
0
POLYLINE
8
PASTE_MASK
66
1
70
32
40
0.000000
41
0.000000
0
VERTEX
8
PASTE_MASK
10
-3.025000
20
-0.237500
0
VERTEX
8
PASTE_MASK
10
-2.237500
20
-1.025000
0
VERTEX
8
PASTE_MASK
10
-2.237500
20
-1.237500
0
VERTEX
8
PASTE_MASK
10
-2.450000
20
-1.237500
0
VERTEX
8
PASTE_MASK
10
-3.237500
20
-0.450000
0
VERTEX
8
PASTE_MASK
10
-3.237500
20
-0.237500
0
VERTEX
8
PASTE_MASK
10
-3.025000
20
-0.237500
0
SEQEND
0
POLYLINE
8
PASTE_MASK
66
1
70
32
40
0.000000
41
0.000000
0
VERTEX
8
PASTE_MASK
10
-3.237500
20
-0.735000
0
VERTEX
8
PASTE_MASK
10
-2.735000
20
-1.237500
0
VERTEX
8
PASTE_MASK
10
-3.160000
20
-1.237500
0
VERTEX
8
PASTE_MASK
10
-3.237500
20
-1.160000
0
VERTEX
8
PASTE_MASK
10
-3.237500
20
-0.735000
0
SEQEND
0
POLYLINE
8
PASTE_MASK
66
1
70
32
40
0.000000
41
0.000000
0
VERTEX
8
PASTE_MASK
10
-2.237500
20
-0.740000
0
VERTEX
8
PASTE_MASK
10
-2.740000
20
-0.237500
0
VERTEX
8
PASTE_MASK
10
-2.315000
20
-0.237500
0
VERTEX
8
PASTE_MASK
10
-2.237500
20
-0.315000
0
VERTEX
8
PASTE_MASK
10
-2.237500
20
-0.740000
0
SEQEND
0
POLYLINE
8
PASTE_MASK
66
1
70
32
40
0.000000
41
0.000000
0
VERTEX
8
PASTE_MASK
10
-3.025000
20
1.237500
0
VERTEX
8
PASTE_MASK
10
-2.237500
20
0.450000
0
VERTEX
8
PASTE_MASK
10
-2.237500
20
0.237500
0
VERTEX
8
PASTE_MASK
10
-2.450000
20
0.237500
0
VERTEX
8
PASTE_MASK
10
-3.237500
20
1.025000
0
VERTEX
8
PASTE_MASK
10
-3.237500
20
1.237500
0
VERTEX
8
PASTE_MASK
10
-3.025000
20
1.237500
0
SEQEND
0
POLYLINE
8
PASTE_MASK
66
1
70
32
40
0.000000
41
0.000000
0
VERTEX
8
PASTE_MASK
10
-3.237500
20
0.740000
0
VERTEX
8
PASTE_MASK
10
-2.735000
20
0.237500
0
VERTEX
8
PASTE_MASK
10
-3.160000
20
0.237500
0
VERTEX
8
PASTE_MASK
10
-3.237500
20
0.315000
0
VERTEX
8
PASTE_MASK
10
-3.237500
20
0.740000
0
SEQEND
0
POLYLINE
8
PASTE_MASK
66
1
70
32
40
0.000000
41
0.000000
0
VERTEX
8
PASTE_MASK
10
-2.237500
20
0.735000
0
VERTEX
8
PASTE_MASK
10
-2.740000
20
1.237500
0
VERTEX
8
PASTE_MASK
10
-2.315000
20
1.237500
0
VERTEX
8
PASTE_MASK
10
-2.237500
20
1.160000
0
VERTEX
8
PASTE_MASK
10
-2.237500
20
0.735000
0
SEQEND
0
POLYLINE
8
PASTE_MASK
66
1
70
32
40
0.000000
41
0.000000
0
VERTEX
8
PASTE_MASK
10
-1.200000
20
1.237500
0
VERTEX
8
PASTE_MASK
10
-0.412500
20
0.450000
0
VERTEX
8
PASTE_MASK
10
-0.412500
20
0.237500
0
VERTEX
8
PASTE_MASK
10
-0.625000
20
0.237500
0
VERTEX
8
PASTE_MASK
10
-1.412500
20
1.025000
0
VERTEX
8
PASTE_MASK
10
-1.412500
20
1.237500
0
VERTEX
8
PASTE_MASK
10
-1.200000
20
1.237500
0
SEQEND
0
POLYLINE
8
PASTE_MASK
66
1
70
32
40
0.000000
41
0.000000
0
VERTEX
8
PASTE_MASK
10
-1.412500
20
0.740000
0
VERTEX
8
PASTE_MASK
10
-0.910000
20
0.237500
0
VERTEX
8
PASTE_MASK
10
-1.335000
20
0.237500
0
VERTEX
8
PASTE_MASK
10
-1.412500
20
0.315000
0
VERTEX
8
PASTE_MASK
10
-1.412500
20
0.740000
0
SEQEND
0
POLYLINE
8
PASTE_MASK
66
1
70
32
40
0.000000
41
0.000000
0
VERTEX
8
PASTE_MASK
10
-0.412500
20
0.735000
0
VERTEX
8
PASTE_MASK
10
-0.915000
20
1.237500
0
VERTEX
8
PASTE_MASK
10
-0.490000
20
1.237500
0
VERTEX
8
PASTE_MASK
10
-0.412500
20
1.160000
0
VERTEX
8
PASTE_MASK
10
-0.412500
20
0.735000
0
SEQEND
0
POLYLINE
8
PASTE_MASK
66
1
70
32
40
0.000000
41
0.000000
0
VERTEX
8
PASTE_MASK
10
0.625000
20
1.237500
0
VERTEX
8
PASTE_MASK
10
1.412500
20
0.450000
0
VERTEX
8
PASTE_MASK
10
1.412500
20
0.237500
0
VERTEX
8
PASTE_MASK
10
1.200000
20
0.237500
0
VERTEX
8
PASTE_MASK
10
0.412500
20
1.025000
0
VERTEX
8
PASTE_MASK
10
0.412500
20
1.237500
0
VERTEX
8
PASTE_MASK
10
0.625000
20
1.237500
0
SEQEND
0
POLYLINE
8
PASTE_MASK
66
1
70
32
40
0.000000
41
0.000000
0
VERTEX
8
PASTE_MASK
10
0.412500
20
0.740000
0
VERTEX
8
PASTE_MASK
10
0.915000
20
0.237500
0
VERTEX
8
PASTE_MASK
10
0.490000
20
0.237500
0
VERTEX
8
PASTE_MASK
10
0.412500
20
0.315000
0
VERTEX
8
PASTE_MASK
10
0.412500
20
0.740000
0
SEQEND
0
POLYLINE
8
PASTE_MASK
66
1
70
32
40
0.000000
41
0.000000
0
VERTEX
8
PASTE_MASK
10
1.412500
20
0.735000
0
VERTEX
8
PASTE_MASK
10
0.910000
20
1.237500
0
VERTEX
8
PASTE_MASK
10
1.335000
20
1.237500
0
VERTEX
8
PASTE_MASK
10
1.412500
20
1.160000
0
VERTEX
8
PASTE_MASK
10
1.412500
20
0.735000
0
SEQEND
0
POLYLINE
8
PASTE_MASK
66
1
70
32
40
0.000000
41
0.000000
0
VERTEX
8
PASTE_MASK
10
2.450000
20
1.237500
0
VERTEX
8
PASTE_MASK
10
3.237500
20
0.450000
0
VERTEX
8
PASTE_MASK
10
3.237500
20
0.237500
0
VERTEX
8
PASTE_MASK
10
3.025000
20
0.237500
0
VERTEX
8
PASTE_MASK
10
2.237500
20
1.025000
0
VERTEX
8
PASTE_MASK
10
2.237500
20
1.237500
0
VERTEX
8
PASTE_MASK
10
2.450000
20
1.237500
0
SEQEND
0
POLYLINE
8
PASTE_MASK
66
1
70
32
40
0.000000
41
0.000000
0
VERTEX
8
PASTE_MASK
10
2.237500
20
0.740000
0
VERTEX
8
PASTE_MASK
10
2.740000
20
0.237500
0
VERTEX
8
PASTE_MASK
10
2.315000
20
0.237500
0
VERTEX
8
PASTE_MASK
10
2.237500
20
0.315000
0
VERTEX
8
PASTE_MASK
10
2.237500
20
0.740000
0
SEQEND
0
POLYLINE
8
PASTE_MASK
66
1
70
32
40
0.000000
41
0.000000
0
VERTEX
8
PASTE_MASK
10
3.237500
20
0.735000
0
VERTEX
8
PASTE_MASK
10
2.735000
20
1.237500
0
VERTEX
8
PASTE_MASK
10
3.160000
20
1.237500
0
VERTEX
8
PASTE_MASK
10
3.237500
20
1.160000
0
VERTEX
8
PASTE_MASK
10
3.237500
20
0.735000
0
SEQEND
0
POLYLINE
8
PASTE_MASK
66
1
70
32
40
0.000000
41
0.000000
0
VERTEX
8
PASTE_MASK
10
-3.025000
20
2.712500
0
VERTEX
8
PASTE_MASK
10
-2.237500
20
1.925000
0
VERTEX
8
PASTE_MASK
10
-2.237500
20
1.712500
0
VERTEX
8
PASTE_MASK
10
-2.450000
20
1.712500
0
VERTEX
8
PASTE_MASK
10
-3.237500
20
2.500000
0
VERTEX
8
PASTE_MASK
10
-3.237500
20
2.712500
0
VERTEX
8
PASTE_MASK
10
-3.025000
20
2.712500
0
SEQEND
0
POLYLINE
8
PASTE_MASK
66
1
70
32
40
0.000000
41
0.000000
0
VERTEX
8
PASTE_MASK
10
-3.237500
20
2.215000
0
VERTEX
8
PASTE_MASK
10
-2.735000
20
1.712500
0
VERTEX
8
PASTE_MASK
10
-3.160000
20
1.712500
0
VERTEX
8
PASTE_MASK
10
-3.237500
20
1.790000
0
VERTEX
8
PASTE_MASK
10
-3.237500
20
2.215000
0
SEQEND
0
POLYLINE
8
PASTE_MASK
66
1
70
32
40
0.000000
41
0.000000
0
VERTEX
8
PASTE_MASK
10
-2.237500
20
2.210000
0
VERTEX
8
PASTE_MASK
10
-2.740000
20
2.712500
0
VERTEX
8
PASTE_MASK
10
-2.315000
20
2.712500
0
VERTEX
8
PASTE_MASK
10
-2.237500
20
2.635000
0
VERTEX
8
PASTE_MASK
10
-2.237500
20
2.210000
0
SEQEND
0
POLYLINE
8
PASTE_MASK
66
1
70
32
40
0.000000
41
0.000000
0
VERTEX
8
PASTE_MASK
10
-3.025000
20
4.187500
0
VERTEX
8
PASTE_MASK
10
-2.237500
20
3.400000
0
VERTEX
8
PASTE_MASK
10
-2.237500
20
3.187500
0
VERTEX
8
PASTE_MASK
10
-2.450000
20
3.187500
0
VERTEX
8
PASTE_MASK
10
-3.237500
20
3.975000
0
VERTEX
8
PASTE_MASK
10
-3.237500
20
4.187500
0
VERTEX
8
PASTE_MASK
10
-3.025000
20
4.187500
0
SEQEND
0
POLYLINE
8
PASTE_MASK
66
1
70
32
40
0.000000
41
0.000000
0
VERTEX
8
PASTE_MASK
10
-3.237500
20
3.690000
0
VERTEX
8
PASTE_MASK
10
-2.735000
20
3.187500
0
VERTEX
8
PASTE_MASK
10
-3.160000
20
3.187500
0
VERTEX
8
PASTE_MASK
10
-3.237500
20
3.265000
0
VERTEX
8
PASTE_MASK
10
-3.237500
20
3.690000
0
SEQEND
0
POLYLINE
8
PASTE_MASK
66
1
70
32
40
0.000000
41
0.000000
0
VERTEX
8
PASTE_MASK
10
-2.237500
20
3.685000
0
VERTEX
8
PASTE_MASK
10
-2.740000
20
4.187500
0
VERTEX
8
PASTE_MASK
10
-2.315000
20
4.187500
0
VERTEX
8
PASTE_MASK
10
-2.237500
20
4.110000
0
VERTEX
8
PASTE_MASK
10
-2.237500
20
3.685000
0
SEQEND
0
POLYLINE
8
PASTE_MASK
66
1
70
32
40
0.000000
41
0.000000
0
VERTEX
8
PASTE_MASK
10
-3.025000
20
5.662500
0
VERTEX
8
PASTE_MASK
10
-2.237500
20
4.875000
0
VERTEX
8
PASTE_MASK
10
-2.237500
20
4.662500
0
VERTEX
8
PASTE_MASK
10
-2.450000
20
4.662500
0
VERTEX
8
PASTE_MASK
10
-3.237500
20
5.450000
0
VERTEX
8
PASTE_MASK
10
-3.237500
20
5.662500
0
VERTEX
8
PASTE_MASK
10
-3.025000
20
5.662500
0
SEQEND
0
POLYLINE
8
PASTE_MASK
66
1
70
32
40
0.000000
41
0.000000
0
VERTEX
8
PASTE_MASK
10
-3.237500
20
5.165000
0
VERTEX
8
PASTE_MASK
10
-2.735000
20
4.662500
0
VERTEX
8
PASTE_MASK
10
-3.160000
20
4.662500
0
VERTEX
8
PASTE_MASK
10
-3.237500
20
4.740000
0
VERTEX
8
PASTE_MASK
10
-3.237500
20
5.165000
0
SEQEND
0
POLYLINE
8
PASTE_MASK
66
1
70
32
40
0.000000
41
0.000000
0
VERTEX
8
PASTE_MASK
10
-2.237500
20
5.160000
0
VERTEX
8
PASTE_MASK
10
-2.740000
20
5.662500
0
VERTEX
8
PASTE_MASK
10
-2.315000
20
5.662500
0
VERTEX
8
PASTE_MASK
10
-2.237500
20
5.585000
0
VERTEX
8
PASTE_MASK
10
-2.237500
20
5.160000
0
SEQEND
0
POLYLINE
8
PASTE_MASK
66
1
70
32
40
0.000000
41
0.000000
0
VERTEX
8
PASTE_MASK
10
-1.200000
20
5.662500
0
VERTEX
8
PASTE_MASK
10
-0.412500
20
4.875000
0
VERTEX
8
PASTE_MASK
10
-0.412500
20
4.662500
0
VERTEX
8
PASTE_MASK
10
-0.625000
20
4.662500
0
VERTEX
8
PASTE_MASK
10
-1.412500
20
5.450000
0
VERTEX
8
PASTE_MASK
10
-1.412500
20
5.662500
0
VERTEX
8
PASTE_MASK
10
-1.200000
20
5.662500
0
SEQEND
0
POLYLINE
8
PASTE_MASK
66
1
70
32
40
0.000000
41
0.000000
0
VERTEX
8
PASTE_MASK
10
-1.412500
20
5.165000
0
VERTEX
8
PASTE_MASK
10
-0.910000
20
4.662500
0
VERTEX
8
PASTE_MASK
10
-1.335000
20
4.662500
0
VERTEX
8
PASTE_MASK
10
-1.412500
20
4.740000
0
VERTEX
8
PASTE_MASK
10
-1.412500
20
5.165000
0
SEQEND
0
POLYLINE
8
PASTE_MASK
66
1
70
32
40
0.000000
41
0.000000
0
VERTEX
8
PASTE_MASK
10
-0.412500
20
5.160000
0
VERTEX
8
PASTE_MASK
10
-0.915000
20
5.662500
0
VERTEX
8
PASTE_MASK
10
-0.490000
20
5.662500
0
VERTEX
8
PASTE_MASK
10
-0.412500
20
5.585000
0
VERTEX
8
PASTE_MASK
10
-0.412500
20
5.160000
0
SEQEND
0
POLYLINE
8
PASTE_MASK
66
1
70
32
40
0.000000
41
0.000000
0
VERTEX
8
PASTE_MASK
10
-1.200000
20
4.187500
0
VERTEX
8
PASTE_MASK
10
-0.412500
20
3.400000
0
VERTEX
8
PASTE_MASK
10
-0.412500
20
3.187500
0
VERTEX
8
PASTE_MASK
10
-0.625000
20
3.187500
0
VERTEX
8
PASTE_MASK
10
-1.412500
20
3.975000
0
VERTEX
8
PASTE_MASK
10
-1.412500
20
4.187500
0
VERTEX
8
PASTE_MASK
10
-1.200000
20
4.187500
0
SEQEND
0
POLYLINE
8
PASTE_MASK
66
1
70
32
40
0.000000
41
0.000000
0
VERTEX
8
PASTE_MASK
10
-1.412500
20
3.690000
0
VERTEX
8
PASTE_MASK
10
-0.910000
20
3.187500
0
VERTEX
8
PASTE_MASK
10
-1.335000
20
3.187500
0
VERTEX
8
PASTE_MASK
10
-1.412500
20
3.265000
0
VERTEX
8
PASTE_MASK
10
-1.412500
20
3.690000
0
SEQEND
0
POLYLINE
8
PASTE_MASK
66
1
70
32
40
0.000000
41
0.000000
0
VERTEX
8
PASTE_MASK
10
-0.412500
20
3.685000
0
VERTEX
8
PASTE_MASK
10
-0.915000
20
4.187500
0
VERTEX
8
PASTE_MASK
10
-0.490000
20
4.187500
0
VERTEX
8
PASTE_MASK
10
-0.412500
20
4.110000
0
VERTEX
8
PASTE_MASK
10
-0.412500
20
3.685000
0
SEQEND
0
POLYLINE
8
PASTE_MASK
66
1
70
32
40
0.000000
41
0.000000
0
VERTEX
8
PASTE_MASK
10
-1.200000
20
2.712500
0
VERTEX
8
PASTE_MASK
10
-0.412500
20
1.925000
0
VERTEX
8
PASTE_MASK
10
-0.412500
20
1.712500
0
VERTEX
8
PASTE_MASK
10
-0.625000
20
1.712500
0
VERTEX
8
PASTE_MASK
10
-1.412500
20
2.500000
0
VERTEX
8
PASTE_MASK
10
-1.412500
20
2.712500
0
VERTEX
8
PASTE_MASK
10
-1.200000
20
2.712500
0
SEQEND
0
POLYLINE
8
PASTE_MASK
66
1
70
32
40
0.000000
41
0.000000
0
VERTEX
8
PASTE_MASK
10
-1.412500
20
2.215000
0
VERTEX
8
PASTE_MASK
10
-0.910000
20
1.712500
0
VERTEX
8
PASTE_MASK
10
-1.335000
20
1.712500
0
VERTEX
8
PASTE_MASK
10
-1.412500
20
1.790000
0
VERTEX
8
PASTE_MASK
10
-1.412500
20
2.215000
0
SEQEND
0
POLYLINE
8
PASTE_MASK
66
1
70
32
40
0.000000
41
0.000000
0
VERTEX
8
PASTE_MASK
10
-0.412500
20
2.210000
0
VERTEX
8
PASTE_MASK
10
-0.915000
20
2.712500
0
VERTEX
8
PASTE_MASK
10
-0.490000
20
2.712500
0
VERTEX
8
PASTE_MASK
10
-0.412500
20
2.635000
0
VERTEX
8
PASTE_MASK
10
-0.412500
20
2.210000
0
SEQEND
0
POLYLINE
8
PASTE_MASK
66
1
70
32
40
0.000000
41
0.000000
0
VERTEX
8
PASTE_MASK
10
0.625000
20
2.712500
0
VERTEX
8
PASTE_MASK
10
1.412500
20
1.925000
0
VERTEX
8
PASTE_MASK
10
1.412500
20
1.712500
0
VERTEX
8
PASTE_MASK
10
1.200000
20
1.712500
0
VERTEX
8
PASTE_MASK
10
0.412500
20
2.500000
0
VERTEX
8
PASTE_MASK
10
0.412500
20
2.712500
0
VERTEX
8
PASTE_MASK
10
0.625000
20
2.712500
0
SEQEND
0
POLYLINE
8
PASTE_MASK
66
1
70
32
40
0.000000
41
0.000000
0
VERTEX
8
PASTE_MASK
10
0.412500
20
2.215000
0
VERTEX
8
PASTE_MASK
10
0.915000
20
1.712500
0
VERTEX
8
PASTE_MASK
10
0.490000
20
1.712500
0
VERTEX
8
PASTE_MASK
10
0.412500
20
1.790000
0
VERTEX
8
PASTE_MASK
10
0.412500
20
2.215000
0
SEQEND
0
POLYLINE
8
PASTE_MASK
66
1
70
32
40
0.000000
41
0.000000
0
VERTEX
8
PASTE_MASK
10
1.412500
20
2.210000
0
VERTEX
8
PASTE_MASK
10
0.910000
20
2.712500
0
VERTEX
8
PASTE_MASK
10
1.335000
20
2.712500
0
VERTEX
8
PASTE_MASK
10
1.412500
20
2.635000
0
VERTEX
8
PASTE_MASK
10
1.412500
20
2.210000
0
SEQEND
0
POLYLINE
8
PASTE_MASK
66
1
70
32
40
0.000000
41
0.000000
0
VERTEX
8
PASTE_MASK
10
0.625000
20
4.187500
0
VERTEX
8
PASTE_MASK
10
1.412500
20
3.400000
0
VERTEX
8
PASTE_MASK
10
1.412500
20
3.187500
0
VERTEX
8
PASTE_MASK
10
1.200000
20
3.187500
0
VERTEX
8
PASTE_MASK
10
0.412500
20
3.975000
0
VERTEX
8
PASTE_MASK
10
0.412500
20
4.187500
0
VERTEX
8
PASTE_MASK
10
0.625000
20
4.187500
0
SEQEND
0
POLYLINE
8
PASTE_MASK
66
1
70
32
40
0.000000
41
0.000000
0
VERTEX
8
PASTE_MASK
10
0.412500
20
3.690000
0
VERTEX
8
PASTE_MASK
10
0.915000
20
3.187500
0
VERTEX
8
PASTE_MASK
10
0.490000
20
3.187500
0
VERTEX
8
PASTE_MASK
10
0.412500
20
3.265000
0
VERTEX
8
PASTE_MASK
10
0.412500
20
3.690000
0
SEQEND
0
POLYLINE
8
PASTE_MASK
66
1
70
32
40
0.000000
41
0.000000
0
VERTEX
8
PASTE_MASK
10
1.412500
20
3.685000
0
VERTEX
8
PASTE_MASK
10
0.910000
20
4.187500
0
VERTEX
8
PASTE_MASK
10
1.335000
20
4.187500
0
VERTEX
8
PASTE_MASK
10
1.412500
20
4.110000
0
VERTEX
8
PASTE_MASK
10
1.412500
20
3.685000
0
SEQEND
0
POLYLINE
8
PASTE_MASK
66
1
70
32
40
0.000000
41
0.000000
0
VERTEX
8
PASTE_MASK
10
0.625000
20
5.662500
0
VERTEX
8
PASTE_MASK
10
1.412500
20
4.875000
0
VERTEX
8
PASTE_MASK
10
1.412500
20
4.662500
0
VERTEX
8
PASTE_MASK
10
1.200000
20
4.662500
0
VERTEX
8
PASTE_MASK
10
0.412500
20
5.450000
0
VERTEX
8
PASTE_MASK
10
0.412500
20
5.662500
0
VERTEX
8
PASTE_MASK
10
0.625000
20
5.662500
0
SEQEND
0
POLYLINE
8
PASTE_MASK
66
1
70
32
40
0.000000
41
0.000000
0
VERTEX
8
PASTE_MASK
10
0.412500
20
5.165000
0
VERTEX
8
PASTE_MASK
10
0.915000
20
4.662500
0
VERTEX
8
PASTE_MASK
10
0.490000
20
4.662500
0
VERTEX
8
PASTE_MASK
10
0.412500
20
4.740000
0
VERTEX
8
PASTE_MASK
10
0.412500
20
5.165000
0
SEQEND
0
POLYLINE
8
PASTE_MASK
66
1
70
32
40
0.000000
41
0.000000
0
VERTEX
8
PASTE_MASK
10
1.412500
20
5.160000
0
VERTEX
8
PASTE_MASK
10
0.910000
20
5.662500
0
VERTEX
8
PASTE_MASK
10
1.335000
20
5.662500
0
VERTEX
8
PASTE_MASK
10
1.412500
20
5.585000
0
VERTEX
8
PASTE_MASK
10
1.412500
20
5.160000
0
SEQEND
0
POLYLINE
8
PASTE_MASK
66
1
70
32
40
0.000000
41
0.000000
0
VERTEX
8
PASTE_MASK
10
2.450000
20
2.712500
0
VERTEX
8
PASTE_MASK
10
3.237500
20
1.925000
0
VERTEX
8
PASTE_MASK
10
3.237500
20
1.712500
0
VERTEX
8
PASTE_MASK
10
3.025000
20
1.712500
0
VERTEX
8
PASTE_MASK
10
2.237500
20
2.500000
0
VERTEX
8
PASTE_MASK
10
2.237500
20
2.712500
0
VERTEX
8
PASTE_MASK
10
2.450000
20
2.712500
0
SEQEND
0
POLYLINE
8
PASTE_MASK
66
1
70
32
40
0.000000
41
0.000000
0
VERTEX
8
PASTE_MASK
10
2.237500
20
2.215000
0
VERTEX
8
PASTE_MASK
10
2.740000
20
1.712500
0
VERTEX
8
PASTE_MASK
10
2.315000
20
1.712500
0
VERTEX
8
PASTE_MASK
10
2.237500
20
1.790000
0
VERTEX
8
PASTE_MASK
10
2.237500
20
2.215000
0
SEQEND
0
POLYLINE
8
PASTE_MASK
66
1
70
32
40
0.000000
41
0.000000
0
VERTEX
8
PASTE_MASK
10
3.237500
20
2.210000
0
VERTEX
8
PASTE_MASK
10
2.735000
20
2.712500
0
VERTEX
8
PASTE_MASK
10
3.160000
20
2.712500
0
VERTEX
8
PASTE_MASK
10
3.237500
20
2.635000
0
VERTEX
8
PASTE_MASK
10
3.237500
20
2.210000
0
SEQEND
0
POLYLINE
8
PASTE_MASK
66
1
70
32
40
0.000000
41
0.000000
0
VERTEX
8
PASTE_MASK
10
2.450000
20
4.187500
0
VERTEX
8
PASTE_MASK
10
3.237500
20
3.400000
0
VERTEX
8
PASTE_MASK
10
3.237500
20
3.187500
0
VERTEX
8
PASTE_MASK
10
3.025000
20
3.187500
0
VERTEX
8
PASTE_MASK
10
2.237500
20
3.975000
0
VERTEX
8
PASTE_MASK
10
2.237500
20
4.187500
0
VERTEX
8
PASTE_MASK
10
2.450000
20
4.187500
0
SEQEND
0
POLYLINE
8
PASTE_MASK
66
1
70
32
40
0.000000
41
0.000000
0
VERTEX
8
PASTE_MASK
10
2.237500
20
3.690000
0
VERTEX
8
PASTE_MASK
10
2.740000
20
3.187500
0
VERTEX
8
PASTE_MASK
10
2.315000
20
3.187500
0
VERTEX
8
PASTE_MASK
10
2.237500
20
3.265000
0
VERTEX
8
PASTE_MASK
10
2.237500
20
3.690000
0
SEQEND
0
POLYLINE
8
PASTE_MASK
66
1
70
32
40
0.000000
41
0.000000
0
VERTEX
8
PASTE_MASK
10
3.237500
20
3.685000
0
VERTEX
8
PASTE_MASK
10
2.735000
20
4.187500
0
VERTEX
8
PASTE_MASK
10
3.160000
20
4.187500
0
VERTEX
8
PASTE_MASK
10
3.237500
20
4.110000
0
VERTEX
8
PASTE_MASK
10
3.237500
20
3.685000
0
SEQEND
0
POLYLINE
8
PASTE_MASK
66
1
70
32
40
0.000000
41
0.000000
0
VERTEX
8
PASTE_MASK
10
2.450000
20
5.662500
0
VERTEX
8
PASTE_MASK
10
3.237500
20
4.875000
0
VERTEX
8
PASTE_MASK
10
3.237500
20
4.662500
0
VERTEX
8
PASTE_MASK
10
3.025000
20
4.662500
0
VERTEX
8
PASTE_MASK
10
2.237500
20
5.450000
0
VERTEX
8
PASTE_MASK
10
2.237500
20
5.662500
0
VERTEX
8
PASTE_MASK
10
2.450000
20
5.662500
0
SEQEND
0
POLYLINE
8
PASTE_MASK
66
1
70
32
40
0.000000
41
0.000000
0
VERTEX
8
PASTE_MASK
10
2.237500
20
5.165000
0
VERTEX
8
PASTE_MASK
10
2.740000
20
4.662500
0
VERTEX
8
PASTE_MASK
10
2.315000
20
4.662500
0
VERTEX
8
PASTE_MASK
10
2.237500
20
4.740000
0
VERTEX
8
PASTE_MASK
10
2.237500
20
5.165000
0
SEQEND
0
POLYLINE
8
PASTE_MASK
66
1
70
32
40
0.000000
41
0.000000
0
VERTEX
8
PASTE_MASK
10
3.237500
20
5.160000
0
VERTEX
8
PASTE_MASK
10
2.735000
20
5.662500
0
VERTEX
8
PASTE_MASK
10
3.160000
20
5.662500
0
VERTEX
8
PASTE_MASK
10
3.237500
20
5.585000
0
VERTEX
8
PASTE_MASK
10
3.237500
20
5.160000
0
SEQEND
0
POLYLINE
8
PASTE_MASK
66
1
70
32
40
0.000000
41
0.000000
0
VERTEX
8
PASTE_MASK
10
4.275000
20
5.662500
0
VERTEX
8
PASTE_MASK
10
5.062500
20
4.875000
0
VERTEX
8
PASTE_MASK
10
5.062500
20
4.662500
0
VERTEX
8
PASTE_MASK
10
4.850000
20
4.662500
0
VERTEX
8
PASTE_MASK
10
4.062500
20
5.450000
0
VERTEX
8
PASTE_MASK
10
4.062500
20
5.662500
0
VERTEX
8
PASTE_MASK
10
4.275000
20
5.662500
0
SEQEND
0
POLYLINE
8
PASTE_MASK
66
1
70
32
40
0.000000
41
0.000000
0
VERTEX
8
PASTE_MASK
10
4.062500
20
5.165000
0
VERTEX
8
PASTE_MASK
10
4.565000
20
4.662500
0
VERTEX
8
PASTE_MASK
10
4.140000
20
4.662500
0
VERTEX
8
PASTE_MASK
10
4.062500
20
4.740000
0
VERTEX
8
PASTE_MASK
10
4.062500
20
5.165000
0
SEQEND
0
POLYLINE
8
PASTE_MASK
66
1
70
32
40
0.000000
41
0.000000
0
VERTEX
8
PASTE_MASK
10
5.062500
20
5.160000
0
VERTEX
8
PASTE_MASK
10
4.560000
20
5.662500
0
VERTEX
8
PASTE_MASK
10
4.985000
20
5.662500
0
VERTEX
8
PASTE_MASK
10
5.062500
20
5.585000
0
VERTEX
8
PASTE_MASK
10
5.062500
20
5.160000
0
SEQEND
0
POLYLINE
8
PASTE_MASK
66
1
70
32
40
0.000000
41
0.000000
0
VERTEX
8
PASTE_MASK
10
4.275000
20
4.187500
0
VERTEX
8
PASTE_MASK
10
5.062500
20
3.400000
0
VERTEX
8
PASTE_MASK
10
5.062500
20
3.187500
0
VERTEX
8
PASTE_MASK
10
4.850000
20
3.187500
0
VERTEX
8
PASTE_MASK
10
4.062500
20
3.975000
0
VERTEX
8
PASTE_MASK
10
4.062500
20
4.187500
0
VERTEX
8
PASTE_MASK
10
4.275000
20
4.187500
0
SEQEND
0
POLYLINE
8
PASTE_MASK
66
1
70
32
40
0.000000
41
0.000000
0
VERTEX
8
PASTE_MASK
10
4.062500
20
3.690000
0
VERTEX
8
PASTE_MASK
10
4.565000
20
3.187500
0
VERTEX
8
PASTE_MASK
10
4.140000
20
3.187500
0
VERTEX
8
PASTE_MASK
10
4.062500
20
3.265000
0
VERTEX
8
PASTE_MASK
10
4.062500
20
3.690000
0
SEQEND
0
POLYLINE
8
PASTE_MASK
66
1
70
32
40
0.000000
41
0.000000
0
VERTEX
8
PASTE_MASK
10
5.062500
20
3.685000
0
VERTEX
8
PASTE_MASK
10
4.560000
20
4.187500
0
VERTEX
8
PASTE_MASK
10
4.985000
20
4.187500
0
VERTEX
8
PASTE_MASK
10
5.062500
20
4.110000
0
VERTEX
8
PASTE_MASK
10
5.062500
20
3.685000
0
SEQEND
0
POLYLINE
8
PASTE_MASK
66
1
70
32
40
0.000000
41
0.000000
0
VERTEX
8
PASTE_MASK
10
4.275000
20
2.712500
0
VERTEX
8
PASTE_MASK
10
5.062500
20
1.925000
0
VERTEX
8
PASTE_MASK
10
5.062500
20
1.712500
0
VERTEX
8
PASTE_MASK
10
4.850000
20
1.712500
0
VERTEX
8
PASTE_MASK
10
4.062500
20
2.500000
0
VERTEX
8
PASTE_MASK
10
4.062500
20
2.712500
0
VERTEX
8
PASTE_MASK
10
4.275000
20
2.712500
0
SEQEND
0
POLYLINE
8
PASTE_MASK
66
1
70
32
40
0.000000
41
0.000000
0
VERTEX
8
PASTE_MASK
10
4.062500
20
2.215000
0
VERTEX
8
PASTE_MASK
10
4.565000
20
1.712500
0
VERTEX
8
PASTE_MASK
10
4.140000
20
1.712500
0
VERTEX
8
PASTE_MASK
10
4.062500
20
1.790000
0
VERTEX
8
PASTE_MASK
10
4.062500
20
2.215000
0
SEQEND
0
POLYLINE
8
PASTE_MASK
66
1
70
32
40
0.000000
41
0.000000
0
VERTEX
8
PASTE_MASK
10
5.062500
20
2.210000
0
VERTEX
8
PASTE_MASK
10
4.560000
20
2.712500
0
VERTEX
8
PASTE_MASK
10
4.985000
20
2.712500
0
VERTEX
8
PASTE_MASK
10
5.062500
20
2.635000
0
VERTEX
8
PASTE_MASK
10
5.062500
20
2.210000
0
SEQEND
0
POLYLINE
8
PASTE_MASK
66
1
70
32
40
0.000000
41
0.000000
0
VERTEX
8
PASTE_MASK
10
6.100000
20
2.712500
0
VERTEX
8
PASTE_MASK
10
6.887500
20
1.925000
0
VERTEX
8
PASTE_MASK
10
6.887500
20
1.712500
0
VERTEX
8
PASTE_MASK
10
6.675000
20
1.712500
0
VERTEX
8
PASTE_MASK
10
5.887500
20
2.500000
0
VERTEX
8
PASTE_MASK
10
5.887500
20
2.712500
0
VERTEX
8
PASTE_MASK
10
6.100000
20
2.712500
0
SEQEND
0
POLYLINE
8
PASTE_MASK
66
1
70
32
40
0.000000
41
0.000000
0
VERTEX
8
PASTE_MASK
10
5.887500
20
2.215000
0
VERTEX
8
PASTE_MASK
10
6.390000
20
1.712500
0
VERTEX
8
PASTE_MASK
10
5.965000
20
1.712500
0
VERTEX
8
PASTE_MASK
10
5.887500
20
1.790000
0
VERTEX
8
PASTE_MASK
10
5.887500
20
2.215000
0
SEQEND
0
POLYLINE
8
PASTE_MASK
66
1
70
32
40
0.000000
41
0.000000
0
VERTEX
8
PASTE_MASK
10
6.887500
20
2.210000
0
VERTEX
8
PASTE_MASK
10
6.385000
20
2.712500
0
VERTEX
8
PASTE_MASK
10
6.810000
20
2.712500
0
VERTEX
8
PASTE_MASK
10
6.887500
20
2.635000
0
VERTEX
8
PASTE_MASK
10
6.887500
20
2.210000
0
SEQEND
0
POLYLINE
8
PASTE_MASK
66
1
70
32
40
0.000000
41
0.000000
0
VERTEX
8
PASTE_MASK
10
6.100000
20
4.187500
0
VERTEX
8
PASTE_MASK
10
6.887500
20
3.400000
0
VERTEX
8
PASTE_MASK
10
6.887500
20
3.187500
0
VERTEX
8
PASTE_MASK
10
6.675000
20
3.187500
0
VERTEX
8
PASTE_MASK
10
5.887500
20
3.975000
0
VERTEX
8
PASTE_MASK
10
5.887500
20
4.187500
0
VERTEX
8
PASTE_MASK
10
6.100000
20
4.187500
0
SEQEND
0
POLYLINE
8
PASTE_MASK
66
1
70
32
40
0.000000
41
0.000000
0
VERTEX
8
PASTE_MASK
10
5.887500
20
3.690000
0
VERTEX
8
PASTE_MASK
10
6.390000
20
3.187500
0
VERTEX
8
PASTE_MASK
10
5.965000
20
3.187500
0
VERTEX
8
PASTE_MASK
10
5.887500
20
3.265000
0
VERTEX
8
PASTE_MASK
10
5.887500
20
3.690000
0
SEQEND
0
POLYLINE
8
PASTE_MASK
66
1
70
32
40
0.000000
41
0.000000
0
VERTEX
8
PASTE_MASK
10
6.887500
20
3.685000
0
VERTEX
8
PASTE_MASK
10
6.385000
20
4.187500
0
VERTEX
8
PASTE_MASK
10
6.810000
20
4.187500
0
VERTEX
8
PASTE_MASK
10
6.887500
20
4.110000
0
VERTEX
8
PASTE_MASK
10
6.887500
20
3.685000
0
SEQEND
0
POLYLINE
8
PASTE_MASK
66
1
70
32
40
0.000000
41
0.000000
0
VERTEX
8
PASTE_MASK
10
6.100000
20
5.662500
0
VERTEX
8
PASTE_MASK
10
6.887500
20
4.875000
0
VERTEX
8
PASTE_MASK
10
6.887500
20
4.662500
0
VERTEX
8
PASTE_MASK
10
6.675000
20
4.662500
0
VERTEX
8
PASTE_MASK
10
5.887500
20
5.450000
0
VERTEX
8
PASTE_MASK
10
5.887500
20
5.662500
0
VERTEX
8
PASTE_MASK
10
6.100000
20
5.662500
0
SEQEND
0
POLYLINE
8
PASTE_MASK
66
1
70
32
40
0.000000
41
0.000000
0
VERTEX
8
PASTE_MASK
10
5.887500
20
5.165000
0
VERTEX
8
PASTE_MASK
10
6.390000
20
4.662500
0
VERTEX
8
PASTE_MASK
10
5.965000
20
4.662500
0
VERTEX
8
PASTE_MASK
10
5.887500
20
4.740000
0
VERTEX
8
PASTE_MASK
10
5.887500
20
5.165000
0
SEQEND
0
POLYLINE
8
PASTE_MASK
66
1
70
32
40
0.000000
41
0.000000
0
VERTEX
8
PASTE_MASK
10
6.887500
20
5.160000
0
VERTEX
8
PASTE_MASK
10
6.385000
20
5.662500
0
VERTEX
8
PASTE_MASK
10
6.810000
20
5.662500
0
VERTEX
8
PASTE_MASK
10
6.887500
20
5.585000
0
VERTEX
8
PASTE_MASK
10
6.887500
20
5.160000
0
SEQEND
0
CIRCLE
8
PAD
10
-8.180000
20
-8.280000
40
0.500000
0
CIRCLE
8
PAD
10
-6.400000
20
-8.480000
40
0.400000
0
CIRCLE
8
PAD
10
-5.200000
20
-8.480000
40
0.400000
0
CIRCLE
8
PAD
10
-4.000000
20
-8.480000
40
0.400000
0
CIRCLE
8
PAD
10
-2.800000
20
-8.480000
40
0.400000
0
CIRCLE
8
PAD
10
-1.600000
20
-8.480000
40
0.400000
0
CIRCLE
8
PAD
10
-0.400000
20
-8.480000
40
0.400000
0
CIRCLE
8
PAD
10
0.800000
20
-8.480000
40
0.400000
0
POLYLINE
8
PAD
66
1
70
32
0
VERTEX
8
PAD
10
-0.150000
20
-6.280000
0
VERTEX
8
PAD
10
-0.150000
20
-7.280000
0
VERTEX
8
PAD
10
-0.650000
20
-7.280000
0
VERTEX
8
PAD
10
-0.650000
20
-6.280000
0
VERTEX
8
PAD
10
-0.150000
20
-6.280000
0
SEQEND
0
POLYLINE
8
PAD
66
1
70
32
0
VERTEX
8
PAD
10
0.650000
20
-6.280000
0
VERTEX
8
PAD
10
0.650000
20
-7.280000
0
VERTEX
8
PAD
10
0.150000
20
-7.280000
0
VERTEX
8
PAD
10
0.150000
20
-6.280000
0
VERTEX
8
PAD
10
0.650000
20
-6.280000
0
SEQEND
0
POLYLINE
8
PAD
66
1
70
32
0
VERTEX
8
PAD
10
1.450000
20
-6.280000
0
VERTEX
8
PAD
10
1.450000
20
-7.280000
0
VERTEX
8
PAD
10
0.950000
20
-7.280000
0
VERTEX
8
PAD
10
0.950000
20
-6.280000
0
VERTEX
8
PAD
10
1.450000
20
-6.280000
0
SEQEND
0
POLYLINE
8
PAD
66
1
70
32
0
VERTEX
8
PAD
10
-0.950000
20
-6.280000
0
VERTEX
8
PAD
10
-0.950000
20
-7.280000
0
VERTEX
8
PAD
10
-1.450000
20
-7.280000
0
VERTEX
8
PAD
10
-1.450000
20
-6.280000
0
VERTEX
8
PAD
10
-0.950000
20
-6.280000
0
SEQEND
0
POLYLINE
8
PAD
66
1
70
32
0
VERTEX
8
PAD
10
-1.750000
20
-6.280000
0
VERTEX
8
PAD
10
-1.750000
20
-7.280000
0
VERTEX
8
PAD
10
-2.250000
20
-7.280000
0
VERTEX
8
PAD
10
-2.250000
20
-6.280000
0
VERTEX
8
PAD
10
-1.750000
20
-6.280000
0
SEQEND
0
POLYLINE
8
PAD
66
1
70
32
0
VERTEX
8
PAD
10
2.250000
20
-6.280000
0
VERTEX
8
PAD
10
2.250000
20
-7.280000
0
VERTEX
8
PAD
10
1.750000
20
-7.280000
0
VERTEX
8
PAD
10
1.750000
20
-6.280000
0
VERTEX
8
PAD
10
2.250000
20
-6.280000
0
SEQEND
0
POLYLINE
8
PAD
66
1
70
32
0
VERTEX
8
PAD
10
-2.550000
20
-6.280000
0
VERTEX
8
PAD
10
-2.550000
20
-7.280000
0
VERTEX
8
PAD
10
-3.050000
20
-7.280000
0
VERTEX
8
PAD
10
-3.050000
20
-6.280000
0
VERTEX
8
PAD
10
-2.550000
20
-6.280000
0
SEQEND
0
POLYLINE
8
PAD
66
1
70
32
0
VERTEX
8
PAD
10
3.050000
20
-6.280000
0
VERTEX
8
PAD
10
3.050000
20
-7.280000
0
VERTEX
8
PAD
10
2.550000
20
-7.280000
0
VERTEX
8
PAD
10
2.550000
20
-6.280000
0
VERTEX
8
PAD
10
3.050000
20
-6.280000
0
SEQEND
0
POLYLINE
8
PAD
66
1
70
32
0
VERTEX
8
PAD
10
3.850000
20
-6.280000
0
VERTEX
8
PAD
10
3.850000
20
-7.280000
0
VERTEX
8
PAD
10
3.350000
20
-7.280000
0
VERTEX
8
PAD
10
3.350000
20
-6.280000
0
VERTEX
8
PAD
10
3.850000
20
-6.280000
0
SEQEND
0
POLYLINE
8
PAD
66
1
70
32
0
VERTEX
8
PAD
10
-3.350000
20
-6.280000
0
VERTEX
8
PAD
10
-3.350000
20
-7.280000
0
VERTEX
8
PAD
10
-3.850000
20
-7.280000
0
VERTEX
8
PAD
10
-3.850000
20
-6.280000
0
VERTEX
8
PAD
10
-3.350000
20
-6.280000
0
SEQEND
0
POLYLINE
8
PAD
66
1
70
32
0
VERTEX
8
PAD
10
-4.150000
20
-6.280000
0
VERTEX
8
PAD
10
-4.150000
20
-7.280000
0
VERTEX
8
PAD
10
-4.650000
20
-7.280000
0
VERTEX
8
PAD
10
-4.650000
20
-6.280000
0
VERTEX
8
PAD
10
-4.150000
20
-6.280000
0
SEQEND
0
POLYLINE
8
PAD
66
1
70
32
0
VERTEX
8
PAD
10
-4.950000
20
-6.280000
0
VERTEX
8
PAD
10
-4.950000
20
-7.280000
0
VERTEX
8
PAD
10
-5.450000
20
-7.280000
0
VERTEX
8
PAD
10
-5.450000
20
-6.280000
0
VERTEX
8
PAD
10
-4.950000
20
-6.280000
0
SEQEND
0
POLYLINE
8
PAD
66
1
70
32
0
VERTEX
8
PAD
10
-5.750000
20
-6.280000
0
VERTEX
8
PAD
10
-5.750000
20
-7.280000
0
VERTEX
8
PAD
10
-6.250000
20
-7.280000
0
VERTEX
8
PAD
10
-6.250000
20
-6.280000
0
VERTEX
8
PAD
10
-5.750000
20
-6.280000
0
SEQEND
0
POLYLINE
8
PAD
66
1
70
32
0
VERTEX
8
PAD
10
-6.550000
20
-6.280000
0
VERTEX
8
PAD
10
-6.550000
20
-7.280000
0
VERTEX
8
PAD
10
-7.050000
20
-7.280000
0
VERTEX
8
PAD
10
-7.050000
20
-6.280000
0
VERTEX
8
PAD
10
-6.550000
20
-6.280000
0
SEQEND
0
POLYLINE
8
PAD
66
1
70
32
0
VERTEX
8
PAD
10
4.650000
20
-6.280000
0
VERTEX
8
PAD
10
4.650000
20
-7.280000
0
VERTEX
8
PAD
10
4.150000
20
-7.280000
0
VERTEX
8
PAD
10
4.150000
20
-6.280000
0
VERTEX
8
PAD
10
4.650000
20
-6.280000
0
SEQEND
0
POLYLINE
8
PAD
66
1
70
32
0
VERTEX
8
PAD
10
5.450000
20
-6.280000
0
VERTEX
8
PAD
10
5.450000
20
-7.280000
0
VERTEX
8
PAD
10
4.950000
20
-7.280000
0
VERTEX
8
PAD
10
4.950000
20
-6.280000
0
VERTEX
8
PAD
10
5.450000
20
-6.280000
0
SEQEND
0
POLYLINE
8
PAD
66
1
70
32
0
VERTEX
8
PAD
10
6.250000
20
-6.280000
0
VERTEX
8
PAD
10
6.250000
20
-7.280000
0
VERTEX
8
PAD
10
5.750000
20
-7.280000
0
VERTEX
8
PAD
10
5.750000
20
-6.280000
0
VERTEX
8
PAD
10
6.250000
20
-6.280000
0
SEQEND
0
POLYLINE
8
PAD
66
1
70
32
0
VERTEX
8
PAD
10
7.050000
20
-6.280000
0
VERTEX
8
PAD
10
7.050000
20
-7.280000
0
VERTEX
8
PAD
10
6.550000
20
-7.280000
0
VERTEX
8
PAD
10
6.550000
20
-6.280000
0
VERTEX
8
PAD
10
7.050000
20
-6.280000
0
SEQEND
0
POLYLINE
8
PAD
66
1
70
32
0
VERTEX
8
PAD
10
-0.150000
20
7.280000
0
VERTEX
8
PAD
10
-0.150000
20
6.280000
0
VERTEX
8
PAD
10
-0.650000
20
6.280000
0
VERTEX
8
PAD
10
-0.650000
20
7.280000
0
VERTEX
8
PAD
10
-0.150000
20
7.280000
0
SEQEND
0
POLYLINE
8
PAD
66
1
70
32
0
VERTEX
8
PAD
10
0.650000
20
7.280000
0
VERTEX
8
PAD
10
0.650000
20
6.280000
0
VERTEX
8
PAD
10
0.150000
20
6.280000
0
VERTEX
8
PAD
10
0.150000
20
7.280000
0
VERTEX
8
PAD
10
0.650000
20
7.280000
0
SEQEND
0
POLYLINE
8
PAD
66
1
70
32
0
VERTEX
8
PAD
10
1.450000
20
7.280000
0
VERTEX
8
PAD
10
1.450000
20
6.280000
0
VERTEX
8
PAD
10
0.950000
20
6.280000
0
VERTEX
8
PAD
10
0.950000
20
7.280000
0
VERTEX
8
PAD
10
1.450000
20
7.280000
0
SEQEND
0
POLYLINE
8
PAD
66
1
70
32
0
VERTEX
8
PAD
10
2.250000
20
7.280000
0
VERTEX
8
PAD
10
2.250000
20
6.280000
0
VERTEX
8
PAD
10
1.750000
20
6.280000
0
VERTEX
8
PAD
10
1.750000
20
7.280000
0
VERTEX
8
PAD
10
2.250000
20
7.280000
0
SEQEND
0
POLYLINE
8
PAD
66
1
70
32
0
VERTEX
8
PAD
10
3.050000
20
7.280000
0
VERTEX
8
PAD
10
3.050000
20
6.280000
0
VERTEX
8
PAD
10
2.550000
20
6.280000
0
VERTEX
8
PAD
10
2.550000
20
7.280000
0
VERTEX
8
PAD
10
3.050000
20
7.280000
0
SEQEND
0
POLYLINE
8
PAD
66
1
70
32
0
VERTEX
8
PAD
10
3.850000
20
7.280000
0
VERTEX
8
PAD
10
3.850000
20
6.280000
0
VERTEX
8
PAD
10
3.350000
20
6.280000
0
VERTEX
8
PAD
10
3.350000
20
7.280000
0
VERTEX
8
PAD
10
3.850000
20
7.280000
0
SEQEND
0
POLYLINE
8
PAD
66
1
70
32
0
VERTEX
8
PAD
10
4.650000
20
7.280000
0
VERTEX
8
PAD
10
4.650000
20
6.280000
0
VERTEX
8
PAD
10
4.150000
20
6.280000
0
VERTEX
8
PAD
10
4.150000
20
7.280000
0
VERTEX
8
PAD
10
4.650000
20
7.280000
0
SEQEND
0
POLYLINE
8
PAD
66
1
70
32
0
VERTEX
8
PAD
10
5.450000
20
7.280000
0
VERTEX
8
PAD
10
5.450000
20
6.280000
0
VERTEX
8
PAD
10
4.950000
20
6.280000
0
VERTEX
8
PAD
10
4.950000
20
7.280000
0
VERTEX
8
PAD
10
5.450000
20
7.280000
0
SEQEND
0
POLYLINE
8
PAD
66
1
70
32
0
VERTEX
8
PAD
10
6.250000
20
7.280000
0
VERTEX
8
PAD
10
6.250000
20
6.280000
0
VERTEX
8
PAD
10
5.750000
20
6.280000
0
VERTEX
8
PAD
10
5.750000
20
7.280000
0
VERTEX
8
PAD
10
6.250000
20
7.280000
0
SEQEND
0
POLYLINE
8
PAD
66
1
70
32
0
VERTEX
8
PAD
10
7.050000
20
7.280000
0
VERTEX
8
PAD
10
7.050000
20
6.280000
0
VERTEX
8
PAD
10
6.550000
20
6.280000
0
VERTEX
8
PAD
10
6.550000
20
7.280000
0
VERTEX
8
PAD
10
7.050000
20
7.280000
0
SEQEND
0
POLYLINE
8
PAD
66
1
70
32
0
VERTEX
8
PAD
10
-0.950000
20
7.280000
0
VERTEX
8
PAD
10
-0.950000
20
6.280000
0
VERTEX
8
PAD
10
-1.450000
20
6.280000
0
VERTEX
8
PAD
10
-1.450000
20
7.280000
0
VERTEX
8
PAD
10
-0.950000
20
7.280000
0
SEQEND
0
POLYLINE
8
PAD
66
1
70
32
0
VERTEX
8
PAD
10
-1.750000
20
7.280000
0
VERTEX
8
PAD
10
-1.750000
20
6.280000
0
VERTEX
8
PAD
10
-2.250000
20
6.280000
0
VERTEX
8
PAD
10
-2.250000
20
7.280000
0
VERTEX
8
PAD
10
-1.750000
20
7.280000
0
SEQEND
0
POLYLINE
8
PAD
66
1
70
32
0
VERTEX
8
PAD
10
-2.550000
20
7.280000
0
VERTEX
8
PAD
10
-2.550000
20
6.280000
0
VERTEX
8
PAD
10
-3.050000
20
6.280000
0
VERTEX
8
PAD
10
-3.050000
20
7.280000
0
VERTEX
8
PAD
10
-2.550000
20
7.280000
0
SEQEND
0
POLYLINE
8
PAD
66
1
70
32
0
VERTEX
8
PAD
10
-3.350000
20
7.280000
0
VERTEX
8
PAD
10
-3.350000
20
6.280000
0
VERTEX
8
PAD
10
-3.850000
20
6.280000
0
VERTEX
8
PAD
10
-3.850000
20
7.280000
0
VERTEX
8
PAD
10
-3.350000
20
7.280000
0
SEQEND
0
POLYLINE
8
PAD
66
1
70
32
0
VERTEX
8
PAD
10
-4.150000
20
7.280000
0
VERTEX
8
PAD
10
-4.150000
20
6.280000
0
VERTEX
8
PAD
10
-4.650000
20
6.280000
0
VERTEX
8
PAD
10
-4.650000
20
7.280000
0
VERTEX
8
PAD
10
-4.150000
20
7.280000
0
SEQEND
0
POLYLINE
8
PAD
66
1
70
32
0
VERTEX
8
PAD
10
-4.950000
20
7.280000
0
VERTEX
8
PAD
10
-4.950000
20
6.280000
0
VERTEX
8
PAD
10
-5.450000
20
6.280000
0
VERTEX
8
PAD
10
-5.450000
20
7.280000
0
VERTEX
8
PAD
10
-4.950000
20
7.280000
0
SEQEND
0
POLYLINE
8
PAD
66
1
70
32
0
VERTEX
8
PAD
10
-5.750000
20
7.280000
0
VERTEX
8
PAD
10
-5.750000
20
6.280000
0
VERTEX
8
PAD
10
-6.250000
20
6.280000
0
VERTEX
8
PAD
10
-6.250000
20
7.280000
0
VERTEX
8
PAD
10
-5.750000
20
7.280000
0
SEQEND
0
POLYLINE
8
PAD
66
1
70
32
0
VERTEX
8
PAD
10
-6.550000
20
7.280000
0
VERTEX
8
PAD
10
-6.550000
20
6.280000
0
VERTEX
8
PAD
10
-7.050000
20
6.280000
0
VERTEX
8
PAD
10
-7.050000
20
7.280000
0
VERTEX
8
PAD
10
-6.550000
20
7.280000
0
SEQEND
0
POLYLINE
8
PAD
66
1
70
32
0
VERTEX
8
PAD
10
-8.680000
20
-5.350000
0
VERTEX
8
PAD
10
-7.680000
20
-5.350000
0
VERTEX
8
PAD
10
-7.680000
20
-5.850000
0
VERTEX
8
PAD
10
-8.680000
20
-5.850000
0
VERTEX
8
PAD
10
-8.680000
20
-5.350000
0
SEQEND
0
POLYLINE
8
PAD
66
1
70
32
0
VERTEX
8
PAD
10
-8.680000
20
-4.550000
0
VERTEX
8
PAD
10
-7.680000
20
-4.550000
0
VERTEX
8
PAD
10
-7.680000
20
-5.050000
0
VERTEX
8
PAD
10
-8.680000
20
-5.050000
0
VERTEX
8
PAD
10
-8.680000
20
-4.550000
0
SEQEND
0
POLYLINE
8
PAD
66
1
70
32
0
VERTEX
8
PAD
10
-8.680000
20
-3.750000
0
VERTEX
8
PAD
10
-7.680000
20
-3.750000
0
VERTEX
8
PAD
10
-7.680000
20
-4.250000
0
VERTEX
8
PAD
10
-8.680000
20
-4.250000
0
VERTEX
8
PAD
10
-8.680000
20
-3.750000
0
SEQEND
0
POLYLINE
8
PAD
66
1
70
32
0
VERTEX
8
PAD
10
-8.680000
20
-2.950000
0
VERTEX
8
PAD
10
-7.680000
20
-2.950000
0
VERTEX
8
PAD
10
-7.680000
20
-3.450000
0
VERTEX
8
PAD
10
-8.680000
20
-3.450000
0
VERTEX
8
PAD
10
-8.680000
20
-2.950000
0
SEQEND
0
POLYLINE
8
PAD
66
1
70
32
0
VERTEX
8
PAD
10
-8.680000
20
-2.150000
0
VERTEX
8
PAD
10
-7.680000
20
-2.150000
0
VERTEX
8
PAD
10
-7.680000
20
-2.650000
0
VERTEX
8
PAD
10
-8.680000
20
-2.650000
0
VERTEX
8
PAD
10
-8.680000
20
-2.150000
0
SEQEND
0
POLYLINE
8
PAD
66
1
70
32
0
VERTEX
8
PAD
10
-8.680000
20
-1.350000
0
VERTEX
8
PAD
10
-7.680000
20
-1.350000
0
VERTEX
8
PAD
10
-7.680000
20
-1.850000
0
VERTEX
8
PAD
10
-8.680000
20
-1.850000
0
VERTEX
8
PAD
10
-8.680000
20
-1.350000
0
SEQEND
0
POLYLINE
8
PAD
66
1
70
32
0
VERTEX
8
PAD
10
-8.680000
20
-0.550000
0
VERTEX
8
PAD
10
-7.680000
20
-0.550000
0
VERTEX
8
PAD
10
-7.680000
20
-1.050000
0
VERTEX
8
PAD
10
-8.680000
20
-1.050000
0
VERTEX
8
PAD
10
-8.680000
20
-0.550000
0
SEQEND
0
POLYLINE
8
PAD
66
1
70
32
0
VERTEX
8
PAD
10
-8.680000
20
0.250000
0
VERTEX
8
PAD
10
-7.680000
20
0.250000
0
VERTEX
8
PAD
10
-7.680000
20
-0.250000
0
VERTEX
8
PAD
10
-8.680000
20
-0.250000
0
VERTEX
8
PAD
10
-8.680000
20
0.250000
0
SEQEND
0
POLYLINE
8
PAD
66
1
70
32
0
VERTEX
8
PAD
10
-8.680000
20
1.050000
0
VERTEX
8
PAD
10
-7.680000
20
1.050000
0
VERTEX
8
PAD
10
-7.680000
20
0.550000
0
VERTEX
8
PAD
10
-8.680000
20
0.550000
0
VERTEX
8
PAD
10
-8.680000
20
1.050000
0
SEQEND
0
POLYLINE
8
PAD
66
1
70
32
0
VERTEX
8
PAD
10
-8.680000
20
1.850000
0
VERTEX
8
PAD
10
-7.680000
20
1.850000
0
VERTEX
8
PAD
10
-7.680000
20
1.350000
0
VERTEX
8
PAD
10
-8.680000
20
1.350000
0
VERTEX
8
PAD
10
-8.680000
20
1.850000
0
SEQEND
0
POLYLINE
8
PAD
66
1
70
32
0
VERTEX
8
PAD
10
-8.680000
20
2.650000
0
VERTEX
8
PAD
10
-7.680000
20
2.650000
0
VERTEX
8
PAD
10
-7.680000
20
2.150000
0
VERTEX
8
PAD
10
-8.680000
20
2.150000
0
VERTEX
8
PAD
10
-8.680000
20
2.650000
0
SEQEND
0
POLYLINE
8
PAD
66
1
70
32
0
VERTEX
8
PAD
10
-8.680000
20
3.450000
0
VERTEX
8
PAD
10
-7.680000
20
3.450000
0
VERTEX
8
PAD
10
-7.680000
20
2.950000
0
VERTEX
8
PAD
10
-8.680000
20
2.950000
0
VERTEX
8
PAD
10
-8.680000
20
3.450000
0
SEQEND
0
POLYLINE
8
PAD
66
1
70
32
0
VERTEX
8
PAD
10
-8.680000
20
4.250000
0
VERTEX
8
PAD
10
-7.680000
20
4.250000
0
VERTEX
8
PAD
10
-7.680000
20
3.750000
0
VERTEX
8
PAD
10
-8.680000
20
3.750000
0
VERTEX
8
PAD
10
-8.680000
20
4.250000
0
SEQEND
0
POLYLINE
8
PAD
66
1
70
32
0
VERTEX
8
PAD
10
-8.680000
20
5.050000
0
VERTEX
8
PAD
10
-7.680000
20
5.050000
0
VERTEX
8
PAD
10
-7.680000
20
4.550000
0
VERTEX
8
PAD
10
-8.680000
20
4.550000
0
VERTEX
8
PAD
10
-8.680000
20
5.050000
0
SEQEND
0
POLYLINE
8
PAD
66
1
70
32
0
VERTEX
8
PAD
10
-8.680000
20
5.850000
0
VERTEX
8
PAD
10
-7.680000
20
5.850000
0
VERTEX
8
PAD
10
-7.680000
20
5.350000
0
VERTEX
8
PAD
10
-8.680000
20
5.350000
0
VERTEX
8
PAD
10
-8.680000
20
5.850000
0
SEQEND
0
POLYLINE
8
PAD
66
1
70
32
0
VERTEX
8
PAD
10
7.680000
20
5.850000
0
VERTEX
8
PAD
10
8.680000
20
5.850000
0
VERTEX
8
PAD
10
8.680000
20
5.350000
0
VERTEX
8
PAD
10
7.680000
20
5.350000
0
VERTEX
8
PAD
10
7.680000
20
5.850000
0
SEQEND
0
POLYLINE
8
PAD
66
1
70
32
0
VERTEX
8
PAD
10
7.680000
20
5.050000
0
VERTEX
8
PAD
10
8.680000
20
5.050000
0
VERTEX
8
PAD
10
8.680000
20
4.550000
0
VERTEX
8
PAD
10
7.680000
20
4.550000
0
VERTEX
8
PAD
10
7.680000
20
5.050000
0
SEQEND
0
POLYLINE
8
PAD
66
1
70
32
0
VERTEX
8
PAD
10
7.680000
20
4.250000
0
VERTEX
8
PAD
10
8.680000
20
4.250000
0
VERTEX
8
PAD
10
8.680000
20
3.750000
0
VERTEX
8
PAD
10
7.680000
20
3.750000
0
VERTEX
8
PAD
10
7.680000
20
4.250000
0
SEQEND
0
POLYLINE
8
PAD
66
1
70
32
0
VERTEX
8
PAD
10
7.680000
20
3.450000
0
VERTEX
8
PAD
10
8.680000
20
3.450000
0
VERTEX
8
PAD
10
8.680000
20
2.950000
0
VERTEX
8
PAD
10
7.680000
20
2.950000
0
VERTEX
8
PAD
10
7.680000
20
3.450000
0
SEQEND
0
POLYLINE
8
PAD
66
1
70
32
0
VERTEX
8
PAD
10
7.680000
20
2.650000
0
VERTEX
8
PAD
10
8.680000
20
2.650000
0
VERTEX
8
PAD
10
8.680000
20
2.150000
0
VERTEX
8
PAD
10
7.680000
20
2.150000
0
VERTEX
8
PAD
10
7.680000
20
2.650000
0
SEQEND
0
POLYLINE
8
PAD
66
1
70
32
0
VERTEX
8
PAD
10
7.680000
20
1.850000
0
VERTEX
8
PAD
10
8.680000
20
1.850000
0
VERTEX
8
PAD
10
8.680000
20
1.350000
0
VERTEX
8
PAD
10
7.680000
20
1.350000
0
VERTEX
8
PAD
10
7.680000
20
1.850000
0
SEQEND
0
POLYLINE
8
PAD
66
1
70
32
0
VERTEX
8
PAD
10
7.680000
20
1.050000
0
VERTEX
8
PAD
10
8.680000
20
1.050000
0
VERTEX
8
PAD
10
8.680000
20
0.550000
0
VERTEX
8
PAD
10
7.680000
20
0.550000
0
VERTEX
8
PAD
10
7.680000
20
1.050000
0
SEQEND
0
POLYLINE
8
PAD
66
1
70
32
0
VERTEX
8
PAD
10
7.680000
20
0.250000
0
VERTEX
8
PAD
10
8.680000
20
0.250000
0
VERTEX
8
PAD
10
8.680000
20
-0.250000
0
VERTEX
8
PAD
10
7.680000
20
-0.250000
0
VERTEX
8
PAD
10
7.680000
20
0.250000
0
SEQEND
0
POLYLINE
8
PAD
66
1
70
32
0
VERTEX
8
PAD
10
7.680000
20
-0.550000
0
VERTEX
8
PAD
10
8.680000
20
-0.550000
0
VERTEX
8
PAD
10
8.680000
20
-1.050000
0
VERTEX
8
PAD
10
7.680000
20
-1.050000
0
VERTEX
8
PAD
10
7.680000
20
-0.550000
0
SEQEND
0
POLYLINE
8
PAD
66
1
70
32
0
VERTEX
8
PAD
10
7.680000
20
-1.350000
0
VERTEX
8
PAD
10
8.680000
20
-1.350000
0
VERTEX
8
PAD
10
8.680000
20
-1.850000
0
VERTEX
8
PAD
10
7.680000
20
-1.850000
0
VERTEX
8
PAD
10
7.680000
20
-1.350000
0
SEQEND
0
POLYLINE
8
PAD
66
1
70
32
0
VERTEX
8
PAD
10
7.680000
20
-2.150000
0
VERTEX
8
PAD
10
8.680000
20
-2.150000
0
VERTEX
8
PAD
10
8.680000
20
-2.650000
0
VERTEX
8
PAD
10
7.680000
20
-2.650000
0
VERTEX
8
PAD
10
7.680000
20
-2.150000
0
SEQEND
0
POLYLINE
8
PAD
66
1
70
32
0
VERTEX
8
PAD
10
7.680000
20
-2.950000
0
VERTEX
8
PAD
10
8.680000
20
-2.950000
0
VERTEX
8
PAD
10
8.680000
20
-3.450000
0
VERTEX
8
PAD
10
7.680000
20
-3.450000
0
VERTEX
8
PAD
10
7.680000
20
-2.950000
0
SEQEND
0
POLYLINE
8
PAD
66
1
70
32
0
VERTEX
8
PAD
10
7.680000
20
-3.750000
0
VERTEX
8
PAD
10
8.680000
20
-3.750000
0
VERTEX
8
PAD
10
8.680000
20
-4.250000
0
VERTEX
8
PAD
10
7.680000
20
-4.250000
0
VERTEX
8
PAD
10
7.680000
20
-3.750000
0
SEQEND
0
POLYLINE
8
PAD
66
1
70
32
0
VERTEX
8
PAD
10
7.680000
20
-4.550000
0
VERTEX
8
PAD
10
8.680000
20
-4.550000
0
VERTEX
8
PAD
10
8.680000
20
-5.050000
0
VERTEX
8
PAD
10
7.680000
20
-5.050000
0
VERTEX
8
PAD
10
7.680000
20
-4.550000
0
SEQEND
0
POLYLINE
8
PAD
66
1
70
32
0
VERTEX
8
PAD
10
7.680000
20
-5.350000
0
VERTEX
8
PAD
10
8.680000
20
-5.350000
0
VERTEX
8
PAD
10
8.680000
20
-5.850000
0
VERTEX
8
PAD
10
7.680000
20
-5.850000
0
VERTEX
8
PAD
10
7.680000
20
-5.350000
0
SEQEND
0
POLYLINE
8
PAD
66
1
70
32
0
VERTEX
8
PAD
10
-10.250000
20
10.450000
0
VERTEX
8
PAD
10
-10.250000
20
9.450000
0
VERTEX
8
PAD
10
-11.150000
20
9.450000
0
VERTEX
8
PAD
10
-11.150000
20
10.450000
0
VERTEX
8
PAD
10
-10.250000
20
10.450000
0
SEQEND
0
POLYLINE
8
PAD
66
1
70
32
0
VERTEX
8
PAD
10
-7.680000
20
7.280000
0
VERTEX
8
PAD
10
-7.680000
20
6.280000
0
VERTEX
8
PAD
10
-8.680000
20
6.280000
0
VERTEX
8
PAD
10
-8.680000
20
7.280000
0
VERTEX
8
PAD
10
-7.680000
20
7.280000
0
SEQEND
0
POLYLINE
8
PAD
66
1
70
32
0
VERTEX
8
PAD
10
8.680000
20
7.280000
0
VERTEX
8
PAD
10
8.680000
20
6.280000
0
VERTEX
8
PAD
10
7.680000
20
6.280000
0
VERTEX
8
PAD
10
7.680000
20
7.280000
0
VERTEX
8
PAD
10
8.680000
20
7.280000
0
SEQEND
0
POLYLINE
8
PAD
66
1
70
32
0
VERTEX
8
PAD
10
-7.680000
20
-6.280000
0
VERTEX
8
PAD
10
-7.680000
20
-7.280000
0
VERTEX
8
PAD
10
-8.680000
20
-7.280000
0
VERTEX
8
PAD
10
-8.680000
20
-6.280000
0
VERTEX
8
PAD
10
-7.680000
20
-6.280000
0
SEQEND
0
POLYLINE
8
PAD
66
1
70
32
0
VERTEX
8
PAD
10
8.680000
20
-6.280000
0
VERTEX
8
PAD
10
8.680000
20
-7.280000
0
VERTEX
8
PAD
10
7.680000
20
-7.280000
0
VERTEX
8
PAD
10
7.680000
20
-6.280000
0
VERTEX
8
PAD
10
8.680000
20
-6.280000
0
SEQEND
0
POLYLINE
8
PAD
66
1
70
32
0
VERTEX
8
PAD
10
11.150000
20
10.450000
0
VERTEX
8
PAD
10
11.150000
20
9.450000
0
VERTEX
8
PAD
10
10.250000
20
9.450000
0
VERTEX
8
PAD
10
10.250000
20
10.450000
0
VERTEX
8
PAD
10
11.150000
20
10.450000
0
SEQEND
0
POLYLINE
8
PAD
66
1
70
32
0
VERTEX
8
PAD
10
11.150000
20
-9.450000
0
VERTEX
8
PAD
10
11.150000
20
-10.450000
0
VERTEX
8
PAD
10
10.250000
20
-10.450000
0
VERTEX
8
PAD
10
10.250000
20
-9.450000
0
VERTEX
8
PAD
10
11.150000
20
-9.450000
0
SEQEND
0
POLYLINE
8
PAD
66
1
70
32
0
VERTEX
8
PAD
10
-11.150000
20
-10.450000
0
VERTEX
8
PAD
10
-11.150000
20
-9.450000
0
VERTEX
8
PAD
10
-10.250000
20
-9.450000
0
VERTEX
8
PAD
10
-10.250000
20
-10.450000
0
VERTEX
8
PAD
10
-11.150000
20
-10.450000
0
SEQEND
0
POLYLINE
8
PAD
66
1
70
32
0
VERTEX
8
PAD
10
-5.887500
20
-4.662500
0
VERTEX
8
PAD
10
-5.887500
20
-5.662500
0
VERTEX
8
PAD
10
-6.887500
20
-5.662500
0
VERTEX
8
PAD
10
-6.887500
20
-4.662500
0
VERTEX
8
PAD
10
-5.887500
20
-4.662500
0
SEQEND
0
POLYLINE
8
PAD
66
1
70
32
0
VERTEX
8
PAD
10
-5.887500
20
-3.187500
0
VERTEX
8
PAD
10
-5.887500
20
-4.187500
0
VERTEX
8
PAD
10
-6.887500
20
-4.187500
0
VERTEX
8
PAD
10
-6.887500
20
-3.187500
0
VERTEX
8
PAD
10
-5.887500
20
-3.187500
0
SEQEND
0
POLYLINE
8
PAD
66
1
70
32
0
VERTEX
8
PAD
10
-5.887500
20
-1.712500
0
VERTEX
8
PAD
10
-5.887500
20
-2.712500
0
VERTEX
8
PAD
10
-6.887500
20
-2.712500
0
VERTEX
8
PAD
10
-6.887500
20
-1.712500
0
VERTEX
8
PAD
10
-5.887500
20
-1.712500
0
SEQEND
0
POLYLINE
8
PAD
66
1
70
32
0
VERTEX
8
PAD
10
-5.887500
20
-0.237500
0
VERTEX
8
PAD
10
-5.887500
20
-1.237500
0
VERTEX
8
PAD
10
-6.887500
20
-1.237500
0
VERTEX
8
PAD
10
-6.887500
20
-0.237500
0
VERTEX
8
PAD
10
-5.887500
20
-0.237500
0
SEQEND
0
POLYLINE
8
PAD
66
1
70
32
0
VERTEX
8
PAD
10
-5.887500
20
1.237500
0
VERTEX
8
PAD
10
-5.887500
20
0.237500
0
VERTEX
8
PAD
10
-6.887500
20
0.237500
0
VERTEX
8
PAD
10
-6.887500
20
1.237500
0
VERTEX
8
PAD
10
-5.887500
20
1.237500
0
SEQEND
0
POLYLINE
8
PAD
66
1
70
32
0
VERTEX
8
PAD
10
-5.887500
20
2.712500
0
VERTEX
8
PAD
10
-5.887500
20
1.712500
0
VERTEX
8
PAD
10
-6.887500
20
1.712500
0
VERTEX
8
PAD
10
-6.887500
20
2.712500
0
VERTEX
8
PAD
10
-5.887500
20
2.712500
0
SEQEND
0
POLYLINE
8
PAD
66
1
70
32
0
VERTEX
8
PAD
10
-5.887500
20
4.187500
0
VERTEX
8
PAD
10
-5.887500
20
3.187500
0
VERTEX
8
PAD
10
-6.887500
20
3.187500
0
VERTEX
8
PAD
10
-6.887500
20
4.187500
0
VERTEX
8
PAD
10
-5.887500
20
4.187500
0
SEQEND
0
POLYLINE
8
PAD
66
1
70
32
0
VERTEX
8
PAD
10
-5.887500
20
5.662500
0
VERTEX
8
PAD
10
-5.887500
20
4.662500
0
VERTEX
8
PAD
10
-6.887500
20
4.662500
0
VERTEX
8
PAD
10
-6.887500
20
5.662500
0
VERTEX
8
PAD
10
-5.887500
20
5.662500
0
SEQEND
0
POLYLINE
8
PAD
66
1
70
32
0
VERTEX
8
PAD
10
-4.062500
20
5.662500
0
VERTEX
8
PAD
10
-4.062500
20
4.662500
0
VERTEX
8
PAD
10
-5.062500
20
4.662500
0
VERTEX
8
PAD
10
-5.062500
20
5.662500
0
VERTEX
8
PAD
10
-4.062500
20
5.662500
0
SEQEND
0
POLYLINE
8
PAD
66
1
70
32
0
VERTEX
8
PAD
10
-4.062500
20
4.187500
0
VERTEX
8
PAD
10
-4.062500
20
3.187500
0
VERTEX
8
PAD
10
-5.062500
20
3.187500
0
VERTEX
8
PAD
10
-5.062500
20
4.187500
0
VERTEX
8
PAD
10
-4.062500
20
4.187500
0
SEQEND
0
POLYLINE
8
PAD
66
1
70
32
0
VERTEX
8
PAD
10
-4.062500
20
2.712500
0
VERTEX
8
PAD
10
-4.062500
20
1.712500
0
VERTEX
8
PAD
10
-5.062500
20
1.712500
0
VERTEX
8
PAD
10
-5.062500
20
2.712500
0
VERTEX
8
PAD
10
-4.062500
20
2.712500
0
SEQEND
0
POLYLINE
8
PAD
66
1
70
32
0
VERTEX
8
PAD
10
-4.062500
20
1.237500
0
VERTEX
8
PAD
10
-4.062500
20
0.237500
0
VERTEX
8
PAD
10
-5.062500
20
0.237500
0
VERTEX
8
PAD
10
-5.062500
20
1.237500
0
VERTEX
8
PAD
10
-4.062500
20
1.237500
0
SEQEND
0
POLYLINE
8
PAD
66
1
70
32
0
VERTEX
8
PAD
10
-4.062500
20
-0.237500
0
VERTEX
8
PAD
10
-4.062500
20
-1.237500
0
VERTEX
8
PAD
10
-5.062500
20
-1.237500
0
VERTEX
8
PAD
10
-5.062500
20
-0.237500
0
VERTEX
8
PAD
10
-4.062500
20
-0.237500
0
SEQEND
0
POLYLINE
8
PAD
66
1
70
32
0
VERTEX
8
PAD
10
-4.062500
20
-1.712500
0
VERTEX
8
PAD
10
-4.062500
20
-2.712500
0
VERTEX
8
PAD
10
-5.062500
20
-2.712500
0
VERTEX
8
PAD
10
-5.062500
20
-1.712500
0
VERTEX
8
PAD
10
-4.062500
20
-1.712500
0
SEQEND
0
POLYLINE
8
PAD
66
1
70
32
0
VERTEX
8
PAD
10
-4.062500
20
-3.187500
0
VERTEX
8
PAD
10
-4.062500
20
-4.187500
0
VERTEX
8
PAD
10
-5.062500
20
-4.187500
0
VERTEX
8
PAD
10
-5.062500
20
-3.187500
0
VERTEX
8
PAD
10
-4.062500
20
-3.187500
0
SEQEND
0
POLYLINE
8
PAD
66
1
70
32
0
VERTEX
8
PAD
10
-4.062500
20
-4.662500
0
VERTEX
8
PAD
10
-4.062500
20
-5.662500
0
VERTEX
8
PAD
10
-5.062500
20
-5.662500
0
VERTEX
8
PAD
10
-5.062500
20
-4.662500
0
VERTEX
8
PAD
10
-4.062500
20
-4.662500
0
SEQEND
0
POLYLINE
8
PAD
66
1
70
32
0
VERTEX
8
PAD
10
-2.237500
20
-4.662500
0
VERTEX
8
PAD
10
-2.237500
20
-5.662500
0
VERTEX
8
PAD
10
-3.237500
20
-5.662500
0
VERTEX
8
PAD
10
-3.237500
20
-4.662500
0
VERTEX
8
PAD
10
-2.237500
20
-4.662500
0
SEQEND
0
POLYLINE
8
PAD
66
1
70
32
0
VERTEX
8
PAD
10
-0.412500
20
-4.662500
0
VERTEX
8
PAD
10
-0.412500
20
-5.662500
0
VERTEX
8
PAD
10
-1.412500
20
-5.662500
0
VERTEX
8
PAD
10
-1.412500
20
-4.662500
0
VERTEX
8
PAD
10
-0.412500
20
-4.662500
0
SEQEND
0
POLYLINE
8
PAD
66
1
70
32
0
VERTEX
8
PAD
10
1.412500
20
-4.662500
0
VERTEX
8
PAD
10
1.412500
20
-5.662500
0
VERTEX
8
PAD
10
0.412500
20
-5.662500
0
VERTEX
8
PAD
10
0.412500
20
-4.662500
0
VERTEX
8
PAD
10
1.412500
20
-4.662500
0
SEQEND
0
POLYLINE
8
PAD
66
1
70
32
0
VERTEX
8
PAD
10
3.237500
20
-4.662500
0
VERTEX
8
PAD
10
3.237500
20
-5.662500
0
VERTEX
8
PAD
10
2.237500
20
-5.662500
0
VERTEX
8
PAD
10
2.237500
20
-4.662500
0
VERTEX
8
PAD
10
3.237500
20
-4.662500
0
SEQEND
0
POLYLINE
8
PAD
66
1
70
32
0
VERTEX
8
PAD
10
-2.237500
20
-3.187500
0
VERTEX
8
PAD
10
-2.237500
20
-4.187500
0
VERTEX
8
PAD
10
-3.237500
20
-4.187500
0
VERTEX
8
PAD
10
-3.237500
20
-3.187500
0
VERTEX
8
PAD
10
-2.237500
20
-3.187500
0
SEQEND
0
POLYLINE
8
PAD
66
1
70
32
0
VERTEX
8
PAD
10
-0.412500
20
-3.187500
0
VERTEX
8
PAD
10
-0.412500
20
-4.187500
0
VERTEX
8
PAD
10
-1.412500
20
-4.187500
0
VERTEX
8
PAD
10
-1.412500
20
-3.187500
0
VERTEX
8
PAD
10
-0.412500
20
-3.187500
0
SEQEND
0
POLYLINE
8
PAD
66
1
70
32
0
VERTEX
8
PAD
10
1.412500
20
-3.187500
0
VERTEX
8
PAD
10
1.412500
20
-4.187500
0
VERTEX
8
PAD
10
0.412500
20
-4.187500
0
VERTEX
8
PAD
10
0.412500
20
-3.187500
0
VERTEX
8
PAD
10
1.412500
20
-3.187500
0
SEQEND
0
POLYLINE
8
PAD
66
1
70
32
0
VERTEX
8
PAD
10
-2.237500
20
-1.712500
0
VERTEX
8
PAD
10
-2.237500
20
-2.712500
0
VERTEX
8
PAD
10
-3.237500
20
-2.712500
0
VERTEX
8
PAD
10
-3.237500
20
-1.712500
0
VERTEX
8
PAD
10
-2.237500
20
-1.712500
0
SEQEND
0
POLYLINE
8
PAD
66
1
70
32
0
VERTEX
8
PAD
10
-0.412500
20
-1.712500
0
VERTEX
8
PAD
10
-0.412500
20
-2.712500
0
VERTEX
8
PAD
10
-1.412500
20
-2.712500
0
VERTEX
8
PAD
10
-1.412500
20
-1.712500
0
VERTEX
8
PAD
10
-0.412500
20
-1.712500
0
SEQEND
0
POLYLINE
8
PAD
66
1
70
32
0
VERTEX
8
PAD
10
1.412500
20
-1.712500
0
VERTEX
8
PAD
10
1.412500
20
-2.712500
0
VERTEX
8
PAD
10
0.412500
20
-2.712500
0
VERTEX
8
PAD
10
0.412500
20
-1.712500
0
VERTEX
8
PAD
10
1.412500
20
-1.712500
0
SEQEND
0
POLYLINE
8
PAD
66
1
70
32
0
VERTEX
8
PAD
10
3.237500
20
-1.712500
0
VERTEX
8
PAD
10
3.237500
20
-2.712500
0
VERTEX
8
PAD
10
2.237500
20
-2.712500
0
VERTEX
8
PAD
10
2.237500
20
-1.712500
0
VERTEX
8
PAD
10
3.237500
20
-1.712500
0
SEQEND
0
POLYLINE
8
PAD
66
1
70
32
0
VERTEX
8
PAD
10
3.237500
20
-3.187500
0
VERTEX
8
PAD
10
3.237500
20
-4.187500
0
VERTEX
8
PAD
10
2.237500
20
-4.187500
0
VERTEX
8
PAD
10
2.237500
20
-3.187500
0
VERTEX
8
PAD
10
3.237500
20
-3.187500
0
SEQEND
0
POLYLINE
8
PAD
66
1
70
32
0
VERTEX
8
PAD
10
5.062500
20
-4.662500
0
VERTEX
8
PAD
10
5.062500
20
-5.662500
0
VERTEX
8
PAD
10
4.062500
20
-5.662500
0
VERTEX
8
PAD
10
4.062500
20
-4.662500
0
VERTEX
8
PAD
10
5.062500
20
-4.662500
0
SEQEND
0
POLYLINE
8
PAD
66
1
70
32
0
VERTEX
8
PAD
10
6.887500
20
-4.662500
0
VERTEX
8
PAD
10
6.887500
20
-5.662500
0
VERTEX
8
PAD
10
5.887500
20
-5.662500
0
VERTEX
8
PAD
10
5.887500
20
-4.662500
0
VERTEX
8
PAD
10
6.887500
20
-4.662500
0
SEQEND
0
POLYLINE
8
PAD
66
1
70
32
0
VERTEX
8
PAD
10
5.062500
20
-3.187500
0
VERTEX
8
PAD
10
5.062500
20
-4.187500
0
VERTEX
8
PAD
10
4.062500
20
-4.187500
0
VERTEX
8
PAD
10
4.062500
20
-3.187500
0
VERTEX
8
PAD
10
5.062500
20
-3.187500
0
SEQEND
0
POLYLINE
8
PAD
66
1
70
32
0
VERTEX
8
PAD
10
6.887500
20
-3.187500
0
VERTEX
8
PAD
10
6.887500
20
-4.187500
0
VERTEX
8
PAD
10
5.887500
20
-4.187500
0
VERTEX
8
PAD
10
5.887500
20
-3.187500
0
VERTEX
8
PAD
10
6.887500
20
-3.187500
0
SEQEND
0
POLYLINE
8
PAD
66
1
70
32
0
VERTEX
8
PAD
10
5.062500
20
-1.712500
0
VERTEX
8
PAD
10
5.062500
20
-2.712500
0
VERTEX
8
PAD
10
4.062500
20
-2.712500
0
VERTEX
8
PAD
10
4.062500
20
-1.712500
0
VERTEX
8
PAD
10
5.062500
20
-1.712500
0
SEQEND
0
POLYLINE
8
PAD
66
1
70
32
0
VERTEX
8
PAD
10
6.887500
20
-1.712500
0
VERTEX
8
PAD
10
6.887500
20
-2.712500
0
VERTEX
8
PAD
10
5.887500
20
-2.712500
0
VERTEX
8
PAD
10
5.887500
20
-1.712500
0
VERTEX
8
PAD
10
6.887500
20
-1.712500
0
SEQEND
0
POLYLINE
8
PAD
66
1
70
32
0
VERTEX
8
PAD
10
6.887500
20
-0.237500
0
VERTEX
8
PAD
10
6.887500
20
-1.237500
0
VERTEX
8
PAD
10
5.887500
20
-1.237500
0
VERTEX
8
PAD
10
5.887500
20
-0.237500
0
VERTEX
8
PAD
10
6.887500
20
-0.237500
0
SEQEND
0
POLYLINE
8
PAD
66
1
70
32
0
VERTEX
8
PAD
10
5.062500
20
-0.237500
0
VERTEX
8
PAD
10
5.062500
20
-1.237500
0
VERTEX
8
PAD
10
4.062500
20
-1.237500
0
VERTEX
8
PAD
10
4.062500
20
-0.237500
0
VERTEX
8
PAD
10
5.062500
20
-0.237500
0
SEQEND
0
POLYLINE
8
PAD
66
1
70
32
0
VERTEX
8
PAD
10
6.887500
20
1.237500
0
VERTEX
8
PAD
10
6.887500
20
0.237500
0
VERTEX
8
PAD
10
5.887500
20
0.237500
0
VERTEX
8
PAD
10
5.887500
20
1.237500
0
VERTEX
8
PAD
10
6.887500
20
1.237500
0
SEQEND
0
POLYLINE
8
PAD
66
1
70
32
0
VERTEX
8
PAD
10
5.062500
20
1.237500
0
VERTEX
8
PAD
10
5.062500
20
0.237500
0
VERTEX
8
PAD
10
4.062500
20
0.237500
0
VERTEX
8
PAD
10
4.062500
20
1.237500
0
VERTEX
8
PAD
10
5.062500
20
1.237500
0
SEQEND
0
POLYLINE
8
PAD
66
1
70
32
0
VERTEX
8
PAD
10
3.237500
20
-0.237500
0
VERTEX
8
PAD
10
3.237500
20
-1.237500
0
VERTEX
8
PAD
10
2.237500
20
-1.237500
0
VERTEX
8
PAD
10
2.237500
20
-0.237500
0
VERTEX
8
PAD
10
3.237500
20
-0.237500
0
SEQEND
0
POLYLINE
8
PAD
66
1
70
32
0
VERTEX
8
PAD
10
1.412500
20
-0.237500
0
VERTEX
8
PAD
10
1.412500
20
-1.237500
0
VERTEX
8
PAD
10
0.412500
20
-1.237500
0
VERTEX
8
PAD
10
0.412500
20
-0.237500
0
VERTEX
8
PAD
10
1.412500
20
-0.237500
0
SEQEND
0
POLYLINE
8
PAD
66
1
70
32
0
VERTEX
8
PAD
10
-0.412500
20
-0.237500
0
VERTEX
8
PAD
10
-0.412500
20
-1.237500
0
VERTEX
8
PAD
10
-1.412500
20
-1.237500
0
VERTEX
8
PAD
10
-1.412500
20
-0.237500
0
VERTEX
8
PAD
10
-0.412500
20
-0.237500
0
SEQEND
0
POLYLINE
8
PAD
66
1
70
32
0
VERTEX
8
PAD
10
-2.237500
20
-0.237500
0
VERTEX
8
PAD
10
-2.237500
20
-1.237500
0
VERTEX
8
PAD
10
-3.237500
20
-1.237500
0
VERTEX
8
PAD
10
-3.237500
20
-0.237500
0
VERTEX
8
PAD
10
-2.237500
20
-0.237500
0
SEQEND
0
POLYLINE
8
PAD
66
1
70
32
0
VERTEX
8
PAD
10
-2.237500
20
1.237500
0
VERTEX
8
PAD
10
-2.237500
20
0.237500
0
VERTEX
8
PAD
10
-3.237500
20
0.237500
0
VERTEX
8
PAD
10
-3.237500
20
1.237500
0
VERTEX
8
PAD
10
-2.237500
20
1.237500
0
SEQEND
0
POLYLINE
8
PAD
66
1
70
32
0
VERTEX
8
PAD
10
-0.412500
20
1.237500
0
VERTEX
8
PAD
10
-0.412500
20
0.237500
0
VERTEX
8
PAD
10
-1.412500
20
0.237500
0
VERTEX
8
PAD
10
-1.412500
20
1.237500
0
VERTEX
8
PAD
10
-0.412500
20
1.237500
0
SEQEND
0
POLYLINE
8
PAD
66
1
70
32
0
VERTEX
8
PAD
10
1.412500
20
1.237500
0
VERTEX
8
PAD
10
1.412500
20
0.237500
0
VERTEX
8
PAD
10
0.412500
20
0.237500
0
VERTEX
8
PAD
10
0.412500
20
1.237500
0
VERTEX
8
PAD
10
1.412500
20
1.237500
0
SEQEND
0
POLYLINE
8
PAD
66
1
70
32
0
VERTEX
8
PAD
10
3.237500
20
1.237500
0
VERTEX
8
PAD
10
3.237500
20
0.237500
0
VERTEX
8
PAD
10
2.237500
20
0.237500
0
VERTEX
8
PAD
10
2.237500
20
1.237500
0
VERTEX
8
PAD
10
3.237500
20
1.237500
0
SEQEND
0
POLYLINE
8
PAD
66
1
70
32
0
VERTEX
8
PAD
10
-2.237500
20
2.712500
0
VERTEX
8
PAD
10
-2.237500
20
1.712500
0
VERTEX
8
PAD
10
-3.237500
20
1.712500
0
VERTEX
8
PAD
10
-3.237500
20
2.712500
0
VERTEX
8
PAD
10
-2.237500
20
2.712500
0
SEQEND
0
POLYLINE
8
PAD
66
1
70
32
0
VERTEX
8
PAD
10
-2.237500
20
4.187500
0
VERTEX
8
PAD
10
-2.237500
20
3.187500
0
VERTEX
8
PAD
10
-3.237500
20
3.187500
0
VERTEX
8
PAD
10
-3.237500
20
4.187500
0
VERTEX
8
PAD
10
-2.237500
20
4.187500
0
SEQEND
0
POLYLINE
8
PAD
66
1
70
32
0
VERTEX
8
PAD
10
-2.237500
20
5.662500
0
VERTEX
8
PAD
10
-2.237500
20
4.662500
0
VERTEX
8
PAD
10
-3.237500
20
4.662500
0
VERTEX
8
PAD
10
-3.237500
20
5.662500
0
VERTEX
8
PAD
10
-2.237500
20
5.662500
0
SEQEND
0
POLYLINE
8
PAD
66
1
70
32
0
VERTEX
8
PAD
10
-0.412500
20
5.662500
0
VERTEX
8
PAD
10
-0.412500
20
4.662500
0
VERTEX
8
PAD
10
-1.412500
20
4.662500
0
VERTEX
8
PAD
10
-1.412500
20
5.662500
0
VERTEX
8
PAD
10
-0.412500
20
5.662500
0
SEQEND
0
POLYLINE
8
PAD
66
1
70
32
0
VERTEX
8
PAD
10
-0.412500
20
4.187500
0
VERTEX
8
PAD
10
-0.412500
20
3.187500
0
VERTEX
8
PAD
10
-1.412500
20
3.187500
0
VERTEX
8
PAD
10
-1.412500
20
4.187500
0
VERTEX
8
PAD
10
-0.412500
20
4.187500
0
SEQEND
0
POLYLINE
8
PAD
66
1
70
32
0
VERTEX
8
PAD
10
-0.412500
20
2.712500
0
VERTEX
8
PAD
10
-0.412500
20
1.712500
0
VERTEX
8
PAD
10
-1.412500
20
1.712500
0
VERTEX
8
PAD
10
-1.412500
20
2.712500
0
VERTEX
8
PAD
10
-0.412500
20
2.712500
0
SEQEND
0
POLYLINE
8
PAD
66
1
70
32
0
VERTEX
8
PAD
10
1.412500
20
2.712500
0
VERTEX
8
PAD
10
1.412500
20
1.712500
0
VERTEX
8
PAD
10
0.412500
20
1.712500
0
VERTEX
8
PAD
10
0.412500
20
2.712500
0
VERTEX
8
PAD
10
1.412500
20
2.712500
0
SEQEND
0
POLYLINE
8
PAD
66
1
70
32
0
VERTEX
8
PAD
10
1.412500
20
4.187500
0
VERTEX
8
PAD
10
1.412500
20
3.187500
0
VERTEX
8
PAD
10
0.412500
20
3.187500
0
VERTEX
8
PAD
10
0.412500
20
4.187500
0
VERTEX
8
PAD
10
1.412500
20
4.187500
0
SEQEND
0
POLYLINE
8
PAD
66
1
70
32
0
VERTEX
8
PAD
10
1.412500
20
5.662500
0
VERTEX
8
PAD
10
1.412500
20
4.662500
0
VERTEX
8
PAD
10
0.412500
20
4.662500
0
VERTEX
8
PAD
10
0.412500
20
5.662500
0
VERTEX
8
PAD
10
1.412500
20
5.662500
0
SEQEND
0
POLYLINE
8
PAD
66
1
70
32
0
VERTEX
8
PAD
10
3.237500
20
2.712500
0
VERTEX
8
PAD
10
3.237500
20
1.712500
0
VERTEX
8
PAD
10
2.237500
20
1.712500
0
VERTEX
8
PAD
10
2.237500
20
2.712500
0
VERTEX
8
PAD
10
3.237500
20
2.712500
0
SEQEND
0
POLYLINE
8
PAD
66
1
70
32
0
VERTEX
8
PAD
10
3.237500
20
4.187500
0
VERTEX
8
PAD
10
3.237500
20
3.187500
0
VERTEX
8
PAD
10
2.237500
20
3.187500
0
VERTEX
8
PAD
10
2.237500
20
4.187500
0
VERTEX
8
PAD
10
3.237500
20
4.187500
0
SEQEND
0
POLYLINE
8
PAD
66
1
70
32
0
VERTEX
8
PAD
10
3.237500
20
5.662500
0
VERTEX
8
PAD
10
3.237500
20
4.662500
0
VERTEX
8
PAD
10
2.237500
20
4.662500
0
VERTEX
8
PAD
10
2.237500
20
5.662500
0
VERTEX
8
PAD
10
3.237500
20
5.662500
0
SEQEND
0
POLYLINE
8
PAD
66
1
70
32
0
VERTEX
8
PAD
10
5.062500
20
5.662500
0
VERTEX
8
PAD
10
5.062500
20
4.662500
0
VERTEX
8
PAD
10
4.062500
20
4.662500
0
VERTEX
8
PAD
10
4.062500
20
5.662500
0
VERTEX
8
PAD
10
5.062500
20
5.662500
0
SEQEND
0
POLYLINE
8
PAD
66
1
70
32
0
VERTEX
8
PAD
10
5.062500
20
4.187500
0
VERTEX
8
PAD
10
5.062500
20
3.187500
0
VERTEX
8
PAD
10
4.062500
20
3.187500
0
VERTEX
8
PAD
10
4.062500
20
4.187500
0
VERTEX
8
PAD
10
5.062500
20
4.187500
0
SEQEND
0
POLYLINE
8
PAD
66
1
70
32
0
VERTEX
8
PAD
10
5.062500
20
2.712500
0
VERTEX
8
PAD
10
5.062500
20
1.712500
0
VERTEX
8
PAD
10
4.062500
20
1.712500
0
VERTEX
8
PAD
10
4.062500
20
2.712500
0
VERTEX
8
PAD
10
5.062500
20
2.712500
0
SEQEND
0
POLYLINE
8
PAD
66
1
70
32
0
VERTEX
8
PAD
10
6.887500
20
2.712500
0
VERTEX
8
PAD
10
6.887500
20
1.712500
0
VERTEX
8
PAD
10
5.887500
20
1.712500
0
VERTEX
8
PAD
10
5.887500
20
2.712500
0
VERTEX
8
PAD
10
6.887500
20
2.712500
0
SEQEND
0
POLYLINE
8
PAD
66
1
70
32
0
VERTEX
8
PAD
10
6.887500
20
4.187500
0
VERTEX
8
PAD
10
6.887500
20
3.187500
0
VERTEX
8
PAD
10
5.887500
20
3.187500
0
VERTEX
8
PAD
10
5.887500
20
4.187500
0
VERTEX
8
PAD
10
6.887500
20
4.187500
0
SEQEND
0
POLYLINE
8
PAD
66
1
70
32
0
VERTEX
8
PAD
10
6.887500
20
5.662500
0
VERTEX
8
PAD
10
6.887500
20
4.662500
0
VERTEX
8
PAD
10
5.887500
20
4.662500
0
VERTEX
8
PAD
10
5.887500
20
5.662500
0
VERTEX
8
PAD
10
6.887500
20
5.662500
0
SEQEND
0
CIRCLE
8
ENIG
10
-8.180000
20
-8.280000
40
0.500000
0
POLYLINE
8
SIGNAL_1
66
1
70
32
0
VERTEX
8
SIGNAL_1
10
-7.000000
20
-5.750000
0
VERTEX
8
SIGNAL_1
10
-7.000000
20
5.750000
0
VERTEX
8
SIGNAL_1
10
7.000000
20
5.750000
0
VERTEX
8
SIGNAL_1
10
7.000000
20
-5.750000
0
VERTEX
8
SIGNAL_1
10
-7.000000
20
-5.750000
0
SEQEND
0
ENDSEC
0
EOF
