G04 CAM350/DFMSTREAM V12.2 (Build 1124) Date:  Wed Mar 06 16:06:52 2019 *
G04 Database: d:\cad\swi_source\new folder\airprime hl and wp series snap-in socket.cam *
G04 Layer 7: PAD *
%FSLAX23Y23*%
%MOIN*%
%SFA1.000B1.000*%

%MIA0B0*%
%IPPOS*%
%ADD10C,0.03937*%
%ADD11C,0.03150*%
%LNPAD*%
%LPD*%
G36*
X400Y337D02*
G01Y356D01*
X439*
Y337*
X400*
G37*
G36*
Y305D02*
G01Y325D01*
X439*
Y305*
X400*
G37*
G36*
Y274D02*
G01Y293D01*
X439*
Y274*
X400*
G37*
G36*
Y242D02*
G01Y262D01*
X439*
Y242*
X400*
G37*
G36*
Y211D02*
G01Y230D01*
X439*
Y211*
X400*
G37*
G36*
Y179D02*
G01Y199D01*
X439*
Y179*
X400*
G37*
G36*
Y116D02*
G01Y136D01*
X439*
Y116*
X400*
G37*
G36*
Y85D02*
G01Y104D01*
X439*
Y85*
X400*
G37*
G36*
Y53D02*
G01Y73D01*
X439*
Y53*
X400*
G37*
G36*
Y22D02*
G01Y41D01*
X439*
Y22*
X400*
G37*
G36*
Y-10D02*
G01Y10D01*
X439*
Y-10*
X400*
G37*
G36*
Y-41D02*
G01Y-22D01*
X439*
Y-41*
X400*
G37*
G36*
Y-73D02*
G01Y-53D01*
X439*
Y-73*
X400*
G37*
G36*
Y-104D02*
G01Y-85D01*
X439*
Y-104*
X400*
G37*
G36*
Y-136D02*
G01Y-116D01*
X439*
Y-136*
X400*
G37*
G36*
Y-167D02*
G01Y-148D01*
X439*
Y-167*
X400*
G37*
G36*
Y-199D02*
G01Y-179D01*
X439*
Y-199*
X400*
G37*
G36*
Y-230D02*
G01Y-211D01*
X439*
Y-230*
X400*
G37*
G36*
Y-262D02*
G01Y-242D01*
X439*
Y-262*
X400*
G37*
G36*
Y-293D02*
G01Y-274D01*
X439*
Y-293*
X400*
G37*
G36*
Y-325D02*
G01Y-305D01*
X439*
Y-325*
X400*
G37*
G36*
Y-356D02*
G01Y-337D01*
X439*
Y-356*
X400*
G37*
G36*
X368Y372D02*
G01Y411D01*
X388*
Y372*
X368*
G37*
G36*
Y-411D02*
G01Y-372D01*
X388*
Y-411*
X368*
G37*
G36*
X337Y372D02*
G01Y411D01*
X356*
Y372*
X337*
G37*
G36*
Y-411D02*
G01Y-372D01*
X356*
Y-411*
X337*
G37*
G36*
X305Y372D02*
G01Y411D01*
X325*
Y372*
X305*
G37*
G36*
Y-411D02*
G01Y-372D01*
X325*
Y-411*
X305*
G37*
G36*
X302Y211D02*
G01Y230D01*
X342*
Y211*
X302*
G37*
G36*
Y179D02*
G01Y199D01*
X342*
Y179*
X302*
G37*
G36*
Y148D02*
G01Y167D01*
X342*
Y148*
X302*
G37*
G36*
Y116D02*
G01Y136D01*
X342*
Y116*
X302*
G37*
G36*
Y85D02*
G01Y104D01*
X342*
Y85*
X302*
G37*
G36*
Y53D02*
G01Y73D01*
X342*
Y53*
X302*
G37*
G36*
Y22D02*
G01Y41D01*
X342*
Y22*
X302*
G37*
G36*
Y-10D02*
G01Y10D01*
X342*
Y-10*
X302*
G37*
G36*
Y-41D02*
G01Y-22D01*
X342*
Y-41*
X302*
G37*
G36*
Y-73D02*
G01Y-53D01*
X342*
Y-73*
X302*
G37*
G36*
Y-104D02*
G01Y-85D01*
X342*
Y-104*
X302*
G37*
G36*
Y-136D02*
G01Y-116D01*
X342*
Y-136*
X302*
G37*
G36*
Y-167D02*
G01Y-148D01*
X342*
Y-167*
X302*
G37*
G36*
Y-199D02*
G01Y-179D01*
X342*
Y-199*
X302*
G37*
G36*
Y-230D02*
G01Y-211D01*
X342*
Y-230*
X302*
G37*
G36*
X274Y372D02*
G01Y411D01*
X293*
Y372*
X274*
G37*
G36*
Y-411D02*
G01Y-372D01*
X293*
Y-411*
X274*
G37*
G36*
X258Y247D02*
G01Y287D01*
X278*
Y247*
X258*
G37*
G36*
Y-287D02*
G01Y-247D01*
X278*
Y-287*
X258*
G37*
G36*
X242Y372D02*
G01Y411D01*
X262*
Y372*
X242*
G37*
G36*
Y-411D02*
G01Y-372D01*
X262*
Y-411*
X242*
G37*
G36*
X226Y247D02*
G01Y287D01*
X246*
Y247*
X226*
G37*
G36*
Y-287D02*
G01Y-247D01*
X246*
Y-287*
X226*
G37*
G36*
X211Y372D02*
G01Y411D01*
X230*
Y372*
X211*
G37*
G36*
Y-411D02*
G01Y-372D01*
X230*
Y-411*
X211*
G37*
G36*
X195Y247D02*
G01Y287D01*
X215*
Y247*
X195*
G37*
G36*
Y-287D02*
G01Y-247D01*
X215*
Y-287*
X195*
G37*
G36*
X179Y372D02*
G01Y411D01*
X199*
Y372*
X179*
G37*
G36*
Y-411D02*
G01Y-372D01*
X199*
Y-411*
X179*
G37*
G36*
X163Y247D02*
G01Y287D01*
X183*
Y247*
X163*
G37*
G36*
Y-287D02*
G01Y-247D01*
X183*
Y-287*
X163*
G37*
G36*
X148Y-411D02*
G01Y-372D01*
X167*
Y-411*
X148*
G37*
G36*
X132Y247D02*
G01Y287D01*
X152*
Y247*
X132*
G37*
G36*
Y-287D02*
G01Y-247D01*
X152*
Y-287*
X132*
G37*
G36*
X116Y-411D02*
G01Y-372D01*
X136*
Y-411*
X116*
G37*
G36*
X100Y247D02*
G01Y287D01*
X120*
Y247*
X100*
G37*
G36*
Y-287D02*
G01Y-247D01*
X120*
Y-287*
X100*
G37*
G36*
X85Y372D02*
G01Y411D01*
X104*
Y372*
X85*
G37*
G36*
Y-411D02*
G01Y-372D01*
X104*
Y-411*
X85*
G37*
G36*
X69Y247D02*
G01Y287D01*
X89*
Y247*
X69*
G37*
G36*
Y-287D02*
G01Y-247D01*
X89*
Y-287*
X69*
G37*
G36*
X53Y372D02*
G01Y411D01*
X73*
Y372*
X53*
G37*
G36*
Y-411D02*
G01Y-372D01*
X73*
Y-411*
X53*
G37*
G36*
X37Y247D02*
G01Y287D01*
X57*
Y247*
X37*
G37*
G36*
Y-287D02*
G01Y-247D01*
X57*
Y-287*
X37*
G37*
G36*
X22Y372D02*
G01Y411D01*
X41*
Y372*
X22*
G37*
G36*
Y-411D02*
G01Y-372D01*
X41*
Y-411*
X22*
G37*
G36*
X6Y247D02*
G01Y287D01*
X26*
Y247*
X6*
G37*
G36*
Y-287D02*
G01Y-247D01*
X26*
Y-287*
X6*
G37*
G36*
X-10Y372D02*
G01Y411D01*
X10*
Y372*
X-10*
G37*
G36*
Y-411D02*
G01Y-372D01*
X10*
Y-411*
X-10*
G37*
G36*
X-26Y247D02*
G01Y287D01*
X-6*
Y247*
X-26*
G37*
G36*
Y-287D02*
G01Y-247D01*
X-6*
Y-287*
X-26*
G37*
G36*
X-41Y372D02*
G01Y411D01*
X-22*
Y372*
X-41*
G37*
G36*
Y-411D02*
G01Y-372D01*
X-22*
Y-411*
X-41*
G37*
G36*
X-57Y247D02*
G01Y287D01*
X-37*
Y247*
X-57*
G37*
G36*
Y-287D02*
G01Y-247D01*
X-37*
Y-287*
X-57*
G37*
G36*
X-73Y372D02*
G01Y411D01*
X-53*
Y372*
X-73*
G37*
G36*
Y-411D02*
G01Y-372D01*
X-53*
Y-411*
X-73*
G37*
G36*
X-89Y247D02*
G01Y287D01*
X-69*
Y247*
X-89*
G37*
G36*
Y-287D02*
G01Y-247D01*
X-69*
Y-287*
X-89*
G37*
G36*
X-104Y372D02*
G01Y411D01*
X-85*
Y372*
X-104*
G37*
G36*
Y-411D02*
G01Y-372D01*
X-85*
Y-411*
X-104*
G37*
G36*
X-120Y247D02*
G01Y287D01*
X-100*
Y247*
X-120*
G37*
G36*
Y-287D02*
G01Y-247D01*
X-100*
Y-287*
X-120*
G37*
G36*
X-136Y372D02*
G01Y411D01*
X-116*
Y372*
X-136*
G37*
G36*
Y-411D02*
G01Y-372D01*
X-116*
Y-411*
X-136*
G37*
G36*
X-152Y247D02*
G01Y287D01*
X-132*
Y247*
X-152*
G37*
G36*
Y-287D02*
G01Y-247D01*
X-132*
Y-287*
X-152*
G37*
G36*
X-167Y372D02*
G01Y411D01*
X-148*
Y372*
X-167*
G37*
G36*
Y-411D02*
G01Y-372D01*
X-148*
Y-411*
X-167*
G37*
G36*
X-183Y247D02*
G01Y287D01*
X-163*
Y247*
X-183*
G37*
G36*
Y-287D02*
G01Y-247D01*
X-163*
Y-287*
X-183*
G37*
G36*
X-199Y-411D02*
G01Y-372D01*
X-179*
Y-411*
X-199*
G37*
G36*
X-215Y247D02*
G01Y287D01*
X-195*
Y247*
X-215*
G37*
G36*
Y-287D02*
G01Y-247D01*
X-195*
Y-287*
X-215*
G37*
G36*
X-230Y-411D02*
G01Y-372D01*
X-211*
Y-411*
X-230*
G37*
G36*
X-246Y247D02*
G01Y287D01*
X-226*
Y247*
X-246*
G37*
G36*
Y-287D02*
G01Y-247D01*
X-226*
Y-287*
X-246*
G37*
G36*
X-262Y372D02*
G01Y411D01*
X-242*
Y372*
X-262*
G37*
G36*
Y-411D02*
G01Y-372D01*
X-242*
Y-411*
X-262*
G37*
G36*
X-278Y247D02*
G01Y287D01*
X-258*
Y247*
X-278*
G37*
G36*
Y-287D02*
G01Y-247D01*
X-258*
Y-287*
X-278*
G37*
G36*
X-293Y372D02*
G01Y411D01*
X-274*
Y372*
X-293*
G37*
G36*
Y-411D02*
G01Y-372D01*
X-274*
Y-411*
X-293*
G37*
G36*
X-325Y372D02*
G01Y411D01*
X-305*
Y372*
X-325*
G37*
G36*
Y-411D02*
G01Y-372D01*
X-305*
Y-411*
X-325*
G37*
G36*
X-342Y211D02*
G01Y230D01*
X-302*
Y211*
X-342*
G37*
G36*
Y179D02*
G01Y199D01*
X-302*
Y179*
X-342*
G37*
G36*
Y148D02*
G01Y167D01*
X-302*
Y148*
X-342*
G37*
G36*
Y116D02*
G01Y136D01*
X-302*
Y116*
X-342*
G37*
G36*
Y85D02*
G01Y104D01*
X-302*
Y85*
X-342*
G37*
G36*
Y53D02*
G01Y73D01*
X-302*
Y53*
X-342*
G37*
G36*
Y22D02*
G01Y41D01*
X-302*
Y22*
X-342*
G37*
G36*
Y-10D02*
G01Y10D01*
X-302*
Y-10*
X-342*
G37*
G36*
Y-41D02*
G01Y-22D01*
X-302*
Y-41*
X-342*
G37*
G36*
Y-73D02*
G01Y-53D01*
X-302*
Y-73*
X-342*
G37*
G36*
Y-104D02*
G01Y-85D01*
X-302*
Y-104*
X-342*
G37*
G36*
Y-136D02*
G01Y-116D01*
X-302*
Y-136*
X-342*
G37*
G36*
Y-167D02*
G01Y-148D01*
X-302*
Y-167*
X-342*
G37*
G36*
Y-199D02*
G01Y-179D01*
X-302*
Y-199*
X-342*
G37*
G36*
Y-230D02*
G01Y-211D01*
X-302*
Y-230*
X-342*
G37*
G36*
X-356Y372D02*
G01Y411D01*
X-337*
Y372*
X-356*
G37*
G36*
Y-411D02*
G01Y-372D01*
X-337*
Y-411*
X-356*
G37*
G36*
X-388Y372D02*
G01Y411D01*
X-368*
Y372*
X-388*
G37*
G36*
Y-411D02*
G01Y-372D01*
X-368*
Y-411*
X-388*
G37*
G36*
X-439Y337D02*
G01Y356D01*
X-400*
Y337*
X-439*
G37*
G36*
Y305D02*
G01Y325D01*
X-400*
Y305*
X-439*
G37*
G36*
Y274D02*
G01Y293D01*
X-400*
Y274*
X-439*
G37*
G36*
Y242D02*
G01Y262D01*
X-400*
Y242*
X-439*
G37*
G36*
Y211D02*
G01Y230D01*
X-400*
Y211*
X-439*
G37*
G36*
Y179D02*
G01Y199D01*
X-400*
Y179*
X-439*
G37*
G36*
Y148D02*
G01Y167D01*
X-400*
Y148*
X-439*
G37*
G36*
Y116D02*
G01Y136D01*
X-400*
Y116*
X-439*
G37*
G36*
Y85D02*
G01Y104D01*
X-400*
Y85*
X-439*
G37*
G36*
Y53D02*
G01Y73D01*
X-400*
Y53*
X-439*
G37*
G36*
Y22D02*
G01Y41D01*
X-400*
Y22*
X-439*
G37*
G36*
Y-10D02*
G01Y10D01*
X-400*
Y-10*
X-439*
G37*
G36*
Y-41D02*
G01Y-22D01*
X-400*
Y-41*
X-439*
G37*
G36*
Y-73D02*
G01Y-53D01*
X-400*
Y-73*
X-439*
G37*
G36*
Y-104D02*
G01Y-85D01*
X-400*
Y-104*
X-439*
G37*
G36*
Y-136D02*
G01Y-116D01*
X-400*
Y-136*
X-439*
G37*
G36*
Y-167D02*
G01Y-148D01*
X-400*
Y-167*
X-439*
G37*
G36*
Y-199D02*
G01Y-179D01*
X-400*
Y-199*
X-439*
G37*
G36*
Y-230D02*
G01Y-211D01*
X-400*
Y-230*
X-439*
G37*
G36*
Y-262D02*
G01Y-242D01*
X-400*
Y-262*
X-439*
G37*
G36*
Y-293D02*
G01Y-274D01*
X-400*
Y-293*
X-439*
G37*
G36*
Y-325D02*
G01Y-305D01*
X-400*
Y-325*
X-439*
G37*
G36*
Y-356D02*
G01Y-337D01*
X-400*
Y-356*
X-439*
G37*
G36*
X404Y372D02*
G01Y411D01*
X439*
Y372*
X404*
G37*
G36*
Y-411D02*
G01Y-372D01*
X439*
Y-411*
X404*
G37*
G36*
X-439Y372D02*
G01Y411D01*
X-404*
Y372*
X-439*
G37*
G36*
Y-411D02*
G01Y-372D01*
X-404*
Y-411*
X-439*
G37*
G36*
X302Y247D02*
G01Y287D01*
X342*
Y247*
X302*
G37*
G36*
Y-287D02*
G01Y-247D01*
X342*
Y-287*
X302*
G37*
G36*
X232Y184D02*
G01Y223D01*
X271*
Y184*
X232*
G37*
G36*
Y125D02*
G01Y165D01*
X271*
Y125*
X232*
G37*
G36*
Y67D02*
G01Y107D01*
X271*
Y67*
X232*
G37*
G36*
Y9D02*
G01Y49D01*
X271*
Y9*
X232*
G37*
G36*
Y-49D02*
G01Y-9D01*
X271*
Y-49*
X232*
G37*
G36*
Y-107D02*
G01Y-67D01*
X271*
Y-107*
X232*
G37*
G36*
Y-165D02*
G01Y-125D01*
X271*
Y-165*
X232*
G37*
G36*
Y-223D02*
G01Y-184D01*
X271*
Y-223*
X232*
G37*
G36*
X160Y184D02*
G01Y223D01*
X199*
Y184*
X160*
G37*
G36*
Y125D02*
G01Y165D01*
X199*
Y125*
X160*
G37*
G36*
Y67D02*
G01Y107D01*
X199*
Y67*
X160*
G37*
G36*
Y9D02*
G01Y49D01*
X199*
Y9*
X160*
G37*
G36*
Y-49D02*
G01Y-9D01*
X199*
Y-49*
X160*
G37*
G36*
Y-107D02*
G01Y-67D01*
X199*
Y-107*
X160*
G37*
G36*
Y-165D02*
G01Y-125D01*
X199*
Y-165*
X160*
G37*
G36*
Y-223D02*
G01Y-184D01*
X199*
Y-223*
X160*
G37*
G36*
X88Y184D02*
G01Y223D01*
X127*
Y184*
X88*
G37*
G36*
Y125D02*
G01Y165D01*
X127*
Y125*
X88*
G37*
G36*
Y67D02*
G01Y107D01*
X127*
Y67*
X88*
G37*
G36*
Y9D02*
G01Y49D01*
X127*
Y9*
X88*
G37*
G36*
Y-49D02*
G01Y-9D01*
X127*
Y-49*
X88*
G37*
G36*
Y-107D02*
G01Y-67D01*
X127*
Y-107*
X88*
G37*
G36*
Y-165D02*
G01Y-125D01*
X127*
Y-165*
X88*
G37*
G36*
Y-223D02*
G01Y-184D01*
X127*
Y-223*
X88*
G37*
G36*
X16Y184D02*
G01Y223D01*
X56*
Y184*
X16*
G37*
G36*
Y125D02*
G01Y165D01*
X56*
Y125*
X16*
G37*
G36*
Y67D02*
G01Y107D01*
X56*
Y67*
X16*
G37*
G36*
Y9D02*
G01Y49D01*
X56*
Y9*
X16*
G37*
G36*
Y-49D02*
G01Y-9D01*
X56*
Y-49*
X16*
G37*
G36*
Y-107D02*
G01Y-67D01*
X56*
Y-107*
X16*
G37*
G36*
Y-165D02*
G01Y-125D01*
X56*
Y-165*
X16*
G37*
G36*
Y-223D02*
G01Y-184D01*
X56*
Y-223*
X16*
G37*
G36*
X-56Y184D02*
G01Y223D01*
X-16*
Y184*
X-56*
G37*
G36*
Y125D02*
G01Y165D01*
X-16*
Y125*
X-56*
G37*
G36*
Y67D02*
G01Y107D01*
X-16*
Y67*
X-56*
G37*
G36*
Y9D02*
G01Y49D01*
X-16*
Y9*
X-56*
G37*
G36*
Y-49D02*
G01Y-9D01*
X-16*
Y-49*
X-56*
G37*
G36*
Y-107D02*
G01Y-67D01*
X-16*
Y-107*
X-56*
G37*
G36*
Y-165D02*
G01Y-125D01*
X-16*
Y-165*
X-56*
G37*
G36*
Y-223D02*
G01Y-184D01*
X-16*
Y-223*
X-56*
G37*
G36*
X-127Y184D02*
G01Y223D01*
X-88*
Y184*
X-127*
G37*
G36*
Y125D02*
G01Y165D01*
X-88*
Y125*
X-127*
G37*
G36*
Y67D02*
G01Y107D01*
X-88*
Y67*
X-127*
G37*
G36*
Y9D02*
G01Y49D01*
X-88*
Y9*
X-127*
G37*
G36*
Y-49D02*
G01Y-9D01*
X-88*
Y-49*
X-127*
G37*
G36*
Y-107D02*
G01Y-67D01*
X-88*
Y-107*
X-127*
G37*
G36*
Y-165D02*
G01Y-125D01*
X-88*
Y-165*
X-127*
G37*
G36*
Y-223D02*
G01Y-184D01*
X-88*
Y-223*
X-127*
G37*
G36*
X-199Y184D02*
G01Y223D01*
X-160*
Y184*
X-199*
G37*
G36*
Y125D02*
G01Y165D01*
X-160*
Y125*
X-199*
G37*
G36*
Y67D02*
G01Y107D01*
X-160*
Y67*
X-199*
G37*
G36*
Y9D02*
G01Y49D01*
X-160*
Y9*
X-199*
G37*
G36*
Y-49D02*
G01Y-9D01*
X-160*
Y-49*
X-199*
G37*
G36*
Y-107D02*
G01Y-67D01*
X-160*
Y-107*
X-199*
G37*
G36*
Y-165D02*
G01Y-125D01*
X-160*
Y-165*
X-199*
G37*
G36*
Y-223D02*
G01Y-184D01*
X-160*
Y-223*
X-199*
G37*
G36*
X-271Y184D02*
G01Y223D01*
X-232*
Y184*
X-271*
G37*
G36*
Y125D02*
G01Y165D01*
X-232*
Y125*
X-271*
G37*
G36*
Y67D02*
G01Y107D01*
X-232*
Y67*
X-271*
G37*
G36*
Y9D02*
G01Y49D01*
X-232*
Y9*
X-271*
G37*
G36*
Y-49D02*
G01Y-9D01*
X-232*
Y-49*
X-271*
G37*
G36*
Y-107D02*
G01Y-67D01*
X-232*
Y-107*
X-271*
G37*
G36*
Y-165D02*
G01Y-125D01*
X-232*
Y-165*
X-271*
G37*
G36*
Y-223D02*
G01Y-184D01*
X-232*
Y-223*
X-271*
G37*
G36*
X-342Y247D02*
G01Y287D01*
X-302*
Y247*
X-342*
G37*
G36*
Y-287D02*
G01Y-247D01*
X-302*
Y-287*
X-342*
G37*
G36*
X494Y187D02*
G01Y317D01*
X541*
Y187*
X494*
G37*
G36*
Y-65D02*
G01Y65D01*
X541*
Y-65*
X494*
G37*
G36*
Y-317D02*
G01Y-187D01*
X541*
Y-317*
X494*
G37*
G36*
X250Y474D02*
G01Y522D01*
X380*
Y474*
X250*
G37*
G36*
Y-522D02*
G01Y-474D01*
X380*
Y-522*
X250*
G37*
G36*
X-65Y474D02*
G01Y522D01*
X65*
Y474*
X-65*
G37*
G36*
Y-522D02*
G01Y-474D01*
X65*
Y-522*
X-65*
G37*
G36*
X-380Y474D02*
G01Y522D01*
X-250*
Y474*
X-380*
G37*
G36*
Y-522D02*
G01Y-474D01*
X-250*
Y-522*
X-380*
G37*
G36*
X-541Y187D02*
G01Y317D01*
X-494*
Y187*
X-541*
G37*
G36*
Y-65D02*
G01Y65D01*
X-494*
Y-65*
X-541*
G37*
G36*
Y-317D02*
G01Y-187D01*
X-494*
Y-317*
X-541*
G37*
G36*
X494Y372D02*
G01Y459D01*
X569*
Y372*
X494*
G37*
G36*
Y-459D02*
G01Y-372D01*
X569*
Y-459*
X494*
G37*
G36*
X392Y474D02*
G01Y549D01*
X478*
Y474*
X392*
G37*
G36*
Y-549D02*
G01Y-474D01*
X478*
Y-549*
X392*
G37*
G36*
X-478Y474D02*
G01Y549D01*
X-392*
Y474*
X-478*
G37*
G36*
Y-549D02*
G01Y-474D01*
X-392*
Y-549*
X-478*
G37*
G36*
X-569Y372D02*
G01Y459D01*
X-494*
Y372*
X-569*
G37*
G36*
Y-459D02*
G01Y-372D01*
X-494*
Y-459*
X-569*
G37*
G54D11*
X126Y-334D03*
X79D03*
X31D03*
X-16D03*
X-63D03*
X-110D03*
X-157D03*
X-205D03*
X-252D03*
G54D10*
X-322Y-326D03*
M02*
