G04 CAM350/DFMSTREAM V12.2 (Build 1124) Date:  Wed Mar 06 16:06:52 2019 *
G04 Database: d:\cad\swi_source\new folder\airprime hl and wp series snap-in socket.cam *
G04 Layer 8: ROUTE_KEEPOUT *
%FSLAX23Y23*%
%MOIN*%
%SFA1.000B1.000*%

%MIA0B0*%
%IPPOS*%
%LNROUTE_KEEPOUT*%
%LPD*%
G36*
X429Y-419D02*
G01Y-411D01*
X439*
Y-400*
X447*
Y-412*
Y-413*
X446Y-414*
Y-415*
X445Y-416*
Y-417*
X444*
Y-418*
X443*
X442Y-419*
X441*
X440*
X439*
X429*
G37*
G36*
X-447Y400D02*
G01Y412D01*
Y413*
X-446Y414*
Y415*
X-445Y416*
Y417*
X-444*
Y418*
X-443*
X-442Y419*
X-441*
X-440*
X-439*
X-429*
Y411*
X-439*
Y400*
X-447*
G37*
G36*
Y-400D02*
G01X-439D01*
Y-411*
X-429*
Y-419*
X-439*
X-440*
X-441*
X-442*
X-443Y-418*
X-444*
Y-417*
X-445*
Y-416*
X-446Y-415*
Y-414*
X-447Y-413*
Y-412*
Y-400*
G37*
G36*
X429Y411D02*
G01Y419D01*
X440*
X441*
X442*
X443Y418*
X444*
Y417*
X445*
Y416*
X446Y415*
X447Y414*
Y413*
Y412*
Y400*
X439*
Y411*
X429*
G37*
G36*
X-306Y-337D02*
G01X-305Y-336D01*
X-304Y-334*
Y-333*
X-303Y-331*
Y-329*
X-302Y-327*
Y-325*
X-303Y-323*
Y-321*
X-304Y-319*
Y-318*
X-305Y-316*
X-306Y-315*
X-300Y-309*
Y-310*
X-298Y-312*
X-297Y-314*
X-296Y-317*
X-295Y-319*
Y-322*
Y-325*
Y-327*
Y-330*
Y-333*
X-296Y-335*
X-297Y-338*
X-298Y-340*
X-300Y-342*
X-306Y-337*
G37*
G36*
X-339Y-304D02*
G01X-338D01*
X-336Y-302*
X-334Y-301*
X-331Y-300*
X-329Y-299*
X-326*
X-323Y-298*
X-321*
X-318Y-299*
X-315*
X-313Y-300*
X-310Y-301*
X-308Y-302*
X-306Y-304*
X-311Y-310*
X-312Y-309*
X-314Y-308*
X-315Y-307*
X-317*
X-319*
X-321Y-306*
X-323*
X-325Y-307*
X-327*
X-329*
X-330Y-308*
X-332Y-309*
X-333Y-310*
X-339Y-304*
G37*
G36*
Y-348D02*
G01X-333Y-342D01*
X-332Y-343*
X-330Y-344*
X-329Y-345*
X-327*
X-325*
X-323Y-346*
X-321*
X-319Y-345*
X-317*
X-315*
X-314Y-344*
X-312Y-343*
X-311Y-342*
X-306Y-348*
X-308Y-350*
X-310Y-351*
X-313Y-352*
X-315Y-353*
X-318*
X-321Y-354*
X-323*
X-326Y-353*
X-329*
X-331Y-352*
X-334Y-351*
X-336Y-350*
X-338Y-348*
X-339*
G37*
G36*
X-350Y-327D02*
G01Y-325D01*
X-349Y-322*
Y-319*
X-348Y-317*
X-347Y-314*
X-346Y-312*
X-344Y-310*
Y-309*
X-338Y-315*
X-339Y-316*
X-340Y-318*
X-341Y-319*
Y-321*
X-342Y-323*
Y-325*
Y-327*
Y-329*
X-341Y-331*
Y-333*
X-340Y-334*
X-339Y-336*
X-338Y-337*
X-344Y-342*
X-346Y-340*
X-347Y-338*
X-348Y-335*
X-349Y-333*
Y-330*
X-350Y-327*
G37*
G36*
X-318Y-287D02*
G01X-302D01*
Y-271*
X-294*
Y-287*
X-295Y-288*
Y-289*
Y-290*
X-296Y-291*
X-297Y-292*
X-298Y-293*
X-299Y-294*
X-300*
X-301*
X-302*
X-314*
X-315*
X-316*
X-317*
Y-293*
X-318*
Y-292*
Y-291*
Y-287*
G37*
G36*
X-350Y-271D02*
G01X-342D01*
Y-287*
X-326*
Y-291*
Y-292*
X-327Y-293*
X-328Y-294*
X-329*
X-330*
X-342*
X-343*
X-344*
X-345*
X-346Y-293*
X-347Y-292*
X-348*
Y-291*
X-349Y-290*
Y-289*
X-350Y-288*
Y-287*
Y-271*
G37*
G36*
X326Y287D02*
G01Y294D01*
X342*
X343*
X344*
X345*
X346Y293*
X347Y292*
X348*
Y291*
X349Y290*
Y289*
X350Y288*
Y287*
Y271*
X342*
Y287*
X326*
G37*
G36*
Y-294D02*
G01Y-287D01*
X342*
Y-271*
X350*
Y-287*
Y-288*
X349Y-289*
Y-290*
X348Y-291*
Y-292*
X347*
X346Y-293*
X345Y-294*
X344*
X343*
X342*
X326*
G37*
G36*
X294Y271D02*
G01Y287D01*
X295Y288*
Y289*
Y290*
X296Y291*
X297Y292*
X298Y293*
X299Y294*
X300*
X301*
X302*
X318*
Y287*
X302*
Y271*
X294*
G37*
G36*
Y-271D02*
G01X302D01*
Y-287*
X318*
Y-294*
X302*
X301*
X300*
X299*
X298Y-293*
X297Y-292*
X296Y-291*
X295Y-290*
Y-289*
Y-288*
X294Y-287*
Y-271*
G37*
G36*
X-318Y287D02*
G01Y294D01*
X-302*
X-301*
X-300*
X-299*
X-298Y293*
X-297Y292*
X-296Y291*
X-295Y290*
Y289*
Y288*
X-294Y287*
Y271*
X-302*
Y287*
X-318*
G37*
G36*
X-350Y271D02*
G01Y287D01*
Y288*
X-349Y289*
Y290*
X-348Y291*
Y292*
X-347*
X-346Y293*
X-345Y294*
X-344*
X-343*
X-342*
X-326*
Y287*
X-342*
Y271*
X-350*
G37*
G36*
X530Y317D02*
G01Y329D01*
X548*
X549*
Y328*
X550*
X551*
Y327*
X552*
Y326*
X553Y325*
Y324*
Y323*
Y264*
X541*
Y317*
X530*
G37*
G36*
Y175D02*
G01Y187D01*
X541*
Y240*
X553*
Y181*
Y180*
Y179*
X552Y178*
Y177*
X551*
Y176*
X550*
X549*
Y175*
X548*
X530*
G37*
G36*
Y65D02*
G01Y77D01*
X548*
X549*
Y76*
X550*
X551*
Y75*
X552*
Y74*
X553Y73*
Y72*
Y71*
Y12*
X541*
Y65*
X530*
G37*
G36*
Y-77D02*
G01Y-65D01*
X541*
Y-12*
X553*
Y-71*
Y-72*
Y-73*
X552Y-74*
Y-75*
X551*
Y-76*
X550*
X549*
Y-77*
X548*
X530*
G37*
G36*
Y-187D02*
G01Y-175D01*
X548*
X549*
Y-176*
X550*
X551*
Y-177*
X552*
Y-178*
X553Y-179*
Y-180*
Y-181*
Y-240*
X541*
Y-187*
X530*
G37*
G36*
Y-329D02*
G01Y-317D01*
X541*
Y-264*
X553*
Y-323*
Y-324*
Y-325*
X552Y-326*
Y-327*
X551*
Y-328*
X550*
X549*
Y-329*
X548*
X530*
G37*
G36*
X482Y264D02*
G01Y323D01*
Y324*
X483Y325*
Y326*
X484Y327*
X485Y328*
X486*
X487Y329*
X488*
X506*
Y317*
X494*
Y264*
X482*
G37*
G36*
Y240D02*
G01X494D01*
Y187*
X506*
Y175*
X488*
X487*
X486Y176*
X485*
X484Y177*
X483Y178*
Y179*
X482Y180*
Y181*
Y240*
G37*
G36*
Y12D02*
G01Y71D01*
Y72*
X483Y73*
Y74*
X484Y75*
X485Y76*
X486*
X487Y77*
X488*
X506*
Y65*
X494*
Y12*
X482*
G37*
G36*
Y-12D02*
G01X494D01*
Y-65*
X506*
Y-77*
X488*
X487*
X486Y-76*
X485*
X484Y-75*
X483Y-74*
Y-73*
X482Y-72*
Y-71*
Y-12*
G37*
G36*
Y-240D02*
G01Y-181D01*
Y-180*
X483Y-179*
Y-178*
X484Y-177*
X485Y-176*
X486*
X487Y-175*
X488*
X506*
Y-187*
X494*
Y-240*
X482*
G37*
G36*
Y-264D02*
G01X494D01*
Y-317*
X506*
Y-329*
X488*
X487*
X486Y-328*
X485*
X484Y-327*
X483Y-326*
Y-325*
X482Y-324*
Y-323*
Y-264*
G37*
G36*
X238Y510D02*
G01Y528D01*
Y529*
X239Y530*
Y531*
X240Y532*
X241*
Y533*
X242*
X243*
X244*
X303*
Y522*
X250*
Y510*
X238*
G37*
G36*
Y486D02*
G01X250D01*
Y474*
X303*
Y463*
X244*
X243*
X242*
X241*
Y464*
X240*
Y465*
X239*
Y466*
Y467*
X238*
Y468*
Y486*
G37*
G36*
Y-486D02*
G01Y-468D01*
Y-467*
X239*
Y-466*
Y-465*
X240*
Y-464*
X241*
Y-463*
X242*
X243*
X244*
X303*
Y-474*
X250*
Y-486*
X238*
G37*
G36*
Y-510D02*
G01X250D01*
Y-522*
X303*
Y-533*
X244*
X243*
X242*
X241*
Y-532*
X240*
X239Y-531*
Y-530*
X238Y-529*
Y-528*
Y-510*
G37*
G36*
X12Y522D02*
G01Y533D01*
X71*
X72*
X73*
X74*
Y532*
X75*
X76Y531*
Y530*
X77Y529*
Y528*
Y510*
X65*
Y522*
X12*
G37*
G36*
Y463D02*
G01Y474D01*
X65*
Y486*
X77*
Y468*
Y467*
X76*
Y466*
Y465*
X75*
Y464*
X74*
Y463*
X73*
X72*
X71*
X12*
G37*
G36*
Y-474D02*
G01Y-463D01*
X71*
X72*
X73*
X74*
Y-464*
X75*
Y-465*
X76*
Y-466*
Y-467*
X77*
Y-468*
Y-486*
X65*
Y-474*
X12*
G37*
G36*
Y-533D02*
G01Y-522D01*
X65*
Y-510*
X77*
Y-528*
Y-529*
X76Y-530*
Y-531*
X75Y-532*
X74*
Y-533*
X73*
X72*
X71*
X12*
G37*
G36*
X-77Y510D02*
G01Y528D01*
Y529*
X-76Y530*
Y531*
X-75Y532*
X-74*
Y533*
X-73*
X-72*
X-71*
X-12*
Y522*
X-65*
Y510*
X-77*
G37*
G36*
Y486D02*
G01X-65D01*
Y474*
X-12*
Y463*
X-71*
X-72*
X-73*
X-74*
Y464*
X-75*
Y465*
X-76*
Y466*
Y467*
X-77*
Y468*
Y486*
G37*
G36*
Y-486D02*
G01Y-468D01*
Y-467*
X-76*
Y-466*
Y-465*
X-75*
Y-464*
X-74*
Y-463*
X-73*
X-72*
X-71*
X-12*
Y-474*
X-65*
Y-486*
X-77*
G37*
G36*
Y-510D02*
G01X-65D01*
Y-522*
X-12*
Y-533*
X-71*
X-72*
X-73*
X-74*
Y-532*
X-75*
X-76Y-531*
Y-530*
X-77Y-529*
Y-528*
Y-510*
G37*
G36*
X-303Y522D02*
G01Y533D01*
X-244*
X-243*
X-242*
X-241*
Y532*
X-240*
X-239Y531*
Y530*
X-238Y529*
Y528*
Y510*
X-250*
Y522*
X-303*
G37*
G36*
Y463D02*
G01Y474D01*
X-250*
Y486*
X-238*
Y468*
Y467*
X-239*
Y466*
Y465*
X-240*
Y464*
X-241*
Y463*
X-242*
X-243*
X-244*
X-303*
G37*
G36*
Y-474D02*
G01Y-463D01*
X-244*
X-243*
X-242*
X-241*
Y-464*
X-240*
Y-465*
X-239*
Y-466*
Y-467*
X-238*
Y-468*
Y-486*
X-250*
Y-474*
X-303*
G37*
G36*
Y-533D02*
G01Y-522D01*
X-250*
Y-510*
X-238*
Y-528*
Y-529*
X-239Y-530*
Y-531*
X-240Y-532*
X-241*
Y-533*
X-242*
X-243*
X-244*
X-303*
G37*
G36*
X-506Y317D02*
G01Y329D01*
X-488*
X-487*
X-486Y328*
X-485*
X-484Y327*
X-483Y326*
Y325*
X-482Y324*
Y323*
Y264*
X-494*
Y317*
X-506*
G37*
G36*
Y175D02*
G01Y187D01*
X-494*
Y240*
X-482*
Y181*
Y180*
X-483Y179*
Y178*
X-484Y177*
X-485Y176*
X-486*
X-487Y175*
X-488*
X-506*
G37*
G36*
Y65D02*
G01Y77D01*
X-488*
X-487*
X-486Y76*
X-485*
X-484Y75*
X-483Y74*
Y73*
X-482Y72*
Y71*
Y12*
X-494*
Y65*
X-506*
G37*
G36*
Y-77D02*
G01Y-65D01*
X-494*
Y-12*
X-482*
Y-71*
Y-72*
X-483Y-73*
Y-74*
X-484Y-75*
X-485Y-76*
X-486*
X-487Y-77*
X-488*
X-506*
G37*
G36*
Y-187D02*
G01Y-175D01*
X-488*
X-487*
X-486Y-176*
X-485*
X-484Y-177*
X-483Y-178*
Y-179*
X-482Y-180*
Y-181*
Y-240*
X-494*
Y-187*
X-506*
G37*
G36*
Y-329D02*
G01Y-317D01*
X-494*
Y-264*
X-482*
Y-323*
Y-324*
X-483Y-325*
Y-326*
X-484Y-327*
X-485Y-328*
X-486*
X-487Y-329*
X-488*
X-506*
G37*
G36*
X-553Y264D02*
G01Y323D01*
Y324*
Y325*
X-552Y326*
Y327*
X-551*
Y328*
X-550*
X-549*
Y329*
X-548*
X-530*
Y317*
X-541*
Y264*
X-553*
G37*
G36*
Y240D02*
G01X-541D01*
Y187*
X-530*
Y175*
X-548*
X-549*
Y176*
X-550*
X-551*
Y177*
X-552*
Y178*
X-553Y179*
Y180*
Y181*
Y240*
G37*
G36*
Y12D02*
G01Y71D01*
Y72*
Y73*
X-552Y74*
Y75*
X-551*
Y76*
X-550*
X-549*
Y77*
X-548*
X-530*
Y65*
X-541*
Y12*
X-553*
G37*
G36*
Y-12D02*
G01X-541D01*
Y-65*
X-530*
Y-77*
X-548*
X-549*
Y-76*
X-550*
X-551*
Y-75*
X-552*
Y-74*
X-553Y-73*
Y-72*
Y-71*
Y-12*
G37*
G36*
Y-240D02*
G01Y-181D01*
Y-180*
Y-179*
X-552Y-178*
Y-177*
X-551*
Y-176*
X-550*
X-549*
Y-175*
X-548*
X-530*
Y-187*
X-541*
Y-240*
X-553*
G37*
G36*
Y-264D02*
G01X-541D01*
Y-317*
X-530*
Y-329*
X-548*
X-549*
Y-328*
X-550*
X-551*
Y-327*
X-552*
Y-326*
X-553Y-325*
Y-324*
Y-323*
Y-264*
G37*
G36*
X543Y459D02*
G01Y470D01*
X575*
X576*
X577*
X578*
Y469*
X579*
X580Y468*
Y467*
X581Y466*
Y465*
Y427*
X569*
Y459*
X543*
G37*
G36*
Y360D02*
G01Y372D01*
X569*
Y404*
X581*
Y366*
Y365*
X580Y364*
Y363*
X579Y362*
X578Y361*
X577*
X576Y360*
X575*
X543*
G37*
G36*
Y-372D02*
G01Y-360D01*
X575*
X576*
X577Y-361*
X578*
X579Y-362*
X580Y-363*
Y-364*
X581Y-365*
Y-366*
Y-404*
X569*
Y-372*
X543*
G37*
G36*
Y-470D02*
G01Y-459D01*
X569*
Y-427*
X581*
Y-465*
Y-466*
X580Y-467*
Y-468*
X579Y-469*
X578*
Y-470*
X577*
X576*
X575*
X543*
G37*
G36*
X482Y404D02*
G01X494D01*
Y372*
X520*
Y360*
X488*
X487*
X486Y361*
X485*
X484Y362*
X483Y363*
Y364*
X482Y365*
Y366*
Y404*
G37*
G36*
Y-404D02*
G01Y-366D01*
Y-365*
X483Y-364*
Y-363*
X484Y-362*
X485Y-361*
X486*
X487Y-360*
X488*
X520*
Y-372*
X494*
Y-404*
X482*
G37*
G36*
X447Y549D02*
G01Y561D01*
X485*
X486*
X487Y560*
X488*
Y559*
X489*
Y558*
X490*
Y557*
Y556*
Y555*
Y524*
X478*
Y549*
X447*
G37*
G36*
Y-561D02*
G01Y-549D01*
X478*
Y-524*
X490*
Y-555*
Y-556*
Y-557*
Y-558*
X489*
Y-559*
X488*
Y-560*
X487*
X486Y-561*
X485*
X447*
G37*
G36*
X-490Y524D02*
G01Y555D01*
Y556*
Y557*
Y558*
X-489*
Y559*
X-488*
Y560*
X-487*
X-486Y561*
X-485*
X-447*
Y549*
X-478*
Y524*
X-490*
G37*
G36*
Y-524D02*
G01X-478D01*
Y-549*
X-447*
Y-561*
X-485*
X-486*
X-487Y-560*
X-488*
Y-559*
X-489*
Y-558*
X-490*
Y-557*
Y-556*
Y-555*
Y-524*
G37*
G36*
X-520Y360D02*
G01Y372D01*
X-494*
Y404*
X-482*
Y366*
Y365*
X-483Y364*
Y363*
X-484Y362*
X-485Y361*
X-486*
X-487Y360*
X-488*
X-520*
G37*
G36*
Y-372D02*
G01Y-360D01*
X-488*
X-487*
X-486Y-361*
X-485*
X-484Y-362*
X-483Y-363*
Y-364*
X-482Y-365*
Y-366*
Y-404*
X-494*
Y-372*
X-520*
G37*
G36*
X-581Y427D02*
G01Y465D01*
Y466*
X-580Y467*
Y468*
X-579Y469*
X-578*
Y470*
X-577*
X-576*
X-575*
X-543*
Y459*
X-569*
Y427*
X-581*
G37*
G36*
Y404D02*
G01X-569D01*
Y372*
X-543*
Y360*
X-575*
X-576*
X-577Y361*
X-578*
X-579Y362*
X-580Y363*
Y364*
X-581Y365*
Y366*
Y404*
G37*
G36*
Y-404D02*
G01Y-366D01*
Y-365*
X-580Y-364*
Y-363*
X-579Y-362*
X-578Y-361*
X-577*
X-576Y-360*
X-575*
X-543*
Y-372*
X-569*
Y-404*
X-581*
G37*
G36*
Y-427D02*
G01X-569D01*
Y-459*
X-543*
Y-470*
X-575*
X-576*
X-577*
X-578*
Y-469*
X-579*
X-580Y-468*
Y-467*
X-581Y-466*
Y-465*
Y-427*
G37*
G36*
X327Y463D02*
G01Y474D01*
X380*
Y486*
X392*
Y474*
X423*
Y463*
X327*
G37*
G36*
Y-474D02*
G01Y-463D01*
X423*
Y-474*
X392*
Y-486*
X380*
Y-474*
X327*
G37*
G36*
X-423Y463D02*
G01Y474D01*
X-392*
Y486*
X-380*
Y474*
X-327*
Y463*
X-423*
G37*
G36*
Y-474D02*
G01Y-463D01*
X-327*
Y-474*
X-380*
Y-486*
X-392*
Y-474*
X-423*
G37*
G36*
X327Y522D02*
G01Y533D01*
X376*
X377Y534*
X378*
X379*
X380Y535*
X381Y536*
Y537*
X382*
Y538*
Y539*
Y555*
Y556*
Y557*
Y558*
X383*
Y559*
X384*
Y560*
X385*
X386Y561*
X387*
X388*
X423*
Y549*
X392*
Y512*
X380*
Y522*
X327*
G37*
G36*
Y-533D02*
G01Y-522D01*
X380*
Y-512*
X392*
Y-549*
X423*
Y-561*
X388*
X387*
X386*
X385Y-560*
X384*
Y-559*
X383*
Y-558*
X382*
Y-557*
Y-556*
Y-555*
Y-539*
Y-538*
Y-537*
X381*
Y-536*
X380Y-535*
X379Y-534*
X378*
X377*
X376Y-533*
X327*
G37*
G36*
X-423Y549D02*
G01Y561D01*
X-388*
X-387*
X-386*
X-385Y560*
X-384*
Y559*
X-383*
Y558*
X-382*
Y557*
Y556*
Y555*
Y539*
Y538*
Y537*
X-381*
Y536*
X-380Y535*
X-379Y534*
X-378*
X-377*
X-376Y533*
X-327*
Y522*
X-380*
Y512*
X-392*
Y549*
X-423*
G37*
G36*
Y-561D02*
G01Y-549D01*
X-392*
Y-512*
X-380*
Y-522*
X-327*
Y-533*
X-376*
X-377Y-534*
X-378*
X-379*
X-380Y-535*
X-381Y-536*
Y-537*
X-382*
Y-538*
Y-539*
Y-555*
Y-556*
Y-557*
Y-558*
X-383*
Y-559*
X-384*
Y-560*
X-385*
X-386Y-561*
X-387*
X-388*
X-423*
G37*
G36*
X447Y463D02*
G01Y474D01*
X478*
Y500*
X490*
Y476*
Y475*
X491Y474*
Y473*
X492Y472*
X493*
Y471*
X494*
X495*
X496Y470*
X520*
Y459*
X494*
Y427*
X482*
Y457*
Y458*
Y459*
X481Y460*
Y461*
X480*
X479Y462*
X478*
X477Y463*
X447*
G37*
G36*
Y-474D02*
G01Y-463D01*
X477*
X478Y-462*
X479*
X480Y-461*
X481*
Y-460*
X482Y-459*
Y-458*
Y-457*
Y-427*
X494*
Y-459*
X520*
Y-470*
X496*
X495Y-471*
X494*
X493*
Y-472*
X492*
X491Y-473*
Y-474*
X490Y-475*
Y-476*
Y-500*
X478*
Y-474*
X447*
G37*
G36*
X-520Y459D02*
G01Y470D01*
X-496*
X-495Y471*
X-494*
X-493*
Y472*
X-492*
X-491Y473*
Y474*
X-490*
Y475*
Y476*
Y500*
X-478*
Y474*
X-447*
Y463*
X-477*
X-478Y462*
X-479*
X-480Y461*
X-481*
Y460*
X-482Y459*
Y458*
Y457*
Y427*
X-494*
Y459*
X-520*
G37*
G36*
Y-470D02*
G01Y-459D01*
X-494*
Y-427*
X-482*
Y-457*
Y-458*
Y-459*
X-481Y-460*
Y-461*
X-480*
X-479Y-462*
X-478*
X-477Y-463*
X-447*
Y-474*
X-478*
Y-500*
X-490*
Y-476*
Y-475*
Y-474*
X-491*
Y-473*
X-492Y-472*
X-493*
Y-471*
X-494*
X-495*
X-496Y-470*
X-520*
G37*
G36*
X-175Y364D02*
G01Y419D01*
X112*
Y364*
X-175*
G37*
G36*
X-276Y-337D02*
G01Y-330D01*
Y-328*
Y-327*
X-273Y-321*
X-272Y-319*
X-271*
X-267Y-314*
X-266*
X-265Y-313*
X-264*
X-258Y-310*
X-256*
X129*
X131*
X137Y-313*
X138*
X139Y-314*
X140*
X144Y-319*
X145*
X146Y-321*
X148Y-327*
X149Y-328*
Y-330*
Y-337*
Y-339*
X148Y-340*
X146Y-345*
Y-346*
X145Y-347*
X144Y-348*
X140Y-352*
X139Y-353*
X138Y-354*
X137*
X132Y-356*
X131Y-357*
X129*
X-256*
X-258*
X-259Y-356*
X-264Y-354*
X-265*
X-266Y-353*
X-267Y-352*
X-271Y-348*
X-272Y-347*
X-273Y-346*
Y-345*
X-276Y-340*
Y-339*
Y-337*
G37*
G36*
X171Y364D02*
G01Y419D01*
X413*
Y384*
X447*
Y171*
X392*
Y364*
X171*
G37*
G36*
X-350Y-263D02*
G01Y263D01*
X-285*
Y294*
X285*
Y263*
X350*
Y-263*
X285*
Y-294*
X-285*
Y-263*
X-350*
G37*
G36*
X-447Y-384D02*
G01Y384D01*
X-413*
Y419*
X-234*
Y364*
X-392*
Y-364*
X392*
Y144*
X447*
Y-384*
X413*
Y-419*
X-413*
Y-384*
X-447*
G37*
%LPC*%
G36*
X-276Y-226D02*
G01X276D01*
Y226*
X-276*
Y-226*
G37*
%LPD*%
M02*
