G04 CAM350/DFMSTREAM V12.2 (Build 1124) Date:  Wed Mar 06 16:06:52 2019 *
G04 Database: d:\cad\swi_source\new folder\airprime hl and wp series snap-in socket.cam *
G04 Layer 4: SOLDER_MASK *
%FSLAX23Y23*%
%MOIN*%
%SFA1.000B1.000*%

%MIA0B0*%
%IPPOS*%
%ADD13C,0.03543*%
%ADD14C,0.04331*%
%ADD16C,0.00591*%
%LNSOLDER_MASK*%
%LPD*%
G36*
X398Y335D02*
G01Y358D01*
X441*
Y335*
X398*
G37*
G36*
Y303D02*
G01Y327D01*
X441*
Y303*
X398*
G37*
G36*
Y272D02*
G01Y295D01*
X441*
Y272*
X398*
G37*
G36*
Y240D02*
G01Y264D01*
X441*
Y240*
X398*
G37*
G36*
Y209D02*
G01Y232D01*
X441*
Y209*
X398*
G37*
G36*
Y177D02*
G01Y201D01*
X441*
Y177*
X398*
G37*
G36*
Y114D02*
G01Y138D01*
X441*
Y114*
X398*
G37*
G36*
Y83D02*
G01Y106D01*
X441*
Y83*
X398*
G37*
G36*
Y51D02*
G01Y75D01*
X441*
Y51*
X398*
G37*
G36*
Y20D02*
G01Y43D01*
X441*
Y20*
X398*
G37*
G36*
Y-12D02*
G01Y12D01*
X441*
Y-12*
X398*
G37*
G36*
Y-43D02*
G01Y-20D01*
X441*
Y-43*
X398*
G37*
G36*
Y-75D02*
G01Y-51D01*
X441*
Y-75*
X398*
G37*
G36*
Y-106D02*
G01Y-83D01*
X441*
Y-106*
X398*
G37*
G36*
Y-138D02*
G01Y-114D01*
X441*
Y-138*
X398*
G37*
G36*
Y-169D02*
G01Y-146D01*
X441*
Y-169*
X398*
G37*
G36*
Y-201D02*
G01Y-177D01*
X441*
Y-201*
X398*
G37*
G36*
Y-232D02*
G01Y-209D01*
X441*
Y-232*
X398*
G37*
G36*
Y-264D02*
G01Y-240D01*
X441*
Y-264*
X398*
G37*
G36*
Y-295D02*
G01Y-272D01*
X441*
Y-295*
X398*
G37*
G36*
Y-327D02*
G01Y-303D01*
X441*
Y-327*
X398*
G37*
G36*
Y-358D02*
G01Y-335D01*
X441*
Y-358*
X398*
G37*
G36*
X366Y370D02*
G01Y413D01*
X390*
Y370*
X366*
G37*
G36*
Y-413D02*
G01Y-370D01*
X390*
Y-413*
X366*
G37*
G36*
X335Y370D02*
G01Y413D01*
X358*
Y370*
X335*
G37*
G36*
Y-413D02*
G01Y-370D01*
X358*
Y-413*
X335*
G37*
G36*
X303Y370D02*
G01Y413D01*
X327*
Y370*
X303*
G37*
G36*
Y-413D02*
G01Y-370D01*
X327*
Y-413*
X303*
G37*
G36*
X300Y209D02*
G01Y232D01*
X344*
Y209*
X300*
G37*
G36*
Y177D02*
G01Y201D01*
X344*
Y177*
X300*
G37*
G36*
Y146D02*
G01Y169D01*
X344*
Y146*
X300*
G37*
G36*
Y114D02*
G01Y138D01*
X344*
Y114*
X300*
G37*
G36*
Y83D02*
G01Y106D01*
X344*
Y83*
X300*
G37*
G36*
Y51D02*
G01Y75D01*
X344*
Y51*
X300*
G37*
G36*
Y20D02*
G01Y43D01*
X344*
Y20*
X300*
G37*
G36*
Y-12D02*
G01Y12D01*
X344*
Y-12*
X300*
G37*
G36*
Y-43D02*
G01Y-20D01*
X344*
Y-43*
X300*
G37*
G36*
Y-75D02*
G01Y-51D01*
X344*
Y-75*
X300*
G37*
G36*
Y-106D02*
G01Y-83D01*
X344*
Y-106*
X300*
G37*
G36*
Y-138D02*
G01Y-114D01*
X344*
Y-138*
X300*
G37*
G36*
Y-169D02*
G01Y-146D01*
X344*
Y-169*
X300*
G37*
G36*
Y-201D02*
G01Y-177D01*
X344*
Y-201*
X300*
G37*
G36*
Y-232D02*
G01Y-209D01*
X344*
Y-232*
X300*
G37*
G36*
X272Y370D02*
G01Y413D01*
X295*
Y370*
X272*
G37*
G36*
Y-413D02*
G01Y-370D01*
X295*
Y-413*
X272*
G37*
G36*
X256Y245D02*
G01Y289D01*
X280*
Y245*
X256*
G37*
G36*
Y-289D02*
G01Y-245D01*
X280*
Y-289*
X256*
G37*
G36*
X240Y370D02*
G01Y413D01*
X264*
Y370*
X240*
G37*
G36*
Y-413D02*
G01Y-370D01*
X264*
Y-413*
X240*
G37*
G36*
X224Y245D02*
G01Y289D01*
X248*
Y245*
X224*
G37*
G36*
Y-289D02*
G01Y-245D01*
X248*
Y-289*
X224*
G37*
G36*
X209Y370D02*
G01Y413D01*
X232*
Y370*
X209*
G37*
G36*
Y-413D02*
G01Y-370D01*
X232*
Y-413*
X209*
G37*
G36*
X193Y245D02*
G01Y289D01*
X217*
Y245*
X193*
G37*
G36*
Y-289D02*
G01Y-245D01*
X217*
Y-289*
X193*
G37*
G36*
X177Y370D02*
G01Y413D01*
X201*
Y370*
X177*
G37*
G36*
Y-413D02*
G01Y-370D01*
X201*
Y-413*
X177*
G37*
G36*
X161Y245D02*
G01Y289D01*
X185*
Y245*
X161*
G37*
G36*
Y-289D02*
G01Y-245D01*
X185*
Y-289*
X161*
G37*
G36*
X146Y-413D02*
G01Y-370D01*
X169*
Y-413*
X146*
G37*
G36*
X130Y245D02*
G01Y289D01*
X154*
Y245*
X130*
G37*
G36*
Y-289D02*
G01Y-245D01*
X154*
Y-289*
X130*
G37*
G36*
X114Y-413D02*
G01Y-370D01*
X138*
Y-413*
X114*
G37*
G36*
X98Y245D02*
G01Y289D01*
X122*
Y245*
X98*
G37*
G36*
Y-289D02*
G01Y-245D01*
X122*
Y-289*
X98*
G37*
G36*
X83Y370D02*
G01Y413D01*
X106*
Y370*
X83*
G37*
G36*
Y-413D02*
G01Y-370D01*
X106*
Y-413*
X83*
G37*
G36*
X67Y245D02*
G01Y289D01*
X91*
Y245*
X67*
G37*
G36*
Y-289D02*
G01Y-245D01*
X91*
Y-289*
X67*
G37*
G36*
X51Y370D02*
G01Y413D01*
X75*
Y370*
X51*
G37*
G36*
Y-413D02*
G01Y-370D01*
X75*
Y-413*
X51*
G37*
G36*
X35Y245D02*
G01Y289D01*
X59*
Y245*
X35*
G37*
G36*
Y-289D02*
G01Y-245D01*
X59*
Y-289*
X35*
G37*
G36*
X20Y370D02*
G01Y413D01*
X43*
Y370*
X20*
G37*
G36*
Y-413D02*
G01Y-370D01*
X43*
Y-413*
X20*
G37*
G36*
X4Y245D02*
G01Y289D01*
X28*
Y245*
X4*
G37*
G36*
Y-289D02*
G01Y-245D01*
X28*
Y-289*
X4*
G37*
G36*
X-12Y370D02*
G01Y413D01*
X12*
Y370*
X-12*
G37*
G36*
Y-413D02*
G01Y-370D01*
X12*
Y-413*
X-12*
G37*
G36*
X-28Y245D02*
G01Y289D01*
X-4*
Y245*
X-28*
G37*
G36*
Y-289D02*
G01Y-245D01*
X-4*
Y-289*
X-28*
G37*
G36*
X-43Y370D02*
G01Y413D01*
X-20*
Y370*
X-43*
G37*
G36*
Y-413D02*
G01Y-370D01*
X-20*
Y-413*
X-43*
G37*
G36*
X-59Y245D02*
G01Y289D01*
X-35*
Y245*
X-59*
G37*
G36*
Y-289D02*
G01Y-245D01*
X-35*
Y-289*
X-59*
G37*
G36*
X-75Y370D02*
G01Y413D01*
X-51*
Y370*
X-75*
G37*
G36*
Y-413D02*
G01Y-370D01*
X-51*
Y-413*
X-75*
G37*
G36*
X-91Y245D02*
G01Y289D01*
X-67*
Y245*
X-91*
G37*
G36*
Y-289D02*
G01Y-245D01*
X-67*
Y-289*
X-91*
G37*
G36*
X-106Y370D02*
G01Y413D01*
X-83*
Y370*
X-106*
G37*
G36*
Y-413D02*
G01Y-370D01*
X-83*
Y-413*
X-106*
G37*
G36*
X-122Y245D02*
G01Y289D01*
X-98*
Y245*
X-122*
G37*
G36*
Y-289D02*
G01Y-245D01*
X-98*
Y-289*
X-122*
G37*
G36*
X-138Y370D02*
G01Y413D01*
X-114*
Y370*
X-138*
G37*
G36*
Y-413D02*
G01Y-370D01*
X-114*
Y-413*
X-138*
G37*
G36*
X-154Y245D02*
G01Y289D01*
X-130*
Y245*
X-154*
G37*
G36*
Y-289D02*
G01Y-245D01*
X-130*
Y-289*
X-154*
G37*
G36*
X-169Y370D02*
G01Y413D01*
X-146*
Y370*
X-169*
G37*
G36*
Y-413D02*
G01Y-370D01*
X-146*
Y-413*
X-169*
G37*
G36*
X-185Y245D02*
G01Y289D01*
X-161*
Y245*
X-185*
G37*
G36*
Y-289D02*
G01Y-245D01*
X-161*
Y-289*
X-185*
G37*
G36*
X-201Y-413D02*
G01Y-370D01*
X-177*
Y-413*
X-201*
G37*
G36*
X-217Y245D02*
G01Y289D01*
X-193*
Y245*
X-217*
G37*
G36*
Y-289D02*
G01Y-245D01*
X-193*
Y-289*
X-217*
G37*
G36*
X-232Y-413D02*
G01Y-370D01*
X-209*
Y-413*
X-232*
G37*
G36*
X-248Y245D02*
G01Y289D01*
X-224*
Y245*
X-248*
G37*
G36*
Y-289D02*
G01Y-245D01*
X-224*
Y-289*
X-248*
G37*
G36*
X-264Y370D02*
G01Y413D01*
X-240*
Y370*
X-264*
G37*
G36*
Y-413D02*
G01Y-370D01*
X-240*
Y-413*
X-264*
G37*
G36*
X-280Y245D02*
G01Y289D01*
X-256*
Y245*
X-280*
G37*
G36*
Y-289D02*
G01Y-245D01*
X-256*
Y-289*
X-280*
G37*
G36*
X-295Y370D02*
G01Y413D01*
X-272*
Y370*
X-295*
G37*
G36*
Y-413D02*
G01Y-370D01*
X-272*
Y-413*
X-295*
G37*
G36*
X-327Y370D02*
G01Y413D01*
X-303*
Y370*
X-327*
G37*
G36*
Y-413D02*
G01Y-370D01*
X-303*
Y-413*
X-327*
G37*
G36*
X-344Y209D02*
G01Y232D01*
X-300*
Y209*
X-344*
G37*
G36*
Y177D02*
G01Y201D01*
X-300*
Y177*
X-344*
G37*
G36*
Y146D02*
G01Y169D01*
X-300*
Y146*
X-344*
G37*
G36*
Y114D02*
G01Y138D01*
X-300*
Y114*
X-344*
G37*
G36*
Y83D02*
G01Y106D01*
X-300*
Y83*
X-344*
G37*
G36*
Y51D02*
G01Y75D01*
X-300*
Y51*
X-344*
G37*
G36*
Y20D02*
G01Y43D01*
X-300*
Y20*
X-344*
G37*
G36*
Y-12D02*
G01Y12D01*
X-300*
Y-12*
X-344*
G37*
G36*
Y-43D02*
G01Y-20D01*
X-300*
Y-43*
X-344*
G37*
G36*
Y-75D02*
G01Y-51D01*
X-300*
Y-75*
X-344*
G37*
G36*
Y-106D02*
G01Y-83D01*
X-300*
Y-106*
X-344*
G37*
G36*
Y-138D02*
G01Y-114D01*
X-300*
Y-138*
X-344*
G37*
G36*
Y-169D02*
G01Y-146D01*
X-300*
Y-169*
X-344*
G37*
G36*
Y-201D02*
G01Y-177D01*
X-300*
Y-201*
X-344*
G37*
G36*
Y-232D02*
G01Y-209D01*
X-300*
Y-232*
X-344*
G37*
G36*
X-358Y370D02*
G01Y413D01*
X-335*
Y370*
X-358*
G37*
G36*
Y-413D02*
G01Y-370D01*
X-335*
Y-413*
X-358*
G37*
G36*
X-390Y370D02*
G01Y413D01*
X-366*
Y370*
X-390*
G37*
G36*
Y-413D02*
G01Y-370D01*
X-366*
Y-413*
X-390*
G37*
G36*
X-441Y335D02*
G01Y358D01*
X-398*
Y335*
X-441*
G37*
G36*
Y303D02*
G01Y327D01*
X-398*
Y303*
X-441*
G37*
G36*
Y272D02*
G01Y295D01*
X-398*
Y272*
X-441*
G37*
G36*
Y240D02*
G01Y264D01*
X-398*
Y240*
X-441*
G37*
G36*
Y209D02*
G01Y232D01*
X-398*
Y209*
X-441*
G37*
G36*
Y177D02*
G01Y201D01*
X-398*
Y177*
X-441*
G37*
G36*
Y146D02*
G01Y169D01*
X-398*
Y146*
X-441*
G37*
G36*
Y114D02*
G01Y138D01*
X-398*
Y114*
X-441*
G37*
G36*
Y83D02*
G01Y106D01*
X-398*
Y83*
X-441*
G37*
G36*
Y51D02*
G01Y75D01*
X-398*
Y51*
X-441*
G37*
G36*
Y20D02*
G01Y43D01*
X-398*
Y20*
X-441*
G37*
G36*
Y-12D02*
G01Y12D01*
X-398*
Y-12*
X-441*
G37*
G36*
Y-43D02*
G01Y-20D01*
X-398*
Y-43*
X-441*
G37*
G36*
Y-75D02*
G01Y-51D01*
X-398*
Y-75*
X-441*
G37*
G36*
Y-106D02*
G01Y-83D01*
X-398*
Y-106*
X-441*
G37*
G36*
Y-138D02*
G01Y-114D01*
X-398*
Y-138*
X-441*
G37*
G36*
Y-169D02*
G01Y-146D01*
X-398*
Y-169*
X-441*
G37*
G36*
Y-201D02*
G01Y-177D01*
X-398*
Y-201*
X-441*
G37*
G36*
Y-232D02*
G01Y-209D01*
X-398*
Y-232*
X-441*
G37*
G36*
Y-264D02*
G01Y-240D01*
X-398*
Y-264*
X-441*
G37*
G36*
Y-295D02*
G01Y-272D01*
X-398*
Y-295*
X-441*
G37*
G36*
Y-327D02*
G01Y-303D01*
X-398*
Y-327*
X-441*
G37*
G36*
Y-358D02*
G01Y-335D01*
X-398*
Y-358*
X-441*
G37*
G36*
X402Y370D02*
G01Y413D01*
X441*
Y370*
X402*
G37*
G36*
Y-413D02*
G01Y-370D01*
X441*
Y-413*
X402*
G37*
G36*
X-441Y370D02*
G01Y413D01*
X-402*
Y370*
X-441*
G37*
G36*
Y-413D02*
G01Y-370D01*
X-402*
Y-413*
X-441*
G37*
G36*
X300Y245D02*
G01Y289D01*
X344*
Y245*
X300*
G37*
G36*
Y-289D02*
G01Y-245D01*
X344*
Y-289*
X300*
G37*
G36*
X230Y182D02*
G01Y225D01*
X273*
Y182*
X230*
G37*
G36*
Y124D02*
G01Y167D01*
X273*
Y124*
X230*
G37*
G36*
Y65D02*
G01Y109D01*
X273*
Y65*
X230*
G37*
G36*
Y7D02*
G01Y51D01*
X273*
Y7*
X230*
G37*
G36*
Y-51D02*
G01Y-7D01*
X273*
Y-51*
X230*
G37*
G36*
Y-109D02*
G01Y-65D01*
X273*
Y-109*
X230*
G37*
G36*
Y-167D02*
G01Y-124D01*
X273*
Y-167*
X230*
G37*
G36*
Y-225D02*
G01Y-182D01*
X273*
Y-225*
X230*
G37*
G36*
X158Y182D02*
G01Y225D01*
X201*
Y182*
X158*
G37*
G36*
Y124D02*
G01Y167D01*
X201*
Y124*
X158*
G37*
G36*
Y65D02*
G01Y109D01*
X201*
Y65*
X158*
G37*
G36*
Y7D02*
G01Y51D01*
X201*
Y7*
X158*
G37*
G36*
Y-51D02*
G01Y-7D01*
X201*
Y-51*
X158*
G37*
G36*
Y-109D02*
G01Y-65D01*
X201*
Y-109*
X158*
G37*
G36*
Y-167D02*
G01Y-124D01*
X201*
Y-167*
X158*
G37*
G36*
Y-225D02*
G01Y-182D01*
X201*
Y-225*
X158*
G37*
G36*
X86Y182D02*
G01Y225D01*
X129*
Y182*
X86*
G37*
G36*
Y124D02*
G01Y167D01*
X129*
Y124*
X86*
G37*
G36*
Y65D02*
G01Y109D01*
X129*
Y65*
X86*
G37*
G36*
Y7D02*
G01Y51D01*
X129*
Y7*
X86*
G37*
G36*
Y-51D02*
G01Y-7D01*
X129*
Y-51*
X86*
G37*
G36*
Y-109D02*
G01Y-65D01*
X129*
Y-109*
X86*
G37*
G36*
Y-167D02*
G01Y-124D01*
X129*
Y-167*
X86*
G37*
G36*
Y-225D02*
G01Y-182D01*
X129*
Y-225*
X86*
G37*
G36*
X14Y182D02*
G01Y225D01*
X58*
Y182*
X14*
G37*
G36*
Y124D02*
G01Y167D01*
X58*
Y124*
X14*
G37*
G36*
Y65D02*
G01Y109D01*
X58*
Y65*
X14*
G37*
G36*
Y7D02*
G01Y51D01*
X58*
Y7*
X14*
G37*
G36*
Y-51D02*
G01Y-7D01*
X58*
Y-51*
X14*
G37*
G36*
Y-109D02*
G01Y-65D01*
X58*
Y-109*
X14*
G37*
G36*
Y-167D02*
G01Y-124D01*
X58*
Y-167*
X14*
G37*
G36*
Y-225D02*
G01Y-182D01*
X58*
Y-225*
X14*
G37*
G36*
X-58Y182D02*
G01Y225D01*
X-14*
Y182*
X-58*
G37*
G36*
Y124D02*
G01Y167D01*
X-14*
Y124*
X-58*
G37*
G36*
Y65D02*
G01Y109D01*
X-14*
Y65*
X-58*
G37*
G36*
Y7D02*
G01Y51D01*
X-14*
Y7*
X-58*
G37*
G36*
Y-51D02*
G01Y-7D01*
X-14*
Y-51*
X-58*
G37*
G36*
Y-109D02*
G01Y-65D01*
X-14*
Y-109*
X-58*
G37*
G36*
Y-167D02*
G01Y-124D01*
X-14*
Y-167*
X-58*
G37*
G36*
Y-225D02*
G01Y-182D01*
X-14*
Y-225*
X-58*
G37*
G36*
X-129Y182D02*
G01Y225D01*
X-86*
Y182*
X-129*
G37*
G36*
Y124D02*
G01Y167D01*
X-86*
Y124*
X-129*
G37*
G36*
Y65D02*
G01Y109D01*
X-86*
Y65*
X-129*
G37*
G36*
Y7D02*
G01Y51D01*
X-86*
Y7*
X-129*
G37*
G36*
Y-51D02*
G01Y-7D01*
X-86*
Y-51*
X-129*
G37*
G36*
Y-109D02*
G01Y-65D01*
X-86*
Y-109*
X-129*
G37*
G36*
Y-167D02*
G01Y-124D01*
X-86*
Y-167*
X-129*
G37*
G36*
Y-225D02*
G01Y-182D01*
X-86*
Y-225*
X-129*
G37*
G36*
X-201Y182D02*
G01Y225D01*
X-158*
Y182*
X-201*
G37*
G36*
Y124D02*
G01Y167D01*
X-158*
Y124*
X-201*
G37*
G36*
Y65D02*
G01Y109D01*
X-158*
Y65*
X-201*
G37*
G36*
Y7D02*
G01Y51D01*
X-158*
Y7*
X-201*
G37*
G36*
Y-51D02*
G01Y-7D01*
X-158*
Y-51*
X-201*
G37*
G36*
Y-109D02*
G01Y-65D01*
X-158*
Y-109*
X-201*
G37*
G36*
Y-167D02*
G01Y-124D01*
X-158*
Y-167*
X-201*
G37*
G36*
Y-225D02*
G01Y-182D01*
X-158*
Y-225*
X-201*
G37*
G36*
X-273Y182D02*
G01Y225D01*
X-230*
Y182*
X-273*
G37*
G36*
Y124D02*
G01Y167D01*
X-230*
Y124*
X-273*
G37*
G36*
Y65D02*
G01Y109D01*
X-230*
Y65*
X-273*
G37*
G36*
Y7D02*
G01Y51D01*
X-230*
Y7*
X-273*
G37*
G36*
Y-51D02*
G01Y-7D01*
X-230*
Y-51*
X-273*
G37*
G36*
Y-109D02*
G01Y-65D01*
X-230*
Y-109*
X-273*
G37*
G36*
Y-167D02*
G01Y-124D01*
X-230*
Y-167*
X-273*
G37*
G36*
Y-225D02*
G01Y-182D01*
X-230*
Y-225*
X-273*
G37*
G36*
X-344Y245D02*
G01Y289D01*
X-300*
Y245*
X-344*
G37*
G36*
Y-289D02*
G01Y-245D01*
X-300*
Y-289*
X-344*
G37*
G36*
X492Y185D02*
G01Y319D01*
X543*
Y185*
X492*
G37*
G36*
Y-67D02*
G01Y67D01*
X543*
Y-67*
X492*
G37*
G36*
Y-319D02*
G01Y-185D01*
X543*
Y-319*
X492*
G37*
G36*
X248Y472D02*
G01Y524D01*
X382*
Y472*
X248*
G37*
G36*
Y-524D02*
G01Y-472D01*
X382*
Y-524*
X248*
G37*
G36*
X-67Y472D02*
G01Y524D01*
X67*
Y472*
X-67*
G37*
G36*
Y-524D02*
G01Y-472D01*
X67*
Y-524*
X-67*
G37*
G36*
X-382Y472D02*
G01Y524D01*
X-248*
Y472*
X-382*
G37*
G36*
Y-524D02*
G01Y-472D01*
X-248*
Y-524*
X-382*
G37*
G36*
X-543Y185D02*
G01Y319D01*
X-492*
Y185*
X-543*
G37*
G36*
Y-67D02*
G01Y67D01*
X-492*
Y-67*
X-543*
G37*
G36*
Y-319D02*
G01Y-185D01*
X-492*
Y-319*
X-543*
G37*
G36*
X492Y370D02*
G01Y461D01*
X571*
Y370*
X492*
G37*
G36*
Y-461D02*
G01Y-370D01*
X571*
Y-461*
X492*
G37*
G36*
X390Y472D02*
G01Y551D01*
X480*
Y472*
X390*
G37*
G36*
Y-551D02*
G01Y-472D01*
X480*
Y-551*
X390*
G37*
G36*
X-480Y472D02*
G01Y551D01*
X-390*
Y472*
X-480*
G37*
G36*
Y-551D02*
G01Y-472D01*
X-390*
Y-551*
X-480*
G37*
G36*
X-571Y370D02*
G01Y461D01*
X-492*
Y370*
X-571*
G37*
G36*
Y-461D02*
G01Y-370D01*
X-492*
Y-461*
X-571*
G37*
G54D13*
X126Y-334D03*
X79D03*
X31D03*
X-16D03*
X-63D03*
X-110D03*
X-157D03*
X-205D03*
X-252D03*
G54D14*
X-322Y-326D03*
G54D16*
X401Y-436D02*
G01X456D01*
Y-369*
X-401Y-436D02*
G01X-456D01*
Y-369*
X-401Y436D02*
G01X-456D01*
Y369*
X401Y436D02*
G01X456D01*
Y369*
M02*
